<svg xmlns="http://www.w3.org/2000/svg" width="50" height="50" viewBox="0 0 50 50"><g fill="none" fill-rule="evenodd" transform="translate(0 7)"><g fill-rule="nonzero" transform="translate(27.053 .633)"><path fill="#FFF" d="M14.168311,17.91445 L15.080992,18.8602102 L14.1336855,19.7750135 L13.0172857,18.619679 C13.4034917,18.4078775 13.7880133,18.1727973 14.168311,17.91445 Z M14.7915674,4.4813527 C15.414269,4.45234686 15.9863524,4.51825828 16.4813382,4.67877171 L15.0336864,6.07728891 L16.8646864,7.97428891 L18.3135081,6.57593122 C18.4567607,7.07652297 18.5026534,7.65096115 18.4517966,8.2727204 L17.7796864,8.92128891 L18.2605832,9.41836552 C18.1479315,9.87492754 17.9903068,10.3462595 17.7879033,10.8239076 L16.8326864,9.83628891 L14.4956864,12.0922889 L16.0423412,13.6922323 C15.7709525,14.0269808 15.4769673,14.3563554 15.1604562,14.6772859 L13.5486864,13.0072889 L11.4166864,15.0652889 L12.8554757,16.5550147 C12.4622957,16.8077696 12.0663039,17.0317013 11.6718816,17.2268619 L10.4686864,15.9812889 L8.15719172,18.2150298 C7.53377428,18.2442687 6.96104505,18.178405 6.46556103,18.0177547 L9.55468641,15.0342889 L7.72268641,13.1372889 L4.63352065,16.1215343 C4.49013606,15.6210265 4.44411687,15.046651 4.49485277,14.4249351 L6.80868641,12.1902889 L5.60552456,10.9441953 C5.81422334,10.5570699 6.05169375,10.1693826 6.3178352,9.78550555 L7.75668641,11.2752889 L9.88768641,9.21628891 L8.27563155,7.54666622 C8.60699185,7.24197124 8.94598332,6.96002397 9.28954703,6.70078801 L10.8346864,8.30228891 L13.1716864,6.04528891 L12.2172931,5.05603154 C12.7018586,4.87033908 13.1785473,4.72920327 13.6388964,4.63252338 L14.1186864,5.13028891 Z M17.341162,15.0372902 L17.9365784,15.6553299 L16.9892719,16.5701332 L16.4513098,16.0129348 C16.7671118,15.6946883 17.0637546,15.368828 17.341162,15.0372902 Z M10.8026864,10.1632889 L8.67068641,12.2222889 L10.5026864,14.1192889 L12.6346864,12.0602889 L10.8026864,10.1632889 Z M19.7308237,10.9413049 L20.9901506,12.2459545 L20.042844,13.1607578 L19.1701912,12.2572901 C19.3880814,11.818023 19.57501,11.3780643 19.7308237,10.9413049 Z M14.0866864,6.99228891 L11.7496864,9.24928891 L13.5806864,11.1452889 L15.9176864,8.88828891 L14.0866864,6.99228891 Z M4.08887969,7.47754461 L5.00451281,8.42674163 C4.73357025,8.79714419 4.48565173,9.17256003 4.26085679,9.55046519 L3.14157313,8.39234792 L4.08887969,7.47754461 Z M20.917686,4.06135635 L21.8324893,5.00866291 L20.206008,6.57947918 C20.1138525,6.08023743 19.9624145,5.61288534 19.7513008,5.18739218 L20.917686,4.06135635 Z M6.94446606,4.27266434 L7.98984206,5.35645335 C7.64928464,5.62183173 7.3137198,5.90658136 6.98507759,6.21069353 L5.9971595,5.18746765 L6.94446606,4.27266434 Z M10.1716735,1.04266473 L12.1677582,3.11017233 C11.7262371,3.25053954 11.2804422,3.42183319 10.8342565,3.62403576 L9.05073167,1.77809221 L9.50519622,1.33882988 C9.72680343,1.23406559 9.94906155,1.13532972 10.1716735,1.04266473 Z M18.1696579,1.21943668 L19.0844612,2.16674324 L17.9197043,3.29054874 C17.5021248,3.06482433 17.0406816,2.89720526 16.5453329,2.78764667 L18.1696579,1.21943668 Z"/><path fill="#639AEB" d="M15.1862541,0.000582816829 L15.4636124,0.0072516473 C17.581126,0.0869598597 19.4894709,0.824659344 20.8798849,2.26447518 C24.5070519,6.02051649 23.2360127,13.1323289 18.0409395,18.1491527 C12.8458664,23.1659766 5.69402767,24.1880428 2.06686073,20.4320015 C-1.5603062,16.6759602 -0.289267056,9.56414777 4.90580612,4.54732391 C7.93626548,1.62084333 11.6325687,0.0536900097 14.9066757,0.00135526563 L15.1862541,0.000582816829 Z M6.73782485,6.44443484 C2.48098842,10.555214 1.49858977,16.0520037 3.96147385,18.6023948 C4.89086406,19.5648066 6.25668609,20.0515535 7.8259566,20.0636857 L8.06284391,20.0619461 C10.6052965,20.0054235 13.6387554,18.7340217 16.2089208,16.2520418 C20.4657572,12.1412627 21.4481559,6.64447292 18.9852718,4.0940818 C18.1023511,3.17979064 16.8255507,2.69478697 15.3546246,2.63817047 L15.1207891,2.6327909 C12.5314927,2.61277273 9.38830791,3.8848931 6.73782485,6.44443484 Z"/></g><g fill-rule="nonzero" transform="matrix(-1 0 0 1 22.947 0)"><path fill="#FFF" d="M14.168311,17.91445 L15.080992,18.8602102 L14.1336855,19.7750135 L13.0172857,18.619679 C13.4034917,18.4078775 13.7880133,18.1727973 14.168311,17.91445 Z M14.7915674,4.4813527 C15.414269,4.45234686 15.9863524,4.51825828 16.4813382,4.67877171 L15.0336864,6.07728891 L16.8646864,7.97428891 L18.3135081,6.57593122 C18.4567607,7.07652297 18.5026534,7.65096115 18.4517966,8.2727204 L17.7796864,8.92128891 L18.2605832,9.41836552 C18.1479315,9.87492754 17.9903068,10.3462595 17.7879033,10.8239076 L16.8326864,9.83628891 L14.4956864,12.0922889 L16.0423412,13.6922323 C15.7709525,14.0269808 15.4769673,14.3563554 15.1604562,14.6772859 L13.5486864,13.0072889 L11.4166864,15.0652889 L12.8554757,16.5550147 C12.4622957,16.8077696 12.0663039,17.0317013 11.6718816,17.2268619 L10.4686864,15.9812889 L8.15719172,18.2150298 C7.53377428,18.2442687 6.96104505,18.178405 6.46556103,18.0177547 L9.55468641,15.0342889 L7.72268641,13.1372889 L4.63352065,16.1215343 C4.49013606,15.6210265 4.44411687,15.046651 4.49485277,14.4249351 L6.80868641,12.1902889 L5.60552456,10.9441953 C5.81422334,10.5570699 6.05169375,10.1693826 6.3178352,9.78550555 L7.75668641,11.2752889 L9.88768641,9.21628891 L8.27563155,7.54666622 C8.60699185,7.24197124 8.94598332,6.96002397 9.28954703,6.70078801 L10.8346864,8.30228891 L13.1716864,6.04528891 L12.2172931,5.05603154 C12.7018586,4.87033908 13.1785473,4.72920327 13.6388964,4.63252338 L14.1186864,5.13028891 Z M17.341162,15.0372902 L17.9365784,15.6553299 L16.9892719,16.5701332 L16.4513098,16.0129348 C16.7671118,15.6946883 17.0637546,15.368828 17.341162,15.0372902 Z M10.8026864,10.1632889 L8.67068641,12.2222889 L10.5026864,14.1192889 L12.6346864,12.0602889 L10.8026864,10.1632889 Z M19.7308237,10.9413049 L20.9901506,12.2459545 L20.042844,13.1607578 L19.1701912,12.2572901 C19.3880814,11.818023 19.57501,11.3780643 19.7308237,10.9413049 Z M14.0866864,6.99228891 L11.7496864,9.24928891 L13.5806864,11.1452889 L15.9176864,8.88828891 L14.0866864,6.99228891 Z M4.08887969,7.47754461 L5.00451281,8.42674163 C4.73357025,8.79714419 4.48565173,9.17256003 4.26085679,9.55046519 L3.14157313,8.39234792 L4.08887969,7.47754461 Z M20.917686,4.06135635 L21.8324893,5.00866291 L20.206008,6.57947918 C20.1138525,6.08023743 19.9624145,5.61288534 19.7513008,5.18739218 L20.917686,4.06135635 Z M6.94446606,4.27266434 L7.98984206,5.35645335 C7.64928464,5.62183173 7.3137198,5.90658136 6.98507759,6.21069353 L5.9971595,5.18746765 L6.94446606,4.27266434 Z M10.1716735,1.04266473 L12.1677582,3.11017233 C11.7262371,3.25053954 11.2804422,3.42183319 10.8342565,3.62403576 L9.05073167,1.77809221 L9.50519622,1.33882988 C9.72680343,1.23406559 9.94906155,1.13532972 10.1716735,1.04266473 Z M18.1696579,1.21943668 L19.0844612,2.16674324 L17.9197043,3.29054874 C17.5021248,3.06482433 17.0406816,2.89720526 16.5453329,2.78764667 L18.1696579,1.21943668 Z"/><path fill="#639AEB" d="M15.1862541,0.000582816829 L15.4636124,0.0072516473 C17.581126,0.0869598597 19.4894709,0.824659344 20.8798849,2.26447518 C24.5070519,6.02051649 23.2360127,13.1323289 18.0409395,18.1491527 C12.8458664,23.1659766 5.69402767,24.1880428 2.06686073,20.4320015 C-1.5603062,16.6759602 -0.289267056,9.56414777 4.90580612,4.54732391 C7.93626548,1.62084333 11.6325687,0.0536900097 14.9066757,0.00135526563 L15.1862541,0.000582816829 Z M6.73782485,6.44443484 C2.48098842,10.555214 1.49858977,16.0520037 3.96147385,18.6023948 C4.89086406,19.5648066 6.25668609,20.0515535 7.8259566,20.0636857 L8.06284391,20.0619461 C10.6052965,20.0054235 13.6387554,18.7340217 16.2089208,16.2520418 C20.4657572,12.1412627 21.4481559,6.64447292 18.9852718,4.0940818 C18.1023511,3.17979064 16.8255507,2.69478697 15.3546246,2.63817047 L15.1207891,2.6327909 C12.5314927,2.61277273 9.38830791,3.8848931 6.73782485,6.44443484 Z"/></g><path fill="#639AEB" d="M28.8117665,18.9999964 L31.1017899,21.3682628 L24.8237225,27.4219964 L22.5357225,25.0529964 L28.8117665,18.9999964 Z"/><path fill="#FFF" d="M17.169963,26.0226968 L20.4643352,26.0205279 L20.4589562,34.191112 C20.458357,35.1011784 19.720752,35.8387834 18.8106857,35.8393826 C17.9021669,35.8399807 17.1651821,35.1039657 17.164584,34.1954469 C17.1645835,34.1947249 17.1645835,34.1940029 17.164584,34.1932809 L17.169963,26.0226968 L17.169963,26.0226968 Z" transform="rotate(46 18.814 30.93)"/><path fill="#639AEB" d="M24.8814673,22.7871905 L27.1747211,25.158534 L24.805438,27.4462408 L22.5034673,25.0661905 L24.8814673,22.7871905 Z M21.113747,18.8901905 L23.5914673,21.4531905 L21.2134673,23.7321905 L18.7424673,21.1770936 L21.113747,18.8901905 Z"/><path fill="#FFF" d="M29.0447518,26.2544009 L32.3392755,26.252232 L32.3338966,34.422289 C32.3332974,35.3323973 31.5956585,36.0700362 30.6855502,36.0706353 C29.7769897,36.0712335 29.039971,35.3351845 29.0393729,34.426624 C29.0393724,34.425902 29.0393724,34.42518 29.0393729,34.4244579 L29.0447518,26.2544009 L29.0447518,26.2544009 Z" transform="scale(-1 1) rotate(44 0 -44.795)"/></g></svg>