<svg xmlns="http://www.w3.org/2000/svg" width="50" height="50" viewBox="0 0 50 50"><g fill="none" fill-rule="evenodd" transform="translate(0 4)"><polygon fill="#FFF" points="44.446 33.396 50 33.396 50 35.895 44.446 35.895"/><polygon fill="#000" points="44.446 33.396 50 33.396 50 35.895 44.446 35.895" opacity=".296"/><path fill="#639AEB" fill-rule="nonzero" d="M36.9304838,27.9748374 C42.2881259,27.9748374 46.8275923,30.7644292 46.8275923,34.6454374 C46.8275923,38.5264456 42.2881259,41.3160374 36.9304838,41.3160374 C31.5728417,41.3160374 27.0333752,38.5264456 27.0333752,34.6454374 C27.0333752,30.7644292 31.5728417,27.9748374 36.9304838,27.9748374 Z M36.9304838,31.0352846 C33.0485484,31.0352846 30.0978573,32.8485426 30.0978573,34.6454374 C30.0978573,36.4423322 33.0485484,38.2555902 36.9304838,38.2555902 C40.8124192,38.2555902 43.7631103,36.4423322 43.7631103,34.6454374 C43.7631103,32.8485426 40.8124192,31.0352846 36.9304838,31.0352846 Z"/><rect width="5" height="2.499" x="22.568" y="33.396" fill="#FFF"/><polygon fill="#FFF" points="0 33.396 5.576 33.396 5.576 35.895 0 35.895"/><path fill="#639AEB" fill-rule="nonzero" d="M13.2046978,27.9748374 C18.5623399,27.9748374 23.1018063,30.7644292 23.1018063,34.6454374 C23.1018063,38.5264456 18.5623399,41.3160374 13.2046978,41.3160374 C7.84705564,41.3160374 3.30758923,38.5264456 3.30758923,34.6454374 C3.30758923,30.7644292 7.84705564,27.9748374 13.2046978,27.9748374 Z M13.2046978,31.0352846 C9.32276236,31.0352846 6.37207126,32.8485426 6.37207126,34.6454374 C6.37207126,36.4423322 9.32276236,38.2555902 13.2046978,38.2555902 C17.0866332,38.2555902 20.0373243,36.4423322 20.0373243,34.6454374 C20.0373243,32.8485426 17.0866332,31.0352846 13.2046978,31.0352846 Z"/><path fill="#639AEB" d="M50,24.7974198 C50,25.0990702 49.9946068,25.3994626 49.9839113,25.698506 C45.9255486,23.9749437 40.9353748,22.6707102 35.376517,21.9445142 L35.3616865,21.5836526 C35.0543345,14.3529891 36.5098375,9.0936663 39.7004409,4.86205847 L39.7860538,4.74963505 C45.9773998,9.25929752 50,16.5592129 50,24.7974198 Z"/><path fill="#000" d="M43.4589459,8.02543155 C47.5206234,12.4403276 50,18.3297102 50,24.7974198 C50,25.0990702 49.9946068,25.3994626 49.9839113,25.698506 C47.3889913,24.596459 44.4131159,23.6658476 41.1512096,22.9481596 C40.4004885,19.9831922 41.1880577,12.3198095 43.4589459,8.02543155 Z" opacity=".285"/><path fill="#639AEB" d="M10.9062517 4.49717321 10.9745821 4.59462883C13.9103672 8.71680719 15.2586229 13.8237266 14.9831137 20.7388664L14.9237071 21.95072 14.4896548 22.0078879C9.12085472 22.74514 4.29860053 24.0235026.355913076 25.6971063.345169039 25.3994626.339775805 25.0990702.339775805 24.7974198.339775805 16.4035363 4.51584182 8.98374098 10.9062517 4.49717321ZM25.1698879 0C29.8083668 0 34.1497807 1.27021162 37.8643993 3.4813387 34.6323077 7.76797127 32.8386151 13.2064627 33.0387164 20.9037089L33.0653931 21.6810036C30.526529 21.4280251 27.8836083 21.2952488 25.1698879 21.2952488 22.8979394 21.2952488 20.6756156 21.388314 18.5217021 21.5662158L17.2377135 21.6830715 17.279658 20.8301233C17.5879474 13.0922205 15.9309791 7.59378265 12.8475168 3.26424868 16.2765201 1.302755 20.2195472.134675714 24.4250642.0109431194L25.1698879 0Z"/></g></svg>