<svg xmlns="http://www.w3.org/2000/svg" width="50" height="50" viewBox="0 0 50 50"><g fill="none" fill-rule="evenodd" transform="matrix(-1 0 0 1 50 4)"><path fill="#83B3F9" d="M38.5531912,28.5736737 L38.9878094,28.7972882 L39.2543541,28.8802296 L39.975693,29.1278642 C46.2088778,31.3124411 51.8665669,34.461751 49.4148535,35.9292648 L48.6113951,36.1195731 L46.6651437,36.4102002 C45.0315143,36.7468268 43.5095674,36.9966462 42.0858788,37.1578257 C39.4740709,37.3757693 37.3357463,37.3712286 35.5532677,37.1956885 L35.2943633,37.1588067 L35.4852387,37.1888885 C31.8191779,36.6441349 28.9845546,35.1566886 26.5225371,32.7997121 C26.3548679,32.6336501 26.1882897,32.4646923 26.0230513,32.2911733 L26.0054378,32.2864443 C29.3468904,33.1147629 31.3613852,32.4826766 33.6919589,30.6052867 L34.052263,30.3076313 C35.69603,28.9255219 36.7257692,28.4065275 38.5531912,28.5736737 Z"/><path fill="#000" d="M26.5422368,32.8185451 L26.0202924,32.2882756 L26.0020184,32.2829276 C27.4819538,32.6513159 28.7006973,32.7328253 29.8019955,32.5467717 L29.9880663,32.5102728 L31.1700693,33.2370325 C33.4245916,34.57834 38.1975986,36.7920441 49.4148535,35.9292648 L48.5954082,36.1219787 L46.6651437,36.4102002 C45.0448433,36.7440802 43.5344105,36.9925637 42.1207468,37.1538627 C39.5106026,37.3744025 37.3713334,37.3720822 35.5874123,37.1990259 L35.2709248,37.1553676 L35.4852387,37.1888885 C31.8289519,36.6455873 28.9996751,35.1646132 26.5422368,32.8185451 Z" opacity=".249"/><path fill="#83B3F9" d="M14.155015,12.6492824 C15.6146951,13.8207447 16.970059,14.2165197 19.1125764,14.398045 L19.5677977,14.4327568 C21.0604306,14.5350761 21.6829264,14.6505848 22.4286397,15.0500356 C23.028571,15.3713964 23.5968575,15.8663795 24.1692808,16.6010557 C24.7801641,17.3850935 24.9550421,18.2623414 24.9730087,20.3944035 L24.9726596,22.1264515 C24.9843872,24.0002096 25.0890487,25.071228 25.439535,26.3694238 C25.8175649,27.7696403 26.4558816,29.0388602 27.4143141,30.1976328 C26.4243637,30.0278794 25.2392182,29.6504659 23.728453,29.0530536 L23.2939868,28.8793534 L21.7978989,26.8208184 L21.4358243,26.345218 C19.6958991,24.1074493 17.9346173,22.2224034 15.897105,20.3941937 L14.9366768,19.5528963 C14.490944,19.1714715 14.0084357,18.7700432 13.4427222,18.3086773 L11.2261851,16.5018934 L10.8151213,16.1549054 L10.6305662,16.2669311 C12.1188458,15.4172714 13.3442934,14.1608239 14.155015,12.6492824 Z"/><path fill="#6287BA" d="M13.1503686,14.1430174 L12.8912914,13.7947259 L13.5473291,14.6668631 C18.3689105,20.971066 25.6461708,28.3321522 27.3906765,30.1916179 C26.5131219,30.0401381 25.4852159,29.7262146 24.2159284,29.2424437 L23.2939868,28.8810828 L21.7978989,26.8208184 L21.4358243,26.345218 C19.6958991,24.1074493 17.9346173,22.2224034 15.897105,20.3941937 L14.9366768,19.5528963 C14.490944,19.1714715 14.0084357,18.7700432 13.4427222,18.3086773 L11.2261851,16.5018934 L10.8135848,16.1535914 L10.6305662,16.2669311 C11.457196,15.7950077 12.2027425,15.1975908 12.841179,14.500673 L13.1503686,14.1430174 Z"/><path fill="#83B3F9" d="M18.6353484,0.459124942 L18.6195131,0.504291534 C18.459655,1.10879054 18.3756146,1.7353093 18.3756146,2.37734678 C18.3756146,7.40664033 23.5324279,11.4836883 29.8936796,11.4836883 C30.4887626,11.4836883 31.0733053,11.448009 31.6440721,11.3792087 L37.375325,26.2709075 L37.1562548,26.2807122 C35.6285674,26.375724 31.180891,29.6883184 30.5696311,29.9125664 C29.1549308,28.6412178 28.0164117,27.0468952 27.5764773,25.4173852 C27.2680176,24.2748555 27.1738379,23.3002066 27.1636042,21.5390922 L27.1642382,19.8295925 L27.1480679,19.0039569 C27.0828718,17.0740346 26.8175486,16.1056968 26.0292634,15.0939728 C25.3270898,14.1927687 24.5927337,13.5531374 23.7913385,13.1238598 C22.8664489,12.6284309 22.1235205,12.4656668 20.6733302,12.3516075 L20.2955334,12.3239431 C17.8418147,12.1557416 16.6747678,11.8016793 15.1075325,10.3152339 L15.0343733,10.2416378 C15.1626931,9.63313804 15.230178,9.00225579 15.230178,8.35563233 C15.230178,5.60031722 14.0048663,3.13081218 12.0687455,1.46094246 L11.9780215,1.61478094 C12.7370747,0.0344338827 17.4274154,-0.457640842 18.6353484,0.459124942 Z" opacity=".805"/><path fill="#83B3F9" d="M10.2592122,3.02159079 C11.8501878,4.25714804 12.8737544,6.18701418 12.8737544,8.35563233 C12.8737544,11.0560853 11.2865855,13.3863232 8.99304384,14.4667096 C7.52160631,12.9618439 6.56162577,11.5235164 5.69808487,9.62183185 L5.098769,8.30087438 L5.15887298,8.19943689 C6.3578291,6.25940142 7.94364012,4.81260907 9.4676921,3.56494669 L10.2592122,3.02159079 Z"/><path fill="#6287BA" d="M9.4676921,3.56494669 L9.91882412,5.24635702 C10.5985296,7.7000176 11.2917688,9.84563107 11.9985415,11.6831975 C11.311634,12.89161 10.2603336,13.8696531 8.99345451,14.4665169 C7.52160631,12.9618439 6.56162577,11.5235164 5.69808487,9.62183185 L5.098769,8.30139756 L5.15887298,8.19943689 C6.3578291,6.25940142 7.94364012,4.81260907 9.4676921,3.56494669 Z"/><path fill="#FFF" d="M28.4729196 6.25203793C29.7968894 6.25203793 31.2098007 7.30441423 31.2385981 9.22377416 28.119452 9.54287672 25.8711118 8.8107689 24.3237405 8.2497617 26.1875883 6.91794585 27.570648 6.25203793 28.4729196 6.25203793ZM3.55202716 10.5937763C4.99619579 13.7741157 6.72318848 15.8130638 9.73616289 18.3250216L11.9522516 20.1314398C12.8809474 20.8888349 13.5999296 21.4966386 14.3222342 22.1447448 16.200149 23.8297516 17.8766016 25.6046568 19.5615964 27.7716238L19.890147 28.2021873 20.7344904 29.3652067 20.7240336 29.3804281 20.7669257 29.4102675 21.9287761 31.0163503C22.103005 31.254863 22.2533823 31.4587033 22.3586901 31.5977386 27.7245158 38.6821019 34.336803 41.3539448 47.0125743 38.7378019L47.1668606 38.7148328C36.3417713 46.8004727 22.0439833 39.6353512 18.72659 32.8762666 16.3711897 28.2676801 13.2855313 26.2684849 10.1920577 24.5481711L8.28419642 23.4993615C6.56724064 22.544912 4.89453985 21.5272526 3.3929666 20.0371084-.964910618 16.300233-1.24778715 12.5081008 3.25976334 10.7036956L3.55202716 10.5937763Z"/></g></svg>