<svg xmlns="http://www.w3.org/2000/svg" width="50" height="50" viewBox="0 0 50 50"><g fill="none" fill-rule="evenodd"><path fill="#FBE76A" d="M31.133628,18.1390909 C37.2599201,25.3706785 38.0593706,32.1217254 35.8246524,44.764479 L36.0412123,44.4816332 C33.6075286,47.8658056 27.7756608,49.5687104 26.6869105,48.5496883 L27.0769257,47.7126089 L27.2782687,47.3194607 L27.8504792,46.1442295 C30.3045626,40.9671127 31.3902023,36.7079424 30.7773184,32.383748 C30.337842,29.2830277 28.9796716,26.4283904 26.6110224,23.8667352 L26.4567565,23.7004979 C27.9783129,21.5152056 29.3446741,19.8396609 30.6869244,18.5535398 L31.133628,18.1390909 Z M12.0461709,45.1606096 C15.7849685,46.4003022 19.728927,46.8357003 23.3420796,46.4953228 L24.1020715,46.4096501 L24.1627637,46.4095458 L23.4605709,47.7867206 C22.4235327,48.3057973 20.9679692,48.3478246 19.0938803,47.9128025 C16.3799174,47.266028 14.109908,46.3974004 12.2838522,45.3069197 L12.0461709,45.1606096 Z M0,26.779464 C0.540808008,27.5354805 1.13003472,28.2553221 1.76080098,28.9378364 C8.32057991,36.3657654 21.1518452,39.9122267 27.6151239,36.7302854 C27.3607851,38.6340226 26.7546565,40.648028 25.8221904,42.8717183 L25.4909954,42.9460975 C23.7210322,43.3398792 21.7888166,43.4884781 19.8018955,43.3892982 C18.2561018,43.2646067 16.8285924,43.0635308 15.5095673,42.7980721 C9.7424512,41.4973518 4.15587818,38.1414113 1.28913029,32.6696867 C0.348024209,30.4956542 0.0278924,28.3903131 0,26.779464 Z M39.7129441,14.4903723 L40.5636918,16.2287724 C43.423498,22.155923 44.9689832,26.0973929 46.7603326,32.0351269 C46.725748,36.2285954 44.9798165,39.636388 41.5251546,42.2670877 L40.8441136,42.7759437 C40.1941284,43.2431869 39.5700354,43.6030949 39.313595,43.2961365 C41.3362788,30.9291903 40.4713639,24.1316611 33.6715405,16.2925245 L33.9948755,16.1056114 C35.7001403,15.2033073 37.5257014,14.7406036 39.7129441,14.4903723 Z M1.92929923,13.8321859 C6.66687274,23.3337422 13.9651508,27.645934 23.6506903,25.7185884 L23.9185797,25.6617397 C25.8510732,27.6279747 27.0004515,29.7474223 27.4816362,32.0456456 L27.5290639,32.6494303 C27.5312752,32.7492049 27.5222911,32.8462841 27.5023974,32.9405093 L27.2275606,33.1911383 C25.3958376,34.8613957 19.9780509,35.0733681 14.5426651,33.3972834 C9.97023374,31.987304 6.12688368,29.5532869 3.66268835,26.3794728 C0.0580966749,21.2688484 -0.216354619,15.3534539 1.81871697,13.9019875 L1.92929923,13.8321859 Z M49.1281207,28.9030431 L49.0215722,28.5701709 C47.6299214,24.2511633 46.2446051,20.7828934 44.1423597,16.3199074 L43.1185528,14.182717 L44.0079838,14.0567383 C45.0829188,13.8728887 45.9573015,13.6085916 46.7397487,13.1971918 C49.7098924,16.6220302 50.9947668,28.7481865 49.1281207,28.9030431 Z M44.6965381,10.6003071 L44.6270337,10.6246347 C43.8830175,10.8854634 42.9482789,11.0247613 41.6225579,11.1297804 L40.5350163,11.2106346 C33.5664267,11.7808757 29.4054776,13.9203567 23.8881082,21.8105313 L23.4747796,22.4155913 L23.2771369,22.5443491 C20.5236922,23.1224739 18.0189417,23.1222688 15.747776,22.5568935 L15.1808423,22.4005513 L15.1430636,22.3657883 L15.5387353,21.4936391 C20.1774071,11.2473138 26.6266708,5.89805345 38.0789442,4.71410174 L39.1592793,4.61577226 C42.0804722,5.60518586 44.9079771,8.75059552 44.6965381,10.6003071 Z M30.1308829,0.00859947668 C32.6761797,0.30695866 34.7359399,1.29840123 35.6939593,1.80983502 C24.546515,3.50894428 17.7538389,9.29939771 12.9705864,19.4489341 L12.6880608,20.0647869 C12.2728503,20.406261 11.7449536,20.5617439 11.0641421,20.2692797 L10.7362493,20.1147128 C9.73283142,19.3498395 8.79348479,18.4286824 7.91399761,17.3564192 C7.68827641,16.8874352 7.5426064,16.3822129 7.51524157,15.8454648 L7.76316799,15.1615368 C10.822052,6.6938632 18.0467996,1.45031763 28.7271777,0.0719803191 L29.3303622,0 L29.7592591,0.000477703182 C29.8849675,0.00199308279 30.0088691,0.00471667673 30.1308829,0.00859947668 Z M17.0707232,0.22297062 C11.5249153,3.03027444 7.45613854,7.3840679 5.13808745,13.1053346 C4.872011,12.600565 4.61330027,12.0768233 4.3618734,11.5341975 L4.07138509,10.8887296 C4.05471313,10.3724963 4.16355574,9.84473022 4.46363942,9.384437 L4.6299223,9.1602789 C8.50218184,3.59726528 14.4371301,1.0784683 16.7291984,0.328552802 L17.0707232,0.22297062 Z"/><path fill="#000" d="M36.043642,44.4816332 C33.6099583,47.8658056 27.7780905,49.5687104 26.6893402,48.5496883 C27.8415406,46.1101407 28.8545966,43.6902006 29.5668141,41.3062507 C32.4318403,39.93891 34.9777687,38.0771198 37.1183127,35.8382533 C37.0115116,38.6457482 36.6088279,41.5413965 36.043642,44.4816332 Z M11.2439228,44.6260089 L11.498899,44.6942268 L12.2639657,44.8988419 C15.3333198,45.7147641 18.5897869,46.4784186 24.8436868,46.4047783 C23.9715956,48.0970988 22.0558033,48.5997736 19.09631,47.9128025 C15.8395545,47.1366731 13.2220921,46.0410752 11.2439228,44.6260089 Z M25.069524,43.5243388 C24.1689545,43.5467321 23.2999077,43.5473717 22.4613202,43.527632 C23.6580006,43.3317996 24.8196503,43.0589441 25.9441012,42.7153261 C25.6857221,43.1193789 25.3953489,43.4103775 25.069524,43.5243388 Z M46.7534495,31.277687 C46.932652,35.8145207 45.190697,39.4776543 41.5275843,42.2670877 L41.4429372,42.3312072 L41.2709707,42.4614754 C40.0862118,43.3567621 38.737961,44.3006475 39.3435298,41.8266631 C39.9118892,38.3127079 40.1136682,35.1665038 39.9543802,32.3026582 C41.7888849,29.5576322 43.1173615,26.4489353 43.8346455,23.1182457 C44.7541453,25.3900629 45.721339,28.0299052 46.7534495,31.277687 Z M46.5112552,12.9469855 C46.852905,13.2793384 47.1739493,13.7270209 47.4723383,14.261138 C47.822552,14.9685631 48.1360703,15.6878709 48.4133122,16.4177814 C49.3848052,19.1932712 49.9570128,22.8148157 49.9998345,25.4423878 C49.9898083,26.161261 49.9479823,26.8805677 49.874497,27.5972489 C49.7244502,28.4725082 49.4403206,28.9753031 49.007036,28.8964573 C48.554563,27.8758197 47.6353197,24.9974653 46.0470172,21.0524086 C45.5556455,19.7687394 45.0085731,18.5582703 44.4461857,17.3742047 C44.4478611,16.2662758 44.3834954,15.1434387 44.2500708,14.0108157 C45.1419194,13.82402 45.8810536,13.4734268 46.5112552,12.9469855 Z M42.83996,7.8259573 C43.4812639,8.46641679 44.0795025,9.13359833 44.6346759,9.82391302 C44.7194658,10.1674529 44.7351637,10.4879939 44.6696284,10.7720957 C44.5529587,10.9907086 44.234922,11.1224191 43.7802323,11.2051092 C43.5364973,10.0829868 43.2240877,8.95541185 42.83996,7.8259573 Z" opacity=".296"/></g></svg>