<svg xmlns="http://www.w3.org/2000/svg" width="50" height="50" viewBox="0 0 50 50"><g fill="none" fill-rule="evenodd"><path fill="#D57566" d="M0.0752356027,37.8699783 C3.83999634,42.7842773 7.56162117,46.7095556 11.4429631,49.9683794 C6.06145651,50.1551504 2.00399476,49.4894829 1.20319082,48.6320734 C0.459918176,47.8354908 -0.114677446,44.1774041 0.0195485126,39.268704 L0.0752356027,37.8699783 Z M1.50218283,27.7934871 C8.16327207,37.5109407 14.5001114,43.9010615 21.5957701,48.6860905 C19.2198299,49.2107029 16.8746543,49.5562748 14.6670128,49.7607575 C9.73650155,45.9387978 5.10989309,41.1117733 0.345126541,34.5788075 C0.565236149,32.5654045 0.902250549,30.4515045 1.38138687,28.3134387 L1.50218283,27.7934871 Z M24.2905237,2.38667594 C31.6945671,13.240764 38.6875328,19.972953 46.7531592,24.9426067 L47.6493654,25.4836715 C46.0400473,30.8350507 43.4104705,36.0695046 39.3639203,39.9779862 C35.2892269,43.9136507 29.9210912,46.4335509 24.4978262,47.9620845 L24.1957648,47.7750602 C16.6322412,42.9657643 10.0112788,36.4506252 2.93651954,26.015385 L2.2438345,24.982928 C3.86333987,19.5057962 6.50086541,14.1357067 10.5951487,10.1811207 C14.3155209,6.58768787 19.0024906,4.13746291 23.7992455,2.54289987 L24.2905237,2.38667594 Z M15.2060873,24.9839876 C14.7125344,24.3052491 13.773525,24.1034755 13.0392394,24.542372 C12.2617607,25.007086 12.0082147,26.0140822 12.4729287,26.791561 C13.1485901,27.9219605 14.1000719,29.1553056 15.3283493,30.502595 C16.605928,31.9039628 18.0452865,33.0525805 19.6423483,33.9428556 L19.7759998,34.0096856 C20.5427694,34.350779 21.4568872,34.0560929 21.8734123,33.3088899 C22.3144388,32.5177338 22.0306026,31.5188524 21.2394465,31.0778259 C19.9549798,30.3618056 18.7939648,29.4353078 17.752325,28.2927399 C16.6613839,27.0960937 15.83976,26.0310751 15.2884284,25.1086828 Z M21.2546431,18.6886658 C20.7610902,18.0099274 19.8220808,17.8081538 19.0877952,18.2470503 C18.3103165,18.7117643 18.0567705,19.7187605 18.5214845,20.4962393 C19.1971459,21.6266387 20.1486277,22.8599838 21.3769051,24.2072733 C22.6544838,25.608641 24.0938423,26.7572588 25.6909041,27.6475339 L25.8245555,27.7143639 C26.5913252,28.0554572 27.505443,27.7607711 27.921968,27.0135682 C28.3629945,26.2224121 28.0791584,25.2235307 27.2880023,24.7825042 C26.0035356,24.0664839 24.8425206,23.1399861 23.8008808,21.9974182 C22.7099397,20.800772 21.8883158,19.7357534 21.3369842,18.8133611 Z M31.6319495,0.649962867 C37.420595,8.61456032 43.0404454,14.1535296 49.2193436,18.4242491 C48.9798441,20.0181958 48.6606157,21.6541903 48.2509057,23.2946489 C40.4432401,18.5542668 33.685395,12.1507612 26.4973203,1.73787705 C28.1168098,1.30328518 29.7297327,0.961761496 31.3042289,0.700151919 L31.6319495,0.649962867 Z M27.1616692,13.1754251 C26.6681162,12.4966866 25.7291068,12.294913 24.9948213,12.7338096 C24.2173425,13.1985235 23.9637966,14.2055197 24.4285105,14.9829985 C25.104172,16.113398 26.0556538,17.3467431 27.2839312,18.6940326 C28.5615098,20.0954003 30.0008683,21.244018 31.5979302,22.1342931 L31.7315816,22.2011232 C32.4983513,22.5422165 33.4124691,22.2475304 33.8289941,21.5003274 C34.2700206,20.7091713 33.9861845,19.71029 33.1950284,19.2692635 C31.9105617,18.5532431 30.7495467,17.6267453 29.7079069,16.4841774 C28.6169658,15.2875313 27.7953419,14.2225127 27.2440103,13.3001203 Z M48.180209,1.58615908 C49.4494517,2.84431718 50.2783192,8.79008978 49.5321113,15.9653104 C44.1610364,12.1032962 39.1990779,7.17400511 34.0990004,0.314602942 C41.1213433,-0.472284216 46.898131,0.315729831 48.180209,1.58615908 Z"/><path fill="#000" d="M11.4409577,49.9666956 L11.1711183,49.9759985 C8.4353478,50.0575968 6.05641151,49.9178533 4.29442382,49.6459152 C4.25985022,49.6407233 4.22592966,49.6353991 4.19224278,49.630026 C4.01257006,49.6012448 3.83942781,49.571186 3.67323127,49.5398295 C3.3946928,49.4872774 3.13566368,49.4310803 2.89749984,49.3717029 C2.68207193,49.3180499 2.48298884,49.2615151 2.30211852,49.2027078 C2.27886924,49.1951486 2.25592088,49.1875519 2.2332756,49.1799184 C2.14053715,49.148633 2.05331239,49.1169174 1.97126641,49.0846403 C1.89909387,49.0562651 1.83050881,49.0272542 1.76608231,48.9978382 C1.67647204,48.9569172 1.59497073,48.9152539 1.52177349,48.8729005 L1.58980342,48.9107881 C1.54836995,48.8885562 1.50924775,48.8661225 1.47247733,48.843501 L1.52177349,48.8729005 C1.49294055,48.8562172 1.4653961,48.8394268 1.43915673,48.822535 L1.47247733,48.843501 C1.43997827,48.8235073 1.40931633,48.8033668 1.38051947,48.7830891 L1.43915673,48.822535 C1.40471542,48.8003632 1.37252259,48.7780167 1.34261576,48.7555084 L1.38051947,48.7830891 C1.35059481,48.7620172 1.32268418,48.7407972 1.29681895,48.7194398 L1.34261576,48.7555084 C1.31612152,48.7355685 1.29142134,48.7155016 1.26854133,48.6953166 L1.20319082,48.6320734 C3.81448113,48.4414691 6.3649585,48.1176137 8.84150789,47.6590576 C9.70100347,48.465086 10.5669318,49.2327903 11.4409577,49.9666956 Z M21.5957701,48.6860905 C20.4002464,48.9500645 19.212512,49.1687074 18.0461693,49.3468542 L18.0987421,49.3390577 C17.8129607,49.382918 17.5284597,49.42436 17.2454363,49.4634512 L18.0461693,49.3468542 C17.742809,49.3931893 17.4408959,49.4367849 17.1406692,49.477726 L17.2454363,49.4634512 C16.9597264,49.5029135 16.6755223,49.5399802 16.3930269,49.5747208 L17.1406692,49.477726 C16.8533343,49.5169091 16.5675442,49.5536608 16.2835086,49.5880557 L16.3930269,49.5747208 C16.1237958,49.6078302 15.8561167,49.6388269 15.5901652,49.6677709 C15.5213108,49.6752645 15.4525722,49.6826205 15.3839524,49.68984 L14.6670128,49.7607575 C13.5926243,48.9279291 12.532666,48.0473772 11.482564,47.1118499 C13.4633908,46.6578966 15.3906649,46.1132852 17.2582091,45.4775026 C18.6772668,46.626416 20.1201089,47.6909635 21.5957701,48.6860905 Z M46.7531592,24.9426067 L47.6493654,25.4836715 L47.6342981,25.5336716 C47.4835126,26.0330281 47.32383,26.5313333 47.1549279,27.0276046 C47.0403141,27.3643649 46.921455,27.7001886 46.7982498,28.0347687 L46.9309696,27.6692004 C46.8610136,27.8646604 46.7895944,28.0597361 46.7166922,28.2543666 C46.5846012,28.6070158 46.4476413,28.9582037 46.3056939,29.307569 L46.3914431,29.0947864 C46.3490073,29.2009567 46.306115,29.3069661 46.2627629,29.4128045 L46.3056939,29.307569 C46.2390953,29.4714835 46.1713988,29.6349967 46.1025922,29.7980714 L46.2627629,29.4128045 C46.1944441,29.5795961 46.1249833,29.745963 46.0543677,29.9118659 L46.1025922,29.7980714 C46.0305463,29.9688234 45.9572832,30.1390946 45.882789,30.3088421 C45.5750664,31.0100392 45.2463351,31.702301 44.8956042,32.3826074 C44.7153964,32.7321531 44.5293808,33.0785426 44.337423,33.4213662 L44.469273,33.1836371 C44.3921374,33.3240476 44.3140194,33.4638813 44.2349101,33.6031103 L44.337423,33.4213662 C44.2627291,33.5547644 44.1871354,33.6876227 44.1106342,33.8199169 C43.7791212,34.3932048 43.430564,34.9559006 43.0643179,35.5060403 C42.8311939,35.8562119 42.59102,36.2011356 42.3435203,36.5404711 L42.5749712,36.2185195 C42.4748419,36.3598273 42.3734766,36.5002126 42.2708638,36.63964 C42.041958,36.9506705 41.8068439,37.2569341 41.5653924,37.5580373 L41.6724746,37.4236385 C41.5582602,37.5679128 41.4426099,37.7110274 41.3255095,37.8529399 L41.5653924,37.5580373 C41.4505005,37.7013136 41.3341738,37.8434216 41.2163982,37.9843188 L41.3255095,37.8529399 C41.2128861,37.9894268 41.0989214,38.1248017 40.983603,38.2590266 L41.2163982,37.9843188 C41.094373,38.1302999 40.9707925,38.2749813 40.8456413,38.4183158 L40.983603,38.2590266 C40.8738584,38.386764 40.7628877,38.5134599 40.6506804,38.6390817 L40.8456413,38.4183158 C40.7242902,38.557298 40.6014624,38.6950139 40.4771436,38.8314205 C40.118584,39.224844 39.7476223,39.6073761 39.3639203,39.9779862 L38.9689492,40.3513523 C38.83305,40.4770935 38.6958102,40.6013356 38.5572732,40.7240933 L38.8177182,40.4901594 C38.6715758,40.6232242 38.5239237,40.7545864 38.3748144,40.884264 L38.5572732,40.7240933 C38.4213477,40.844537 38.2841734,40.9635517 38.1457911,41.0811516 L38.3748144,40.884264 C38.2403425,41.0012119 38.1046855,41.1167897 37.9678821,41.2310107 L38.1457911,41.0811516 C37.9985313,41.2062958 37.8499036,41.3298378 37.6999572,41.4517944 L37.9678821,41.2310107 C37.8263906,41.3491459 37.6836728,41.4658298 37.5397715,41.5810769 L37.6999572,41.4517944 C37.5453094,41.577575 37.3892589,41.7016692 37.2318599,41.8240956 L37.5397715,41.5810769 C37.4010966,41.6921382 37.2613225,41.8018653 37.1204875,41.9102713 C36.873991,42.1000089 36.6242444,42.2856994 36.371453,42.4674131 C36.275267,42.5365548 36.1785503,42.6051838 36.0814032,42.6732398 C35.6159882,42.9992875 35.1405999,43.3122444 34.6565778,43.6124732 L34.791539,43.5282884 C34.6463179,43.6193828 34.5003039,43.7093201 34.3535309,43.7981119 L34.6565778,43.6124732 C34.4945917,43.7129497 34.3316387,43.8120007 34.1677653,43.9096421 L34.3535309,43.7981119 C34.1825217,43.9015657 34.0104823,44.0034646 33.8374664,44.103827 L34.1677653,43.9096421 C34.0123763,44.0022282 33.8561599,44.093547 33.6991559,44.1836119 L33.8374664,44.103827 C33.6773317,44.1967174 33.5163606,44.2882914 33.3545956,44.3785639 C33.1050585,44.5178174 32.8536325,44.6539736 32.600474,44.7870862 C32.2579987,44.9671574 31.9127024,45.1414895 31.5646287,45.3103953 L31.6905682,45.2489853 C31.5409483,45.3222961 31.3908045,45.3945974 31.2401677,45.4658997 L31.5646287,45.3103953 C31.3703891,45.4046517 31.1752845,45.4972183 30.9793822,45.5881181 L31.2401677,45.4658997 C31.0837625,45.5399325 30.9268258,45.6128883 30.7693922,45.6847792 L30.9793822,45.5881181 C30.8151343,45.6643301 30.6503255,45.7393704 30.4849955,45.8132526 L30.7693922,45.6847792 C30.6042647,45.7601834 30.4385904,45.8344159 30.2724094,45.9074904 L30.4849955,45.8132526 C30.3296919,45.8826543 30.1739282,45.9510341 30.0177375,46.0184033 C29.2573778,46.3463664 28.4868962,46.6503781 27.7100781,46.9317357 L27.9740476,46.835162 C27.7787155,46.9073437 27.5829539,46.9780782 27.3868235,47.0473863 L27.7100781,46.9317357 C27.5565663,46.9873366 27.4028069,47.0420527 27.2488294,47.0958942 L27.3868235,47.0473863 C27.1896561,47.1170608 26.992116,47.1852937 26.7942645,47.252106 L27.2488294,47.0958942 C27.0660227,47.1598163 26.8829084,47.2225056 26.6995354,47.2839787 L26.7942645,47.252106 C26.6367749,47.3052887 26.479088,47.3575712 26.3212348,47.4089644 L26.6995354,47.2839787 C26.5165292,47.3453289 26.3332653,47.4054678 26.1497922,47.4644122 L26.3212348,47.4089644 C26.1152331,47.4760335 25.9089482,47.5415879 25.7024492,47.6056511 C25.3011041,47.7301625 24.8989498,47.8490411 24.4964926,47.9624604 L24.1957648,47.7750602 C22.6500115,46.792187 21.143626,45.738066 19.6646893,44.5937966 C30.1784347,40.4483404 38.5806441,33.2290481 43.4773004,22.7821565 C44.5510141,23.5397471 45.6419059,24.2579054 46.7531592,24.9426067 Z M49.2193436,18.4242491 C49.0643301,19.455914 48.8759167,20.5051935 48.6511879,21.5618971 C48.5928464,21.8362137 48.5321367,22.1106894 48.4689388,22.3854711 L48.6175093,21.7190521 C48.5592303,21.9889405 48.4985761,22.2592796 48.4354983,22.5299 L48.4689388,22.3854711 C48.4030089,22.6721311 48.334371,22.9591241 48.2629641,23.2462643 L48.4354983,22.5299 C48.376128,22.7846142 48.3146106,23.0395776 48.2509057,23.2946489 C46.9305122,22.492979 45.6401433,21.643744 44.3726407,20.7355958 C44.9879437,19.2357649 45.5334687,17.672187 46.0065794,16.0463057 C47.062028,16.8819215 48.13203,17.6727217 49.2193436,18.4242491 Z M48.180209,1.58615908 C48.2313479,1.63685137 48.2817719,1.69515333 48.3314068,1.76083877 C48.3669987,1.80794004 48.4021848,1.85883784 48.4369378,1.91344878 C48.5468728,2.08618315 48.652535,2.29622162 48.7529905,2.54081561 C48.862921,2.8085686 48.9663836,3.11687851 49.062509,3.46293683 C49.1776475,3.877399 49.2823281,4.34639028 49.3745236,4.86368683 C49.4012613,5.01371187 49.4269344,5.16770756 49.4515114,5.32561703 C49.477858,5.49489691 49.5029448,5.66867449 49.5267135,5.846772 C49.5830387,6.26862238 49.6321168,6.7164129 49.6729611,7.18623534 C49.692416,7.41004789 49.7099783,7.63850104 49.7255935,7.8716812 C49.7570316,8.34121171 49.7805638,8.82953922 49.7955256,9.33490932 C49.8037324,9.61212718 49.8093597,9.89441386 49.8122959,10.181481 C49.8240708,11.3316075 49.7926192,12.5589685 49.7106378,13.8408842 C49.6672058,14.5200174 49.6095916,15.2144622 49.5367102,15.9209112 L49.571232,15.5754465 C49.5587072,15.7049814 49.5456692,15.834943 49.5321113,15.9653104 C48.5484392,15.2580115 47.5784894,14.5149148 46.6189003,13.7307203 C47.5193877,9.99282143 48.0526929,5.94574976 48.180209,1.58615908 Z" opacity=".302"/><path fill="#FFF" d="M1.50218283,27.7934871 C8.16327207,37.5109407 14.5001114,43.9010615 21.5957701,48.6860905 C19.2198299,49.2107029 16.8746543,49.5562748 14.6670128,49.7607575 C9.73650155,45.9387978 5.10989309,41.1117733 0.345126541,34.5788075 C0.565236149,32.5654045 0.902250549,30.4515045 1.38138687,28.3134387 L1.50218283,27.7934871 Z M31.6319495,0.649962867 C37.2486076,8.37792278 42.7063516,13.8222498 48.670058,18.0401958 L49.210366,18.4623121 L49.2193436,18.4242491 C48.9798441,20.0181958 48.6606157,21.6541903 48.2509057,23.2946489 C41.1417193,18.9783447 34.90292,13.2831749 28.4172007,4.43792462 C27.7743089,3.54778629 27.1485841,2.6454184 26.5375108,1.7290454 L26.4973203,1.73787705 C28.1168098,1.30328518 29.7297327,0.961761496 31.3042289,0.700151919 L31.6319495,0.649962867 Z"/></g></svg>