<svg xmlns="http://www.w3.org/2000/svg" width="50" height="50" viewBox="0 0 50 50"><g fill="none" fill-rule="evenodd" transform="translate(0 8)"><path fill="#EBC7A2" d="M10.2215479,23.0932084 C10.3776616,24.1143942 10.7060186,25.1271959 11.2191657,26.0910145 L11.4076702,26.4301531 C11.9129052,27.2889177 12.5314122,28.0394605 13.2329221,28.6734439 C12.2759051,29.2935853 11.1089268,29.3516458 10.143556,28.923867 L1.78942153,33.1727795 L0,29.665466 L8.34560969,25.418532 C8.51450382,24.5963712 9.0056112,23.8347831 9.7736862,23.3366461 L10.0004389,23.2019128 L10.2215479,23.0932084 Z M12.9525729,24.8390876 L13.8417672,26.4599217 C13.5858884,26.152873 13.351689,25.8212918 13.1427267,25.4662004 L12.9722286,25.1601217 C12.7526834,24.7477608 12.5759988,24.3240478 12.4406127,23.8940758 L12.9525729,24.8390876 Z"/><path fill="#FFF" fill-rule="nonzero" d="M29.4438893,23.028776 L30.7062615,23.6293089 L30.1811324,24.7357389 L27.5955647,23.5106519 L28.082141,23.3665439 C28.5469114,23.2344954 29.0007325,23.1218191 29.4438893,23.028776 Z M14.8352021,22.8905731 C14.907797,23.168505 15.0063225,23.4434009 15.1317984,23.7121073 L15.267108,23.9812453 C15.3081024,24.0582431 15.3508801,24.1336848 15.395363,24.2075467 L14.9691053,24.4266039 L14.3194115,23.1531869 L14.8352021,22.8905731 Z M43.8347578,8.13404553 C43.9341276,8.29187528 44.0284891,8.4544524 44.1175224,8.62167915 L44.273091,8.92555783 C44.3508572,9.08437122 44.4225162,9.24471667 44.4881542,9.40632053 L21.9846361,20.8549515 L17.1731442,23.3053088 C17.1183925,23.2238709 17.0672885,23.138851 17.020171,23.0503524 L16.9061679,22.8223872 C16.7765592,22.5444156 16.6988518,22.2518953 16.6695545,21.9566258 L43.8347578,8.13404553 Z M24.7642894,20.8152945 L26.6792999,21.7202407 C26.1440009,21.8929091 25.6011071,22.0867789 25.0495643,22.3020046 L23.3850519,21.5172242 L24.7642894,20.8152945 Z M32.0588936,17.1033947 L37.3449528,20.3880497 C36.6619112,20.5307719 35.9316677,20.6193622 35.0876646,20.6690211 L30.56847,17.8621662 L32.0588936,17.1033947 Z M24.1554129,15.2408353 L23.7040502,17.0029302 L22.2520123,17.7418732 L22.5825759,16.4605865 C22.9650889,16.1857535 23.3329662,15.9076196 23.6865887,15.6257674 L24.1554129,15.2408353 Z M39.4488003,13.3439065 L43.9620195,16.1472546 C43.7538044,16.4979239 43.5168412,16.8333921 43.2523829,17.1496766 L38.1714834,13.9929602 L39.4488003,13.3439065 Z M30.3103228,7.94995633 L29.5214673,14.0431924 L27.9767743,14.828402 L28.5945574,10.0526952 C29.1177118,9.32523075 29.5959344,8.72291764 30.0721711,8.20315542 L30.3103228,7.94995633 Z M23.8546097,11.4747587 L24.9180851,11.746857 C24.4682933,12.2638124 23.9604573,12.7738208 23.3946638,13.278724 L23.8546097,11.4747587 Z M36.4962297,4.60821728 C36.9101644,4.56184625 37.3248244,4.54976531 37.7361619,4.5707385 L37.0040291,10.2347938 L35.683032,10.9076417 L36.4962297,4.60821728 Z M47.4719039,6.28338897 L48.1215977,7.556806 L46.260792,8.50487235 C46.1921053,8.34276216 46.1186208,8.18164973 46.0402844,8.02170532 L45.8705853,7.69078631 C45.7870619,7.53390841 45.6998143,7.3802803 45.6090094,7.22995288 L47.4719039,6.28338897 Z M29.3202513,4.43623122 L30.7395682,4.6190502 L30.6891825,5.0077342 C30.1105275,5.42316162 29.5827749,5.86976542 29.0682654,6.38368432 L29.3202513,4.43623122 Z M36.9901225,0.788484765 L38.2060919,0.945111011 L37.9927759,2.59937235 C37.5829331,2.57176863 37.1701371,2.57021748 36.7569268,2.59549404 L36.9901225,0.788484765 Z"/><path fill="#EBC7A2" d="M48.1489758,6.48093962 L48.1654647,6.51190987 C50.1579502,10.2542963 50.0041767,14.5651449 48.134789,18.0377341 C47.4454445,17.5154097 46.6618813,17.1227353 45.8228538,16.8857168 C47.284675,14.2286211 47.4655849,10.9318315 46.0402844,8.02170532 L45.8705853,7.69078631 C43.3692656,2.99268199 37.5279581,1.20916642 32.82366,3.7071928 C29.8504121,5.28601525 28.3836897,6.72731219 25.9343908,10.4196735 C25.1912783,11.5399288 24.1885346,12.6221926 22.926977,13.683856 C21.9375239,14.5165298 20.8182609,15.3126409 19.5657044,16.0836117 L18.9388375,16.4616697 C18.4297736,16.7616421 17.9298185,17.0378663 17.2574388,17.3949062 C14.9754621,18.6066572 14.0476552,21.3904157 15.1317984,23.7121073 L15.267108,23.9812453 C16.5255417,26.3448987 19.4643496,27.2421994 21.8311192,25.9854226 L22.571544,25.5979297 C23.143249,25.3042506 23.6267734,25.0714067 24.2104307,24.8075698 C25.5508578,24.201642 26.8376178,23.7201324 28.082141,23.3665439 C29.6689142,22.9157169 31.1280617,22.6906935 32.4709235,22.7018655 L33.6050874,22.700861 C34.9602683,22.6851608 36.0799529,22.6117144 37.094668,22.449324 C36.9671471,23.2315278 36.9741309,24.049309 37.134418,24.8728286 L37.1701379,25.0448937 C35.8143812,25.2350085 34.3077699,25.2942469 32.452091,25.2788254 C31.3571475,25.2697259 30.1413984,25.4643103 28.8342643,25.8322116 C27.109951,26.3175306 25.5386179,26.9817003 23.890538,27.8190611 L23.0425609,28.2608133 C19.5234892,30.1294734 15.1586671,28.8919055 13.1427267,25.4662004 L12.9722286,25.1601217 C11.0447341,21.5398047 12.4209071,17.0444722 16.0437411,15.1207264 L16.9544914,14.6266444 C19.9227067,12.9684155 22.3883086,11.0992303 23.7831787,8.99643899 L24.3701021,8.1273187 C26.6661672,4.79450882 28.3994255,3.13782516 31.6122182,1.43180212 C37.5748368,-1.73440414 44.9785953,0.526171724 48.1489758,6.48093962 Z M44.5765756,18.6497154 C45.4924238,18.7680991 46.3469577,19.1409699 47.0500052,19.7075858 C46.0202461,21.0431636 44.6958428,22.1846222 43.1096705,23.0268945 C41.6836819,23.7841078 40.4287491,24.3054361 39.1197699,24.6543664 L39.083406,24.4944825 C38.9092778,23.5998502 38.9886695,22.7147075 39.2715766,21.9130916 C40.1202012,21.628339 40.9625205,21.2483737 41.8982288,20.7515038 C42.897182,20.2210503 43.7652104,19.5394343 44.4886255,18.749664 L44.5765756,18.6497154 Z"/><path fill="#FFF" d="M46.1079582,27.9926862 C43.6516221,29.1899715 40.6899802,28.1722189 39.4929458,25.7194721 C38.2959115,23.2667253 39.3167772,20.3077896 41.7731133,19.1105042 C44.2294493,17.9132189 47.1910912,18.9309715 48.3881256,21.3837183 C49.58516,23.8364651 48.5642942,26.7954008 46.1079582,27.9926862 Z" transform="rotate(15 43.94 23.552)"/><path fill="#000" d="M45.7402827,28.0102565 C43.2839466,29.2075418 40.3223047,28.1897892 39.1252703,25.7370424 C40.7011827,26.5933344 42.9204236,27.389375 45.3767597,26.1920897 C47.8330958,24.9948043 48.0645819,22.9811083 48.0204501,21.4012886 C49.2174845,23.8540354 48.1966187,26.8129711 45.7402827,28.0102565 Z" opacity=".25" transform="rotate(15 43.823 24.957)"/></g></svg>