<svg xmlns="http://www.w3.org/2000/svg" width="50" height="50" viewBox="0 0 50 50"><g fill="none" fill-rule="evenodd"><path fill="#FFF" d="M31.133628,18.163005 C37.2599201,25.4041266 38.0593706,32.1640739 35.8246524,44.8234954 L36.0412123,44.5402767 C33.6075286,47.9289108 27.7756608,49.6340606 26.6869105,48.6136951 L27.0769257,47.775512 L27.2782687,47.3818455 L27.8504792,46.205065 C30.3045626,41.0211227 31.3902023,36.7563373 30.7773184,32.4264419 C30.337842,29.3216337 28.9796716,26.463233 26.6110224,23.8982005 L26.4567565,23.7317441 C27.9783129,21.5435707 29.3446741,19.865817 30.6869244,18.5780004 L31.133628,18.163005 Z M12.0461709,45.2201482 C15.7849685,46.4614752 19.728927,46.8974474 23.3420796,46.5566211 L24.1020715,46.4708355 L24.1627637,46.470731 L23.4605709,47.8497214 C22.4235327,48.3694824 20.9679692,48.4115652 19.0938803,47.9759696 C16.3799174,47.3283424 14.109908,46.4585696 12.2838522,45.3666512 L12.0461709,45.2201482 Z M0,26.8147694 C0.540808008,27.5717826 1.13003472,28.2925732 1.76080098,28.9759874 C8.32057991,36.4137091 21.1518452,39.964846 27.6151239,36.7787097 C27.3607851,38.6849568 26.7546565,40.7016173 25.8221904,42.9282393 L25.4909954,43.0027166 C23.7210322,43.3970174 21.7888166,43.5458123 19.8018955,43.4465016 C18.2561018,43.3216457 16.8285924,43.1203047 15.5095673,42.854496 C9.7424512,41.5520609 4.15587818,38.191696 1.28913029,32.7127577 C0.348024209,30.5358589 0.0278924,28.4277422 0,26.8147694 Z M39.7129441,14.5094761 L40.5636918,16.2501681 C43.423498,22.1851328 44.9689832,26.1317991 46.7603326,32.0773612 C46.725748,36.2763583 44.9798165,39.6886437 41.5251546,42.3228116 L40.8441136,42.8323384 C40.1941284,43.3001976 39.5700354,43.6605801 39.313595,43.3532171 C41.3362788,30.9699666 40.4713639,24.1634757 33.6715405,16.3140041 L33.9948755,16.1268446 C35.7001403,15.223351 37.5257014,14.7600373 39.7129441,14.5094761 Z M1.92929923,13.8504219 C6.66687274,23.3645048 13.9651508,27.6823817 23.6506903,25.7524952 L23.9185797,25.6955715 C25.8510732,27.6643988 27.0004515,29.7866406 27.4816362,32.0878938 L27.5290639,32.6924745 C27.5312752,32.7923807 27.5222911,32.8895879 27.5023974,32.9839373 L27.2275606,33.2348967 C25.3958376,34.9073561 19.9780509,35.119608 14.5426651,33.4413136 C9.97023374,32.0294753 6.12688368,29.5922492 3.66268835,26.4142508 C0.0580966749,21.2968887 -0.216354619,15.3736955 1.81871697,13.9203156 L1.92929923,13.8504219 Z M49.1281207,28.9411481 L49.0215722,28.6078371 C47.6299214,24.2831354 46.2446051,20.8102931 44.1423597,16.3414231 L43.1185528,14.2014152 L44.0079838,14.0752703 C45.0829188,13.8911784 45.9573015,13.6265328 46.7397487,13.2145907 C49.7098924,16.6439443 50.9947668,28.7860874 49.1281207,28.9411481 Z M44.6965381,10.6142823 L44.6270337,10.6386419 C43.8830175,10.8998145 42.9482789,11.0392961 41.6225579,11.1444537 L40.5350163,11.2254145 C33.5664267,11.7964074 29.4054776,13.938709 23.8881082,21.8392858 L23.4747796,22.4451435 L23.2771369,22.5740711 C20.5236922,23.152958 18.0189417,23.1527526 15.747776,22.5866319 L15.1808423,22.4300836 L15.1430636,22.3952749 L15.5387353,21.5219758 C20.1774071,11.262142 26.6266708,5.9058293 38.0789442,4.7203167 L39.1592793,4.62185758 C42.0804722,5.6125756 44.9079771,8.76213209 44.6965381,10.6142823 Z M30.1308829,0.00861081402 C32.6761797,0.307363346 34.7359399,1.30011301 35.6939593,1.81222106 C24.546515,3.51357039 17.7538389,9.31165781 12.9705864,19.4745751 L12.6880608,20.0912398 C12.2728503,20.4331641 11.7449536,20.588852 11.0641421,20.2960023 L10.7362493,20.1412315 C9.73283142,19.3753499 8.79348479,18.4529783 7.91399761,17.3793014 C7.68827641,16.9096992 7.5426064,16.4038108 7.51524157,15.866355 L7.76316799,15.1815254 C10.822052,6.70268823 18.0467996,1.4522297 28.7271777,0.0720752162 L29.3303622,0 L29.7592591,0.000478332974 C29.8849675,0.00199571042 30.0088691,0.00472289508 30.1308829,0.00861081402 Z M17.0707232,0.223264579 C11.5249153,3.03426948 7.45613854,7.39380288 5.13808745,13.1226124 C4.872011,12.6171773 4.61330027,12.0927451 4.3618734,11.5494039 L4.07138509,10.903085 C4.05471313,10.3861712 4.16355574,9.85770927 4.46363942,9.39680921 L4.6299223,9.17235559 C8.50218184,3.60200782 14.4371301,1.07989013 16.7291984,0.328985957 L17.0707232,0.223264579 Z"/><path fill="#000" d="M36.9015487,36.1336608 C36.8343866,37.4627589 36.7034741,38.8670843 36.5140927,40.3612568 C36.3336207,41.7656079 36.1026064,43.2489182 35.8246524,44.8234954 L35.8311907,44.8151425 L35.9543586,44.6558655 L35.8600312,44.7815854 C33.3300423,48.0092708 27.7495033,49.609546 26.6869105,48.6136951 L27.0769257,47.775512 L27.2782687,47.3818455 L27.8504792,46.205065 C28.6666389,44.4810305 29.3314429,42.8586586 29.8327497,41.3017442 L29.4776558,41.4758773 C32.2857475,40.1343322 34.7875903,38.3165227 36.9015487,36.1336608 Z M12.0461709,45.2201482 C15.7849685,46.4614752 19.728927,46.8974474 23.3420796,46.5566211 L24.1020715,46.4708355 L24.1511709,46.4697385 L24.1311709,46.5297385 L23.4605709,47.8497214 C22.4235327,48.3694824 20.9679692,48.4115652 19.0938803,47.9759696 C16.3799174,47.3283424 14.109908,46.4585696 12.2838522,45.3666512 L12.0461709,45.2201482 Z M46.7603326,32.0773612 C46.725748,36.2763583 44.9798165,39.6886437 41.5251546,42.3228116 L40.8441136,42.8323384 C40.1964498,43.2985267 39.5744935,43.6580046 39.3163566,43.3564847 L39.3029589,43.4423788 C39.5443153,41.9647498 39.7445568,40.5665249 39.8985062,39.2364574 C40.2144719,36.5390256 40.341118,34.1210681 40.2356913,31.8900963 L40.4562951,31.5355257 C41.9229882,29.1282691 43.1410409,26.3024568 43.8111054,23.5235216 C44.8878426,26.2110923 45.7878582,28.8496789 46.7603326,32.0773612 Z M46.7397487,13.2145907 C49.7098924,16.6439443 50.9947668,28.7860874 49.1281207,28.9411481 L49.0215722,28.6078371 C47.6719907,24.4138701 46.3283665,21.0210378 44.3310653,16.744022 C44.2743781,15.8837223 44.1467053,14.8944197 44.0452,14.0681835 L44.0079838,14.0752703 C45.0829188,13.8911784 45.9573015,13.6265328 46.7397487,13.2145907 Z M44.6965381,10.6142823 L44.6270337,10.6386419 C44.3746773,10.7272268 44.1003795,10.8018118 43.7963259,10.8658062 L43.8885281,11.2740492 C43.6437068,10.1500374 43.3313589,9.0212648 42.9473296,7.89061104 C42.9688369,7.59249081 43.0073196,7.3822217 43.0606509,7.2495741 C44.1311054,8.40520911 44.8036322,9.67616618 44.6965381,10.6142823 Z" opacity=".301"/></g></svg>