<svg xmlns="http://www.w3.org/2000/svg" width="50" height="50" viewBox="0 0 50 50"><g fill="none" fill-rule="evenodd" transform="translate(1)"><path fill="#FFF" d="M35.5445587,26.610062 L35.8292438,34.9227364 L35.8305587,34.969062 L30.4886077,41.6748359 C28.056954,44.7267632 24.8082259,47.0249909 21.1208294,48.3018255 C17.3920589,49.5929868 13.4501997,50.1567814 9.50898979,49.9626389 L3.07155873,49.6455336 L3.8435681,46.2672511 C4.61116136,42.9082932 6.42311334,39.8788436 9.01939683,37.6136484 C11.6802359,35.29213 14.4764174,33.1304636 17.3932143,31.1400345 L21.2805587,28.486062 L18.7377139,38.143773 L13.6128568,39.6671917 L11.721838,40.2289091 L12.1621536,42.1495081 L12.7600028,44.7572485 L13.1922616,46.6427047 L15.1093874,46.3677473 L24.1504548,45.0710618 L25.399873,44.8918681 L25.8293669,43.7065123 L30.2575109,31.4790704 L35.5445587,26.610062 Z M33.3635587,20.241062 L34.1415587,22.031062 L35.0685587,24.191062 L28.4559684,30.2837631 L23.8514469,42.9917318 L14.8103794,44.2884172 L14.2125302,41.6806768 L20.472479,39.8211913 L23.9325587,26.677062 L33.3635587,20.241062 Z M39.5765587,16.001062 L41.472411,24.7249352 L41.4035587,27.974062 L37.8485587,32.437062 L37.5845587,24.730062 L37.6010924,24.7160131 L37.0066531,23.3475259 L36.0405587,21.123062 L35.1425587,19.027062 L39.5765587,16.001062 Z M45.5995587,22.707062 L43.5645587,25.262062 L43.5753789,24.7690659 L43.5805873,24.5215262 L43.528024,24.2795606 L43.2855388,23.1652214 L45.5995587,22.707062 Z M42.2949045,14.147062 L46.8815587,19.395062 L46.6639686,20.3549098 L42.7871796,21.1236131 L41.472411,15.1270774 L41.1325587,14.940062 L42.2949045,14.147062 Z"/><path fill="#639AEB" d="M33.3338097,3.654266 L39.8963888,5.30469763 L44.2344034,8.89780878 L47.5925336,16.2738085 L46.6639686,20.3549098 L42.7871796,21.1236131 L41.472411,15.1270774 L39.0239852,13.7794603 L39.4669375,15.4930899 L41.472411,24.7249352 L41.2819258,33.745266 L41.0072333,33.8145127 L37.9219258,34.585266 L37.5851257,24.7249352 L33.6980949,15.6588532 L31.7559258,12.5890665 L34.5055236,7.23369301 L33.3338097,3.654266 Z"/><polygon fill="#000" points="33.334 3.654 39.896 5.305 44.234 8.898 47.593 16.274 46.664 20.355 42.787 21.124 43.718 14.147 39.569 8.483 34.506 7.234" opacity=".299"/><polygon fill="#E5C1A7" points="26.898 2.485 30.867 2.802 32.247 7.04 30.131 11.168 25.186 9.703 23.457 4.776"/><polygon fill="#000" points="24.348 .793 28.328 0 30.867 2.802 31.55 4.776 29.529 4.148 27.701 5.461 25.204 5.234 24.334 7.268 23.457 4.776"/><polygon fill="#639AEB" points="24.106 26.018 32.806 18.956 35.077 24.184 28.456 30.284 23.851 42.992 14.81 44.288 14.213 41.681 20.472 39.821"/><polygon fill="#639AEB" points="23.008 17.893 29.769 14.147 31.756 16.789 23.342 23.74"/><polygon fill="#639AEB" points="16.479 1.141 21.799 2.215 21.227 4.765 22.122 7.255 16.11 4.838 5.761 4.798 5.761 2.215"/><polygon fill="#E5C1A7" points="37.999 36.01 41.348 35.173 41.348 39.058 37.999 39.058"/><polygon fill="#E5C1A7" points="0 3.514 3.694 2.417 3.694 4.842 0 4.842"/></g></svg>