<svg xmlns="http://www.w3.org/2000/svg" width="50" height="50" viewBox="0 0 50 50"><g fill="none" fill-rule="evenodd" transform="translate(3)"><polygon fill="#F7D0A9" points="43.163 30.406 43.164 50 0 50 0 30.406"/><rect width="7.554" height="19.668" x="35.61" y="30.332" fill="#000" opacity=".3"/><path fill="#E0BE9C" d="M43.1637161,15.6238063 L43.1637161,28.1591476 L0,28.1591476 L0,15.6238063 L43.1637161,15.6238063 Z M34.1100946,19.2468455 L9.05362156,19.2468455 C8.22521032,19.2468455 7.55365032,19.9175213 7.55365032,20.7448418 L7.55365032,22.0595377 C7.55365032,22.8868582 8.22521032,23.557534 9.05362156,23.557534 L34.1100946,23.557534 C34.9385058,23.557534 35.6100658,22.8868582 35.6100658,22.0595377 L35.6100658,20.7448418 C35.6100658,19.9175213 34.9385058,19.2468455 34.1100946,19.2468455 Z"/><polygon fill="#FFF" points="23.362 0 38.161 8.881 30.333 21.891 12.817 21.76 10.945 20.637"/><polygon fill="#EB5556" fill-rule="nonzero" points="21.9 17.033 24.526 17.032 26.247 13.851 26.299 13.851 28.042 17.03 30.753 17.028 27.916 12.397 30.784 7.865 28.064 7.866 26.437 10.962 26.386 10.962 24.737 7.868 21.923 7.87 24.777 12.467" transform="rotate(31 26.342 12.449)"/></g></svg>