<svg xmlns="http://www.w3.org/2000/svg" xmlns:xlink="http://www.w3.org/1999/xlink" width="50" height="50" viewBox="0 0 50 50"><defs><linearGradient id="b" x1="50%" x2="50%" y1="0%" y2="100%"><stop offset="0%" stop-color="#FFF"/><stop offset="100%" stop-color="#E4E4E4"/></linearGradient><circle id="a" cx="25" cy="25" r="25"/><path id="d" d="M42.6776695,42.6776695 C52.4407768,32.9145622 52.4407768,17.0854378 42.6776695,7.32233047 C50.0838304,29.1274484 31.4118347,50.248194 7.32233047,42.6776695 C17.0854378,52.4407768 32.9145622,52.4407768 42.6776695,42.6776695 Z"/></defs><g fill="none" fill-rule="evenodd"><mask id="c" fill="#fff"><use xlink:href="#a"/></mask><use xlink:href="#a" fill="url(#b)"/><g fill="#EC5A53" fill-rule="nonzero" mask="url(#c)"><g transform="translate(5.913 5.397)"><path d="M35.9762119,0 L38.2670551,2.32062659 L37.8824785,2.734332 C37.7171989,2.92194476 37.517131,3.15874375 37.2891715,3.44315473 C36.5133636,4.41108265 35.7341755,5.54559342 35.0059362,6.83354595 C30.0028205,15.6819763 30.0028205,26.0418649 38.4342061,37.4840042 L35.8090608,39.4183988 C26.5656087,26.8742132 26.5656087,15.1357976 32.1673957,5.22856678 C33.5741889,2.74053475 34.9921486,0.971433622 35.9762119,0 Z M2.45799425,0 L0.167151054,2.32062659 C0.34476276,2.49595879 0.689115707,2.87433276 1.14503459,3.44315473 C1.92084255,4.41108265 2.70003056,5.54559342 3.42826995,6.83354595 C8.43138562,15.6819763 8.43138562,26.0418649 0,37.4840042 L2.62514531,39.4183988 C11.8685974,26.8742132 11.8685974,15.1357976 6.26681045,5.22856678 C4.86001721,2.74053475 3.44205754,0.971433622 2.45799425,0 Z"/><path d="M29.4492943,8.07962093 L34.7821733,10.1624228 C35.6209362,10.4900089 36.0353269,11.4355216 35.7077408,12.2742845 C35.3801547,13.1130474 34.434642,13.5274381 33.5958791,13.199852 L28.2630001,11.1170502 C27.4242371,10.7894641 27.0098464,9.84395139 27.3374325,9.00518846 C27.6650186,8.16642554 28.6105313,7.75203484 29.4492943,8.07962093 Z M34.0942897,19.7818431 C34.11283,20.6821164 33.3980441,21.4269621 32.4977708,21.4455024 L27.26044,21.5533605 C26.3601666,21.5719008 25.615321,20.8571149 25.5967806,19.9568415 C25.5782403,19.0565682 26.2930262,18.3117225 27.1932996,18.2931822 L32.4306304,18.1853241 C33.2558809,18.1683288 33.9505291,18.7675312 34.0748536,19.5609561 L34.0942897,19.7818431 Z M35.0252085,26.7045932 C35.5902938,27.4056742 35.4800476,28.4321047 34.7789667,28.99719 L30.686026,32.2961824 C29.9849451,32.8612677 28.9585145,32.7510214 28.3934292,32.0499405 C27.8283439,31.3488596 27.9385901,30.322429 28.6396711,29.7573437 L32.7326117,26.4583514 C33.4336927,25.8932661 34.4601232,26.0035123 35.0252085,26.7045932 Z M8.98491186,8.07962093 L3.65203285,10.1624228 C2.81326993,10.4900089 2.39887923,11.4355216 2.72646532,12.2742845 C3.05405141,13.1130474 3.9995641,13.5274381 4.83832703,13.199852 L10.171206,11.1170502 C11.009969,10.7894641 11.4243597,9.84395139 11.0967736,9.00518846 C10.7691875,8.16642554 9.82367478,7.75203484 8.98491186,8.07962093 Z M4.3399164,19.7818431 C4.32137609,20.6821164 5.03616197,21.4269621 5.93643534,21.4455024 L11.1737661,21.5533605 C12.0740395,21.5719008 12.8188851,20.8571149 12.8374255,19.9568415 C12.8559658,19.0565682 12.1411799,18.3117225 11.2409065,18.2931822 L6.00357576,18.1853241 C5.17832516,18.1683288 4.48367702,18.7675312 4.35935247,19.5609561 L4.3399164,19.7818431 Z M3.40899759,26.7045932 C2.84391227,27.4056742 2.95415851,28.4321047 3.65523945,28.99719 L7.74818011,32.2961824 C8.44926105,32.8612677 9.4756916,32.7510214 10.0407769,32.0499405 C10.6058622,31.3488596 10.495616,30.322429 9.79453504,29.7573437 L5.70159439,26.4583514 C5.00051345,25.8932661 3.9740829,26.0035123 3.40899759,26.7045932 Z"/></g></g><use xlink:href="#d" fill="#000" opacity=".288"/></g></svg>