<?xml version="1.0" encoding="UTF-8"?>
<svg width="15px" height="15px" viewBox="0 0 15 15" version="1.1" xmlns="http://www.w3.org/2000/svg" xmlns:xlink="http://www.w3.org/1999/xlink">
    <title>Champions League Icon 15x15px</title>
    <g id="Champions-League-Icon-15x15px" stroke="none" stroke-width="1" fill="none" fill-rule="evenodd">
        <path d="M6.12918514,3.51039842 L5.8594406,3.17429391 C5.49765004,2.71248293 5.31617497,2.42705712 5.14757885,2.12670945 L5.11238296,2.07512192 C5.07939746,2.03600289 5.02867556,2.01240599 4.89573663,2.0481737 C4.48625931,2.15834509 3.7706724,2.41486245 3.3560866,2.61769364 L3.18838138,2.70756662 C3.06675295,2.78861861 2.55381789,3.16767698 1.75545033,3.92548385 L1.65987917,4.40531858 C1.59521128,4.75068297 1.53737195,5.15663365 1.53877775,5.68099344 C1.5398774,6.0911609 1.59124197,6.53790863 1.67758189,7.13259859 C1.68940869,7.19303932 1.72826644,7.2024599 1.79729154,7.19360518 L2.14070473,7.13119011 C2.52247939,7.06742459 3.14671897,6.98140588 3.60804395,6.96733014 C3.62002376,7.00174219 3.63292554,7.05700969 3.62170563,7.10868122 C3.39523181,7.57541387 2.05495194,8.59032488 2.02068106,8.63786137 C2.00754866,8.80485903 2.35400661,9.82150201 2.74644134,10.5345231 C2.73745648,10.5639436 2.71526253,10.580871 2.68200512,10.5775339 C2.21200078,10.2946313 1.47206941,9.71319194 1.36475248,9.62147279 C1.18432068,9.95087757 0.961506385,10.3789265 0.854189459,10.9422214 C0.653026018,10.6918244 0.442324979,9.72335749 0.481726944,8.76120533 C0.352524909,8.61904867 0.0294252873,8.17005795 0,7.88236226 C0.242693376,7.61598953 0.708477465,7.47611622 0.705900145,7.47267875 C0.678313664,7.43588551 1.06912575,6.34147422 1.46004283,5.71256601 C1.10297088,5.18482161 0.989078572,4.73004421 0.936205411,4.80671415 C0.349057699,5.52492092 0.0762394069,6.18749543 0.117926908,6.08799865 C0.349771568,3.95669219 1.98549167,2.08064616 2.88112538,1.45151134 C2.62539352,1.77392827 2.37209746,2.23128658 2.12123718,2.82358628 C2.48012408,2.73680304 2.82756998,2.67285911 3.16357488,2.63175449 C3.65305599,2.04993617 4.21612253,1.60982351 4.49657334,1.41022389 L4.61937755,1.32579779 C4.70554969,1.27466279 4.67760469,1.2333414 4.66714067,1.21075602 L4.54121753,1.02673726 C4.41724724,0.853085303 4.26243576,0.650352133 4.20236786,0.581109588 C5.11880271,0.378701358 5.93455327,0.446668587 6.21291922,0.466860451 C7.39682786,-0.0572908031 8.96679219,-0.0194774117 9.07169964,0.0215287599 C8.59587336,0.173372206 8.18337525,0.391173669 7.77988211,0.747455857 L7.87856014,0.779896403 C8.1603276,0.863106465 8.91335255,1.05720682 9.50383817,1.37869404 L9.48872995,1.43224451 L8.93695811,1.44918115 C8.07607147,1.48249959 7.49665069,1.53991445 7.01570207,1.60106802 C6.72391656,1.83843209 6.34672781,3.0947191 6.26663938,3.5052523 L7.05808028,4.87671421 C7.11526126,4.97313196 7.16759259,5.05902828 7.21537318,5.13375977 L7.35167594,5.33565031 C7.40520689,5.40927678 7.45822619,5.45641228 7.56580906,5.43299321 L8.48696844,5.13923341 C9.01203037,4.97588305 9.6084843,4.80061076 10.1912066,4.66094272 C10.8035348,4.06056783 11.1164764,3.59461538 11.370754,3.24936182 C11.4024522,3.20201047 11.4172147,3.14684989 11.3396085,3.05383793 C10.965535,2.65018538 10.2994517,2.01607081 9.49125777,1.436844 L9.5041956,1.37672324 C10.3040695,1.51163388 11.0048707,1.7191182 11.6065993,1.9991762 L11.8584173,2.12364434 C11.8904622,2.14092634 11.9107396,2.14511881 11.9277259,2.09166899 C11.9757981,1.88807073 12.0131842,1.63768258 11.990145,1.32626962 C12.287262,1.55821178 12.7511852,2.16206274 13.067178,2.86539524 C13.8326987,3.51892105 14.3476006,4.19642738 14.6118836,4.89791425 C14.3713066,4.7200264 14.0865365,4.58765046 13.6491766,4.50884901 L13.7333391,4.98950127 C13.8014131,5.38744177 13.8816665,5.93951263 13.9035864,6.64042796 L13.9491698,7.09626202 C13.9823494,7.48485714 14.0211104,8.04286374 14.0654527,8.77028182 C14.4785864,8.562865 14.7901021,8.31779193 15,8.03506263 C14.9431453,8.92940163 14.2924013,9.99684315 14.0405832,10.2769486 C13.9961831,10.7600222 13.8527826,11.4735179 13.5792035,11.9533971 C13.3608859,11.6434574 13.1652853,11.4656309 12.9770499,11.3317974 L12.8046192,11.4526768 C12.4534845,11.6921164 11.8996075,12.0192966 10.9750655,12.264105 C11.0141827,12.6803992 10.9695225,13.1801508 10.9035646,13.5957705 C10.8616101,13.6453087 12.9076598,12.8060535 12.7204863,12.9011796 C11.0935425,14.5059082 8.9682142,15.058059 7.43157718,14.9952447 C7.8365804,14.889936 8.21748574,14.735984 8.57429321,14.5333889 C8.63963985,14.4927328 8.65110188,14.4633517 8.60867931,14.4452456 C8.47930376,14.3879322 7.79110479,13.9510349 7.59985448,13.7458539 C7.60005573,13.7245284 7.61310775,13.6868497 7.61369428,13.6864579 C8.66092113,13.8264487 9.59337264,13.7594247 9.59342642,13.7540305 C10.2231738,13.1815058 10.9044304,12.3190171 11.6371962,11.1665643 L11.8383186,10.8450698 C11.91806,10.731917 11.9423758,10.6543517 11.9112662,10.6123742 L11.8859494,10.5914581 C11.3145089,10.1735314 10.6655515,9.49586346 10.3770547,9.15971249 L10.4578793,9.05001599 C10.9845957,9.11757335 11.6171551,9.17799708 12.613913,9.13755382 C12.7451028,9.12796327 12.775094,9.10957422 12.8101756,9.04355706 L12.9760226,8.68889626 C13.4600254,7.63113659 13.8137629,6.66198864 13.8098751,6.66183967 C13.4272339,5.95996539 12.9763374,5.21572811 12.4571855,4.42912785 C11.7944353,4.44451642 11.0676949,4.57779972 10.3023313,4.78224207 C9.76285158,5.39523896 9.21690867,6.06237496 8.65533305,6.86045794 C8.60184292,6.9419965 8.59634282,7.02826134 8.63912939,7.09332796 L10.1321238,8.70668266 C10.2647363,8.84767373 10.372962,8.96138473 10.4568009,9.04781565 L10.3743838,9.15748401 C9.78247852,9.04389986 8.56056592,8.71307438 7.72196224,8.48557239 C7.63360092,8.46803003 7.57333077,8.46328023 7.51525934,8.54894043 C7.17971184,9.05021516 6.97359515,9.46149958 6.6310324,10.082092 L6.34437238,10.5914581 C6.32776092,10.5923766 6.20305186,11.2957205 5.97024523,12.7014898 C5.96343316,12.8217658 6.01838771,12.90695 6.13510886,12.9570424 L7.05769883,13.4204166 C7.26338503,13.5215557 7.44864008,13.6105459 7.60961611,13.684866 L7.5943452,13.7436225 C7.20742613,13.7769878 6.02406082,13.7686871 5.97714534,13.7625279 C5.97319437,14.3128969 6.11683156,14.6532978 6.21490053,14.8868392 C5.46428887,14.7269606 4.81556338,14.141041 4.39711263,13.6307041 C3.95928725,13.5856604 2.61437732,13.2666184 2.00874774,12.5847004 C2.58188159,12.6561816 2.94416901,12.5887038 3.26129237,12.5045228 L3.41735211,12.4508593 C3.55538676,12.3933417 3.54798348,12.348455 3.48633215,12.2617713 C3.41984994,12.2149424 2.79096894,10.9101462 2.68475422,10.581974 C2.72391213,10.5809611 2.73726091,10.5573594 2.75050456,10.5394862 L3.10718955,10.8532703 C3.60150166,11.2790866 3.92517818,11.5165908 4.24809734,11.7488122 C4.49079698,11.9420767 4.52495101,11.9166083 4.60604883,11.8803753 C5.54428609,11.247564 6.21629025,10.5559592 6.20676478,10.5539711 C6.11348335,10.1825107 5.9090857,8.85343587 5.85143588,8.15828857 C5.84493917,7.95273531 5.79292664,7.89176735 5.72369266,7.86263312 L5.64976613,7.83993415 C4.72591824,7.5662822 3.95379784,7.24570559 3.62701367,7.10804222 C3.63065644,7.06547043 3.62399655,6.99457841 3.6091447,6.96761714 C4.20308442,6.69671019 4.79482213,6.47891418 5.46173641,6.20300562 C5.83285375,6.08234679 5.80627106,6.03440722 5.80983174,5.89491275 C5.83836598,5.13519233 5.94880601,4.19757994 6.12918514,3.51039842 Z" id="Rectangle" fill="#FFFFFF"></path>
    </g>
</svg>