<svg xmlns="http://www.w3.org/2000/svg" width="50" height="50" viewBox="0 0 50 50"><g fill="none" fill-rule="evenodd" transform="translate(4)"><path fill="#FFF" d="M24.2093091,29.0739865 L27.9359294,31.3692965 C31.1442996,31.563303 36.5706065,30.7074173 39.5332154,28.01715 C38.7488953,33.0908772 36.9312874,38.0216418 34.8626627,42.9176765 C29.1897213,47.0118214 24.4591968,49.4304674 20.768742,50 L21.0144554,49.95815 L21.0119288,50 L20.8894554,49.97915 L20.768742,50 L20.7654554,49.95815 L20.6836038,49.9449528 C17.0423926,49.2867447 12.4240983,46.8914054 6.91800806,42.9176765 C4.84938343,38.0216418 3.03177552,33.0908772 2.24745545,28.01715 C5.21006428,30.7074173 10.6363712,31.563303 13.8447414,31.3692965 L17.5713617,29.0739865 L24.2093091,29.0739865 Z"/><path fill="#E47633" d="M24.2251786,29.0845513 L24.4581786,29.2275513 L24.4580235,48.957996 C23.2592137,49.4265287 22.1381991,49.7567513 21.097067,49.9449528 L21.0141786,49.9585513 L21.0119288,50 L20.8911786,49.9785513 L20.768742,50 L20.8901786,49.9785513 L20.768742,50 L20.7654554,49.95815 L20.6836038,49.9449528 C19.6421821,49.7566989 18.5208334,49.426345 17.3216468,48.9576049 L17.3211786,29.2285513 L17.5551786,29.0845513 L24.2251786,29.0845513 Z"/><path fill="#E47633" d="M24.2251786,29.0845513 L24.4581786,29.2275513 L24.4580235,48.957996 C23.2592137,49.4265287 22.1381991,49.7567513 21.097067,49.9449528 L21.0141786,49.9585513 L21.0119288,50 L20.8911786,49.9785513 L20.768742,50 L20.8901786,49.9785513 L20.768742,50 L20.7654554,49.95815 L20.6836038,49.9449528 C19.6421821,49.7566989 18.5208334,49.426345 17.3216468,48.9576049 L17.3211786,29.2285513 L17.5551786,29.0845513 L24.2251786,29.0845513 Z"/><path fill="#FFF" d="M20.8903354,3.02168657 C23.7953793,3.02168657 23.2523027,1.77072131 25.6450719,2.0975449 C33.0602355,3.4914004 37.5184786,7.50670887 39.0198011,14.1434703 C26.6317457,15.4256517 14.5182591,15.5411291 2.7608697,14.1434703 C5.00333867,7.59865708 9.22358254,3.63231278 15.4216013,2.24443741 C18.0875574,1.71967552 17.9852915,3.02168657 20.8903354,3.02168657 Z"/><path d="M26.0242942,0.0854316582 C34.2179119,1.62561602 39.3318055,6.23143496 41.0195491,13.6922915 L41.5285138,15.9422262 L39.2311417,16.1800074 C26.2703361,17.5214692 14.0770399,17.5505778 2.51854828,16.1765629 L0,15.8771707 L0.82114257,13.4806048 C3.28862365,6.27907688 8.06024096,1.79453103 15.0251499,0.235639105 C16.5213545,-0.0588710715 17.5364535,0.0450901431 18.7106122,0.490164533 C18.8120965,0.528632996 19.1212453,0.650306521 19.149514,0.661229047 C19.7384643,0.888789335 20.1387681,0.974241634 20.8903354,0.974241634 C21.6560608,0.974241634 21.9607181,0.899546833 22.3539766,0.702450697 C22.4010239,0.678871188 22.606864,0.572551218 22.6611722,0.54514754 C23.6532485,0.044550588 24.553678,-0.118031888 26.0242942,0.0854316582 Z M25.6450719,2.0975449 C23.2523027,1.77072131 23.7953793,3.02168657 20.8903354,3.02168657 C17.9852915,3.02168657 18.0875574,1.71967552 15.4216013,2.24443741 C9.22358254,3.63231278 5.00333867,7.59865708 2.7608697,14.1434703 C14.5182591,15.5411291 26.6317457,15.4256517 39.0198011,14.1434703 C37.5184786,7.50670887 33.0602355,3.4914004 25.6450719,2.0975449 Z"/><path fill="#E47633" d="M24.4586111,2.07542061 L24.4586111,15.0957743 C22.0675588,15.1558288 19.6883726,15.165462 17.3216724,15.1220388 L17.3225176,2.19992612 C18.3311161,2.42072658 18.9166945,3.02168657 20.8903354,3.02168657 C23.179727,3.02168657 23.3276229,2.2447599 24.4586111,2.07542061 Z M13.2616493,2.86041452 L13.2617124,14.9944593 C10.8691042,14.8874986 8.48978309,14.724078 6.12440175,14.5014242 L6.12374206,7.8612708 C8.0013225,5.54021266 10.3806249,3.87326057 13.2616493,2.86041452 Z M35.6563913,7.27306881 L35.6551995,14.4633559 C33.2655466,14.670148 30.8864717,14.8319916 28.5185672,14.9463694 L28.5196029,2.8159144 C31.5004068,3.76804172 33.8793363,5.25375986 35.6563913,7.27306881 Z"/><path fill="#E47633" d="M24.4586111,2.07542061 L24.4586111,15.0957743 C22.0675588,15.1558288 19.6883726,15.165462 17.3216724,15.1220388 L17.3225176,2.19992612 C18.3311161,2.42072658 18.9166945,3.02168657 20.8903354,3.02168657 C23.179727,3.02168657 23.3276229,2.2447599 24.4586111,2.07542061 Z M13.2616493,2.86041452 L13.2617124,14.9944593 C10.8691042,14.8874986 8.48978309,14.724078 6.12440175,14.5014242 L6.12374206,7.8612708 C8.0013225,5.54021266 10.3806249,3.87326057 13.2616493,2.86041452 Z M35.6563913,7.27306881 L35.6551995,14.4633559 C33.2655466,14.670148 30.8864717,14.8319916 28.5185672,14.9463694 L28.5196029,2.8159144 C31.5004068,3.76804172 33.8793363,5.25375986 35.6563913,7.27306881 Z"/><path fill="#FFF" fill-rule="nonzero" d="M2.81499702,14.0030997 L4.64316902,13.5459071 L4.11521903,15.1831482 C3.00827842,19.1163972 2.88995658,23.0321214 3.72721636,27.3095753 L4.61896746,29.9565958 L2.33570941,28.3807648 L2.18497013,27.6106569 C1.30157781,23.0975176 1.42739945,18.9335962 2.60239972,14.7585134 L2.81499702,14.0030997 Z"/><path fill="#FFF" fill-rule="nonzero" d="M38.343315,14.0030997 L40.171487,13.5459071 L39.643537,15.1831482 C38.5365964,19.1163972 38.4182745,23.0321214 39.2555343,27.3095753 L40.1472854,29.9565958 L37.8640274,28.3807648 L37.7132881,27.6106569 C36.8298958,23.0975176 36.9557174,18.9335962 38.1307177,14.7585134 L38.343315,14.0030997 Z" transform="matrix(-1 0 0 1 77.308 0)"/></g></svg>