<svg xmlns="http://www.w3.org/2000/svg" width="50" height="50" viewBox="0 0 50 50"><g fill="none" fill-rule="evenodd" transform="translate(5)"><path fill="#EB4D4E" d="M20.0170942,0.0162479315 C34.6440781,0.0162479315 40.1752017,9.73112191 40.1752017,20.3999237 L40.1573858,21.3834852 C39.8094487,34.7133828 35.0623412,50 20.0170942,50 C4.60035976,50 0,33.9491685 0,20.3999237 C0,9.73112191 5.39011034,0.0162479315 20.0170942,0.0162479315 Z M37.5611342,15.5352976 C31.623939,17.9403446 25.6155489,19.150333 19.6783536,19.150333 C13.7376445,19.150333 7.79693544,17.9463857 1.85611643,15.5352976 C0.496521016,20.7620406 1.66683932,29.1166025 3.0436148,33.2650384 C11.4768253,39.9863408 27.2413378,39.9175824 36.4003894,33.0618942 C38.7025552,25.5333018 38.4767894,18.5095563 37.5611342,15.5352976 Z"/><path fill="#000" d="M20.0170942,0.0162479315 C34.6440781,0.0162479315 40.1752017,9.73112191 40.1752017,20.3999237 L40.1573858,21.3834852 C39.8094487,34.7133828 35.0623412,50 20.0170942,50 C24.2434199,48.5006834 29.7691241,44.0197053 32.2499226,35.5196285 C33.73572,34.8312623 35.1314496,34.0117147 36.4003894,33.0618942 C38.7025552,25.5333018 38.4767894,18.5095563 37.5611342,15.5352976 C36.1124938,16.1221148 34.6596149,16.6377865 33.2045659,17.0820957 C32.2783338,8.29152965 29.1741517,3.9675113 20.0170942,0.0162479315 Z" opacity=".304"/><path fill="#FFF" d="M23.148542,38.0287245 L23.1477282,47.3532798 L17.4704757,47.3532798 L17.4779034,38.2071229 C19.3587357,38.308969 21.2659655,38.249499 23.148542,38.0287245 Z M35.549455,33.6667686 L34.2172888,37.3898541 C33.1271674,40.3414226 31.6348171,42.3922544 29.9396142,43.9888255 L29.9407315,36.463378 C31.9538687,35.7463435 33.8496645,34.8141344 35.549455,33.6667686 Z M6.056296,35.227133 C7.61366932,36.0532295 9.31559871,36.7102967 11.1073414,37.1983471 L11.1073974,43.9888255 C9.41219451,42.3922544 7.91984421,40.3414226 6.82972281,37.3898541 L6.056296,35.227133 Z M23.1477282,0.176327926 L23.1478608,19.0132685 C21.9893653,19.1046083 20.8325143,19.150333 19.6783536,19.150333 C18.9487514,19.150333 18.2191492,19.1321735 17.4895468,19.0958487 L17.5037108,0.127027488 C19.3892527,-0.0906770162 21.2498048,0.0019911458 23.1477282,0.176327926 Z M6.72895175,4.05504596 C9.07322857,5.24929538 10.6785897,7.68330803 10.6785897,10.4917792 L10.6787319,18.2289278 C9.41679488,17.97047 8.15485539,17.6576142 6.89291234,17.2903297 L6.8937547,10.425789 C6.8937547,8.67647363 5.58685137,7.23199994 3.8949462,7.01305568 C4.64865495,6.00550504 5.51816347,5.07266069 6.50912432,4.23657005 L6.72895175,4.05504596 Z M33.3986948,4.08737299 C34.3810007,4.88692014 35.2497046,5.77833266 36.0139092,6.74191318 L36.2264215,7.02293875 L35.959183,7.07344285 C34.4329605,7.42731952 33.2956415,8.79391162 33.2956415,10.425789 L33.2947667,17.05446 C32.034353,17.4419149 30.7722785,17.7758188 29.5098881,18.0560307 L29.5108065,10.4917792 C29.5108065,7.84448136 30.9371969,5.52989623 33.0643068,4.27273933 L33.3986948,4.08737299 Z"/></g></svg>