<svg xmlns="http://www.w3.org/2000/svg" width="50" height="50" viewBox="0 0 50 50"><g fill="none" fill-rule="evenodd"><path fill="#EB5556" d="M38.9490988,37.317173 L37.59269,38.7336487 C28.3877443,47.7047251 15.314009,53.236774 6.75425659,47.9205228 C8.23719997,44.2931888 10.7059792,40.1276941 14.0456011,35.5705438 C22.6180925,23.8727728 37.5820734,9.44222924 45.3986536,4.06627635 C52.4104656,11.8145223 48.350697,27.0361035 38.9490988,37.317173 Z M43.2214281,2.18246204 L42.9419967,2.38269639 C34.4460137,8.51027733 20.1824715,22.4275463 11.7698367,33.9071815 C8.53298545,38.3240941 6.0587885,42.4156265 4.45303666,46.1129519 C4.41115043,46.0731918 4.36950544,46.03211 4.32802113,45.9906803 C-4.00202436,37.6715978 0.62724192,23.0905955 10.2833629,12.4249217 L11.633066,11.0054901 C21.1966856,1.78844911 35.2565144,-3.12054547 43.2214281,2.18246204 Z"/><path fill="#000" d="M38.9491198,37.317152 L37.5927096,38.7336291 C28.3871078,47.7053452 15.3121719,53.2375503 6.75245268,47.9193989 C6.95065147,47.4391673 7.16416334,46.9499088 7.394644,46.4515827 C21.7980848,46.8370464 48.9440224,26.5467753 45.1711409,4.2249244 L45.4001994,4.06555246 C52.4105055,11.8144825 48.3507275,27.036073 38.9491198,37.317152 Z" opacity=".298"/><path fill="#FFF" fill-rule="nonzero" d="M25.8985059,14.5476118 L25.8985059,14.5476118 L25.8985059,14.5476118 C26.3725239,15.3396124 27.0789311,16.2540773 28.0168889,17.2815625 C28.912459,18.2626141 29.9106642,19.0581398 31.0150095,19.6729417 L31.0158625,19.6734166 C31.6948419,20.0514123 31.9388374,20.90826 31.5608416,21.5872395 C31.5605859,21.5876987 31.56033,21.5881578 31.5600738,21.5886168 C31.1807683,22.2681559 30.3226899,22.5119821 29.6427262,22.1334384 L29.6418732,22.1329635 L29.6418732,22.1329635 C28.2687682,21.3685399 27.0312517,20.3822937 25.9328286,19.1790269 C24.8767932,18.0221937 24.0587382,16.9631974 23.4778251,15.9925941 C23.0787416,15.3257959 23.2957673,14.4617281 23.9625654,14.0626445 C23.9630325,14.062365 23.9634996,14.0620858 23.963967,14.0618068 L23.9654768,14.0609056 C24.6337393,13.6619982 25.4988232,13.8798127 25.8985059,14.5476118 Z" transform="rotate(-3 27.508 18.087)"/><path fill="#FFF" fill-rule="nonzero" d="M30.8567234,9.21606812 L30.8567234,9.21606812 L30.8567234,9.21606812 C31.3307414,10.0080687 32.0371486,10.9225336 32.9751064,11.9500188 C33.8706765,12.9310704 34.8688817,13.7265961 35.973227,14.341398 L35.97408,14.3418728 C36.6530594,14.7198686 36.8970549,15.5767163 36.5190591,16.2556958 C36.5188035,16.256155 36.5185475,16.2566141 36.5182914,16.257073 C36.1389858,16.9366122 35.2809074,17.1804384 34.6009437,16.8018946 L34.6000907,16.8014198 L34.6000907,16.8014198 C33.2269857,16.0369962 31.9894692,15.05075 30.8910461,13.8474832 C29.8350107,12.69065 29.0169557,11.6316537 28.4360427,10.6610504 C28.0369591,9.99425217 28.2539848,9.13018432 28.920783,8.7311008 C28.92125,8.7308213 28.9217171,8.73054206 28.9221845,8.73026309 L28.9236943,8.72936185 C29.5919568,8.33045443 30.4570407,8.54826894 30.8567234,9.21606812 Z" transform="rotate(-3 32.466 12.755)"/><path fill="#FFF" fill-rule="nonzero" d="M20.9402883,19.8791556 L20.9402883,19.8791556 L20.9402883,19.8791556 C21.4143064,20.6711562 22.1207135,21.585621 23.0586714,22.6131063 C23.9542415,23.5941579 24.9524467,24.3896835 26.056792,25.0044854 L26.057645,25.0049603 C26.7366244,25.3829561 26.9806199,26.2398038 26.6026241,26.9187832 C26.6023684,26.9192425 26.6021125,26.9197016 26.6018563,26.9201605 C26.2225508,27.5996996 25.3644724,27.8435258 24.6845087,27.4649821 L24.6836557,27.4645072 L24.6836557,27.4645072 C23.3105507,26.7000837 22.0730342,25.7138374 20.9746111,24.5105706 C19.9185757,23.3537374 19.1005207,22.2947412 18.5196076,21.3241378 C18.1205241,20.6573396 18.3375497,19.7932718 19.0043479,19.3941883 C19.0048149,19.3939088 19.0052821,19.3936295 19.0057494,19.3933506 L19.0072592,19.3924493 C19.6755218,18.9935419 20.5406057,19.2113564 20.9402883,19.8791556 Z" transform="rotate(-3 22.55 23.418)"/><path fill="#FFF" fill-rule="nonzero" d="M15.9820708,25.2106993 L15.9820708,25.2106993 L15.9820708,25.2106993 C16.4560889,26.0026999 17.162496,26.9171648 18.1004539,27.94465 C18.9960239,28.9257016 19.9942292,29.7212273 21.0985744,30.3360292 L21.0994274,30.336504 C21.7784069,30.7144998 22.0224024,31.5713475 21.6444066,32.2503269 C21.6441509,32.2507862 21.643895,32.2512453 21.6436388,32.2517042 C21.2643333,32.9312434 20.4062549,33.1750696 19.7262912,32.7965258 L19.7254382,32.796051 L19.7254382,32.796051 C18.3523332,32.0316274 17.1148167,31.0453812 16.0163936,29.8421144 C14.9603582,28.6852812 14.1423032,27.6262849 13.5613901,26.6556816 C13.1623066,25.9888834 13.3793322,25.1248155 14.0461304,24.725732 C14.0465974,24.7254525 14.0470646,24.7251733 14.0475319,24.7248943 L14.0490417,24.723993 C14.7173043,24.3250856 15.5823882,24.5429001 15.9820708,25.2106993 Z" transform="rotate(-3 17.592 28.75)"/><path fill="#FFF" fill-rule="nonzero" d="M11.0238533,30.542243 L11.0238533,30.542243 L11.0238533,30.542243 C11.4978714,31.3342436 12.2042785,32.2487085 13.1422363,33.2761937 C14.0378064,34.2572453 15.0360117,35.052771 16.1403569,35.6675729 L16.1412099,35.6680478 C16.8201894,36.0460435 17.0641848,36.9028912 16.6861891,37.5818707 C16.6859334,37.5823299 16.6856775,37.582789 16.6854213,37.583248 C16.3061158,38.2627871 15.4480374,38.5066133 14.7680736,38.1280696 L14.7672206,38.1275947 L14.7672206,38.1275947 C13.3941157,37.3631711 12.1565992,36.3769249 11.0581761,35.1736581 C10.0021407,34.0168249 9.18408568,32.9578286 8.60317261,31.9872253 C8.20408909,31.3204271 8.42111472,30.4563592 9.08791291,30.0572757 C9.08837992,30.0569962 9.08884709,30.056717 9.08931442,30.056438 L9.09082422,30.0555368 C9.75908675,29.6566294 10.6241707,29.8744439 11.0238533,30.542243 Z" transform="rotate(-3 12.634 34.081)"/></g></svg>