<svg height="50" viewBox="0 0 50 50" width="50" xmlns="http://www.w3.org/2000/svg"><g fill="none" fill-rule="evenodd" transform="translate(0 1.9812)"><path d="m38.8056675 7.46125984c-.3355112 2.88822526-4.4091276 7.95562296-12.2208493 15.20219316.0177252-.5694098.028459-1.1595211.028459-1.7637601 0-4.893151-.7038986-8.8598336-1.5722015-8.8598336s-1.5722015 3.9666826-1.5722015 8.8598336c0 .6049795.0107601 1.1957966.0312605 1.7667055l-1.3401493-1.2566098c-6.9403943-6.581153-10.5677135-11.2300889-10.8835015-13.94852876-.5354344-4.60925177 3.8975528-7.98749768 8.0208912-7.39343489 2.7488923.39604186 4.6634591 1.9031996 5.7437006 4.52147322 1.0802414-2.61827362 2.9948083-4.12543136 5.7437006-4.52147322 4.1233384-.59406279 8.5563256 2.78418312 8.0208912 7.39343489z" fill="#35e75f"/><path d="m38.8056675 7.46125984c-.3355112 2.88822526-4.4091276 7.95562296-12.2208493 15.20219316.0177252-.5694098 16.4180423-16.87734874 4.1999581-22.59562805 4.1233384-.59406279 8.5563256 2.78418312 8.0208912 7.39343489z" fill="#000" opacity=".298061"/><path d="m34.898958 42.4595618c-2.5523951-1.3931182-5.7250446-7.0690299-9.5179484-17.0277352.5211357.2312744 1.0646937.462482 1.6254.6890221l.6288814.2492161c4.2667999 1.6577627 7.8646273 2.3796472 8.1747703 1.6120162.325272-.8050764-3.088887-2.9436653-7.6257376-4.7766719-.5610619-.2266837-1.1130192-.4380783-1.6501582-.6329757l1.0389338-.483585c9.0573188-4.1788077 14.9365219-5.8968195 17.6384724-5.1539011 4.474201 1.2302099 5.9458299 6.6059173 3.8503947 10.2064703-1.3969568 2.4003686-3.5115785 3.6109329-6.3438651 3.6316927 2.0229555 1.982405 2.7031584 4.3221517 2.0406089 7.0192401-.9938243 4.0456327-5.7867056 6.8903136-9.8597522 4.6672114z" fill="#35e75f"/><path d="m34.898958 42.4595618c7.2005029-2.4523909 8.3663444-6.7923112 3.4975243-13.019761 8.5352887-.4693574 12.5742568-9.7442496.4724068-11.8006341 2.8917957-.8370026 5.0060232-1.0717424 6.3426826-.7042194 4.474201 1.2302099 5.9458299 6.6059173 3.8503947 10.2064703-1.3969568 2.4003686-3.5115785 3.6109329-6.3438651 3.6316927 2.0229555 1.982405 2.7031584 4.3221517 2.0406089 7.0192401-.9938243 4.0456327-5.7867056 6.8903136-9.8597522 4.6672114z" fill="#000" opacity=".30213"/><g fill="#35e75f"><path d="m15.101042 42.4845532c2.5523951-1.3931182 5.7250446-7.0690299 9.5179484-17.0277352-.5211357.2312744-1.0646937.4624821-1.6254.6890221l-.6288814.2492161c-4.2667999 1.6577627-7.8646273 2.3796472-8.1747703 1.6120162-.325272-.8050764 3.088887-2.9436652 7.6257376-4.7766719.5610619-.2266837 1.1130192-.4380782 1.6501582-.6329757l-1.0389338-.483585c-9.0573188-4.1788077-14.93652194-5.8968195-17.63847235-5.1539011-4.4742011 1.23021-5.94582992 6.6059173-3.85039475 10.2064703 1.39695679 2.4003686 3.51157848 3.6109329 6.34386508 3.6316927-2.02295546 1.982405-2.70315841 4.3221517-2.04060887 7.0192402.99382433 4.0456326 5.78670559 6.8903136 9.85975219 4.6672113z"/><ellipse cx="25.041076" cy="35.627352" rx="2.281869" ry="10.410169"/></g></g></svg>