<svg xmlns="http://www.w3.org/2000/svg" width="50" height="50" viewBox="0 0 50 50"><g fill="none" fill-rule="evenodd" transform="translate(0 10)"><path fill="#FFF" fill-rule="nonzero" d="M39.797707 9.88142103 39.9315216 9.88055113C45.4921887 9.88055113 50 14.3824273 50 19.935773 50 25.4891186 45.4921887 29.9909948 39.9315216 29.9909948 34.3708546 29.9909948 29.8630432 25.4891186 29.8630432 19.935773 29.8630432 16.9917855 31.1299021 14.3432992 33.1488817 12.5043743L34.0956294 12.0488727 34.9173905 14.3573261C33.3876067 15.7296481 32.4254123 17.7204922 32.4254123 19.935773 32.4254123 24.0758245 35.7860119 27.4319994 39.9315216 27.4319994 44.0770313 27.4319994 47.4376309 24.0758245 47.4376309 19.935773 47.4376309 16.0625247 44.4962184 12.8753756 40.7225181 12.4806735L39.797707 9.88142103ZM37.9951865 10.0663258 38.8660353 12.5144903C37.9904241 12.6387527 37.1634626 12.9139171 36.4123938 13.3127761L35.5490279 10.880495C36.3152833 10.5099432 37.1356916 10.233538 37.9951865 10.0663258ZM15.157914 14.4258014C13.8201766 13.1928 12.0324094 12.4395465 10.0684784 12.4395465 5.92296868 12.4395465 2.56236907 15.7957214 2.56236907 19.935773 2.56236907 24.0758245 5.92296868 27.4319994 10.0684784 27.4319994 14.1919501 27.4319994 17.5388348 24.1114133 17.5743032 20.0017331L20.0732512 18.798334C20.1153391 19.171674 20.1369568 19.5512023 20.1369568 19.935773 20.1369568 25.4891186 15.6291454 29.9909948 10.0684784 29.9909948 4.50781132 29.9909948 0 25.4891186 0 19.935773 0 14.3824273 4.50781132 9.88055113 10.0684784 9.88055113 12.7651404 9.88055113 15.2141925 10.9392996 17.0215937 12.6632745L17.2788705 13.4054692 15.157914 14.4258014ZM18.6604589 14.6909169C19.1035263 15.4132838 19.4578187 16.1958391 19.7081754 17.0234421L17.3611713 18.1536072C17.1543955 17.3067731 16.8035827 16.5162971 16.3361231 15.8095336L18.6604589 14.6909169Z"/><path fill="#F19A57" fill-rule="nonzero" d="M44.3261576,2.10857111 C44.8679559,3.5134327 45.0237125,5.03743328 44.7772863,6.52264133 C44.5764304,7.40480204 42.1105007,6.99134346 42.2313054,6.10132301 C42.4024964,5.06955667 42.2942931,4.01084136 41.9179086,3.03489128 C41.778879,2.67439278 41.3776832,2.49001965 41.013083,2.61907053 L36.2612996,5.19129632 L41.4488831,19.7734128 C41.6870338,20.442846 41.3366948,21.1783339 40.666379,21.416171 C39.9919558,21.6541095 39.2543778,21.3027787 39.0158574,20.6317831 L35.0985821,9.61566819 L10.8991538,21.2641767 C10.2854496,21.5595848 9.54815261,21.3022099 9.25235497,20.6893137 L9.21824341,20.6119552 C8.95815781,19.9625973 9.24589313,19.2229949 9.87674155,18.9193344 L19.4536941,14.3089718 L17.3340036,8.18643876 L19.743436,7.3277296 L21.7763212,13.1901898 L34.2363947,7.19300715 L32.9694927,3.62240009 L40.1509805,0.189830919 C41.8333711,-0.405654329 43.6846267,0.445106845 44.3261576,2.10857111 Z M16.9339955,6.46316294 L18.6210043,4.0888099 L19.1674713,5.66771476 L16.9339955,6.46316294 Z"/><path fill="#FFF" d="M15.9775857,2.72760175 L22.1307369,2.72760175 L22.1307369,2.72760175 L22.1307369,4.61297012 L14.0753948,7.48166866 L14.1426709,4.52129102 C14.1653316,3.52413929 14.9801765,2.72760175 15.9775857,2.72760175 Z"/></g></svg>