<svg xmlns="http://www.w3.org/2000/svg" width="50" height="50" viewBox="0 0 50 50"><g fill="none" fill-rule="evenodd" transform="translate(0 8)"><path fill="#EB5556" d="M38.2813096,10.8078142 L38.3270196,10.8082721 C44.7738287,10.8082721 50,16.0275625 50,22.4658834 C50,28.9042043 44.7738287,34.1234947 38.3270196,34.1234947 C32.8870198,34.1234947 28.3161704,30.407119 27.021175,25.3779025 C33.454654,24.1148932 38.3067395,18.4521388 38.3067395,11.6576113 C38.3067395,11.3722689 38.2981821,11.0889225 38.2813096,10.8078142 Z"/><path fill="#639AEB" d="M10.3351296,10.6799095 C10.3127926,11.0029152 10.3014389,11.3289391 10.3014389,11.6576113 C10.3014389,18.8968439 15.8094521,24.8513048 22.8685051,25.5692307 C21.4422649,30.3959626 16.9695904,33.9190046 11.6729804,33.9190046 C5.22617134,33.9190046 0,28.6997143 0,22.2613933 C0,16.3280387 4.43852845,11.4299931 10.1805429,10.6981711 L10.3351296,10.6799095 Z"/><path fill="#FFF" d="M10.5428969 14.2570099C11.4428277 19.0381063 14.779234 22.9607258 19.2151313 24.6896443L19.4195854 24.7668573C18.4218167 28.2101884 15.2412276 30.7278155 11.4718399 30.7278155 6.90288507 30.7278155 3.19901539 27.0288225 3.19901539 22.4658834 3.19901539 18.2451647 6.36813889 14.7636599 10.459621 14.2651757L10.5428969 14.2570099ZM38.511086 14.2115865C43.0758185 14.2115865 46.7762652 17.9071611 46.7762652 22.4658834 46.7762652 27.0246057 43.0758185 30.7201803 38.511086 30.7201803 34.5535074 30.7201803 31.2455881 27.9423197 30.4356332 24.2324699 34.3575752 22.3219888 37.2517606 18.6368722 38.0713974 14.2243026L38.170396 14.2184714 38.511086 14.2115865Z"/><path fill="#282828" d="M36.3669987,18.8288007 L36.3669987,25.7186772 L34.5736351,25.7186772 L34.5742142,21.1635086 C35.2365868,20.4501035 35.8253467,19.6675655 36.3284327,18.8279398 L36.3669987,18.8288007 Z"/><path fill="#000" d="M38.3270196,34.1235039 C44.7738287,34.1235039 50,28.9042043 50,22.4658834 C50,16.0275625 44.7738287,10.8082721 38.3270196,10.8082721 C52.9049628,18.2159133 46.426841,31.5974902 38.3270196,34.1235039 Z" opacity=".303"/><ellipse cx="24.304" cy="11.658" fill="#72CC77" rx="11.673" ry="11.658"/><ellipse cx="24.304" cy="11.658" fill="#FFF" rx="8.265" ry="8.254"/><path fill="#282828" d="M21.5352672 8.23982616C21.2085158 8.23982616 20.9104268 8.28705686 20.6410002 8.38151826 20.3715736 8.47597966 20.1365419 8.61337806 19.9359051 8.79371345 19.7352682 8.97404885 19.5704594 9.19589001 19.4414786 9.45923694 19.344743 9.65674714 19.2729974 9.87518912 19.2262419 10.1145629L19.1878163 10.3609139 20.7441849 10.3609139C20.7441849 10.1433665 20.8072422 9.96589353 20.9333567 9.82849513 21.0594713 9.69109674 21.2257133 9.62239754 21.4320826 9.62239754 21.6269869 9.62239754 21.7860633 9.68250934 21.9093116 9.80273293 22.0325599 9.92295653 22.0941841 10.0803922 22.0941841 10.2750399 22.0941841 10.4754126 22.0282606 10.6385732 21.8964135 10.7645217 21.7975282 10.8589831 21.6760713 10.9180215 21.5320427 10.9416368L21.3804902 10.9534445 21.2461352 10.9512977 21.1827197 10.9448571 21.1827197 12.0011073 21.3546941 11.9710514 21.3546941 11.9710514C21.4062864 11.962464 21.460745 11.9581703 21.5180698 11.9581703 21.747369 11.9581703 21.9451396 12.029732 22.1113815 12.1728553 22.2776235 12.3159786 22.3607445 12.5278011 22.3607445 12.8083229 22.3607445 13.0430451 22.2919547 13.2405553 22.1543752 13.4008535 22.0167956 13.5611516 21.7989613 13.6413007 21.5008723 13.6413007 21.2199808 13.6413007 20.996414 13.5625828 20.8301721 13.4051472 20.6971785 13.2791986 20.6137136 13.1065346 20.5797773 12.8871552L20.5636117 12.7138615 18.8954598 12.7138615C18.8954598 12.9085092 18.9140904 13.1002945 18.9513515 13.2892173 18.9886126 13.4781401 19.0617017 13.6670629 19.1706189 13.8559857 19.4113831 14.2796307 19.732402 14.5887771 20.1336757 14.7834248 20.5349493 14.9780726 20.9849491 15.0753964 21.4836749 15.0753964 21.8562861 15.0753964 22.1988019 15.023872 22.5112221 14.9208232 22.8236423 14.8177744 23.0930689 14.6717886 23.3195019 14.4828658 23.5459349 14.2939431 23.7222087 14.0678082 23.8483232 13.8044613 23.9744378 13.5411143 24.0374951 13.2491427 24.0374951 12.9285465 24.0374951 12.539251 23.9443423 12.2114986 23.7580367 11.9452892 23.571731 11.6790798 23.3123363 11.4944507 22.9798524 11.3914019 23.1976867 11.2482786 23.3653617 11.0779618 23.4828776 10.8804516 23.6003934 10.6829414 23.6591514 10.4296131 23.6591514 10.1204667 23.6591514 9.83422007 23.6089922 9.57516684 23.5086738 9.34330704 23.4083553 9.11144725 23.2650433 8.91393705 23.0787377 8.75077645 22.8924321 8.58761586 22.6688653 8.46166733 22.4080374 8.37293086 22.1472096 8.2841944 21.8562861 8.23982616 21.5352672 8.23982616ZM27.2104908 8.23982616C26.8837393 8.23982616 26.5856503 8.28705686 26.3162237 8.38151826 26.0467971 8.47597966 25.8117654 8.61337806 25.6111286 8.79371345 25.4104918 8.97404885 25.2456829 9.19589001 25.1167021 9.45923694 25.0199665 9.65674714 24.9482209 9.87518912 24.9014654 10.1145629L24.8630399 10.3609139 26.4194084 10.3609139C26.4194084 10.1433665 26.4824657 9.96589353 26.6085803 9.82849513 26.7346948 9.69109674 26.9009368 9.62239754 27.1073061 9.62239754 27.3022104 9.62239754 27.4612868 9.68250934 27.5845351 9.80273293 27.7077835 9.92295653 27.7694076 10.0803922 27.7694076 10.2750399 27.7694076 10.4754126 27.7034841 10.6385732 27.571637 10.7645217 27.4727518 10.8589831 27.3512948 10.9180215 27.2072662 10.9416368L27.0557138 10.9534445 26.9213588 10.9512977 26.8579432 10.9448571 26.8579432 12.0011073 27.0299176 11.9710514 27.0299176 11.9710514C27.0815099 11.962464 27.1359685 11.9581703 27.1932933 11.9581703 27.4225925 11.9581703 27.6203631 12.029732 27.7866051 12.1728553 27.952847 12.3159786 28.035968 12.5278011 28.035968 12.8083229 28.035968 13.0430451 27.9671782 13.2405553 27.8295987 13.4008535 27.6920191 13.5611516 27.4741849 13.6413007 27.1760959 13.6413007 26.8952043 13.6413007 26.6716376 13.5625828 26.5053956 13.4051472 26.3724021 13.2791986 26.2889371 13.1065346 26.2550008 12.8871552L26.2388353 12.7138615 24.5706833 12.7138615C24.5706833 12.9085092 24.5893139 13.1002945 24.626575 13.2892173 24.6638361 13.4781401 24.7369253 13.6670629 24.8458424 13.8559857 25.0866066 14.2796307 25.4076255 14.5887771 25.8088992 14.7834248 26.2101728 14.9780726 26.6601726 15.0753964 27.1588984 15.0753964 27.5315097 15.0753964 27.8740254 15.023872 28.1864456 14.9208232 28.4988658 14.8177744 28.7682924 14.6717886 28.9947254 14.4828658 29.2211584 14.2939431 29.3974322 14.0678082 29.5235468 13.8044613 29.6496614 13.5411143 29.7127186 13.2491427 29.7127186 12.9285465 29.7127186 12.539251 29.6195658 12.2114986 29.4332602 11.9452892 29.2469546 11.6790798 28.9875598 11.4944507 28.6550759 11.3914019 28.8729102 11.2482786 29.0405853 11.0779618 29.1581011 10.8804516 29.275617 10.6829414 29.3343749 10.4296131 29.3343749 10.1204667 29.3343749 9.83422007 29.2842157 9.57516684 29.1838973 9.34330704 29.0835789 9.11144725 28.9402668 8.91393705 28.7539612 8.75077645 28.5676556 8.58761586 28.3440888 8.46166733 28.083261 8.37293086 27.8224331 8.2841944 27.5315097 8.23982616 27.2104908 8.23982616ZM40.4517372 18.6369076C40.1040442 18.6369076 39.7853257 18.6825965 39.4955816 18.7739741 39.2058375 18.8653518 38.9587925 18.9963265 38.7544466 19.1668981 38.5501008 19.3374698 38.389979 19.5400236 38.2740814 19.7745597 38.1581837 20.0090957 38.1002349 20.272568 38.1002349 20.5649765 38.1002349 21.2777224 38.4601276 21.7833455 39.179913 22.0818459 38.2710314 22.429081 37.8165907 23.01999 37.8165907 23.8545727 37.8165907 24.1530731 37.8836893 24.4272061 38.0178866 24.6769718 38.1520839 24.9267374 38.3381301 25.1429979 38.5760252 25.3257532 38.8139204 25.5085086 39.0929898 25.650144 39.4132333 25.7506594 39.7334767 25.8511749 40.0796447 25.9014326 40.4517372 25.9014326 40.8360294 25.9014326 41.1882972 25.8496519 41.5085407 25.7460905 41.8287842 25.6425292 42.1063286 25.4993708 42.3411738 25.3166155 42.576019 25.1338601 42.7590153 24.9175996 42.8901627 24.667834 43.02131 24.4180684 43.0868837 24.1469813 43.0868837 23.8545727 43.0868837 23.0382655 42.6171932 22.4473566 41.6778123 22.0818459 41.8913079 21.9843764 42.0697293 21.8838609 42.2130764 21.7802996 42.3564235 21.6767382 42.4723211 21.565562 42.5607693 21.4467711 42.6492176 21.3279801 42.7117413 21.1970054 42.7483405 21.0538471 42.7849398 20.9106887 42.8032394 20.7477319 42.8032394 20.5649765 42.8032394 20.272568 42.7452906 20.0090957 42.629393 19.7745597 42.5134953 19.5400236 42.3533736 19.3374698 42.1490277 19.1668981 41.9446819 18.9963265 41.6976369 18.8653518 41.4078928 18.7739741 41.1181486 18.6825965 40.7994301 18.6369076 40.4517372 18.6369076Z"/><path fill="#FFF" d="M40.4517372 22.8128673C40.6774326 22.8128673 40.8711037 22.8935842 41.0327504 23.0550181 41.1943971 23.216452 41.2752204 23.412914 41.2752204 23.6444041 41.2752204 23.7601491 41.2538709 23.8682794 41.2111717 23.9687948 41.1684726 24.0693102 41.1089988 24.157642 41.0327504 24.2337901 40.9565019 24.3099381 40.8680537 24.3708566 40.7674058 24.4165454 40.6667578 24.4622342 40.5615349 24.4850787 40.4517372 24.4850787 40.3358395 24.4850787 40.2275667 24.4622342 40.1269188 24.4165454 40.0262708 24.3708566 39.9393476 24.3099381 39.8661491 24.2337901 39.7929505 24.157642 39.7350017 24.0677873 39.6923026 23.9642259 39.6496035 23.8606646 39.6282539 23.7510114 39.6282539 23.6352663 39.6282539 23.409868 39.7075523 23.216452 39.8661491 23.0550181 40.0247458 22.8935842 40.2199419 22.8128673 40.4517372 22.8128673ZM40.4517372 19.8339551C40.6652328 19.8339551 40.8451792 19.9085802 40.9915762 20.0578304 41.1379732 20.2070806 41.2111717 20.3852671 41.2111717 20.5923898 41.2111717 20.6898593 41.1913472 20.7842829 41.151698 20.8756606 41.1120488 20.9670383 41.0586748 21.0477552 40.9915762 21.1178114 40.9244776 21.1878677 40.8451792 21.2442172 40.753681 21.2868601 40.6621829 21.329503 40.5615349 21.3508245 40.4517372 21.3508245 40.2382415 21.3508245 40.0582952 21.2761994 39.9118981 21.1269492 39.7655011 20.977699 39.6923026 20.7964666 39.6923026 20.5832521 39.6923026 20.3761293 39.7655011 20.1994658 39.9118981 20.0532616 40.0582952 19.9070573 40.2382415 19.8339551 40.4517372 19.8339551Z"/><polygon fill="#282828" points="9.09 19.242 6.384 19.242 6.384 20.709 7.357 20.709 7.357 25.901 9.09 25.901"/><path fill="#282828" d="M12.4490528,19.1032366 C13.2258669,20.3342463 14.1896085,21.4357982 15.3004847,22.3681516 L15.2620607,22.4527372 C15.1058321,22.7618393 14.8567506,23.0783008 14.5148162,23.402122 L13.4094251,24.4354059 L15.5671486,24.4354059 L15.5671486,25.9014326 L10.1993691,25.9014326 L11.8530343,24.1881243 L12.1034717,23.9244161 C12.422296,23.583874 12.6807512,23.2876071 12.8788373,23.0356153 C13.1264449,22.7206257 13.3106768,22.4542092 13.4315329,22.2363658 C13.552389,22.0185225 13.6275556,21.8418928 13.6570327,21.7064767 C13.6865098,21.5710605 13.7012483,21.4562512 13.7012483,21.3620487 C13.7012483,21.2619585 13.6850359,21.1648122 13.6526111,21.0706097 C13.6201863,20.9764071 13.5715491,20.892508 13.5066995,20.8189123 C13.4418499,20.7453166 13.3637356,20.68644 13.2723566,20.6422826 C13.1809776,20.5981251 13.0733862,20.5760464 12.9495823,20.5760464 C12.7137656,20.5760464 12.5295337,20.652586 12.3968868,20.8056651 C12.2642398,20.9587442 12.1979164,21.150093 12.1979164,21.3797117 L12.2008641,21.4542887 L12.2244457,21.6623192 L10.3320161,21.6623192 L10.343899,21.3775038 C10.3676649,21.099312 10.4270797,20.840991 10.5221433,20.6025409 C10.6488949,20.2846074 10.8272313,20.0108313 11.0571527,19.7812127 C11.287074,19.551594 11.5597372,19.3749643 11.8751421,19.2513235 C12.0328446,19.1895031 12.1982848,19.1431378 12.3714628,19.1122276 L12.4490528,19.1032366 Z"/></g></svg>