<svg xmlns="http://www.w3.org/2000/svg" width="50" height="50" viewBox="0 0 50 50"><g fill="none" fill-rule="evenodd" transform="translate(0 4)"><path fill="#FFF" d="M38.1841685,0 C44.5060283,0 49.6309083,5.11813237 49.6309083,11.4316686 C49.6309083,13.253808 49.2040325,14.9763764 48.444706,16.5050732 C43.7290384,13.9618022 36.0975801,15.927528 35.9866252,21.9177526 L35.9745617,22.6505319 C30.7100419,21.6223276 26.7374286,16.9903141 26.7374286,11.4316686 C26.7374286,5.11813237 31.8623086,0 38.1841685,0 Z"/><path fill="#000" d="M38.6953612,21.9677936 C38.7614848,18.3979152 43.8330901,17.2592812 46.9440538,18.7569586 C44.7185083,21.4265491 41.6351708,23.0066254 38.940364,23.1579591 L38.6770345,23.1649595 L38.6953612,21.9677936 Z M45.3851402,13.8111996 C52.3900189,8.31632201 47.3388526,2.19616118 47.4512709,2.24713035 L48.3191685,3.1273184 C50.7708821,8.46440412 50.296999,13.0701337 48.4576144,16.5159051 C43.7445682,13.9578082 36.097693,15.9214361 35.9866252,21.9177526 L35.9726776,22.8862325 C33.9550176,22.4286446 32.1398639,21.4387585 30.6830902,20.0722428 C31.8167025,20.1068029 32.523598,19.6303135 35.1750658,18.8528146 C36.3729442,14.1972114 41.0794344,11.75126 45.3851402,13.8111996 Z" opacity=".25"/><polygon fill="#C78852" points="8.622 1.112 14.186 7.268 1.808 6.404"/><path fill="#C78852" d="M49.1325322,21.1067956 C54.5017456,39.5337115 33.6744183,48.85519 21.6118929,33.538312 L15.3329844,26.3811839 L11.8195878,22.2987724 L28.8640641,23.4892507 L32.6476847,27.6072975 C36.2576426,30.9133892 38.5357696,29.5597179 38.6043411,27.9483824 L38.6953612,21.9677936 C38.7832954,17.2204089 47.7233619,16.7726496 49.1325322,21.1067956 Z"/><path fill="#FFF" d="M16.7823829,10.1627937 L20.050484,13.7754866 L3.19722611,12.5985436 L0,8.99080032 L16.7823829,10.1627937 L16.7823829,10.1627937 Z M22.948865,16.9794757 L26.2169661,20.5921685 L9.22997633,19.4058865 L6.03275022,15.7981431 L22.948865,16.9794757 Z"/><path fill="#000" d="M43.6589415,35.8977254 C49.4863702,31.0419268 49.1756649,22.8860933 49.1325322,21.1723145 C54.5017456,39.5992304 33.6744183,48.9207089 21.6118929,33.6038309 C30.0825806,39.3129154 37.4315968,40.0775469 43.6589415,35.8977254 Z" opacity=".25"/></g></svg>