<svg xmlns="http://www.w3.org/2000/svg" width="50" height="50" viewBox="0 0 50 50"><g fill="none" fill-rule="evenodd" transform="translate(7)"><path fill="#FFF" fill-rule="nonzero" d="M17.6844809,31.0752137 C22.8683003,32.0815194 26.2537688,37.0940744 25.2461364,42.2710686 C24.2385039,47.4480629 19.2193405,50.8290739 14.0355211,49.8227682 C8.9570846,48.8369198 5.60462419,44.0060544 6.41783731,38.9424098 L8.3718183,40.5300117 C8.40592154,44.0079144 10.879546,47.099395 14.4313874,47.788894 C18.4904482,48.5768567 22.4205793,45.9294401 23.2095808,41.8757235 C23.9985823,37.822007 21.3476754,33.8970505 17.2886146,33.1090878 C14.8781475,32.6411574 12.5131483,33.3847341 10.8244446,34.9148795 L9.20006877,33.5958414 C11.3688229,31.4974622 14.4954951,30.4561538 17.6844809,31.0752137 Z M7.96390082,35.059199 L9.58051439,36.3733115 C9.19676854,36.9625636 8.89195213,37.6136314 8.68383215,38.3145465 L6.97164853,36.9240023 C7.23535344,36.2586267 7.56966917,35.6346242 7.96390082,35.059199 Z"/><polygon fill="#639AEB" points="2.818 10.229 6.604 11.225 6.132 11.996 7.522 13.857 6.551 17.013 8.093 18.218 9.623 19.759 4.232 22.613 2.589 20.766 .95 16.526 1.312 12.48"/><polygon fill="#F7D09D" points="9.61 13.566 11.715 14.447 14.274 14.632 14.582 16.269 10.875 16.575 8.823 16.134"/><polygon fill="#639AEB" points="16.167 14.403 18.525 13.961 19.149 15.288 18.69 16.561 16.483 15.977"/><path fill="#EB5556" fill-rule="nonzero" d="M15.353005,26.559572 L16.7306816,27.645352 L16.8767272,27.7497517 L17.2355583,27.9808968 L4.29086991,32.075822 L14.0675444,40.0185947 C14.4749203,40.3495553 14.5653286,40.9253984 14.2991022,41.3609322 L14.2176026,41.475971 C13.8560535,41.9197986 13.2026924,41.9868843 12.7582797,41.6258113 L0,31.2600602 L13.7695317,26.9049332 L15.353005,26.559572 Z M21.1859595,24.5577243 L23.1119558,26.1212539 L19.8887556,27.1410581 L17.7071526,25.6579386 L21.1859595,24.5577243 Z M30.0230214,21.7625163 L30.6495142,23.7377332 L25.3344558,25.4179847 L23.4084595,23.8544551 L30.0230214,21.7625163 Z"/><polygon fill="#639AEB" points="11.265 21.059 14.847 21.041 17.487 21.553 25.921 28.403 28.625 26.984 28.949 28.262 25.276 30.898 17.918 26.142 15.83 24.497 13.171 25.076 9.536 25.341 5.62 24.046"/><polygon fill="#F7D09D" points="7.843 5.032 8.778 5.352 8.469 6.085 8.832 7.036 7.956 7.89 7.607 8.44 6.696 9.262 4.47 8.672 3.342 7.292 4.548 6.885 5.046 5.454 6.756 5.602"/><polygon fill="#639AEB" points="3.686 .256 5.117 0 6.561 .263 8.708 1.598 9.494 3.33 10.641 3.298 10.717 3.9 9.648 4.006 7.711 3.346 6.436 4.015 4.512 3.848 3.732 4.498 3.328 5.657 2.547 5.921 1.562 5.694 1.17 4.809 1.15 3.953 1.242 2.864 1.874 1.694 2.728 .783"/><path fill="#FFF" fill-rule="nonzero" d="M34.7664475,8.89098015 L35.3127113,10.0448658 L34.7350078,10.3176381 C29.8688405,12.6152799 25.7169177,13.9350194 20.9971867,14.626161 L20.3715855,13.4618825 L21.0038415,13.3692971 C25.5837165,12.6986355 29.4280903,11.4115742 34.188744,9.16375244 L34.7664475,8.89098015 Z"/></g></svg>