<svg xmlns="http://www.w3.org/2000/svg" xmlns:xlink="http://www.w3.org/1999/xlink" width="50" height="50" viewBox="0 0 50 50"><defs><path id="a" d="M40.9569697,42.9821471 C50.3264431,33.6250099 50.3264431,18.4540931 40.9569697,9.09695591 C48.0645252,29.9953721 30.1453565,50.2378736 7.02710505,42.9821471 C16.3965784,52.3392843 31.5874963,52.3392843 40.9569697,42.9821471 Z"/></defs><g fill="none" fill-rule="evenodd" transform="translate(1)"><path fill="#FFF" d="M23.9920374,0 C37.2424737,0 47.9840747,10.7274582 47.9840747,23.9604485 C47.9840747,37.1934388 37.2424737,47.920897 23.9920374,47.920897 C10.741601,47.920897 0,37.1934388 0,23.9604485 C0,10.7274582 10.741601,0 23.9920374,0 Z M25.8016349,37.7771165 C23.4345142,38.1093556 21.7267853,39.8794868 21.9873156,41.7308152 C22.2478459,43.5821436 24.3779778,44.8136088 26.7450984,44.4813697 C29.112219,44.1491307 30.819948,42.3789994 30.5594177,40.527671 C30.2988874,38.6763426 28.1687555,37.4448774 25.8016349,37.7771165 Z M9.07910474,32.9056638 C7.67790343,33.9989609 7.77797271,36.4651365 9.30261575,38.4140213 C10.8272588,40.362906 13.1991243,41.0564968 14.6003256,39.9631998 C16.0015269,38.8699027 15.9014576,36.4037271 14.3768146,34.4548423 C12.8521715,32.5059576 10.4803061,31.8123668 9.07910474,32.9056638 Z M36.7768833,33.3408303 C35.2313123,35.3891718 34.9400481,37.7733957 36.1263264,38.6661435 C37.3126047,39.5588914 39.5272061,38.6220977 41.072777,36.5737562 C42.618348,34.5254148 42.9096122,32.1411909 41.7233339,31.248443 C40.5370556,30.3556952 38.3224542,31.2924889 36.7768833,33.3408303 Z M16.0809354,20.9178519 C13.5320447,20.9178519 11.4657605,22.9814155 11.4657605,25.5269502 C11.4657605,28.0724849 13.5320447,30.1360486 16.0809354,30.1360486 C18.6298261,30.1360486 20.6961102,28.0724849 20.6961102,25.5269502 C20.6961102,22.9814155 18.6298261,20.9178519 16.0809354,20.9178519 Z M43.6977025,18.6258776 C42.7187544,18.7807236 42.2118015,20.7136501 42.5653915,22.9431898 C42.9189814,25.1727296 43.9992169,26.8546011 44.978165,26.6997551 C45.957113,26.5449091 46.4640659,24.6119826 46.110476,22.3824429 C45.756886,20.1529032 44.6766505,18.4710316 43.6977025,18.6258776 Z M33.0501821,18.4246129 C30.5012914,18.4246129 28.4350072,20.4881766 28.4350072,23.0337113 C28.4350072,25.579246 30.5012914,27.6428097 33.0501821,27.6428097 C35.5990728,27.6428097 37.665357,25.579246 37.665357,23.0337113 C37.665357,20.4881766 35.5990728,18.4246129 33.0501821,18.4246129 Z M3.15993805,18.7451884 C2.11388597,20.8870891 2.33653115,23.1449403 3.65722999,23.78824 C4.97792882,24.4315398 6.89655953,23.2166836 7.94261162,21.0747828 C8.9886637,18.9328821 8.76601852,16.6750309 7.44531968,16.0317312 C6.12462084,15.3884314 4.20599014,16.6032876 3.15993805,18.7451884 Z M34.9040179,7.85978795 C33.6914291,8.67661255 33.9447253,11.1692471 35.4697707,13.4272431 C36.9948162,15.6852391 39.2141073,16.8535394 40.4266961,16.0367148 C41.6392849,15.2198902 41.3859887,12.7272556 39.8609432,10.4692596 C38.3358978,8.21126361 36.1166067,7.04296336 34.9040179,7.85978795 Z M13.6846457,5.72596759 C11.6602754,7.30549664 10.8786618,9.68457177 11.9388628,11.0397806 C12.9990639,12.3949894 15.4996032,12.213142 17.5239735,10.6336129 C19.5483439,9.05408388 20.3299575,6.67500876 19.2697564,5.31979991 C18.2095553,3.96459107 15.7090161,4.14643853 13.6846457,5.72596759 Z M21.4236428,1.83201714 C21.4160038,2.27064438 23.0205934,2.65599709 25.0326021,2.70547485 L25.1588723,2.70812732 C27.2295935,2.7442243 28.9145891,2.41050119 28.9224425,1.96273588 C28.9302412,1.51497058 27.2579343,1.12272269 25.187213,1.0866257 C23.1164918,1.05052872 21.4314962,1.38425183 21.4236428,1.83201714 Z"/><use xlink:href="#a" fill="#000" opacity=".288"/></g></svg>