<svg xmlns="http://www.w3.org/2000/svg" xmlns:xlink="http://www.w3.org/1999/xlink" width="50" height="50" viewBox="0 0 50 50"><defs><path id="a" d="M24.8910725,6.22453609 C34.6368628,6.22453609 42.5373868,8.34321414 42.5373868,10.9566937 C42.5373868,12.0657779 41.1145775,13.0857469 38.7317327,13.8925009 C37.4185899,11.7174255 33.4345051,7.32484933 24.8910725,6.22453609 Z"/></defs><g fill="none" fill-rule="evenodd" transform="translate(0 6)"><path fill="#BDD3FB" d="M49.5032568,23.9326389 C47.0804474,27.0120755 37.2248491,29.1178777 25.685612,29.1835252 C13.9474264,29.2503046 3.80287762,27.2090298 0.700621398,23.8845589 L0.0476918148,23.18486 L0,23.2292469 L0,19.7627467 C0,16.5084195 1.57691338,13.6386072 4.73074014,11.15331 C6.43161525,20.7651822 46.5262115,19.3964946 44.8862795,10.8344973 C47.5663384,12.5979864 50,16.3347465 50,19.7627467 L50,23.301269 L49.5032568,23.9326389 Z M49.8557188,26.231949 C49.2115177,29.4125001 46.3953545,33.6774297 41.1115218,35.5447642 C30.3207526,39.1336738 19.55961,39.139843 8.82824696,35.5447642 C2.07438446,32.6048167 0.2964139,29.2909047 0.036077429,25.876531 C4.19352238,29.2971196 14.1843994,31.1618636 25.696523,31.0963703 C36.5589075,31.0345735 45.9146348,29.2719631 49.8557188,26.231949 L49.8557188,26.231949 Z"/><path fill="#000" d="M49.5032568,23.9326389 C48.4680248,25.2484384 46.0757653,26.3864783 42.7749747,27.2635586 C42.9468722,22.6508084 42.9307055,17.2646074 40.5098019,15.5007524 C43.488619,14.3435828 45.2576689,12.7735018 44.8862795,10.8344973 C47.5663384,12.5979864 50,16.3347465 50,19.7627467 L50,23.301269 L49.5032568,23.9326389 Z M41.1115218,35.5447642 C42.3040402,33.8138974 42.7348198,31.027876 42.638872,29.274804 C45.7627337,28.4900002 48.2555434,27.4662682 49.8557188,26.231949 C49.2115177,29.4125001 46.3953545,33.6774297 41.1115218,35.5447642 Z" opacity=".299"/><path fill="#639AEB" d="M29.4870604,0.0819121923 L32.7983367,0.187884601 C33.8003482,0.222516781 34.756785,0.256817277 35.6219311,0.285745636 C38.1953963,0.290015957 38.0753407,3.85170589 35.5821319,3.58358388 L23.6456479,3.58358388 C23.5454321,3.58358388 23.4474875,3.59153952 23.3518329,3.60650961 L23.210071,3.63410793 C22.4080497,3.76639771 21.710683,4.16766391 21.1181982,4.83885608 C20.3935249,5.65979717 20.0892161,6.70159139 20.2102585,7.77192678 C20.2484376,8.23085187 20.3487788,8.6237222 20.4860715,8.87729895 C20.637667,9.26949926 20.8486598,9.65871921 21.1181982,10.0331361 L21.2234964,10.1617616 C21.6708103,10.6433852 22.4177305,10.7282076 22.9656437,10.3348093 C23.5592162,9.90862774 23.694458,9.08258727 23.2677146,8.48979624 C22.7509293,7.77192765 22.8723092,7.26036953 23.1544221,6.72068299 C23.3172659,6.40916023 23.6633648,6.24539654 24.1927189,6.22939191 L24.3000571,6.22717443 L24.4519763,6.2325944 L24.6705777,6.22575493 L24.8910725,6.22457031 C34.6368628,6.22457031 42.5373868,8.34321414 42.5373868,10.9566937 C42.5373868,13.5701734 34.6368628,15.6888172 24.8910725,15.6888172 L23.8542175,15.6807841 C14.5910364,15.5368543 7.2447583,13.4768348 7.2447583,10.9566937 C7.2447583,9.43375136 9.92753555,8.07884012 14.0949,7.21327265 C14.7332096,4.57351312 17.001078,1.08282615 20.0227655,0.285745636 C20.6867758,0.0845477749 22.2689371,0.00786310595 24.2641364,0 L25.1430373,0.000681296264 L26.8243067,0.0200343588 C27.6901626,0.0348008455 28.5874092,0.056492075 29.4870604,0.0819121923 Z"/><mask id="b" fill="#fff"><use xlink:href="#a"/></mask><use xlink:href="#a" fill="#000" opacity=".3"/><path fill="#282828" fill-rule="nonzero" d="M52.513396,20.8880739 L54.1544471,22.3648988 L53.4150611,23.184344 C48.5204695,28.6089122 39.0434094,31.2557028 25,31.2557028 C10.9565906,31.2557028 1.47953047,28.6089122 -3.41506115,23.184344 L-4.15444711,22.3648988 L-2.51339605,20.8880739 L-1.77401009,21.7075191 C2.60309165,26.5585647 11.5223886,29.049581 25,29.049581 C38.4776114,29.049581 47.3969084,26.5585647 51.7740101,21.7075191 L52.513396,20.8880739 Z" mask="url(#b)"/></g></svg>