<svg xmlns="http://www.w3.org/2000/svg" xmlns:xlink="http://www.w3.org/1999/xlink" width="30" height="30" viewBox="0 0 30 30"><defs><polygon id="a" points="0 0 19.787 0 19.787 12.665 0 12.665"/><path id="c" d="M0,0 L24.239,0 L24.239,0.868 C24.239,1.826 23.462,2.603 22.504,2.603 L1.734,2.603 C0.776176507,2.60244794 0,1.82582365 0,0.868 L0,0 Z"/></defs><g fill="none" fill-rule="evenodd"><rect width="30" height="30"/><polygon fill="#505050" fill-rule="nonzero" points="0 0 30 0 30 30 0 30" opacity="0"/><path fill="#000" fill-rule="nonzero" d="M4.28,2 L25.05,2 C26.008,2 26.785,2.777 26.785,3.735 L26.785,18.742 L2.545,18.742 L2.545,3.735 C2.54610367,2.77646253 3.3234619,2 4.282,2 L4.28,2 Z"/><polygon fill="#FFF" fill-rule="nonzero" points="0 0 19.787 0 19.787 12.665 0 12.665" transform="translate(4.772 4.255)"/><g transform="translate(4.772 4.255)"><mask id="b" fill="#fff"><use xlink:href="#a"/></mask><path fill="#0F0F0F" fill-rule="nonzero" d="M18.108,-0.005 L6.288,12.665 C6.182,12.665 2.109,12.667 2.011,12.665 C4.643,9.849 8.591,5.627 13.856,-1.06578808e-13 L18.108,-0.004 L18.108,-0.005 Z" mask="url(#b)" opacity=".25"/></g><path fill="#0F0F0F" fill-rule="nonzero" d="M24.559,4.257 L24.559,4.366 L12.852,16.921 L11.902,16.922 L23.713,4.257 L24.559,4.257 Z M17.431,4.251 L5.615,16.922 L4.772,16.922 L4.769,16.811 L16.483,4.25 L17.431,4.251 Z" opacity=".25"/><path fill="#D8D8D8" fill-rule="nonzero" d="M0,0 L24.239,0 L24.239,0.868 C24.239,1.826 23.462,2.603 22.504,2.603 L1.734,2.603 C0.776176507,2.60244794 0,1.82582365 0,0.868 L0,0 Z" transform="translate(2.546 19.956)"/><g transform="translate(2.546 19.956)"><mask id="d" fill="#fff"><use xlink:href="#c"/></mask><path fill="#000" fill-rule="nonzero" d="M20.589,2.105 L20.666,2.093 C21.611,1.942 22.881,1.437 22.853,-0.117 C23.345,-0.362 23.807,-0.322 24.239,2.12052598e-14 L24.239,0.887 C24.239,1.837 23.473,2.611 22.522,2.622 L18.813,2.659 C6.873,2.772 0.603,2.753 1.36488043e-14,2.603 C-1.033,2.345 15.746,2.625 20.589,2.105 L20.589,2.105 Z" mask="url(#d)" opacity=".25"/></g><polygon fill="#D8D8D8" fill-rule="nonzero" points="10.736 23.773 19.827 23.773 23.6 26.549 7.032 26.549"/><polygon fill="#000" fill-rule="nonzero" points="16.506 23.773 19.827 23.773 23.6 26.549 19.29 26.549" opacity=".25"/><path fill="#D8D8D8" fill-rule="nonzero" d="M6.903,27.306 L23.764,27.306 C23.922,27.55 23.866,27.776 23.764,28 L6.903,28 L6.871,27.912 C6.802,27.716 6.751,27.518 6.903,27.306 L6.903,27.306 Z"/><path fill="#000" fill-rule="nonzero" d="M19.558,27.306 L23.764,27.306 C23.922,27.55 23.866,27.776 23.764,28 L19.558,28 L19.558,27.306 Z" opacity=".25"/><circle cx="15.333" cy="21.258" r="1" fill="#000" fill-rule="nonzero"/></g></svg>