<svg xmlns="http://www.w3.org/2000/svg" width="30" height="30" viewBox="0 0 30 30"><g fill="none" fill-rule="evenodd"><rect width="30" height="30"/><polygon fill="#505050" fill-rule="nonzero" points="0 0 30 0 30 30 0 30" opacity="0"/><path fill="#FFF" fill-rule="nonzero" d="M15.147,19.471 C15.602,19.471 16.03,19.888 16.03,20.366 C16.0299311,20.7037282 15.8428284,21.013641 15.544,21.171 L15.507,21.189 L15.507,23.847 L17.214,25.18 C17.3755433,25.2959798 17.4124798,25.5209567 17.2965,25.6825 C17.1805202,25.8440433 16.9555433,25.8809798 16.794,25.765 L16.77,25.747 L15.507,24.761 L15.507,28.64 C15.5071003,28.8336381 15.354011,28.9926665 15.1605093,28.9999329 C14.9670076,29.0071993 14.8024226,28.8601003 14.788,28.667 L14.788,24.76 L13.524,25.747 C13.3718919,25.8655671 13.1533661,25.8432021 13.0284294,25.6962808 C12.9034928,25.5493595 12.9165321,25.3300797 13.058,25.199 L13.081,25.179 L14.787,23.847 L14.787,21.212 C14.4395847,21.0749201 14.2112008,20.7394813 14.211,20.366 C14.211,19.864 14.693,19.471 15.147,19.471 L15.147,19.471 Z M10.062,16.98 C10.497,16.728 11.077,16.95 11.304,17.344 C11.531,17.737 11.385,18.316 10.972,18.554 C10.6800296,18.722762 10.3186704,18.7162199 10.033,18.537 L9.998,18.514 L7.696,19.843 L7.395,21.987 C7.3704687,22.181089 7.19542851,22.3200625 7.00083192,22.2999506 C6.80623533,22.2798387 6.66331782,22.1080036 6.679,21.913 L6.681,21.887 L6.904,20.3 L3.545,22.24 C3.37655315,22.3460387 3.15403867,22.2954468 3.048,22.127 C2.94196133,21.9585532 2.9925517,21.7360387 3.161,21.63 L3.185,21.615 L6.545,19.675 L5.058,19.075 C4.87740167,19.0032743 4.78631819,18.8011676 4.85220515,18.6183583 C4.91809211,18.435549 5.11716842,18.3380198 5.302,18.398 L5.328,18.408 L7.336,19.218 L9.617,17.902 C9.5615613,17.5321195 9.73808364,17.1659845 10.062,16.979 L10.062,16.98 Z M19.004,17.298 C19.231,16.904 19.806,16.742 20.219,16.981 C20.5116472,17.1496355 20.6868195,17.4664855 20.674,17.804 L20.671,17.845 L22.973,19.174 L24.981,18.363 C25.1599747,18.2919679 25.363157,18.3743467 25.4421303,18.549962 C25.5211036,18.7255773 25.4479037,18.9322438 25.276,19.019 L25.25,19.031 L23.765,19.631 L27.124,21.571 C27.2875341,21.6694151 27.345838,21.8783541 27.2568893,22.0472239 C27.1679405,22.2160938 26.9626583,22.2861941 26.789,22.207 L26.764,22.194 L23.404,20.254 L23.627,21.842 C23.651271,22.0323826 23.5219215,22.2083298 23.332967,22.2419573 C23.1440125,22.2755848 22.9619022,22.1550669 22.919,21.968 L22.914,21.942 L22.613,19.798 L20.331,18.48 C20.03875,18.7120914 19.6344181,18.742218 19.311,18.556 C18.875,18.306 18.776,17.692 19.004,17.298 L19.004,17.298 Z M15.183,11.358 C17.169,11.358 18.709,12.98 18.709,14.966 C18.709,16.922 17.22,18.501 15.277,18.551 L15.183,18.552 C13.1964318,18.552 11.5860001,16.9415682 11.5860001,14.955 C11.5860001,12.9684318 13.1964318,11.358 15.183,11.358 L15.183,11.358 Z"/><path fill="#FFF" fill-rule="nonzero" d="M15.183,12.4079949 C13.77,12.4079949 12.5389987,13.554 12.5389987,14.966 C12.5382889,15.6761297 12.833039,16.3545462 13.3525995,16.8386346 C13.8721599,17.3227231 14.5696923,17.568843 15.278,17.518 C16.605,17.424 17.713,16.306 17.713,14.955 C17.7188771,14.2806571 17.4547601,13.6319832 16.9795089,13.1535387 C16.5042577,12.6750941 15.8573671,12.406639 15.183,12.4079949 L15.183,12.4079949 Z M22.96,8.228 C22.985241,8.03478599 23.1596307,7.89672574 23.3534815,7.91648986 C23.5473323,7.93625398 23.6902714,8.10666759 23.676,8.301 L23.673,8.328 L23.45,9.915 L26.81,7.975 C26.9784468,7.86896134 27.2009613,7.91955316 27.307,8.08800001 C27.4130387,8.25644685 27.3624483,8.47896133 27.194,8.585 L27.17,8.599 L23.81,10.539 L25.296,11.139 C25.4832245,11.2061026 25.5806026,11.4122755 25.5135,11.5995 C25.4463974,11.7867245 25.2402245,11.8841026 25.053,11.817 L25.027,11.807 L23.019,10.996 L20.737,12.313 C20.792192,12.6823215 20.6161549,13.047876 20.293,13.235 C19.858,13.486 19.277,13.265 19.05,12.872 C18.822,12.478 18.97,11.899 19.383,11.66 C19.6751547,11.4915415 20.0365161,11.4984686 20.322,11.678 L20.357,11.701 L22.659,10.372 L22.96,8.228 L22.96,8.228 Z M6.942,7.876 C7.1286366,7.84970832 7.30395847,7.97182305 7.344,8.156 L7.348,8.183 L7.65,10.327 L9.931,11.644 C10.2236697,11.411782 10.6285387,11.3820413 10.952,11.569 C11.387,11.819 11.485,12.432 11.258,12.826 C11.031,13.22 10.457,13.382 10.043,13.144 C9.75073789,12.9751028 9.5759788,12.6583038 9.589,12.321 L9.592,12.28 L7.29,10.95 L5.282,11.762 C5.10302526,11.8330321 4.89984304,11.7506533 4.82086971,11.575038 C4.74189637,11.3994227 4.81509634,11.1927562 4.987,11.106 L5.012,11.094 L6.498,10.494 L3.138,8.554 C2.96209732,8.46121616 2.89471618,8.24340269 2.98750001,8.06750001 C3.08028385,7.89159732 3.29809731,7.82421617 3.474,7.917 L3.499,7.931 L6.859,9.871 L6.635,8.283 C6.62160617,8.18829653 6.64644953,8.09215596 6.70404699,8.01579711 C6.76164445,7.93943827 6.84726081,7.88913875 6.942,7.876 L6.942,7.876 Z M15.147,0.999998547 C15.3357385,0.999468479 15.4928453,1.14479225 15.507,1.333 L15.507,5.24 L16.77,4.253 C16.9221081,4.1344329 17.1406339,4.15679794 17.2655706,4.3037192 C17.3905072,4.45064047 17.3774679,4.66992035 17.236,4.801 L17.214,4.821 L15.507,6.153 L15.507,8.788 C15.8548084,8.92476033 16.0836372,9.26027028 16.084,9.634 C16.084,10.136 15.602,10.527 15.147,10.527 C14.693,10.527 14.265,10.112 14.265,9.634 C14.2650689,9.29627185 14.4521716,8.98635905 14.751,8.829 L14.787,8.811 L14.787,6.153 L13.081,4.82 C12.9194567,4.7040202 12.8825202,4.47904329 12.9985,4.3175 C13.1144798,4.15595672 13.3394567,4.11902021 13.501,4.235 L13.524,4.253 L14.787,5.239 L14.787,1.36 C14.787,1.16117749 14.9481775,0.999998547 15.147,0.999998547 L15.147,0.999998547 Z"/></g></svg>