<svg xmlns="http://www.w3.org/2000/svg" width="30" height="30" viewBox="0 0 30 30"><g fill="none" fill-rule="evenodd"><rect width="30" height="30"/><polygon fill="#505050" fill-rule="nonzero" points="0 0 30 0 30 30 0 30" opacity="0"/><path fill="#FDFDFB" fill-rule="nonzero" d="M18.85,2.568 L25.71,15.208 C21.67,15.906 19.113,16.472 18.037,16.906 C17.553,17.16 19.297,18.561 18.945,18.939 L18.925,18.957 C17.965,20.891 7.646,25.467 6.844,27.573 L4.965,24.358 C4.255,23.055 2.727,20.214 0.382,15.836 C1.159,13.783 2.941,11.342 9.232,8.644 C5.427,2.39 16.902,2.994 18.849,2.568 L18.85,2.568 Z"/><path fill="#757575" fill-rule="nonzero" d="M17.821,17.002 L18.199,16.968 L19.043,18.157 C19.269,18.481 19.427,18.715 19.516,18.859 L19.22,19.049 L17.821,17.002 L17.821,17.002 Z"/><path fill="#000" fill-rule="nonzero" d="M21.066,6.723 L26.114,15.417 L25.729,15.517 C22.019,16.426 14.97,16.48 15.917,20.01 C13.3529441,15.8077014 10.8304875,11.5801616 8.35,7.328 C7.009,2.736 15.11,3.264 18.444,2.328 L18.654,2.704 L14.837,3.336 L17.128,7.426 L16.392,7.53 C14.816,7.762 13.382,8.052 12.562,8.464 L10.195,4.364 C8.566,5.093 8.134,6.234 9,7.821 L10.832,10.951 C10.879,9.548 11.56,8.909 12.499,8.611 L14.909,12.761 C13.875,13.325 13.158,14.078 13.418,15.415 L15.492,18.98 C15.766,18.041 16.315,17.374 17.291,17.01 L14.996,12.875 C16.258,12.129 17.917,11.937 19.498,11.717 L21.832,15.855 L23.512,15.585 C24.254,15.46 24.974,15.325 25.622,15.149 L23.346,11.048 L19.659,11.626 L17.287,7.446 L21.067,6.723 L21.066,6.723 Z M5.434,16.254 C6.72688036,15.1905813 8.18027641,14.3389978 9.74,13.731 C10.609,15.094 11.363,16.543 12.124,17.957 L7.774,20.451 L5.434,16.254 L5.434,16.254 Z"/><path fill="#000" fill-rule="nonzero" d="M9.233,8.644 C4.387,10.258 1.003,12.907 0,15.882 L7.23,28.902 C10.425,21.197 21.773,22.03 19.458,18.768 C18.632,18.428 17.664,19.514 16.756,20.007 C16.021,20.21 15.679,19.6 15.338,18.893 L14.275,17.011 L13.517,17.331 C13.02,17.546 12.545,17.771 12.135,18.017 L14.357,22.103 C12.517,22.88 11.167,23.628 10.035,24.445 L7.765,20.53 C6.45,21.357 5.555,22.377 4.982,23.96 L2.737,19.872 C3.126,18.453 4.15,17.284 5.407,16.194 L3.185,12.157 C4.425,11.11 5.939,10.278 7.549,9.672 L9.737,13.702 L11.8,12.886 L9.233,8.644 Z M17.904,1.371 L29.518,21.882 C29.732,21.905 29.883,21.794 30,21.609 L18.385,1.1 C18.147,1.067 17.971,1.134 17.904,1.372 L17.904,1.371 Z"/></g></svg>