<svg viewBox="0 0 48 52" xmlns="http://www.w3.org/2000/svg" xmlns:xlink="http://www.w3.org/1999/xlink" title="Athletico Bilbao Home Kit 2024/25">
                        <defs>
                            <path id="kit" d="M10.22 50.435c.079-8.326.118-13.766.118-16.32 0-2.553-.161-6.661-.484-12.324l-1.63 3.825c-1.213.21-2.806-.165-4.778-1.125-1.92-.933-3.059-1.912-3.418-2.937L0 21.469 4.725 9.66c.809-2.154 1.936-3.546 3.381-4.176l8.278-3.621c.72-.393 3.26-.588 7.617-.586 4.357.003 6.894.198 7.613.586l8.162 3.572c1.502.604 2.669 2.013 3.499 4.225L48 21.47c-.325 1.055-1.473 2.063-3.446 3.022-1.972.96-3.565 1.335-4.778 1.125l-1.63-3.825c-.323 5.467-.484 9.575-.484 12.325s.04 8.19.119 16.319c-.535.464-7.158 1.065-13.78 1.065-6.623 0-13.246-.6-13.78-1.065Z"></path>
                            
                        </defs>
                        <mask id="kitMask" fill="#fff">
                            <use xlink:href="#kit"></use>
                        </mask>
                        <g fill="none" fill-rule="evenodd">
                            
            <path fill="#fafafa" d="M10.22 50.435c.079-8.326.118-13.766.118-16.32 0-2.553-.161-6.661-.484-12.324l-1.63 3.825c-1.213.21-2.806-.165-4.778-1.125-1.92-.933-3.059-1.912-3.418-2.937L0 21.469 4.725 9.66c.809-2.154 1.936-3.546 3.381-4.176l8.278-3.621c.72-.393 3.26-.588 7.617-.586 4.357.003 6.894.198 7.613.586l8.162 3.572c1.502.604 2.669 2.013 3.499 4.225L48 21.47c-.325 1.055-1.473 2.063-3.446 3.022-1.972.96-3.565 1.335-4.778 1.125l-1.63-3.825c-.323 5.467-.484 9.575-.484 12.325s.04 8.19.119 16.319c-.535.464-7.158 1.065-13.78 1.065-6.623 0-13.246-.6-13.78-1.065Z" coloured="" opacity="1" mask="url(#kitMask)" id="base"></path><path fill="#f01d20" fill-rule="evenodd" d="M29.8896208,1.49118628 L29.889136,51.3531985 C28.6258892,51.4153432 27.2818304,51.4611343 25.9122122,51.4838835 L25.9117081,1.29254594 L26.7249941,1.30974691 C28.0303706,1.3437171 29.0852462,1.40419689 29.8896208,1.49118628 Z M21.9326671,1.29304465 L21.9339328,51.4812099 C21.016678,51.464792 20.1118588,51.4381225 19.2361452,51.4032194 L17.9558989,51.3454176 L17.9554699,1.50489123 C18.9037109,1.39320538 20.2294433,1.32258985 21.9326671,1.29304465 Z M33.866442,2.84854594 L37.844442,4.58954594 L37.8450701,27.497869 L37.7784747,29.0821125 C37.706217,30.9416127 37.6674605,32.5195223 37.6622051,33.8158414 L37.6659894,35.9990101 C37.6783277,39.0556356 37.7166,43.8676075 37.7808063,50.4349257 C37.5381689,50.6454757 36.0444165,50.8840218 33.8667447,51.0819059 L33.866442,2.84854594 Z M13.977442,2.91554594 L13.9767445,51.0674026 L13.1932215,50.9893597 C11.5325896,50.8123499 10.4261455,50.6135616 10.2202858,50.4349257 L10.3261266,37.486866 C10.3320601,36.4553988 10.3358445,35.5814541 10.3374798,34.8650321 L10.3360719,33.5607691 C10.3189028,31.4435162 10.2073038,28.4177515 10.0012748,24.4834751 L10.000442,4.65454594 L13.977442,2.91554594 Z" coloured="" opacity="1" mask="url(#kitMask)" id="vertical-stripe-10"></path><path d="m7.924 5.568.103.435.106.498.105.524.102.549.1.575.1.6.143.95.14 1.008.09.703.089.73.129 1.143.125 1.2.08.833.08.859.114 1.336.11 1.394.07.962.103 1.49.029.46-1.618 3.8c-1.213.209-2.806-.166-4.778-1.126-1.92-.933-3.059-1.912-3.418-2.937L0 21.469 4.725 9.66c.774-2.063 1.84-3.427 3.2-4.092Z" fill="#f01d20" fill-rule="evenodd" coloured="" opacity="1" mask="url(#kitMask)" id="sleeve-01"></path><path d="M43.275 9.66 48 21.47c-.325 1.055-1.473 2.063-3.446 3.022-1.972.96-3.565 1.335-4.778 1.125l-1.624-3.813-.002-.012.012.026.029-.46.103-1.49.07-.962.11-1.394.115-1.336.079-.859.08-.832.125-1.201.13-1.143.088-.73.09-.703.14-1.008.144-.95.098-.6.1-.575.103-.55.105-.523.106-.498.102-.433c1.357.665 2.422 2.029 3.196 4.09Z" fill="#f01d20" fill-rule="evenodd" coloured="" opacity="1" mask="url(#kitMask)" id="sleeve-02"></path><path fill="#fafafa" fill-rule="evenodd" d="M9.15678824,13.5348413 L9.25564477,14.4835179 L9.33636278,15.3162568 L9.41511511,16.1747798 L9.52955944,17.5109141 L9.63958482,18.9050747 L9.71048124,19.8667554 L9.81314683,21.3576423 L9.84181434,21.8171378 L8.2241567,25.6160522 C7.18209357,25.7962675 5.85963741,25.5449199 4.25678824,24.8620093 L9.15678824,13.5348413 Z M38.8623424,13.3838413 L43.8162443,24.8306782 C42.1804919,25.5372061 40.8336915,25.7989974 39.7758433,25.6160522 L38.1523424,21.8028102 L38.1503424,21.7912482 L38.1621857,21.8171378 L38.1908532,21.3576423 L38.2935188,19.8667554 L38.3644152,18.9050747 L38.4744406,17.5109141 L38.5888849,16.1747798 L38.6676372,15.3162568 L38.7483552,14.4835179 L38.8623424,13.3838413 Z" coloured="" opacity="1" mask="url(#kitMask)" id="sleeve-04"></path><g fill="none" fill-rule="evenodd" id="collar-03"><path fill="#000" fill-opacity=".5" d="M30.75,2.18 C29.7749023,4.9032666 27.5249023,6.2648999 24,6.2648999 C20.4750977,6.2648999 18.2250977,4.9032666 17.25,2.18 L30.75,2.18 Z"></path><path fill="#050505" d="M30.4486804,0.4 L31.5001582,1.58466392 L31.692,1.67 L31.6990485,1.89423218 C29.1024722,2.61826803 26.5203857,2.98028596 23.9527893,2.98028596 C21.3851929,2.98028596 18.8509298,2.63393881 16.35,1.94124451 L16.343,1.845 L16.5331206,1.76290579 L17.8505592,0.4 C20.203887,0.921537936 22.3037658,1.18286536 24.1501956,1.18398228 C25.9876316,1.18509376 28.0871265,0.923766331 30.4486804,0.4 Z" coloured="" opacity="1"></path><path fill="#000" fill-opacity=".5" d="M30.4486804,0.4 L31.5001582,1.58466392 L31.692,1.67 L31.6990485,1.89423218 C29.1024722,2.61826803 26.5203857,2.98028596 23.9527893,2.98028596 C21.3851929,2.98028596 18.8509298,2.63393881 16.35,1.94124451 L16.343,1.845 L16.5331206,1.76290579 L17.8505592,0.4 C20.203887,0.921537936 22.3037658,1.18286536 24.1501956,1.18398228 C25.9876316,1.18509376 28.0871265,0.923766331 30.4486804,0.4 Z"></path><path fill="#050505" d="M30.4437289,0.4 L31.699,1.701 L31.6957612,1.83431122 C31.5537677,4.64845237 28.1727723,6.9 24.0227263,6.9 C19.8756383,6.9 16.4965049,4.65166085 16.35,1.84032777 L16.5281691,1.76290579 L17.8456077,0.4 L18.2233174,0.4813756 C18.0099312,0.856479063 17.8950485,1.25116377 17.8950485,1.65 C17.8950485,3.57326891 20.5664871,5.4 24.0727263,5.4 C27.5789655,5.4 30.2504041,3.57326891 30.2504041,1.65 C30.2504041,1.26076701 30.1409872,0.875488012 29.9373775,0.508504815 L30.4437289,0.4 Z" coloured="" opacity="1"></path><path fill="#000" fill-opacity=".5" d="M31.8415564,1.58 C31.8415564,4.79060313 28.3626159,7.03999025 24.0245,7.03999025 C19.7277272,7.03999025 16.2365265,4.63545577 16.2365265,1.78785812 L16.343,1.73485702 C16.4912222,4.60474766 19.7228934,6.88985702 24.0245,6.88985702 C28.3261066,6.88985702 31.699,4.54348023 31.6990485,1.58 L31.8415564,1.58 Z"></path></g><path fill="#fafafa" fill-rule="evenodd" d="M24.0727263,5.4 C25.9353297,5.4 27.562352,4.88449567 28.678459,4.11286383 L27.5457211,6.37647331 C26.4979172,6.7431473 25.3106801,6.95 24.0527893,6.95 C22.7136733,6.95 21.4546302,6.71557078 20.358642,6.30345554 L19.1408669,3.86834425 C20.2527526,4.77365528 22.0196224,5.4 24.0727263,5.4 Z" coloured="" opacity="1" mask="url(#kitMask)" id="collar-08"></path><path fill="#fafafa" d="M34.8,11.5 L34.8,14.0978165 L34.7918441,14.3882434 C34.6906862,16.2704919 33.6380369,19.75 31.05,19.75 C28.3220692,19.75 27.3,15.8791849 27.3,14.0978165 L27.3,11.5 L34.8,11.5 Z" coloured="" opacity="1" mask="url(#kitMask)" id="badge-10"></path><path fill="#f01d20" d="M31.150354,13.6 C32.0065909,13.6 32.700708,14.2807687 32.700708,15.1205395 C32.700708,15.9603103 32.0065909,16.641079 31.150354,16.641079 C30.2941171,16.641079 29.6,15.9603103 29.6,15.1205395 C29.6,14.2807687 30.2941171,13.6 31.150354,13.6 Z" coloured="" opacity="1" mask="url(#kitMask)" id="badge-05"></path>
        
                            <path fill-opacity="0.15" fill="#000000" fill-rule="nonzero" d="m10.234 48.926-1.257-.15a120.817 120.817 0 0 0 28.788.145l.016 1.514a.67.67 0 0 1-.206.101l-.168.052-.21.052-.25.052-.288.053-.324.052-.752.103-.879.1-.734.072-.791.07-.845.064-1.197.079-1.267.07-.988.044-.674.025-1.376.041-.698.015-1.411.018L24 51.5l-1.076-.005-1.057-.015-1.046-.024-1.029-.032-1.006-.04-.656-.03-1.267-.069-1.197-.079-.844-.065-.792-.069-.734-.072-.878-.1-.577-.077-.5-.078-.288-.053-.25-.052-.21-.052-.168-.052a.67.67 0 0 1-.206-.101l.014-1.509Zm37.19-28.899.144.361a13.074 13.074 0 0 1-3.592 2.696c-1.314.67-2.769 1.136-4.364 1.398l-.3.045-.142-.331c1.555-.22 2.974-.632 4.258-1.234l.389-.19a12.714 12.714 0 0 0 3.426-2.55l.18-.195Zm-46.99.357.144-.361-.112-.121a12.762 12.762 0 0 0 3.724 2.87c1.383.706 2.93 1.18 4.64 1.423l-.142.331-.293-.044c-1.596-.262-3.05-.728-4.364-1.398a13.074 13.074 0 0 1-3.597-2.7ZM7.926 5.567l.101.436.106.498.105.524.102.549.1.575.1.6.143.95.14 1.008.09.703.089.73.129 1.143.125 1.2.08.833.08.859.114 1.336.11 1.394.07.962.103 1.49.029.46-.262.614-.03-.511-.1-1.478-.103-1.423-.107-1.366-.111-1.311-.116-1.256-.08-.806-.08-.781-.084-.756-.128-1.089-.088-.694-.09-.67-.091-.645-.093-.62-.096-.596-.097-.57-.099-.546-.1-.521-.103-.497-.13-.583.135-.075.137-.07Zm32.148 0c.092.045.183.094.273.145l-.079.344-.103.484-.102.51-.1.533-.098.558-.096.583-.095.608-.092.632-.09.658-.09.682-.129 1.07-.084.744-.123 1.162-.08.806-.115 1.256-.111 1.31-.107 1.367-.137 1.91-.098 1.497-.26-.61.097-1.459.105-1.452.073-.936.113-1.355.078-.872.12-1.258.083-.807.085-.782.086-.755.134-1.085.091-.69.094-.666.095-.64.098-.613.15-.872.102-.55.13-.65.135-.61.047-.197Z"></path>
                        </g>
                    </svg>