<svg viewBox="0 0 48 52" xmlns="http://www.w3.org/2000/svg" xmlns:xlink="http://www.w3.org/1999/xlink" title="Atletico Madrid Home 2024-25">
                        <defs>
                            <path id="kit" d="M10.22 50.435c.079-8.326.118-13.766.118-16.32 0-2.553-.161-6.661-.484-12.324l-1.63 3.825c-1.213.21-2.806-.165-4.778-1.125-1.92-.933-3.059-1.912-3.418-2.937L0 21.469 4.725 9.66c.809-2.154 1.936-3.546 3.381-4.176l8.278-3.621c.72-.393 3.26-.588 7.617-.586 4.357.003 6.894.198 7.613.586l8.162 3.572c1.502.604 2.669 2.013 3.499 4.225L48 21.47c-.325 1.055-1.473 2.063-3.446 3.022-1.972.96-3.565 1.335-4.778 1.125l-1.63-3.825c-.323 5.467-.484 9.575-.484 12.325s.04 8.19.119 16.319c-.535.464-7.158 1.065-13.78 1.065-6.623 0-13.246-.6-13.78-1.065Z"></path>
                            <linearGradient x1="0%" y1="0%" x2="100%" y2="100%" id="badge-10"><stop stop-color="#2a2d87" offset="46.716485507246375%"></stop><stop stop-color="#ebe8e9" offset="54.6875%"></stop></linearGradient>
                        </defs>
                        <mask id="kitMask" fill="#fff">
                            <use xlink:href="#kit"></use>
                        </mask>
                        <g fill="none" fill-rule="evenodd">
                            
            <path fill="#ddd" d="M10.22 50.435c.079-8.326.118-13.766.118-16.32 0-2.553-.161-6.661-.484-12.324l-1.63 3.825c-1.213.21-2.806-.165-4.778-1.125-1.92-.933-3.059-1.912-3.418-2.937L0 21.469 4.725 9.66c.809-2.154 1.936-3.546 3.381-4.176l8.278-3.621c.72-.393 3.26-.588 7.617-.586 4.357.003 6.894.198 7.613.586l8.162 3.572c1.502.604 2.669 2.013 3.499 4.225L48 21.47c-.325 1.055-1.473 2.063-3.446 3.022-1.972.96-3.565 1.335-4.778 1.125l-1.63-3.825c-.323 5.467-.484 9.575-.484 12.325s.04 8.19.119 16.319c-.535.464-7.158 1.065-13.78 1.065-6.623 0-13.246-.6-13.78-1.065Z" coloured="" opacity="1" mask="url(#kitMask)" id="base"></path><path fill="#124cb0" fill-rule="evenodd" d="M21.9321163,1.2930542 L21.9329339,51.481192 L21.4804852,51.4722441 L21.4793796,1.30207841 L21.9321163,1.2930542 Z M26.9232842,1.31516616 L26.9227982,51.4628797 L26.4697355,51.4733342 L26.4712684,1.30355003 L26.9232842,1.31516616 Z M16.9416504,1.67174368 L16.942499,51.2897252 L16.4898705,51.2618413 L16.48897,1.81228576 C16.6071337,1.76187746 16.7580272,1.71503011 16.9416504,1.67174368 Z M31.6139292,1.86290579 L31.9125858,1.9930542 L31.9130902,51.2354361 L31.4606636,51.2650519 L31.4600136,1.79327498 C31.5182549,1.81575123 31.5695602,1.83896149 31.6139292,1.86290579 Z M11.9525858,3.8000542 L11.9520751,50.8386899 L11.4985652,50.7707782 L11.4995858,3.9980542 L11.9525858,3.8000542 Z M36.4495858,3.9780542 L36.9025858,4.1770542 L36.9033414,50.7008545 L36.6106384,50.7530247 C36.5588095,50.761709 36.5054809,50.7703852 36.4506867,50.7790491 L36.4495858,3.9780542 Z" coloured="" opacity="1" mask="url(#kitMask)" id="vertical-stripe-05"></path><path fill="#fa3940" fill-rule="evenodd" d="M25.8701493,1.29186398 L25.86885,51 L22.11885,51 L22.1189649,1.2899999 L23.0864,1.27966558 L24.0005758,1.27712829 C24.6662295,1.27712829 25.2894207,1.28245843 25.8701493,1.29186398 Z M31.6139292,1.86290579 L33.4526908,2.66712829 L33.4532751,51 L29.7032751,51 L29.7045176,1.4720717 C30.671282,1.56739594 31.3077526,1.69767397 31.6139292,1.86290579 Z M18.2827419,1.46946111 L18.284425,51 L14.534425,51 L14.5336908,2.67112829 L16.3835008,1.86290579 C16.6893917,1.69616 17.3224721,1.56501177 18.2827419,1.46946111 Z M10.6996908,4.34812829 L10.6995192,50.6152899 L10.4799841,50.5542741 C10.3529583,50.5138225 10.2651935,50.4738946 10.2202858,50.4349257 L10.3260636,37.4978155 L10.3384132,34.1156766 L10.3332255,33.2732915 C10.3032525,30.6955492 10.1433966,26.8682014 9.85365765,21.7912482 L9.84181434,21.8171378 L9.81314683,21.3576423 L9.71048124,19.8667554 L9.63958482,18.9050747 L9.52955944,17.5109141 L9.41511511,16.1747798 L9.33636278,15.3162568 L9.25564477,14.4835179 L9.1308806,13.2827501 L9.00168981,12.1399845 L8.91310224,11.4103607 L8.82254557,10.7065104 L8.68301703,9.69905543 L8.53905418,8.7495788 L8.4406143,8.148801 L8.34020192,7.573786 L8.23781635,7.02453169 L8.13345691,6.50103593 L8.0271229,6.00329659 L7.9226908,5.56893489 L8.10623945,5.48400935 L10.6996908,4.34812829 Z M38.1523424,21.8028102 L38.1463424,21.7912482 L38.0177337,24.0508068 C37.8099814,27.8595142 37.6931207,30.9042413 37.6671516,33.1849881 L37.6618447,34.5168481 L37.6939874,40.6095136 C37.7138211,43.2683206 37.7427608,46.543458 37.7808063,50.4349257 C37.7122622,50.4944053 37.543874,50.556119 37.2884289,50.6185191 L37.2876908,4.34512829 L39.7758433,5.4345938 C39.8783466,5.47585397 39.9792853,5.52085497 40.0786593,5.56959682 L39.9768771,6.00329659 L39.8705431,6.50103593 L39.7661836,7.02453169 L39.6637981,7.573786 L39.5633857,8.148801 L39.4649458,8.7495788 L39.320983,9.69905543 L39.1814544,10.7065104 L39.0908978,11.4103607 L39.0023102,12.1399845 L38.8731194,13.2827501 L38.7483552,14.4835179 L38.6676372,15.3162568 L38.5888849,16.1747798 L38.4744406,17.5109141 L38.3644152,18.9050747 L38.2935188,19.8667554 L38.1908532,21.3576423 L38.1621857,21.8171378 L38.1503424,21.7912482 L38.1523424,21.8028102 Z" coloured="" opacity="1" mask="url(#kitMask)" id="vertical-stripe-01"></path><g fill="none" fill-rule="evenodd" id="collar-01"><path fill="#000" fill-opacity=".5" fill-rule="nonzero" d="M18.238247,2.35283543 C20.163611,2.75780245 22.0889751,2.96028596 24.0143391,2.96028596 C25.9197063,2.96028596 27.8250735,2.7619866 29.7327885,2.36402556 C29.365493,2.85303517 28.7638025,3.41538487 27.9226781,4.0351736 L27.5751123,4.28494635 L27.2021708,4.54056663 C27.0093442,4.66980148 26.8069753,4.80114551 26.5950242,4.93447326 L26.1583339,5.20373656 L25.6960205,5.47806675 L25.2080133,5.75724078 L24.9543524,5.89857453 L24.4276719,6.18459613 L23.9895277,6.41475 L23.5509227,6.18467057 L23.0245009,5.89879442 L22.5238523,5.61742274 L22.0489065,5.3407782 L21.3845259,4.93516196 L20.8747588,4.6061982 L20.4047386,4.28592548 C20.2246616,4.15961258 20.0540907,4.03548993 19.8929864,3.91368277 L19.5833879,3.67319292 C19.024329,3.22645731 18.5990639,2.81372292 18.3054743,2.44167362 Z"></path><path fill="#114cab" fill-rule="nonzero" d="M30.2990606,0.5 L31.6139292,1.86290579 L31.677,1.89 L31.5968671,1.91254187 C31.2817972,3.19736396 29.9037112,4.61385855 27.462609,6.16202565 L26.8752667,6.52472742 L26.2495359,6.89218424 L25.7213117,7.18957333 L25.1685189,7.49000565 L24.5911575,7.79348121 L23.9892276,8.1 L23.3872977,7.79348121 L22.8099363,7.49000565 L22.2571435,7.18957333 L21.7289193,6.89218424 L20.982649,6.45180666 L20.5158462,6.16202565 C18.0652407,4.60783143 16.6859441,3.18633693 16.3779567,1.89754215 L16.3325465,1.88588138 L16.3835008,1.86290579 L17.7009394,0.5 C20.0542672,1.02153794 22.154146,1.28286536 24.0005758,1.28398228 C25.8380118,1.28509376 27.9375067,1.02376633 30.2990606,0.5 Z M18.238247,2.35283543 L18.3054743,2.44167362 C18.5990639,2.81372292 19.024329,3.22645731 19.5833879,3.67319292 L19.8929864,3.91368277 C20.0540907,4.03548993 20.2246616,4.15961258 20.4047386,4.28592548 L20.8747588,4.6061982 L21.3845259,4.93516196 L22.0489065,5.3407782 L22.5238523,5.61742274 L23.0245009,5.89879442 L23.5509227,6.18467057 L23.9895277,6.41475 L24.4276719,6.18459613 L24.9543524,5.89857453 L25.2080133,5.75724078 L25.6960205,5.47806675 L26.1583339,5.20373656 L26.5950242,4.93447326 C26.8069753,4.80114551 27.0093442,4.66980148 27.2021708,4.54056663 L27.5751123,4.28494635 L27.9226781,4.0351736 C28.7638025,3.41538487 29.365493,2.85303517 29.7327885,2.36402556 C27.8250735,2.7619866 25.9197063,2.96028596 24.0143391,2.96028596 C22.0889751,2.96028596 20.163611,2.75780245 18.238247,2.35283543 Z" coloured="" opacity="1"></path><path fill="#000" fill-rule="nonzero" d="M31.6099313,1.85660401 L31.9352964,2.00347579 C31.6044888,3.34029208 30.2693285,4.74866589 27.9546698,6.26147062 L27.647205,6.45938791 L27.1776439,6.75086362 L26.9297911,6.90001813 L26.4236478,7.19580417 L25.888442,7.49709157 L25.3334712,7.79869764 L25.0455332,7.95128498 L24.7499802,8.10537118 L23.9892276,8.49276672 L23.2264963,8.10435566 L22.642806,7.79752389 L22.0877628,7.49585781 L21.8179091,7.34528603 L21.5523197,7.19436399 L20.9223397,6.82437937 L20.3283934,6.45759538 C17.8309228,4.87367893 16.3931126,3.40330924 16.0448931,2.01047315 L16.3709838,1.86757863 C16.6523785,3.110265 17.9329877,4.47672095 20.2128113,5.9669465 L20.5158462,6.16202565 L20.982649,6.45180666 L21.7289193,6.89218424 L22.2571435,7.18957333 L22.8099363,7.49000565 L23.3872977,7.79348121 L23.9892276,8.1 L24.5911575,7.79348121 L25.1685189,7.49000565 L25.7213117,7.18957333 L26.2495359,6.89218424 L26.8752667,6.52472742 L27.462609,6.16202565 C29.9391905,4.59135729 31.3216312,3.15621674 31.6099313,1.85660401 Z M17.9611487,0.556 L18.308224,0.629969652 C18.2116884,0.864136497 18.1615498,1.10593377 18.1615498,1.35 C18.1615498,1.77150559 18.6460914,2.43939387 19.6008732,3.23582154 L19.7980952,3.39678602 L20.1040705,3.63449913 L20.3479118,3.81529135 L20.6025928,3.99721504 L21.1626103,4.37677965 L21.5682104,4.6372358 L22.2250678,5.03834279 L22.6953312,5.31230801 L23.1915301,5.59122128 L23.7135102,5.87472657 L23.989,6.019 L24.2606404,5.8770242 L24.9112332,5.52224729 L25.517413,5.17706947 L25.9746372,4.90581791 L26.4086626,4.63821431 L26.8126457,4.37887763 L27.0042943,4.25187143 L27.3708614,4.0007254 L27.7150557,3.75340612 C28.9831727,2.8189847 29.6915706,2.01522748 29.8011674,1.49616936 L29.8142842,1.40755758 L29.8169054,1.35 C29.8169054,1.10768131 29.7674822,0.867599189 29.6738247,0.633736444 L30.0147315,0.562064867 C30.0975255,0.771042451 30.146332,0.985760594 30.1616672,1.20227581 L30.1669054,1.35 L30.1639968,1.42173663 C30.115264,2.03157497 29.4538511,2.86677787 28.1579562,3.8585447 L27.9226781,4.0351736 L27.5751123,4.28494635 L27.2021708,4.54056663 L26.9057692,4.73598511 L26.5950242,4.93447326 L26.1583339,5.20373656 L25.6960205,5.47806675 L25.2080133,5.75724078 L24.9543524,5.89857453 L24.4276719,6.18459613 L23.9895277,6.41475 L23.5509227,6.18467057 L23.0245009,5.89879442 L22.5238523,5.61742274 L21.82105,5.20429821 L21.3845259,4.93516196 L20.8747588,4.6061982 L20.4047386,4.28592548 L20.1417477,4.09811447 L19.8929864,3.91368277 L19.5833879,3.67319292 C18.3953878,2.72387975 17.8115498,1.92810336 17.8115498,1.35 C17.8115498,1.14904674 17.8407144,0.949147398 17.8969485,0.75227558 L17.9611487,0.556 Z" opacity=".15"></path><path fill="#000" fill-rule="nonzero" d="M17.9519175,0.552973964 L17.7009394,0.5 C20.0542672,1.02153794 22.154146,1.28286536 24.0005758,1.28398228 C25.7613211,1.28504737 27.7627063,1.04512366 30.0047313,0.564211161 C30.0794678,0.756423882 30.1268257,0.952882311 30.1458336,1.1511793 L30.1553555,1.35 L30.152447,1.42173663 C30.1307541,1.69319992 29.9876589,2.00931907 29.7212386,2.36402556 C27.8147955,2.76185422 25.9087924,2.96028596 24.0027893,2.96028596 C22.0774253,2.96028596 20.1520612,2.75780245 18.2266972,2.35283543 C17.9408658,1.97044551 17.8,1.63396318 17.8,1.35 C17.8,1.08085348 17.852317,0.813597547 17.9519175,0.552973964 Z" opacity=".5"></path></g><path fill="#fa3940" fill-rule="evenodd" d="M8.606,9.19078706 L8.68301703,9.69905543 L8.82254557,10.7065104 L8.91310224,11.4103607 L9.00168981,12.1399845 L9.1308806,13.2827501 L9.25564477,14.4835179 L9.33636278,15.3162568 L9.41511511,16.1747798 L9.487,17.0197871 L6.07126959,25.4805928 C5.2872767,25.2911303 4.41213455,24.9613768 3.44584315,24.4913321 C3.1457851,24.3453713 2.86479287,24.1982991 2.60286646,24.0501156 L8.606,9.19078706 Z M7.47118935,5.82278706 L0.688235479,22.609056 C0.373377912,22.2628974 0.153340712,21.9112117 0.0281238815,21.553999 L1.13686838e-13,21.4685118 L4.72526396,9.66007698 C5.41110847,7.83237417 6.32641693,6.55327753 7.47118935,5.82278706 Z M39.429,8.97705602 L45.4980196,23.9924402 C45.2077272,24.1601556 44.8931062,24.3264529 44.5541569,24.4913321 C43.6338867,24.9389901 42.7962902,25.259402 42.0413675,25.4525678 L38.537,16.779056 L38.5888849,16.1747798 L38.6676372,15.3162568 L38.7483552,14.4835179 L38.8731194,13.2827501 L39.0023102,12.1399845 L39.0908978,11.4103607 L39.1814544,10.7065104 L39.320983,9.69905543 L39.429,8.97705602 Z M43.274736,9.66007698 L48,21.4685118 C47.8911358,21.8225623 47.6895803,22.1712098 47.3953334,22.5144543 L40.6972119,5.93536002 C41.7636843,6.68132162 42.622859,7.92289394 43.274736,9.66007698 Z" coloured="" opacity="1" mask="url(#kitMask)" id="sleeve-03"></path><path d="M47.56 20.365 48 21.47c-.325 1.055-1.473 2.063-3.446 3.022-1.972.96-3.565 1.335-4.778 1.125l-.464-1.088.261-.038c1.596-.263 3.05-.728 4.364-1.398a13.078 13.078 0 0 0 3.622-2.727Zm-47.118.001a13.078 13.078 0 0 0 3.62 2.726c1.315.67 2.77 1.135 4.365 1.398l.26.038-.463 1.088c-1.213.21-2.806-.165-4.778-1.125-1.92-.933-3.059-1.912-3.418-2.937L0 21.469l.442-1.103Z" fill="#fa3940" fill-rule="nonzero" coloured="" opacity="1" mask="url(#kitMask)" id="trim-01"></path><path fill="url(#badge-10)" d="M34.8,11.5 L34.8,14.0978165 L34.7918441,14.3882434 C34.6906862,16.2704919 33.6380369,19.75 31.05,19.75 C28.3220692,19.75 27.3,15.8791849 27.3,14.0978165 L27.3,11.5 L34.8,11.5 Z" coloured="" opacity="1" mask="url(#kitMask)" id="badge-10"></path>
        
                            <path fill-opacity="0.15" fill="#000000" fill-rule="nonzero" d="m10.234 48.926-1.257-.15a120.817 120.817 0 0 0 28.788.145l.016 1.514a.67.67 0 0 1-.206.101l-.168.052-.21.052-.25.052-.288.053-.324.052-.752.103-.879.1-.734.072-.791.07-.845.064-1.197.079-1.267.07-.988.044-.674.025-1.376.041-.698.015-1.411.018L24 51.5l-1.076-.005-1.057-.015-1.046-.024-1.029-.032-1.006-.04-.656-.03-1.267-.069-1.197-.079-.844-.065-.792-.069-.734-.072-.878-.1-.577-.077-.5-.078-.288-.053-.25-.052-.21-.052-.168-.052a.67.67 0 0 1-.206-.101l.014-1.509Zm37.19-28.899.144.361a13.074 13.074 0 0 1-3.592 2.696c-1.314.67-2.769 1.136-4.364 1.398l-.3.045-.142-.331c1.555-.22 2.974-.632 4.258-1.234l.389-.19a12.714 12.714 0 0 0 3.426-2.55l.18-.195Zm-46.99.357.144-.361-.112-.121a12.762 12.762 0 0 0 3.724 2.87c1.383.706 2.93 1.18 4.64 1.423l-.142.331-.293-.044c-1.596-.262-3.05-.728-4.364-1.398a13.074 13.074 0 0 1-3.597-2.7ZM7.926 5.567l.101.436.106.498.105.524.102.549.1.575.1.6.143.95.14 1.008.09.703.089.73.129 1.143.125 1.2.08.833.08.859.114 1.336.11 1.394.07.962.103 1.49.029.46-.262.614-.03-.511-.1-1.478-.103-1.423-.107-1.366-.111-1.311-.116-1.256-.08-.806-.08-.781-.084-.756-.128-1.089-.088-.694-.09-.67-.091-.645-.093-.62-.096-.596-.097-.57-.099-.546-.1-.521-.103-.497-.13-.583.135-.075.137-.07Zm32.148 0c.092.045.183.094.273.145l-.079.344-.103.484-.102.51-.1.533-.098.558-.096.583-.095.608-.092.632-.09.658-.09.682-.129 1.07-.084.744-.123 1.162-.08.806-.115 1.256-.111 1.31-.107 1.367-.137 1.91-.098 1.497-.26-.61.097-1.459.105-1.452.073-.936.113-1.355.078-.872.12-1.258.083-.807.085-.782.086-.755.134-1.085.091-.69.094-.666.095-.64.098-.613.15-.872.102-.55.13-.65.135-.61.047-.197Z"></path>
                        </g>
                    </svg>