<svg viewBox="0 0 48 52" xmlns="http://www.w3.org/2000/svg" xmlns:xlink="http://www.w3.org/1999/xlink" sport="basketball-rear" title="ATLHawks_Statement__24">
                            <defs>
                                
                            </defs>
                        
                            <g stroke="none" stroke-width="1" fill="none" fill-rule="evenodd">
                                
            <path fill="#211f1b" fill-rule="evenodd" d="M11.2029013,2.72208784 L15.3853333,0 C17.7223977,2.05575174 20.5937754,3.17140664 23.9994667,3.34696471 C29.1080035,3.61030181 32.4856554,0 32.6146667,0 C32.7006741,0 34.0948181,0.907362614 36.7970987,2.72208784 C36.2761587,4.34030878 31.7592501,16.8991443 40,20.8770008 C39.4947306,35.6401718 39.3565119,45.6977328 39.585344,51.0496837 C29.5506702,52.3629665 19.1604427,52.3047323 8.41466133,50.8749812 C8.60599846,42.0790254 8.46777801,32.0796986 8,20.8770008 C13.0488889,18.2250965 14.1165227,12.1734588 11.2029013,2.72208784 Z" coloured="" opacity="1" id="basketball-rear-base" mask="url(#kitMask)" sport="basketball-rear"></path><path fill="#cf2132" fill-rule="evenodd" d="M24,3.34149961 L24.3652986,3.34149961 C28.9072512,3.54321838 32.4845428,0.0879516602 32.6146667,5.95079541e-14 C32.738266,0.045211792 33.5263214,0.552337646 34.0284729,0.880493164 L33.9890011,0.928775316 C32.5892731,2.68676487 28.6929209,4.69857767 24.7510949,4.92511891 L24.3926692,4.94081569 L24.0081679,4.94648471 C19.9288633,4.94420299 15.7734408,2.9598905 14.1642723,1.10996193 L13.9971279,0.908470588 L15.3941946,5.95079541e-14 C16.1333569,0.673998154 19.0932443,3.14050841 24,3.34149961 Z" coloured="" opacity="1" id="basketball-rear-shape-01" sport="basketball-rear"></path><path fill="#cf2132" fill-rule="evenodd" d="M40,20.8770008 L39.8578433,25.2156222 C39.4724938,37.5645307 39.3806145,46.151135 39.5822055,50.975435 L39.5814488,51.0492233 C38.9170743,51.1371431 38.2472277,51.2185199 37.5758043,51.2938139 L37.5741657,19.1277496 C38.221308,19.8102019 39.0205429,20.4042113 40,20.8770008 Z M10.539328,19.0659116 L10.5390228,51.1403057 C9.8324531,51.0578461 9.12433259,50.9694046 8.41466133,50.8749812 C8.56885242,43.7866652 8.50902499,35.916866 8.23517904,27.2655837 L8.16308294,25.1113712 L8.14107097,23.9670551 C8.11630558,22.9912877 8.07462798,21.9600747 8.00961032,20.8732705 C8.92920349,20.3889412 9.72355726,19.7857287 10.3830613,19.0673632 L10.539328,19.0659116 Z" coloured="" opacity="1" id="basketball-rear-shape-05" mask="url(#kitMask)" sport="basketball-rear"></path><path fill="#cf2132" fill-rule="evenodd" d="M35.3695359,1.77027878 L36.7970987,2.72208784 L36.6702105,3.11706524 C36.2795428,4.21895827 35.0387481,7.75814384 35.1605867,12.6959718 C35.1605867,15.9102818 36.769888,19.2799482 40,20.8770008 L39.9351335,22.6680999 L39.2159147,22.3260165 C35.4041813,20.4413835 33.4933333,17.2992055 33.4933333,12.6959718 C33.4933333,9.94440706 33.8077973,7.43235843 34.333856,5.20701333 L34.48208,4.60773882 L34.629088,4.0636149 C34.8232853,3.37532863 35.00832,2.62006588 35.1605867,2.24193412 L35.3695359,1.77027878 Z M11.2029013,2.72208784 L12.6453333,1.78329412 L12.783904,2.10768235 C12.9814827,2.57222588 13.2466133,3.55931686 13.51792,4.60773882 L13.666144,5.20701333 C14.1922027,7.43235843 14.5066667,9.94440706 14.5066667,12.6959718 C14.5066667,17.2992055 12.5958187,20.4413835 8.78409067,22.3260165 L8.10730906,22.661382 L8,20.8770008 C11.2029013,19.122642 12.412347,16.673051 12.783904,12.6959718 C13.0239444,8.34265545 11.5383392,4.06519335 11.2029013,2.72208784 Z" coloured="" opacity="1" id="basketball-rear-shape-03" mask="url(#kitMask)" sport="basketball-rear"></path>
        
                                <path d="M3.20290133,2.72208784 L7.38533333,0 C9.72239765,2.05575174 12.5937754,3.17140664 15.9994667,3.34696471 C21.1080035,3.61030181 24.4856554,0 24.6146667,0 C24.7006741,0 26.0948181,0.907362614 28.7970987,2.72208784 C28.2761587,4.34030878 23.7592501,16.8991443 32,20.8770008 C31.4947306,35.6401718 31.3565119,45.6977328 31.585344,51.0496837 C21.5506702,52.3629665 11.1604427,52.3047323 0.414661333,50.8749812 C0.605998458,42.0790254 0.467778013,32.0796986 0,20.8770008 C5.04888889,18.2250965 6.11652267,12.1734588 3.20290133,2.72208784 Z"></path>
                            </g>
                        </svg>