<svg xmlns="http://www.w3.org/2000/svg" width="94px" height="12px" viewBox="0 0 94 12"><g id="prefix__Bet-Boost-en" stroke="none" stroke-width="1" fill="none" fill-rule="evenodd"><g id="prefix__{word-1?}" transform="translate(0.050000, 0.995000)" fill="#28FFBB" fill-rule="nonzero"><path d="M4.17 10.005c1.23 0 2.175-.39 2.715-.945.375-.375.735-1.02.735-1.965 0-.795-.27-1.44-.675-1.83-.315-.3-.84-.54-1.365-.6.375-.165.6-.39.81-.78.21-.42.285-.795.285-1.23 0-.885-.27-1.5-.615-1.875C5.445.105 4.59 0 3.87 0H0v10.005h4.17Zm-1.575-8.01h.48c.51 0 .825.135.99.3.15.165.24.42.24.675 0 .225-.075.495-.24.66-.27.285-.72.315-.99.315h-.48v-1.95Zm0 3.885h.54c.645 0 1.29.015 1.605.33.15.15.255.405.255.72 0 .285-.09.51-.21.645-.285.33-.885.405-1.605.405h-.585v-2.1Z" id="prefix__Shape"/><path id="prefix__Path" d="M14.955 0H9.27v10.005h5.685V7.8h-3.09V6.075h2.925V3.87h-2.925V2.205h3.09zM22.89 2.205V0h-6.855v2.205h2.13v7.8h2.595v-7.8z"/></g><g id="prefix__{word-2?}" transform="translate(28.050000, 0.770000)" fill="#FFFFFF" fill-rule="nonzero"><path d="M4.17 10.23c1.23 0 2.175-.39 2.715-.945.375-.375.735-1.02.735-1.965 0-.795-.27-1.44-.675-1.83-.315-.3-.84-.54-1.365-.6.375-.165.6-.39.81-.78.21-.42.285-.795.285-1.23 0-.885-.27-1.5-.615-1.875C5.445.33 4.59.225 3.87.225H0V10.23h4.17ZM2.595 2.22h.48c.51 0 .825.135.99.3.15.165.24.42.24.675 0 .225-.075.495-.24.66-.27.285-.72.315-.99.315h-.48V2.22Zm0 3.885h.54c.645 0 1.29.015 1.605.33.15.15.255.405.255.72 0 .285-.09.51-.21.645-.285.33-.885.405-1.605.405h-.585v-2.1ZM19.86 5.235c0-1.335-.51-2.745-1.575-3.75C17.265.51 15.825 0 14.34 0c-1.485 0-2.925.51-3.945 1.485C9.33 2.49 8.82 3.9 8.82 5.235c0 1.32.51 2.715 1.575 3.735 1.02.975 2.46 1.485 3.945 1.485 1.485 0 2.925-.51 3.945-1.485 1.065-1.02 1.575-2.415 1.575-3.735ZM14.34 2.52c.69 0 1.455.27 2.01.795a2.7 2.7 0 0 1 .81 1.92c0 .765-.345 1.455-.81 1.92-.465.465-1.125.78-2.01.78-.87 0-1.545-.33-2.025-.795a2.543 2.543 0 0 1-.795-1.86c0-.705.255-1.44.795-1.965.54-.54 1.305-.795 2.025-.795ZM32.1 5.235c0-1.335-.51-2.745-1.575-3.75C29.505.51 28.065 0 26.58 0c-1.485 0-2.925.51-3.945 1.485C21.57 2.49 21.06 3.9 21.06 5.235c0 1.32.51 2.715 1.575 3.735 1.02.975 2.46 1.485 3.945 1.485 1.485 0 2.925-.51 3.945-1.485C31.59 7.95 32.1 6.555 32.1 5.235ZM26.58 2.52c.69 0 1.455.27 2.01.795a2.7 2.7 0 0 1 .81 1.92c0 .765-.345 1.455-.81 1.92-.465.465-1.125.78-2.01.78-.87 0-1.545-.33-2.025-.795a2.543 2.543 0 0 1-.795-1.86c0-.705.255-1.44.795-1.965.54-.54 1.305-.795 2.025-.795Z" id="prefix__Shape"/><path d="M33.3 9.33c.72.495 1.35.735 1.515.795.735.27 1.335.33 1.965.33 1.065 0 2.1-.165 2.955-1.02.72-.72.945-1.605.945-2.52 0-.69-.135-1.245-.645-1.785-.525-.57-1.185-.795-1.815-.99l-.795-.24c-.615-.18-.795-.36-.87-.45-.105-.135-.135-.27-.135-.45 0-.225.105-.39.255-.54.255-.24.6-.3.855-.3.345 0 .93.06 1.71.675L40.275.81c-.945-.495-2.1-.81-3.09-.81-1.215 0-2.055.435-2.565.945-.435.435-.915 1.185-.915 2.415 0 .51.06 1.215.57 1.77.405.45 1.02.675 1.44.81l.675.21c.645.195 1.035.3 1.29.525.21.18.285.405.285.6 0 .255-.105.48-.255.63-.165.18-.48.345-1.005.345-.9 0-1.74-.495-2.295-1.02l-1.11 2.1ZM48.225 2.43V.225H41.37V2.43h2.13v7.8h2.595v-7.8z" id="prefix__Path"/></g><g id="prefix__Icons-/-Bet-Boost" transform="translate(80.000000, 1.000000)" fill="#28FFBB"><path d="m8.131 0 5.214 4.904L8.13 9.8H4.6l5.213-4.9L4.6 0H8.13Zm-4.6 0 5.214 4.904L3.532 9.8H0l5.214-4.9L0 0h3.532Z" id="prefix__Combined-Shape"/></g></g></svg>