<svg xmlns="http://www.w3.org/2000/svg" width="104" height="12" viewBox="0 0 104 12"><g fill="#444"><path d="M0,11.7705882 L4.67135217,11.7705882 C5.78190005,11.7705882 6.3636156,11.7 6.94533116,11.4705882 C8.30266745,10.9411765 9.18405465,9.65294118 9.18405465,8.22352941 C9.18405465,7.39411765 8.90201075,6.70588235 8.39080617,6.26470588 C8.02062354,5.94705882 7.73857964,5.82352941 6.99821439,5.64705882 C7.75620738,5.31176471 8.03825129,5.08235294 8.39080617,4.57058824 C8.72573331,4.07647059 8.91963849,3.40588235 8.91963849,2.73529412 C8.91963849,1.85294118 8.58471135,1.05882353 7.98536806,0.6 C7.42128025,0.158823529 6.71617048,0 5.2001845,0 L1.44547501,0 L0,11.7705882 Z M4.67135217,2.34705882 C5.78190005,2.34705882 6.09919944,2.57647059 6.09919944,3.37058824 C6.09919944,4.28823529 5.57036712,4.67647059 4.26591406,4.67647059 L3.8428482,4.67647059 L4.12489211,2.34705882 L4.67135217,2.34705882 Z M4.45981925,6.88235294 C5.74664456,6.88235294 6.09919944,7.12941176 6.09919944,7.99411765 C6.09919944,9 5.53511163,9.42352941 4.07200888,9.42352941 L3.26113265,9.42352941 L3.5608043,6.88235294 L4.45981925,6.88235294 Z"/><polygon points="12.576 0 11.131 11.771 17.706 11.771 18.023 9.176 14.427 9.176 14.674 7.129 18.023 7.129 18.341 4.553 14.991 4.553 15.238 2.594 18.693 2.594 19.011 0"/><polygon points="28.59 2.594 28.907 0 20.922 0 20.605 2.594 23.108 2.594 21.98 11.771 24.941 11.771 26.087 2.594"/><g transform="translate(32.959)"><path d="M0 11.7705882 4.67135217 11.7705882C5.78190005 11.7705882 6.3636156 11.7 6.94533116 11.4705882 8.30266745 10.9411765 9.18405465 9.65294118 9.18405465 8.22352941 9.18405465 7.39411765 8.90201075 6.70588235 8.39080617 6.26470588 8.02062354 5.94705882 7.73857964 5.82352941 6.99821439 5.64705882 7.75620738 5.31176471 8.03825129 5.08235294 8.39080617 4.57058824 8.72573331 4.07647059 8.91963849 3.40588235 8.91963849 2.73529412 8.91963849 1.85294118 8.58471135 1.05882353 7.98536806.6 7.42128025.158823529 6.71617048 0 5.2001845 0L1.44547501 0 0 11.7705882ZM4.67135217 2.34705882C5.78190005 2.34705882 6.09919944 2.57647059 6.09919944 3.37058824 6.09919944 4.28823529 5.57036712 4.67647059 4.26591406 4.67647059L3.8428482 4.67647059 4.12489211 2.34705882 4.67135217 2.34705882ZM4.45981925 6.88235294C5.74664456 6.88235294 6.09919944 7.12941176 6.09919944 7.99411765 6.09919944 9 5.53511163 9.42352941 4.07200888 9.42352941L3.26113265 9.42352941 3.5608043 6.88235294 4.45981925 6.88235294ZM19.7685061 0 18.9576298 6.70588235C18.8166079 7.76470588 18.6932137 8.17058824 18.323031 8.59411765 17.9704762 8.98235294 17.3887606 9.17647059 16.6483954 9.17647059 15.3439423 9.17647059 14.7093435 8.57647059 14.7093435 7.34117647 14.7093435 7.04117647 14.7269713 6.70588235 14.7622267 6.35294118L15.5378475 0 12.5763865 0 11.8007657 6.35294118C11.712627 7.07647059 11.6597438 7.62352941 11.6597438 7.97647059 11.6597438 10.5 13.5106569 12 16.5602566 12 18.2877756 12 19.6979951 11.5411765 20.5793823 10.6941176 21.3373753 9.97058824 21.6370469 9.07058824 21.9190908 6.81176471L22.7475948 0 19.7685061 0Z"/><polygon points="25.717 0 24.271 11.771 27.25 11.771 28.696 0"/><polygon points="31.665 0 30.22 11.771 36.936 11.771 37.271 9.176 33.516 9.176 34.644 0"/><path d="M39.0414175,11.7705882 L42.9195212,11.7705882 C44.1182078,11.7705882 46.2511648,11.7176471 48.0315669,10.2529412 C49.0716038,9.38823529 50.0058743,7.99411765 50.0058743,5.43529412 C50.0058743,3.72352941 49.5299252,2.4 48.5251438,1.46470588 C47.2559462,0.282352941 45.4755441,0 43.8185361,0 L40.4868925,0 L39.0414175,11.7705882 Z M43.9595581,2.59411765 C44.6117846,2.59411765 45.4579163,2.68235294 46.0925151,3.26470588 C46.6037197,3.74117647 46.9386468,4.53529412 46.9386468,5.57647059 C46.9386468,6.68823529 46.5332087,7.67647059 45.8809822,8.27647059 C45.5813105,8.55882353 44.7704343,9.17647059 43.2368206,9.17647059 L42.3378056,9.17647059 L43.1486818,2.59411765 L43.9595581,2.59411765 Z"/><polygon points="53.222 0 51.776 11.771 58.352 11.771 58.669 9.176 55.073 9.176 55.32 7.129 58.669 7.129 58.986 4.553 55.637 4.553 55.884 2.594 59.339 2.594 59.656 0"/><path d="M69.2709807,6.26470588 C69.9055795,5.59411765 70.2228789,4.71176471 70.2228789,3.65294118 C70.2228789,2.59411765 69.8879518,1.62352941 69.323864,1.02352941 C68.6540097,0.317647059 67.666856,0 66.0627313,0 L62.2375109,0 L60.7920358,11.7705882 L63.7711246,11.7705882 L64.3352124,7.09411765 L67.0146295,11.7705882 L70.4696673,11.7705882 L67.7197393,7.2 C68.5306155,6.91764706 68.8479149,6.72352941 69.2709807,6.26470588 Z M65.4810158,2.36470588 C66.7325856,2.36470588 67.1556514,2.71764706 67.1556514,3.74117647 C67.1556514,4.85294118 66.5034249,5.38235294 65.0755777,5.38235294 L64.5467453,5.38235294 L64.916928,2.36470588 L65.4810158,2.36470588 Z"/></g></g></svg>