<svg viewBox="0 0 48 52" xmlns="http://www.w3.org/2000/svg" xmlns:xlink="http://www.w3.org/1999/xlink" title="CA Talleres Home Kit 24/25">
                        <defs>
                            <path id="kit" d="M10.22 50.435c.079-8.326.118-13.766.118-16.32 0-2.553-.161-6.661-.484-12.324l-1.63 3.825c-1.213.21-2.806-.165-4.778-1.125-1.92-.933-3.059-1.912-3.418-2.937L0 21.469 4.725 9.66c.809-2.154 1.936-3.546 3.381-4.176l8.278-3.621c.72-.393 3.26-.588 7.617-.586 4.357.003 6.894.198 7.613.586l8.162 3.572c1.502.604 2.669 2.013 3.499 4.225L48 21.47c-.325 1.055-1.473 2.063-3.446 3.022-1.972.96-3.565 1.335-4.778 1.125l-1.63-3.825c-.323 5.467-.484 9.575-.484 12.325s.04 8.19.119 16.319c-.535.464-7.158 1.065-13.78 1.065-6.623 0-13.246-.6-13.78-1.065Z"></path>
                            
                        </defs>
                        <mask id="kitMask" fill="#fff">
                            <use xlink:href="#kit"></use>
                        </mask>
                        <g fill="none" fill-rule="evenodd">
                            
            <path fill="#fafafa" d="M10.22 50.435c.079-8.326.118-13.766.118-16.32 0-2.553-.161-6.661-.484-12.324l-1.63 3.825c-1.213.21-2.806-.165-4.778-1.125-1.92-.933-3.059-1.912-3.418-2.937L0 21.469 4.725 9.66c.809-2.154 1.936-3.546 3.381-4.176l8.278-3.621c.72-.393 3.26-.588 7.617-.586 4.357.003 6.894.198 7.613.586l8.162 3.572c1.502.604 2.669 2.013 3.499 4.225L48 21.47c-.325 1.055-1.473 2.063-3.446 3.022-1.972.96-3.565 1.335-4.778 1.125l-1.63-3.825c-.323 5.467-.484 9.575-.484 12.325s.04 8.19.119 16.319c-.535.464-7.158 1.065-13.78 1.065-6.623 0-13.246-.6-13.78-1.065Z" coloured="" opacity="1" mask="url(#kitMask)" id="base"></path><path fill="#2d4a6e" fill-rule="evenodd" d="M26.5285476 1.30487937 26.527623 51.472092C25.8123429 51.487611 25.0877059 51.4970404 24.3617382 51.4994087L24.000546 51.5C23.1356322 51.5 22.2707184 51.4897549 21.419365 51.4709062L21.4199624 1.3034444C22.0829953 1.28795487 22.8088187 1.27929681 23.5974326 1.27712829L24.0005758 1.27712829C24.9251544 1.27770922 25.7678116 1.28695958 26.5285476 1.30487937ZM31.6293941 1.86912829 36.7373941 4.10412829 36.7389468 50.7309677C35.6549 50.9222912 33.8307422 51.1113772 31.63035 51.2541788L31.6293941 1.86912829ZM16.3073941 1.89512829 16.3072055 51.2500357 15.1728818 51.1690897C13.4710738 51.0371518 12.0767987 50.8789219 11.1993941 50.7197401L11.1993941 4.13012829 16.3073941 1.89512829Z" coloured="" opacity="1" mask="url(#kitMask)" id="vertical-stripe-11"></path><path d="M47.56 20.365 48 21.47c-.325 1.055-1.473 2.063-3.446 3.022-1.972.96-3.565 1.335-4.778 1.125l-.464-1.088.261-.038c1.596-.263 3.05-.728 4.364-1.398a13.078 13.078 0 0 0 3.622-2.727Zm-47.118.001a13.078 13.078 0 0 0 3.62 2.726c1.315.67 2.77 1.135 4.365 1.398l.26.038-.463 1.088c-1.213.21-2.806-.165-4.778-1.125-1.92-.933-3.059-1.912-3.418-2.937L0 21.469l.442-1.103Z" fill="#2d4a6e" fill-rule="nonzero" coloured="" opacity="1" mask="url(#kitMask)" id="trim-01"></path><path fill="#147fc7" fill-rule="evenodd" d="M21.9321163,1.2930542 L21.9329339,51.481192 L21.4804852,51.4722441 L21.4793796,1.30207841 L21.9321163,1.2930542 Z M26.9232842,1.31516616 L26.9227982,51.4628797 L26.4697355,51.4733342 L26.4712684,1.30355003 L26.9232842,1.31516616 Z M16.9416504,1.67174368 L16.942499,51.2897252 L16.4898705,51.2618413 L16.48897,1.81228576 C16.6071337,1.76187746 16.7580272,1.71503011 16.9416504,1.67174368 Z M31.6139292,1.86290579 L31.9125858,1.9930542 L31.9130902,51.2354361 L31.4606636,51.2650519 L31.4600136,1.79327498 C31.5182549,1.81575123 31.5695602,1.83896149 31.6139292,1.86290579 Z M11.9525858,3.8000542 L11.9520751,50.8386899 L11.4985652,50.7707782 L11.4995858,3.9980542 L11.9525858,3.8000542 Z M36.4495858,3.9780542 L36.9025858,4.1770542 L36.9033414,50.7008545 L36.6106384,50.7530247 C36.5588095,50.761709 36.5054809,50.7703852 36.4506867,50.7790491 L36.4495858,3.9780542 Z" coloured="" opacity="1" mask="url(#kitMask)" id="vertical-stripe-05"></path><g fill="none" fill-rule="evenodd" id="collar-03"><path fill="#000" fill-opacity=".5" d="M30.75,2.18 C29.7749023,4.9032666 27.5249023,6.2648999 24,6.2648999 C20.4750977,6.2648999 18.2250977,4.9032666 17.25,2.18 L30.75,2.18 Z"></path><path fill="#fafafa" d="M30.4486804,0.4 L31.5001582,1.58466392 L31.692,1.67 L31.6990485,1.89423218 C29.1024722,2.61826803 26.5203857,2.98028596 23.9527893,2.98028596 C21.3851929,2.98028596 18.8509298,2.63393881 16.35,1.94124451 L16.343,1.845 L16.5331206,1.76290579 L17.8505592,0.4 C20.203887,0.921537936 22.3037658,1.18286536 24.1501956,1.18398228 C25.9876316,1.18509376 28.0871265,0.923766331 30.4486804,0.4 Z" coloured="" opacity="1"></path><path fill="#000" fill-opacity=".5" d="M30.4486804,0.4 L31.5001582,1.58466392 L31.692,1.67 L31.6990485,1.89423218 C29.1024722,2.61826803 26.5203857,2.98028596 23.9527893,2.98028596 C21.3851929,2.98028596 18.8509298,2.63393881 16.35,1.94124451 L16.343,1.845 L16.5331206,1.76290579 L17.8505592,0.4 C20.203887,0.921537936 22.3037658,1.18286536 24.1501956,1.18398228 C25.9876316,1.18509376 28.0871265,0.923766331 30.4486804,0.4 Z"></path><path fill="#fafafa" d="M30.4437289,0.4 L31.699,1.701 L31.6957612,1.83431122 C31.5537677,4.64845237 28.1727723,6.9 24.0227263,6.9 C19.8756383,6.9 16.4965049,4.65166085 16.35,1.84032777 L16.5281691,1.76290579 L17.8456077,0.4 L18.2233174,0.4813756 C18.0099312,0.856479063 17.8950485,1.25116377 17.8950485,1.65 C17.8950485,3.57326891 20.5664871,5.4 24.0727263,5.4 C27.5789655,5.4 30.2504041,3.57326891 30.2504041,1.65 C30.2504041,1.26076701 30.1409872,0.875488012 29.9373775,0.508504815 L30.4437289,0.4 Z" coloured="" opacity="1"></path><path fill="#000" fill-opacity=".5" d="M31.8415564,1.58 C31.8415564,4.79060313 28.3626159,7.03999025 24.0245,7.03999025 C19.7277272,7.03999025 16.2365265,4.63545577 16.2365265,1.78785812 L16.343,1.73485702 C16.4912222,4.60474766 19.7228934,6.88985702 24.0245,6.88985702 C28.3261066,6.88985702 31.699,4.54348023 31.6990485,1.58 L31.8415564,1.58 Z"></path></g><path fill="#fafafa" d="M28.2686616,12.0919859 L29.400708,11.35 L30.4432138,11.7766915 C30.8384909,11.9384761 31.2815091,11.9384761 31.6767862,11.7766915 L32.719292,11.35 L33.8513384,12.0919859 C33.9744574,12.1726827 34.0281323,12.3259389 33.9822661,12.4658194 L33.5764524,13.7034492 C33.5103583,13.9050199 33.4924444,14.1192792 33.5241489,14.3290267 L33.9501537,17.1473465 C34.0158912,17.5822461 33.7985567,18.0109747 33.4089151,18.2150299 L31.06,19.4451562 L28.7110849,18.2150299 C28.3214433,18.0109747 28.1041088,17.5822461 28.1698463,17.1473465 L28.5958511,14.3290267 C28.6275556,14.1192792 28.6096417,13.9050199 28.5435476,13.7034492 L28.1377339,12.4658194 C28.0918677,12.3259389 28.1455426,12.1726827 28.2686616,12.0919859 Z M32.7196811,11.35 L33.8559809,12.0947737 C33.9769555,12.174065 34.0296584,12.3224711 33.9851006,12.4583614 L33.5733037,13.7142385 C33.5095038,13.908812 33.4922148,14.1151866 33.5227761,14.3173713 L33.9537647,17.1686621 C34.0177062,17.5916798 33.8037301,18.0084691 33.4192397,18.2098266 L31.060389,19.4451562 L28.7015383,18.2098266 C28.3170479,18.0084691 28.1030719,17.5916798 28.1670134,17.1686621 L28.5980019,14.3173713 C28.6285633,14.1151866 28.6112742,13.908812 28.5474743,13.7142385 L28.1356775,12.4583614 C28.0911196,12.3224711 28.1438225,12.174065 28.2647971,12.0947737 L29.401097,11.35 L30.4335394,11.7725726 C30.8346894,11.936761 31.2860887,11.936761 31.6872386,11.7725726 L32.7196811,11.35 Z M32.678139,11.7650607 L31.831604,12.1121745 C31.3874216,12.2939757 30.8931634,12.3121559 30.4389659,12.1667149 L30.2891741,12.1121745 L29.441889,11.7650607 L28.503639,12.3795567 L28.9044525,13.6015395 C28.9695979,13.8002168 28.99675,14.008534 28.9850332,14.2160411 L28.9689441,14.3713563 L28.5379555,17.2226471 C28.5017866,17.4619298 28.6053562,17.6980809 28.8006618,17.8375992 L28.8781077,17.8852063 L31.060389,19.0271518 L33.2426703,17.8852063 C33.4601598,17.7713071 33.5919137,17.5490875 33.5899294,17.3120487 L33.5828225,17.2226471 L33.151834,14.3713563 C33.1206281,14.1649073 33.1285099,13.9550358 33.1746039,13.7521916 L33.2163256,13.6015395 L33.616389,12.3795567 L32.678139,11.7650607 Z" coloured="" opacity="1" mask="url(#kitMask)" id="badge-14"></path><path fill="#374978" d="M32.719292,11.35 L33.8513384,12.0919859 C33.9744574,12.1726827 34.0281323,12.3259389 33.9822661,12.4658194 L33.5734946,13.712 C33.5254538,13.8601686 33.5037662,14.0127369 33.5088061,14.165197 C33.5113978,14.2238709 33.5162227,14.2765898 33.5241489,14.3290267 L33.9501537,17.1473465 C34.0093174,17.5387561 33.8391929,17.9251672 33.5205276,18.1472916 L33.4192397,18.2098266 L31.06,19.4451562 L28.7015383,18.2098266 L28.5994724,18.1472916 C28.2808071,17.9251672 28.1106826,17.5387561 28.1698463,17.1473465 L28.5980019,14.3173713 C28.6209229,14.1657328 28.6169281,14.0117374 28.5865825,13.8621315 L28.5435476,13.7034492 L28.1377339,12.4658194 C28.0921407,12.3267716 28.1449071,12.1745067 28.2664704,12.0934346 L29.400708,11.35 L30.4432138,11.7766915 C30.8384909,11.9384761 31.2815091,11.9384761 31.6767862,11.7766915 L32.719292,11.35 Z M32.678139,11.7650607 L31.831604,12.1121745 C31.3874216,12.2939757 30.8931634,12.3121559 30.4389659,12.1667149 L30.2891741,12.1121745 L29.441889,11.7650607 L28.503639,12.3795567 L28.9044525,13.6015395 C28.9695979,13.8002168 28.99675,14.008534 28.9850332,14.2160411 L28.9689441,14.3713563 L28.5379555,17.2226471 C28.5017866,17.4619298 28.6053562,17.6980809 28.8006618,17.8375992 L28.8781077,17.8852063 L31.060389,19.0271518 L33.2426703,17.8852063 C33.4601598,17.7713071 33.5919137,17.5490875 33.5899294,17.3120487 L33.5828225,17.2226471 L33.151834,14.3713563 C33.1206281,14.1649073 33.1285099,13.9550358 33.1746039,13.7521916 L33.2163256,13.6015395 L33.616389,12.3795567 L32.678139,11.7650607 Z" coloured="" opacity="1" mask="url(#kitMask)" id="badge-15"></path><polygon fill="#2d4a6e" points="33.794 13.385 33.794 14.616 28.3 14.616 28.3 13.385" coloured="" opacity="1" mask="url(#kitMask)" id="badge-11"></polygon><g fill="none" fill-rule="evenodd" mask="url(#kitMask)" id="shoulder-02"><path fill="#fafafa" fill-opacity=".5" d="M16.7161775,1.73138707 C16.7796549,1.84367345 16.850601,1.95688496 16.9290158,2.07102158 L17.7182455,3.8397491 L8.469,7.95711273 L8.3541902,7.31038844 L8.25105389,6.76962646 L8.19874728,6.50898072 L8.09265715,6.00715978 L7.98639107,5.53832989 L16.3835008,1.86290579 C16.4510987,1.82605717 16.5346749,1.79094697 16.6342294,1.75757517 L16.7161775,1.73138707 Z M31.6139292,1.86290579 L39.7758433,5.4345938 C39.8783466,5.47585397 39.9792853,5.52085497 40.0786593,5.56959682 L39.9768771,6.00329659 L39.8705431,6.50103593 L39.7661836,7.02453169 L39.6637981,7.573786 L39.6178375,7.83125604 L30.6502025,3.8397491 L31.5454936,1.82904728 L31.6139292,1.86290579 Z" coloured="" opacity="1"></path><path fill="#fafafa" d="M17.0631247,2.25745554 C17.1699585,2.39964132 17.2881819,2.54323789 17.4177949,2.68824524 L8.26549606,6.76442476 L8.23626003,6.699 L8.19874728,6.50898072 L8.13926003,6.23 L17.0631247,2.25745554 Z M31.0046565,2.13516159 L39.9518375,6.11868989 L39.8388375,6.65768989 L30.6614178,2.57312771 C30.7456272,2.47481914 30.8245471,2.37716574 30.8981777,2.28016753 L31.0046565,2.13516159 Z M16.7167061,1.73232179 C16.7683279,1.82358125 16.8248827,1.91545173 16.8863705,2.00793325 L8.07526003,5.931 L7.98639107,5.53832989 L16.3835008,1.86290579 C16.4510987,1.82605717 16.5346749,1.79094697 16.6342294,1.75757517 L16.7167061,1.73232179 Z M31.6139292,1.86290579 L39.7758433,5.4345938 C39.8783466,5.47585397 39.9792853,5.52085497 40.0786593,5.56959682 L40.0188375,5.82068989 L31.1725237,1.88276573 L31.2643837,1.72765716 C31.4081129,1.76983501 31.5249643,1.81489484 31.6139292,1.86290579 Z" coloured="" opacity="1"></path></g>
        
                            <path fill-opacity="0.15" fill="#000000" fill-rule="nonzero" d="m10.234 48.926-1.257-.15a120.817 120.817 0 0 0 28.788.145l.016 1.514a.67.67 0 0 1-.206.101l-.168.052-.21.052-.25.052-.288.053-.324.052-.752.103-.879.1-.734.072-.791.07-.845.064-1.197.079-1.267.07-.988.044-.674.025-1.376.041-.698.015-1.411.018L24 51.5l-1.076-.005-1.057-.015-1.046-.024-1.029-.032-1.006-.04-.656-.03-1.267-.069-1.197-.079-.844-.065-.792-.069-.734-.072-.878-.1-.577-.077-.5-.078-.288-.053-.25-.052-.21-.052-.168-.052a.67.67 0 0 1-.206-.101l.014-1.509Zm37.19-28.899.144.361a13.074 13.074 0 0 1-3.592 2.696c-1.314.67-2.769 1.136-4.364 1.398l-.3.045-.142-.331c1.555-.22 2.974-.632 4.258-1.234l.389-.19a12.714 12.714 0 0 0 3.426-2.55l.18-.195Zm-46.99.357.144-.361-.112-.121a12.762 12.762 0 0 0 3.724 2.87c1.383.706 2.93 1.18 4.64 1.423l-.142.331-.293-.044c-1.596-.262-3.05-.728-4.364-1.398a13.074 13.074 0 0 1-3.597-2.7ZM7.926 5.567l.101.436.106.498.105.524.102.549.1.575.1.6.143.95.14 1.008.09.703.089.73.129 1.143.125 1.2.08.833.08.859.114 1.336.11 1.394.07.962.103 1.49.029.46-.262.614-.03-.511-.1-1.478-.103-1.423-.107-1.366-.111-1.311-.116-1.256-.08-.806-.08-.781-.084-.756-.128-1.089-.088-.694-.09-.67-.091-.645-.093-.62-.096-.596-.097-.57-.099-.546-.1-.521-.103-.497-.13-.583.135-.075.137-.07Zm32.148 0c.092.045.183.094.273.145l-.079.344-.103.484-.102.51-.1.533-.098.558-.096.583-.095.608-.092.632-.09.658-.09.682-.129 1.07-.084.744-.123 1.162-.08.806-.115 1.256-.111 1.31-.107 1.367-.137 1.91-.098 1.497-.26-.61.097-1.459.105-1.452.073-.936.113-1.355.078-.872.12-1.258.083-.807.085-.782.086-.755.134-1.085.091-.69.094-.666.095-.64.098-.613.15-.872.102-.55.13-.65.135-.61.047-.197Z"></path>
                        </g>
                    </svg>