<svg xmlns="http://www.w3.org/2000/svg" xmlns:xlink="http://www.w3.org/1999/xlink" width="48" height="52" viewBox="0 0 48 52"><defs><path id="a" d="M10.2202858,49.9349257 C10.2990374,41.6089564 10.3384132,36.1692068 10.3384132,33.6156766 C10.3384132,31.0621465 10.176828,26.9540037 9.85365765,21.2912482 L8.2241567,25.1160522 C7.01125281,25.3258129 5.41848163,24.9509062 3.44584315,23.9913321 C1.52651922,23.0576924 0.387279465,22.0785814 0.0281238815,21.053999 L0,20.9685118 L4.72526396,9.16007698 C5.53354862,7.00608415 6.66054046,5.6140616 8.10623945,4.98400935 L16.3835008,1.36290579 L17.7009394,0 C20.0542672,0.521537936 22.154146,0.782865363 24.0005758,0.783982281 C25.8380118,0.785093757 27.9375067,0.523766331 30.2990606,0 L31.6139292,1.36290579 L39.7758433,4.9345938 C41.2783083,5.53937373 42.4446058,6.94786812 43.274736,9.16007698 L48,20.9685118 C47.6754097,22.0241513 46.5267953,23.031758 44.5541569,23.9913321 C42.5815184,24.9509062 40.9887472,25.3258129 39.7758433,25.1160522 L38.1463424,21.2912482 C37.823172,26.7575783 37.6615868,30.8657211 37.6615868,33.6156766 C37.6615868,36.3656321 37.7013266,41.8053818 37.7808063,49.9349257 C37.2455989,50.399355 30.6230725,51 24.000546,51 C17.3780196,51 10.7554932,50.399355 10.2202858,49.9349257 Z"/><path id="c" d="M4.99752786,3.27877745 L10.4727918,16.0619683 C10.1482015,17.1176077 8.24958715,18.6504585 6.27694867,19.6100326 C4.30431019,20.5696066 2.71153901,20.9445133 1.49863512,20.7347527 L0,16.465846 L0.100797365,14.944029 L0.206025452,13.4806236 L0.27863902,12.5374708 L0.391251641,11.171418 L0.468788233,10.2931669 L0.548294034,9.44087662 L0.629769044,8.61454699 L0.755673826,7.42372884 L0.886009329,6.29132226 L0.975361176,5.56883541 L1.06668223,4.87230925 L1.1599725,4.20174379 L1.25523197,3.55713902 L1.35246065,2.93849495 L1.45165855,2.34581158 L1.55282565,1.7790889 L1.65596196,1.23832692 C1.67331545,1.15036331 1.69075098,1.0634814 1.70826857,0.977681186 L1.81435869,0.475860245 L1.92241803,0 C3.22232553,0.686428917 4.24723453,1.27932537 4.99752786,3.27877745 Z"/><path id="e" d="M4.99752786,3.27877745 L10.4727918,16.0619683 C10.1482015,17.1176077 8.24958715,18.6504585 6.27694867,19.6100326 C4.30431019,20.5696066 2.71153901,20.9445133 1.49863512,20.7347527 L0,16.465846 L0.100797365,14.944029 L0.206025452,13.4806236 L0.27863902,12.5374708 L0.391251641,11.171418 L0.468788233,10.2931669 L0.548294034,9.44087662 L0.629769044,8.61454699 L0.755673826,7.42372884 L0.886009329,6.29132226 L0.975361176,5.56883541 L1.06668223,4.87230925 L1.1599725,4.20174379 L1.25523197,3.55713902 L1.35246065,2.93849495 L1.45165855,2.34581158 L1.55282565,1.7790889 L1.65596196,1.23832692 C1.67331545,1.15036331 1.69075098,1.0634814 1.70826857,0.977681186 L1.81435869,0.475860245 L1.92241803,0 C3.22232553,0.686428917 4.24723453,1.27932537 4.99752786,3.27877745 Z"/><path id="g" d="M7.77767777,0.1 C12.0179421,0.1 15.4553555,2.45050506 15.4553555,5.35 C15.4553555,6.6644377 14.2719695,8.12545777 11.9051973,9.7330602 L11.4752474,10.0182764 L11.2510592,10.1620257 L11.2510592,10.1620257 L10.844,10.414 L4.712,10.414 L4.53462668,10.3065358 C4.37902574,10.2099421 4.22751957,10.1138556 4.08010816,10.0182764 L3.6501582,9.7330602 C1.28338607,8.12545777 0.1,6.6644377 0.1,5.35 C0.1,2.45050506 3.53741342,0.1 7.77767777,0.1 Z M7.77767777,1.6 C4.2714386,1.6 1.6,3.42673109 1.6,5.35 C1.6,5.97627864 2.28519876,6.85802077 3.68143654,7.91368277 L4.01627901,8.1603473 C4.07419368,8.20196024 4.13316311,8.24382118 4.1931888,8.28592548 L4.56602957,8.54143446 C4.63028611,8.58449363 4.69560183,8.62778689 4.7619782,8.67130959 L5.17297606,8.93516196 L5.60950019,9.20429821 C5.68438532,9.24958221 5.76033698,9.29507708 5.83735665,9.3407782 L6.3123025,9.61742274 L6.81295104,9.89879442 L7.33937283,10.1846706 L7.77777693,10.41475 L8.21612207,10.1845961 L8.74280258,9.89857453 C8.82843071,9.85127385 8.91298385,9.80416104 8.99646347,9.75724078 L9.48447071,9.47806675 C9.64285355,9.38580365 9.79695409,9.29434787 9.94678411,9.20373656 L10.3834744,8.93447326 L10.7946121,8.67049989 C10.8610096,8.62695755 10.9263454,8.58364491 10.9906209,8.54056663 L11.3635625,8.28494635 L11.7111283,8.0351736 L12.033389,7.79147142 L12.3304153,7.55406286 C13.373335,6.69537567 13.9087859,5.96810763 13.952447,5.42173663 L13.9553555,5.35 C13.9553555,3.42673109 11.2839169,1.6 7.77767777,1.6 Z"/><path id="i" d="M1.04804398,0 C1.55718823,0.246857822 2.06633249,0.370286732 2.57547675,0.370286732 C3.084621,0.370286732 3.59376526,0.246857822 4.10290952,0 L4.10290952,9.06222958 C1.52756043,7.9490538 0.169842408,6.74742959 0.0297554618,5.45735695 C-0.180374957,3.52224798 0.791302412,3.50787939 0.791302412,2.58285023 C0.791302412,1.96616412 0.537453429,1.44464355 0.0297554618,1.01828851 L1.04804398,0 Z M7.15777506,0 C6.6486308,0.246857822 6.13948655,0.370286732 5.63034229,0.370286732 C5.12119803,0.370286732 4.61205378,0.246857822 4.10290952,0 L4.10290952,9.06222958 C6.67825861,7.9490538 8.03597663,6.74742959 8.17606357,5.45735695 C8.38619399,3.52224798 7.41451662,3.50787939 7.41451662,2.58285023 C7.41451662,1.96616412 7.66836561,1.44464355 8.17606357,1.01828851 L7.15777506,0 Z"/></defs><g fill="none" fill-rule="evenodd" transform="translate(0 .5)"><mask id="b" fill="#fff"><use xlink:href="#a"/></mask><use xlink:href="#a" fill="#FFF"/><g fill="#212121" mask="url(#b)"><path d="M1.77635684e-15,0 L3.49516001,0 L3.49516001,51.5 L1.77635684e-15,51.5 L1.77635684e-15,0 Z M6.99032002,0 L10.48548,0 L10.48548,51.5 L6.99032002,51.5 L6.99032002,0 Z M13.98064,0 L17.4758,0 L17.4758,51.5 L13.98064,51.5 L13.98064,0 Z M20.9709601,0 L24.4661201,0 L24.4661201,51.5 L20.9709601,51.5 L20.9709601,0 Z" transform="translate(11.767 -.5)"/></g><g mask="url(#b)"><g transform="translate(-.75 5.131)"><g transform="translate(39.027)"><mask id="d" fill="#fff"><use xlink:href="#c"/></mask><use xlink:href="#c" fill="#FFF"/><g fill="#212121" mask="url(#d)"><path d="M15.2644018,3.7373711 L18.55103,3.7373711 L18.55103,54.4350485 L15.2644018,54.4350485 L15.2644018,3.7373711 Z M8.73422491,3.7373711 L12.0208531,3.7373711 L12.0208531,54.4350485 L8.73422491,54.4350485 L8.73422491,3.7373711 Z M28.3621214,3.7373711 L31.6487496,3.7373711 L31.6487496,54.4350485 L28.3621214,54.4350485 L28.3621214,3.7373711 Z M21.7945787,3.7373711 L25.081207,3.7373711 L25.081207,54.4350485 L21.7945787,54.4350485 L21.7945787,3.7373711 Z M34.8922983,3.7373711 L38.1789265,3.7373711 L38.1789265,54.4350485 L34.8922983,54.4350485 L34.8922983,3.7373711 Z" transform="rotate(-23 -5.549 68.571)"/></g></g><g transform="matrix(-1 0 0 1 10.473 0)"><mask id="f" fill="#fff"><use xlink:href="#e"/></mask><use xlink:href="#e" fill="#FFF"/><g fill="#212121" mask="url(#f)"><path d="M15.2644018,3.7373711 L18.55103,3.7373711 L18.55103,54.4350485 L15.2644018,54.4350485 L15.2644018,3.7373711 Z M8.73422491,3.7373711 L12.0208531,3.7373711 L12.0208531,54.4350485 L8.73422491,54.4350485 L8.73422491,3.7373711 Z M28.3621214,3.7373711 L31.6487496,3.7373711 L31.6487496,54.4350485 L28.3621214,54.4350485 L28.3621214,3.7373711 Z M21.7945787,3.7373711 L25.081207,3.7373711 L25.081207,54.4350485 L21.7945787,54.4350485 L21.7945787,3.7373711 Z M34.8922983,3.7373711 L38.1789265,3.7373711 L38.1789265,54.4350485 L34.8922983,54.4350485 L34.8922983,3.7373711 Z" transform="rotate(-23 -9.049 85.774)"/></g></g></g></g><g mask="url(#b)"><g transform="translate(-1.01 19.644)"><path fill="#212121" d="M0.191670888,2.0833252 C1.89350907,2.67692049 3.55550115,2.97371813 5.17764715,2.97371813 C6.79979315,2.97371813 8.38209305,2.67692049 9.92454687,2.0833252 L9.8202168,4.82979877 L0.0873408151,4.82979877 L0.191670888,2.0833252 Z" transform="scale(-1 1) rotate(-27 0 24.308)"/><path fill="#D8DADB" fill-rule="nonzero" d="M9.42453802,0.479572104 L9.70194023,0.731907237 C7.1940196,3.48896564 4.74029244,4.59432817 1.1391608,5.08443147 L0.818405628,5.12610556 L0.772282057,4.75395288 C4.36251062,4.30898991 6.76996646,3.30295533 9.20919832,0.712297909 L9.42453802,0.479572104 Z" transform="matrix(-1 0 0 1 10.474 0)"/><g transform="matrix(-1 0 0 1 50.02 0)"><path fill="#212121" d="M0.191670888,2.0833252 C1.89350907,2.67692049 3.55550115,2.97371813 5.17764715,2.97371813 C6.79979315,2.97371813 8.38209305,2.67692049 9.92454687,2.0833252 L9.8202168,4.82979877 L0.0873408151,4.82979877 L0.191670888,2.0833252 Z" transform="scale(-1 1) rotate(-27 0 24.308)"/><path fill="#D8DADB" fill-rule="nonzero" d="M9.42453802,0.479572104 L9.70194023,0.731907237 C7.1940196,3.48896564 4.74029244,4.59432817 1.1391608,5.08443147 L0.818405628,5.12610556 L0.772282057,4.75395288 C4.36251062,4.30898991 6.76996646,3.30295533 9.20919832,0.712297909 L9.42453802,0.479572104 Z" transform="matrix(-1 0 0 1 10.474 0)"/></g></g></g><g fill="#000" fill-opacity=".2" fill-rule="nonzero" mask="url(#b)"><g transform="translate(7.573 4.805)"><path d="M30.4841488,0.0719784231 L30.775386,0 L30.8846831,0.459108697 L30.9920046,0.943970623 C31.009727,1.02692716 31.027367,1.11095685 31.0449248,1.19605971 L31.1492842,1.71955547 L31.2516698,2.26880979 C31.2685696,2.36249884 31.2853872,2.45726125 31.3021226,2.55309707 L31.4015486,3.1409932 L31.4990025,3.75465321 L31.5944849,4.39407922 L31.6879965,5.05927336 L31.7795379,5.75023777 L31.9131577,6.83500827 L31.9997768,7.59040765 L32.0844282,8.37158474 L32.1671126,9.17854167 L32.2874525,10.4373189 L32.3652222,11.3087348 L32.4781933,12.6642104 L32.5510527,13.6000985 L32.6566614,15.0522924 L32.7906067,17.0788376 L32.8546382,18.1308092 L32.5551627,18.1485413 L32.4925849,17.1198586 L32.3952062,15.6232215 L32.2588155,13.7143048 L32.151611,12.3475756 L32.0401991,11.0365325 L31.9245818,9.78118215 L31.8451685,8.97522572 L31.7225472,7.81271175 L31.6384666,7.06865248 L31.5088473,5.99899365 L31.4201033,5.31684406 L31.3294951,4.65946183 L31.2370234,4.02684899 L31.1426887,3.41900751 L31.0464917,2.83593942 L30.9484331,2.2776467 L30.8485135,1.74413136 L30.7467335,1.2353954 L30.6430938,0.751440821 L30.5375951,0.292269626 L30.4841488,0.0719784231 Z" transform="matrix(-1 0 0 1 63.339 0)"/><path d="M0.2912372,0 L0.346132747,0.226335328 L0.454441985,0.698320373 L0.560775986,1.19605971 L0.665135431,1.71955547 L0.767521003,2.26880979 L0.867933384,2.84382478 L0.966373258,3.44460258 L1.11033611,4.39407922 L1.24986465,5.40153415 L1.34042132,6.10538448 L1.42900889,6.83500827 L1.55819968,7.97777385 L1.68296385,9.17854167 L1.76368186,10.0112806 L1.84243419,10.8698036 L1.95687852,12.2059379 L2.0669039,13.6000985 L2.13780032,14.5617792 L2.24046591,16.052666 L2.33871869,17.6015983 L2.37048939,18.1308092 L2.07101389,18.1485413 L1.97644473,16.6147944 L1.87766163,15.1367133 L1.77466675,13.7143048 L1.66746225,12.3475756 L1.5560503,11.0365325 L1.44043307,9.78118215 L1.36101971,8.97522572 L1.27973894,8.19402665 L1.1965914,7.43758695 L1.06837129,6.34935559 L0.980559634,5.65482306 L0.890883448,4.9850569 L0.799343379,4.34005911 L0.705940068,3.7198317 L0.610674156,3.12437667 L0.513546285,2.55369601 L0.414557097,2.00779173 L0.313707232,1.48666583 L0.210997334,0.990320312 L0.106428043,0.518757175 C0.0888449136,0.442228629 0.0711843367,0.366732765 0.0534463251,0.292269626 L0,0.0719784231 L0.2912372,0 Z"/></g></g><g mask="url(#b)"><g transform="translate(16.133 -4.5)"><polygon fill="#828282" points="1.028 6.001 14.528 6.001 11.524 8.831 7.777 10.415 4.135 9.014"/><path fill="#ABACAC" d="M0.0748884653,4.38174159 L15.4804671,4.38174159 L15.4804671,5.88174159 C12.9128706,6.60193223 10.3452742,6.96202755 7.77767777,6.96202755 C5.21008134,6.96202755 2.6424849,6.60193223 0.0748884653,5.88174159 L0.0748884653,4.38174159 Z"/><path fill="#131313" fill-rule="nonzero" d="M7.77767777,0 C12.0668771,0 15.5553555,2.38542333 15.5553555,5.35 C15.5553555,6.6526146 14.4473054,8.07272882 12.2418711,9.6220525 L11.9604771,9.81639178 L11.5292244,10.1024576 L11.3036924,10.2470535 L10.8440245,10.514 L7.77775247,10.51475 L4.66018208,10.4995272 L4.48188496,10.3914964 L4.02482844,10.1016079 L3.59397029,9.81578213 C1.20231139,8.19127566 0,6.7068902 0,5.35 C0,2.38542333 3.48847841,0 7.77767777,0 Z M10.844,10.414 L11.2510592,10.1620257 L11.4752474,10.0182764 L11.9051973,9.7330602 C14.2719695,8.12545777 15.4553555,6.6644377 15.4553555,5.35 C15.4553555,2.45050506 12.0179421,0.1 7.77767777,0.1 C3.53741342,0.1 0.1,2.45050506 0.1,5.35 C0.1,6.6118602 1.1906086,8.0088107 3.3718258,9.5408515 L3.6501582,9.7330602 L4.08010816,10.0182764 L4.30429635,10.1620257 L4.712,10.414 L10.844,10.414 Z"/><mask id="h" fill="#fff"><use xlink:href="#g"/></mask><use xlink:href="#g" fill="#D8DADB" fill-rule="nonzero"/><path fill="#212121" fill-rule="nonzero" d="M7.77767777,-0.275 C3.35390713,-0.275 -0.275,2.20644856 -0.275,5.35 C-0.275,6.82363457 0.979356037,8.37227486 3.43945353,10.0432675 L3.8728092,10.3307698 C4.02559254,10.4298567 4.17917542,10.5272602 4.33684524,10.6251382 L4.81888771,10.9182565 L5.32815564,11.2159483 C5.50449948,11.3170878 5.68226351,11.4171686 5.86411435,11.5177353 L6.4193183,11.8194895 L6.59838647,11.8650057 L8.95696908,11.8650057 L9.13603724,11.8194895 L9.68883004,11.5190572 L10.2245345,11.2174913 L10.9790825,10.7722248 L11.4488406,10.4806281 L11.677661,10.3339561 L12.1124963,10.0455536 C14.5759995,8.37227486 15.8303555,6.82363457 15.8303555,5.35 C15.8303555,2.20644856 12.2014484,-0.275 7.77767777,-0.275 Z M7.77767777,0.475 C11.8344358,0.475 15.0803555,2.69456157 15.0803555,5.35 C15.0803555,6.50524083 13.9679394,7.87864068 11.6944927,9.42285294 L11.2679484,9.70578293 L11.0486456,9.84634587 L10.5864749,10.1332042 L10.3496701,10.2757019 L9.84877231,10.5684202 L9.32828256,10.8614114 L8.86,11.115 L6.694,11.115 L6.22466183,10.8600895 L5.70391785,10.5668772 L5.20292757,10.2740744 L4.72945275,9.98611758 C4.57887607,9.89262398 4.4294466,9.79785458 4.28412129,9.70362792 L3.85745716,9.42056677 C1.5874161,7.87864068 0.475,6.50524083 0.475,5.35 C0.475,2.69456157 3.72091972,0.475 7.77767777,0.475 Z" mask="url(#h)"/><path fill="#212121" fill-rule="nonzero" d="M7.77767777,0.975 C4.08323618,0.975 0.975,2.93381675 0.975,5.35 C0.975,6.25206062 1.79026092,7.26734453 3.30450067,8.412225 L3.83428117,8.79759951 L4.35888499,9.15421926 L4.8353291,9.46110827 L5.51842117,9.87827719 L5.99772865,10.157486 L6.50673877,10.4436422 L7.04110637,10.7339083 L7.77784344,11.1206274 L8.50666569,10.737958 L9.17405666,10.3740584 L9.7948196,10.0205689 L10.2702141,9.73854311 L10.7115042,9.46647085 L11.2793434,9.09928702 L11.7169133,8.8004735 L12.0758622,8.54271101 L12.4103727,8.28997751 L12.7206367,8.04227617 C13.8735677,7.09309648 14.5136774,6.24467527 14.5754609,5.47152238 L14.5798425,5.37531973 C14.5803555,2.93381675 11.4721194,0.975 7.77767777,0.975 Z M7.77767777,2.225 C10.8685095,2.225 13.3303555,3.77646036 13.3303555,5.35 L13.3279601,5.39641689 C13.3023244,5.71118562 12.8381182,6.32645892 11.93315,7.07156382 L11.6431676,7.30325811 L11.3341446,7.53666751 L10.9988287,7.77740894 L10.5090413,8.11022051 L10.0457991,8.40854508 L9.61875428,8.67173897 L9.16987422,8.9380167 L8.56560178,9.2821512 L7.91785161,9.63536055 L7.777,9.709 L7.62981216,9.63125391 L7.1112175,9.34955667 L6.61851477,9.07257501 L5.9329114,8.66948031 L5.50098415,8.40315097 L4.91395519,8.02223049 L4.51196085,7.74601801 L4.3809751,7.65278276 L4.05212603,7.41047874 C2.83824521,6.49263154 2.225,5.72892759 2.225,5.35 C2.225,3.77646036 4.68684603,2.225 7.77767777,2.225 Z" mask="url(#h)"/></g></g><g mask="url(#b)"><g transform="translate(27.397 8.62)"><mask id="j" fill="#fff"><use xlink:href="#i"/></mask><use xlink:href="#i" fill="#111"/><path fill="#FFF" d="M2.30882859,3.7832115 L3.04940205,3.7832115 L3.04940205,8.328827 L2.30882859,8.328827 L2.30882859,3.7832115 Z M5.15641699,2.67691026 L5.89699045,2.67691026 L5.89699045,8.328827 L5.15641699,8.328827 L5.15641699,2.67691026 Z" mask="url(#j)"/><polygon fill="#FFF" points="-.483 2.18 8.056 2.18 8.056 4.012 -.483 4.012" mask="url(#j)" transform="rotate(-30 3.786 3.096)"/><path fill="#FFF" fill-rule="nonzero" d="M7.15777506,0 L8.17606357,1.01828851 C7.66836561,1.44464355 7.41451662,1.96616412 7.41451662,2.58285023 C7.41451662,2.82952467 7.48361368,3.01144103 7.58097134,3.18229106 L7.63181616,3.26704245 L7.83048794,3.57068038 C8.06404403,3.93958465 8.28813313,4.42529883 8.17606357,5.45735695 C8.03889511,6.72055308 6.73430171,7.89894774 4.26228338,8.99254092 L4.10290952,9.06222958 C1.52756043,7.9490538 0.169842408,6.74742959 0.0297554618,5.45735695 C-0.07764453,4.46830125 0.123684525,3.98100934 0.346209525,3.61743287 L0.43372829,3.48063928 L0.547168665,3.30919257 L0.599943155,3.22480409 C0.710209338,3.04131072 0.791302412,2.85008088 0.791302412,2.58285023 C0.791302412,1.96616412 0.537453429,1.44464355 0.0297554618,1.01828851 L1.04804398,0 C1.55718823,0.246857822 2.06633249,0.370286732 2.57547675,0.370286732 C3.084621,0.370286732 3.59376526,0.246857822 4.10290952,0 L4.23019558,0.0591430198 C4.69691115,0.266572162 5.16362672,0.370286732 5.63034229,0.370286732 C6.09705786,0.370286732 6.56377343,0.266572162 7.030489,0.0591430198 L7.15777506,0 Z M4.1032798,0.80796565 L4.00380321,0.847075458 C3.53278425,1.02206774 3.05569563,1.1108602 2.57547675,1.1108602 C2.14327975,1.1108602 1.71361827,1.03893831 1.28863512,0.896984555 L1.22170845,0.873506402 L1.05248742,1.04272744 L1.0902104,1.09698905 C1.36191261,1.50577174 1.51117707,1.96849991 1.52987143,2.47390096 L1.53187588,2.58285023 C1.53187588,3.00489858 1.41571814,3.32391716 1.18619633,3.68459053 L1.01798181,3.94033299 C0.769994097,4.32477534 0.687271721,4.65238503 0.766000949,5.37740922 C0.862307755,6.26430682 1.89417049,7.22982097 3.95120101,8.18312289 L4.10290952,8.25221012 L4.11124894,8.24878653 C6.21688254,7.29537458 7.29197877,6.32848997 7.4315941,5.43931728 L7.43981809,5.37740922 C7.51440367,4.6905442 7.44408532,4.36036144 7.22562034,4.00062835 L7.17640593,3.92285772 L7.01962271,3.68459053 C6.7901009,3.32391716 6.67394316,3.00489858 6.67394316,2.58285023 C6.67394316,2.03487916 6.82449913,1.5349705 7.11560864,1.09698905 L7.15296133,1.04272744 L6.9837403,0.873506402 L6.91009555,0.899346783 C6.53429575,1.02416244 6.1548884,1.09420531 5.77346673,1.10822945 L5.63034229,1.1108602 C5.15296684,1.1108602 4.67842759,1.0230876 4.20330403,0.8470069 L4.1032798,0.80796565 Z"/><path fill="#111" fill-rule="nonzero" d="M7.15777506,0 L8.17606357,1.01828851 C7.66836561,1.44464355 7.41451662,1.96616412 7.41451662,2.58285023 C7.41451662,2.82952467 7.48361368,3.01144103 7.58097134,3.18229106 L7.63181616,3.26704245 L7.83048794,3.57068038 C8.06404403,3.93958465 8.28813313,4.42529883 8.17606357,5.45735695 C8.03889511,6.72055308 6.73430171,7.89894774 4.26228338,8.99254092 L4.10290952,9.06222958 C1.52756043,7.9490538 0.169842408,6.74742959 0.0297554618,5.45735695 C-0.07764453,4.46830125 0.123684525,3.98100934 0.346209525,3.61743287 L0.43372829,3.48063928 L0.547168665,3.30919257 L0.599943155,3.22480409 C0.710209338,3.04131072 0.791302412,2.85008088 0.791302412,2.58285023 C0.791302412,1.96616412 0.537453429,1.44464355 0.0297554618,1.01828851 L1.04804398,0 C1.55718823,0.246857822 2.06633249,0.370286732 2.57547675,0.370286732 C3.084621,0.370286732 3.59376526,0.246857822 4.10290952,0 L4.23019558,0.0591430198 C4.69691115,0.266572162 5.16362672,0.370286732 5.63034229,0.370286732 C6.09705786,0.370286732 6.56377343,0.266572162 7.030489,0.0591430198 L7.15777506,0 Z M4.10290952,0.406945119 L3.98488359,0.457338113 C3.5181639,0.645612297 3.04773875,0.740573465 2.57547675,0.740573465 C2.10321475,0.740573465 1.6327896,0.645612297 1.1660699,0.457338113 L1.12987734,0.441752072 L0.557414055,1.01421536 L0.5873104,1.04719478 C0.943349883,1.45664013 1.13655251,1.93587826 1.15931206,2.47436584 L1.16158914,2.58285023 C1.16158914,2.8902866 1.08637334,3.12760483 0.92922656,3.39529748 L0.858407108,3.50963105 L0.70681651,3.73961324 C0.413829863,4.19381507 0.309765567,4.60594627 0.397878205,5.41738308 C0.514262008,6.48917146 1.67948558,7.56165677 3.94169351,8.58604062 L4.10253923,8.65767409 L4.1124772,8.65391078 C6.42401154,7.63131391 7.63573131,6.55996824 7.7986339,5.48879391 L7.80794083,5.41738308 C7.89164784,4.64651811 7.80191516,4.23602646 7.5415332,3.80748316 L7.4681657,3.69269122 L7.33201843,3.48579119 C7.13708891,3.17947656 7.04422989,2.92444619 7.04422989,2.58285023 C7.04422989,2.00008686 7.23873319,1.48393649 7.61850864,1.04719478 L7.64803469,1.01421536 L7.07557141,0.441752072 L7.0408495,0.456896366 C6.62042821,0.626628731 6.19700374,0.720621289 5.77204865,0.737722477 L5.63034229,0.740573465 C5.15781224,0.740573465 4.68696985,0.645487883 4.21559473,0.4549691 L4.10290952,0.406945119 Z"/></g></g></g></svg>