<svg height="24" viewBox="0 0 106 24" width="106" xmlns="http://www.w3.org/2000/svg"><g fill="none" fill-rule="evenodd"><path d="m0 0h106v24h-106z" fill="#fff" opacity="0"/><g fill="#999" fill-rule="nonzero" transform="translate(-.0597 4.8068)"><path d="m0 7.26933333c0-4.83333333 2.108-7.26933333 5.43333333-7.26933333 2.30133334 0 4.04133334 1.12133333 4.524 3.65466667l.07733337.40666666-1.97200003.42533334-.07733334-.36666667c-.368-1.70133333-1.31466666-2.35866667-2.59066666-2.35866667-1.79866667 0-3.22933334 1.56666667-3.22933334 5.37466667 0 3.596 1.296 5.104 3.11333334 5.104 1.296 0 2.804-.676 2.804-3.05466667v-.40533333h-2.84266667v-1.68266667h4.8146667v6.67066667h-1.72133337l-.116-1.644c-.63866666 1.3333333-1.89466666 1.876-3.364 1.876-2.93866666-.0026667-4.85333333-2.3413333-4.85333333-6.73066667z"/><path d="m17.4773333 12.8373333c-.6.6373334-1.392 1.1413334-2.668 1.16-1.8173333 0-2.9973333-1.2186666-2.9973333-2.784 0-1.7013333 1.412-2.5333333 2.6493333-2.8813333l2.9973334-.85066667v-.348c0-1.08266666-.6773334-1.624-1.74-1.624-.9866667 0-1.7786667.61866667-2.1266667 1.31466667l-.0586667.116-1.528-.812.0973334-.19333333c.4253333-.87066667 1.6053333-2.06933334 3.7893333-2.06933334s3.5773333 1.10266667 3.5773333 3.09333334v5.08533333c0 .4826667.02 1.1213333.116 1.5466667l.0386667.1746666h-2.0106667l-.02-.0973333c-.0586666-.2706667-.0973333-.5413333-.116-.8306667zm-2.1466666-.368c.8893333 0 1.6826666-.5226666 2.1266666-1.0826666v-2.43600003l-2.088.63866666c-.792.25066667-1.4893333.65733337-1.4893333 1.48933337s.5613333 1.392 1.4506667 1.392z"/><path d="m31.1453333 5.60666667c-.792 0-1.624.54133333-2.088 1.00533333v7.1533333h-2.0106666v-6.67066663c0-.98666667-.5026667-1.48933334-1.4693334-1.48933334-.792 0-1.624.54133334-2.088 1.00533334v7.15333333h-2.0106666v-9.66533333h1.9146666v1.064c.7346667-.77333334 1.7786667-1.296 2.8613334-1.296 1.3533333 0 2.1653333.61866666 2.552 1.46933333.7346666-.87066667 1.856-1.46933333 3.016-1.46933333 1.992 0 2.804 1.33466666 2.804 2.784v7.11466663h-2.0106667v-6.67066663c0-.98666667-.5026667-1.48933334-1.4693333-1.48933334z"/><path d="m38.744 12.876-.1933333.8893333h-1.7013334v-13.5333333h2.0106667v4.66c.58-.65733333 1.4693333-1.02533333 2.3973333-1.02533333 2.204 0 3.6933334 1.644 3.6933334 4.93066666 0 3.28666667-1.5666667 5.20133337-3.7706667 5.20133337-.9866667 0-1.8946667-.4066667-2.436-1.1213334zm2.0493333-.5026667c1.1413334 0 2.108-1.044 2.108-3.51866663 0-2.47466667-1.0053333-3.34533334-2.1466666-3.34533334-.7733334 0-1.412.38666667-1.8946667.88933334v5.04666663c.5026667.5226667 1.16.928 1.9333333.928z"/><path d="m46.612.232h2.0106667v13.5333333h-2.0106667z"/><path d="m50.4013333 9.068c0-3.05466667 1.528-5.20133333 4.196-5.20133333 1.876 0 3.8466667 1.12133333 3.8466667 4.60133333v.908h-6.0706667v.116c0 1.876.9866667 2.92 2.3 2.92.8506667 0 1.5666667-.348 2.0493334-1.2186667l.116-.2133333 1.5853333.6773333-.096.1933334c-.716 1.4306666-1.992 2.1466666-3.712 2.1466666-2.436 0-4.2146667-1.7213333-4.2146667-4.93066663zm6.148-1.02533333v-.136c0-1.76-.928-2.41733334-1.952-2.41733334s-2.0306666.77333334-2.204 2.552h4.1573334z"/><path d="m63.78.232h2.92l3.828 13.5333333h-2.1466667l-.948-3.5573333h-4.4853333l-.948 3.5573333h-2.0306667zm3.1906667 8.31333333-1.7786667-6.65066666-1.7786667 6.65066666z"/><path d="m70.024 4.09866667h2.0106667l1.5853333 6.90266663 1.76-6.90266663h1.8946667l1.7213333 6.90266663 1.644-6.90266663h1.8373333l-2.4946666 9.66666663h-1.992l-1.74-6.88266663-1.76 6.88266663h-1.972z"/><path d="m88.4106667 12.8373333c-.6.6373334-1.392 1.1413334-2.668 1.16-1.8173334 0-2.9973334-1.2186666-2.9973334-2.784 0-1.7013333 1.4106667-2.5333333 2.6493334-2.8813333l2.9973333-.85066667v-.348c0-1.08266666-.6773333-1.624-1.74-1.624-.9853333 0-1.7786667.61866667-2.1266667 1.31466667l-.0573333.116-1.528-.812.0973333-.19333333c.4253334-.87066667 1.6053334-2.06933334 3.7893334-2.06933334s3.5773333 1.10266667 3.5773333 3.09333334v5.08533333c0 .4826667.02 1.1213333.116 1.5466667l.0386667.1746666h-2.0106667l-.02-.0973333c-.0573333-.2706667-.096-.5413333-.116-.8306667zm-2.1453334-.368c.8893334 0 1.6826667-.5226666 2.1266667-1.0826666v-2.43600003l-2.088.63866666c-.7933333.25066667-1.4893333.65733337-1.4893333 1.48933337s.5613333 1.392 1.4506666 1.392z"/><path d="m92.3546667 4.09866667h1.876v1.81733333c1.276-1.48933333 2.4173333-1.93333333 3.384-1.95333333v1.876c-1.3533334 0-2.4173334.75466666-3.248 1.508v6.41866663h-2.0106667v-9.66666663z"/><path d="m97.8253333 9.068c0-3.05466667 1.528-5.20133333 4.1959997-5.20133333 1.876 0 3.848 1.12133333 3.848 4.60133333v.908h-6.0706663v.116c0 1.876.9866663 2.92 2.3013333 2.92.850667 0 1.566667-.348 2.049333-1.2186667l.116-.2133333 1.585334.6773333-.096.1933334c-.716 1.4306666-1.992 2.1466666-3.712 2.1466666-2.4360003 0-4.214667-1.7213333-4.214667-4.93066663zm6.1479997-1.02533333v-.136c0-1.76-.928-2.41733334-1.953333-2.41733334s-2.0306667.77333334-2.204 2.552h4.157333z"/></g></g></svg>