<svg xmlns="http://www.w3.org/2000/svg" xmlns:xlink="http://www.w3.org/1999/xlink" width="89px" height="24px" viewBox="0 0 89 24" version="1.1">
    <g id="Page-1" stroke="none" stroke-width="1" fill="none" fill-rule="evenodd">
        <g id="Gambling-Commission" fill-rule="nonzero">
            <path d="M9.32,10.251 C8.253,10.629 7.118,10.817 5.677,10.817 C2.644,10.817 0.0509996863,8.811 0.0509996863,5.76 C0.05,2.349 2.44,0.034 6.016,0.034 C7.355,0.034 8.422,0.291 9.304,0.686 L8.727,2.297 C8.439,2.04 7.49,1.457 5.914,1.457 C3.44,1.457 2.05099969,3.017 2.05099969,5.417 C2.05099969,7.954 3.813,9.48 5.761,9.48 C6.457,9.48 6.948,9.411 7.355,9.274 C7.423,8.709 7.423,7.646 7.423,7.114 C7.423,6.429 7.423,5.88 7.355,5.383 L9.355,5.383 C9.321,5.983 9.321,6.703 9.321,7.423 C9.321,8.194 9.321,9.411 9.355,10.234 L9.321,10.251" id="Path" fill="#A7A7A7"/>
            <path d="M0.05,18.891 C0.05,15.36 2.61,13.2 5.78,13.2 C7.119,13.2 8,13.354 8.83,13.749 L8.22,15.429 C7.949,15.051 7.068,14.571 5.797,14.571 C3.627,14.571 2.085,16.046 2.085,18.566 C2.085,20.966 3.695,22.543 5.797,22.543 C6.78,22.543 7.559,22.337 8.322,21.84 L8.881,23.177 C7.881,23.743 6.881,23.949 5.491,23.949 C2.407,23.949 0.051,21.891 0.051,18.891 M14.422,13.217 C11.32,13.217 8.948,15.411 8.948,18.754 C8.948,21.891 11.168,23.966 14.422,23.966 C17.472,23.966 19.878,21.806 19.878,18.446 C19.878,15.291 17.675,13.217 14.422,13.217 Z M14.422,22.594 C12.337,22.594 11.032,20.966 11.032,18.583 C11.032,16.2 12.303,14.589 14.422,14.589 C16.422,14.589 17.811,16.166 17.811,18.583 C17.811,20.983 16.455,22.594 14.421,22.594 L14.422,22.594 Z" id="Shape" fill="#777777"/>
            <path d="M16.252,0.137 L14.455,0.137 C13.117,3.257 11.032,8.109 9.812,10.68 L11.71,10.68 C11.812,10.354 12.032,9.874 12.185,9.497 C12.439,8.983 12.676,8.349 12.896,7.766 L17.133,7.766 C17.336,8.349 17.591,8.949 17.811,9.514 C17.963,9.909 18.099,10.303 18.235,10.68 L20.421,10.68 C18.997,7.44 17.319,3.103 16.25,0.137 L16.252,0.137 Z M13.439,6.343 C13.642,5.829 13.913,5.246 14.116,4.714 C14.506,3.754 14.879,2.863 15.167,2.057 C15.6329292,3.50250742 16.1472184,4.93197796 16.709,6.343 L13.439,6.343 Z" id="Shape" fill="#A7A7A7"/>
            <path d="M29.962,15.686 C29.792,16.183 29.589,16.731 29.352,17.4 C28.622,19.406 27.708,22.029 27.047,23.794 L25.3,23.794 C24.3848663,21.0989147 23.4925012,18.3961517 22.623,15.686 C22.368,18.12 22.114,21.086 22.013,23.794 L20.25,23.794 C20.759,20.229 21.013,16.903 21.148,13.371 L23.521,13.371 C24.012,15.103 24.691,16.989 25.334,18.806 C25.724,19.903 26.08,20.863 26.368,21.823 C27.334,19.389 28.503,16.011 29.418,13.371 L31.689,13.371 C31.689,16.371 31.943,20.366 32.249,23.794 L30.181,23.794 C30.181,21.034 30.096,18.154 29.961,15.686 L29.962,15.686 Z" id="Path" fill="#777777"/>
            <path d="M30.758,10.663 C30.7561812,7.95286939 30.6828223,5.24325899 30.538,2.537 C30.351,3.034 30.148,3.6 29.894,4.269 C29.199,6.24 28.267,8.897 27.606,10.663 L25.86,10.663 C24.962,8.006 23.878,4.749 23.183,2.537 C22.912,4.989 22.641,7.954 22.573,10.663 L20.81,10.663 C21.319,7.097 21.573,3.771 21.709,0.223 L24.081,0.223 C24.573,1.937 25.251,3.84 25.894,5.64 C26.267,6.737 26.624,7.714 26.928,8.674 C27.894,6.223 29.063,2.846 29.962,0.223 L32.249,0.223 C32.249,3.206 32.504,7.217 32.809,10.663 L30.758,10.663 Z" id="Path" fill="#A7A7A7"/>
            <path d="M42.705,15.686 C42.519,16.183 42.315,16.731 42.061,17.4 C41.35,19.406 40.435,22.029 39.774,23.794 L38.01,23.794 C37.095,21.137 36.061,17.88 35.35,15.686 C35.078,18.12 34.807,21.086 34.706,23.794 L32.96,23.794 C33.468,20.229 33.706,16.903 33.841,13.371 L36.231,13.371 C36.722,15.103 37.383,16.989 38.027,18.806 C38.417,19.903 38.773,20.863 39.077,21.823 C40.044,19.389 41.197,16.011 42.111,13.371 L44.382,13.371 C44.382,16.371 44.636,20.366 44.942,23.794 L42.925,23.794 C42.925,21.034 42.84,18.154 42.705,15.686 L42.705,15.686 Z" id="Path" fill="#777777"/>
            <path d="M39.265,5.04 C40.333,4.731 41.163,3.771 41.163,2.777 C41.163,1.2 39.689,0.24 37.163,0.24 L33.995,0.24 C34.096,2.28 34.096,3.514 34.096,5.589 C34.096,7.543 34.096,8.726 33.995,10.663 L37.198,10.663 C40.146,10.663 41.604,9.566 41.604,7.543 C41.621,6.291 40.706,5.366 39.265,5.04 L39.265,5.04 Z M35.961,1.611 C36.231,1.543 36.638,1.543 36.944,1.543 C38.638,1.543 39.316,2.091 39.316,3.034 C39.316,4.029 38.536,4.577 36.893,4.577 L35.927,4.577 C35.91,3.531 35.91,2.486 35.961,1.611 L35.961,1.611 Z M36.977,9.291 L35.944,9.291 C35.91,8.143 35.91,7.097 35.91,5.931 L36.944,5.931 C38.842,5.931 39.723,6.497 39.723,7.594 C39.723,8.674 39.045,9.291 36.977,9.291 Z M44.468,8.023 C44.468,8.434 44.485,8.829 44.485,9.257 C46.044,9.257 48.044,9.257 49.111,9.189 L48.569,10.663 L42.536,10.663 C42.638,8.726 42.638,7.543 42.638,5.589 C42.638,3.497 42.638,2.28 42.536,0.24 L44.536,0.24 C44.519,0.943 44.519,1.577 44.502,2.109 C44.485,3.12 44.434,4.303 44.434,5.589 C44.434,6.514 44.451,7.251 44.468,8.023" id="Shape" fill="#A7A7A7"/>
            <path d="M46.078,23.794 C46.179,21.926 46.179,20.691 46.179,18.754 C46.179,16.629 46.179,15.429 46.078,13.354 L48.078,13.354 C47.976,15.411 47.976,16.629 47.976,18.754 C47.976,20.691 47.976,21.926 48.077,23.794 L46.077,23.794 M55.55,15.309 C55.093,14.914 54.365,14.537 53.33,14.537 C52.077,14.537 51.45,15.086 51.45,15.823 C51.45,16.44 51.738,16.886 53.077,17.469 C53.399,17.606 53.771,17.777 54.11,17.931 C55.703,18.669 56.347,19.457 56.347,20.88 C56.347,22.903 54.72,23.949 52.551,23.949 C51.281,23.949 50.145,23.743 49.162,23.28 L49.738,21.754 C50.518,22.269 51.535,22.629 52.518,22.629 C53.924,22.629 54.415,21.96 54.415,21.154 C54.415,20.4 53.907,19.92 52.856,19.44 C52.4582694,19.249919 52.0572066,19.0668904 51.653,18.891 C50.23,18.223 49.535,17.434 49.535,16.097 C49.535,14.434 51.043,13.183 53.348,13.183 C54.618,13.183 55.534,13.389 56.161,13.731 L55.551,15.309" id="Shape" fill="#777777"/>
            <path d="M49.908,10.663 C50.009,8.726 50.009,7.543 50.009,5.589 C50.009,3.497 50.009,2.28 49.908,0.24 L51.908,0.24 C51.908,0.737 51.89,1.217 51.89,1.629 C51.873,2.949 51.823,3.994 51.823,5.589 C51.823,7.063 51.856,8.091 51.89,9.343 C51.89,9.737 51.907,10.2 51.907,10.68 L49.907,10.68 M62.058,0.24 C61.991,2.28 61.991,3.514 61.991,5.589 C61.991,7.543 61.991,8.726 62.058,10.663 L60.262,10.663 C58.398,7.749 56.313,4.611 54.839,2.537 C54.839,6.034 54.839,7.903 54.941,10.663 L53.127,10.663 C53.229,8.726 53.229,7.543 53.229,5.589 C53.229,3.497 53.229,2.28 53.127,0.24 L55.212,0.24 C57.212,2.949 59.16,5.794 60.381,7.697 C60.381,4.611 60.381,2.691 60.279,0.24 L62.059,0.24" id="Shape" fill="#A7A7A7"/>
            <path d="M63.109,15.309 C62.635,14.914 61.923,14.537 60.889,14.537 C59.635,14.537 58.991,15.086 58.991,15.823 C58.991,16.44 59.296,16.886 60.635,17.469 C60.974,17.606 61.33,17.777 61.669,17.931 C63.245,18.669 63.905,19.457 63.905,20.88 C63.905,22.903 62.279,23.949 60.126,23.949 C58.822,23.949 57.72,23.743 56.737,23.28 L57.313,21.754 C58.093,22.269 59.076,22.629 60.093,22.629 C61.499,22.629 61.991,21.96 61.991,21.154 C61.991,20.4 61.482,19.92 60.431,19.44 C60.0332693,19.2499192 59.6322065,19.0668906 59.228,18.891 C57.805,18.223 57.11,17.434 57.11,16.097 C57.11,14.434 58.618,13.183 60.923,13.183 C62.193,13.183 63.109,13.389 63.736,13.731 L63.109,15.309 Z" id="Path" fill="#777777"/>
            <path d="M72.311,10.251 C71.243,10.629 70.091,10.817 68.667,10.817 C65.634,10.817 63.024,8.811 63.024,5.76 C63.024,2.349 65.431,0.034 69.024,0.034 C70.345,0.034 71.43,0.291 72.311,0.686 L71.735,2.263 C71.295,1.817 70.125,1.44 68.973,1.44 C66.413,1.44 65.041,3 65.041,5.4 C65.041,7.937 66.786,9.463 68.752,9.463 C69.447,9.463 69.922,9.394 70.312,9.257 C70.379,8.691 70.379,7.629 70.379,7.097 C70.379,6.411 70.379,5.863 70.311,5.366 L72.328,5.366 C72.294,5.966 72.294,6.686 72.294,7.406 C72.294,8.177 72.294,9.394 72.328,10.217 L72.311,10.251 Z" id="Path" fill="#A7A7A7"/>
            <path d="M64.94,23.794 C65.04,21.926 65.04,20.691 65.04,18.754 C65.04,16.629 65.04,15.429 64.94,13.354 L66.939,13.354 C66.837,15.411 66.837,16.629 66.837,18.754 C66.837,20.691 66.837,21.926 66.939,23.794 L64.939,23.794 M67.888,18.754 C67.888,21.891 70.091,23.966 73.345,23.966 C76.429,23.966 78.818,21.806 78.818,18.446 C78.818,15.291 76.615,13.217 73.345,13.217 C70.244,13.217 67.888,15.411 67.888,18.754 Z M73.345,22.594 C71.311,22.594 69.955,20.966 69.955,18.583 C69.955,16.2 71.26,14.589 73.345,14.589 C75.361,14.589 76.768,16.166 76.768,18.583 C76.751,20.983 75.395,22.594 73.345,22.594 Z M88.647,13.354 C88.58,15.411 88.58,16.629 88.58,18.754 C88.58,20.691 88.58,21.926 88.647,23.794 L86.92,23.794 C84.988,20.88 82.92,17.743 81.446,15.686 C81.446,19.183 81.446,21.103 81.548,23.794 L79.8,23.794 L79.8,23.503 C79.817,22.594 79.902,20.486 79.902,18.754 C79.902,16.629 79.834,14.4 79.8,13.354 L81.834,13.354 C83.868,16.097 85.766,18.96 87.003,20.846 C87.003,17.829 87.003,15.823 86.901,13.354 L88.646,13.354" id="Shape" fill="#777777"/>
        </g>
    </g>
</svg>
