<svg xmlns="http://www.w3.org/2000/svg" width="129" height="33" viewBox="0 0 129 33">
  <path fill="#999" fill-rule="evenodd" d="M26.3767245 20.2112628L26.3767245 12.7887372C26.3767245 5.72583761 20.7439241 0 13.7957871 0L.405411939 0C.181569108 0 0 .184568092 0 .412460374L0 20.2112628C0 27.2741624 5.63280041 33 12.5809373 33L13.7957871 33C20.7439241 33 26.3767245 27.2741624 26.3767245 20.2112628M22.3371583 20.4240092C22.3371583 25.2393344 18.8571993 28.875044 13.4437371 28.875044 7.03129835 28.875044 4.03471506 25.0100332 4.03471506 19.7037005L4.03471506 13.2836192C4.03471506 7.97728655 7.03129835 4.11227572 13.4437371 4.11227572 18.6316239 4.11227572 20.9837062 7.12524416 21.9182327 10.1392693 22.0471329 10.5978717 21.8860076 10.8599302 21.531532 10.9909595L18.051573 12.0388413C17.6326473 12.1698705 17.4070719 12.0388413 17.2781717 11.6129962 16.7303459 9.81169614 15.570244 8.82897672 13.4437371 8.82897672 10.1567818 8.82897672 9.0614766 10.7937111 9.0614766 13.4474058L9.0614766 19.539914C9.0614766 22.1929042 10.1567818 24.158343 13.4437371 24.158343 16.1502949 24.158343 17.5681972 22.8808078 17.5681972 20.0967883L17.5681972 19.3106128 13.9593379 19.3106128C13.6693125 19.3106128 13.4759622 19.1468262 13.4759622 18.7864957L13.4759622 15.4124924C13.4759622 15.0852715 13.6693125 14.8887276 13.9593379 14.8887276L21.8215575 14.8887276C22.143808 14.8887276 22.3371583 15.0525142 22.3371583 15.3800873L22.3371583 20.4240092M36.7694769 26.5961212C36.8006624 26.6753728 36.7694769 26.7229237 36.7071058 26.7468753L36.2389763 26.8976294C36.1610124 26.92933 36.1222038 26.9053784 36.0906717 26.8342281 35.9035585 26.2632646 35.5293321 25.9698577 34.8896822 25.9698577 34.0397031 25.9698577 33.5639505 26.4059175 33.5639505 27.3572885L33.5639505 29.1645764C33.5639505 30.1081984 34.0397031 30.5520072 34.8896822 30.5520072 35.6464511 30.5520072 36.1454197 30.1955512 36.1454197 29.4026833L36.1454197 28.744367 35.0459564 28.744367C34.9832388 28.744367 34.9523998 28.7207676 34.9523998 28.6415161L34.9523998 28.181857C34.9523998 28.1103545 34.9832388 28.0786538 35.0459564 28.0786538L36.7459145 28.0786538C36.8162552 28.0786538 36.8550638 28.1184557 36.8550638 28.181857L36.8550638 29.434384C36.8550638 30.5284078 36.0674558 31.2497732 34.8896822 31.2497732 33.595136 31.2497732 32.8310904 30.5044562 32.8310904 29.2202286L32.8310904 27.3016363C32.8310904 26.0096596 33.595136 25.2724439 34.8896822 25.2724439 35.9271209 25.2724439 36.5120229 25.8113546 36.7694769 26.5961212M40.3894243 29.8383908L40.3894243 29.1409771C40.0851921 29.1251267 39.7733368 29.1170255 39.437919 29.1487261 38.8450474 29.2124796 38.4940369 29.4262827 38.4940369 29.9257437 38.4940369 30.3537021 38.7826763 30.6471091 39.2819914 30.6471091 39.7965527 30.6471091 40.1867183 30.3378518 40.3894243 29.8383908zM41.0831292 28.0867551L41.0831292 31.0673185C41.0831292 31.1307197 41.0522902 31.1624203 40.9819495 31.1624203L40.5141665 31.1624203C40.4438257 31.1624203 40.4126402 31.1307197 40.4126402 31.0673185L40.4126402 30.5044562C40.1395935 30.9644675 39.6794337 31.2416719 39.1336868 31.2416719 38.3148933 31.2416719 37.8155783 30.7027613 37.8155783 29.9655456 37.8155783 29.1645764 38.3460788 28.7288689 39.375548 28.6492651 39.7497744 28.6179167 40.0772225 28.6256658 40.3894243 28.6415161L40.3894243 28.1343061C40.3894243 27.5633425 40.0616297 27.3255878 39.5314756 27.3255878 39.0089447 27.3255878 38.790646 27.5157916 38.6655573 27.8961991 38.6423414 27.9754507 38.6111559 27.983552 38.533192 27.9677017L38.0730322 27.8408991C38.0026915 27.8250488 37.9794756 27.7852469 38.0026915 27.7218457 38.1433729 27.1195338 38.6579342 26.731025 39.5546915 26.731025 40.4750113 26.731025 41.0831292 27.1670847 41.0831292 28.0867551L41.0831292 28.0867551zM44.2585095 26.7229237C44.8510347 26.7229237 45.1708597 27.0878332 45.3032249 27.5080426 45.6074571 27.0321809 46.0364315 26.7229237 46.5509928 26.7229237 47.2530138 26.7229237 47.6896113 27.2463363 47.6896113 28.0547023L47.6896113 31.0673185C47.6896113 31.1307197 47.6508026 31.1624203 47.5804619 31.1624203L47.0970861 31.1624203C47.0267454 31.1624203 46.9879368 31.1307197 46.9879368 31.0673185L46.9879368 28.2054564C46.9879368 27.6742947 46.7540453 27.3889891 46.332694 27.3889891 45.9428749 27.3889891 45.599834 27.6742947 45.3891584 28.181857L45.3891584 31.0673185C45.3891584 31.1307197 45.3579729 31.1624203 45.2956018 31.1624203L44.7730708 31.1624203C44.7027301 31.1624203 44.6795142 31.1307197 44.6795142 31.0673185L44.6795142 28.2054564C44.6795142 27.6742947 44.4532459 27.3889891 44.0322412 27.3889891 43.6032668 27.3889891 43.260226 27.7616476 43.0807359 28.2135576L43.0807359 31.0673185C43.0807359 31.1307197 43.0571735 31.1624203 42.9871793 31.1624203L42.4722715 31.1624203C42.4022773 31.1624203 42.3787149 31.1307197 42.3787149 31.0673185L42.3787149 26.8976294C42.3787149 26.8419772 42.4022773 26.8102766 42.4722715 26.8102766L42.9715865 26.8102766C43.0415807 26.8102766 43.0651431 26.8419772 43.0651431 26.8976294L43.0651431 27.4682407C43.2990346 27.0878332 43.7124162 26.7229237 44.2585095 26.7229237M52.6824152 26.6119715C52.7059776 26.6993244 52.6824152 26.7468753 52.6200442 26.7704747L52.1598843 26.9134797C52.0819204 26.9448281 52.0351421 26.9212287 52.0119263 26.8500785 51.824813 26.2949653 51.5126112 25.9698577 50.8653381 25.9698577 50.1168853 25.9698577 49.6567254 26.4059175 49.6567254 27.3572885L49.6567254 29.1645764C49.6567254 30.1159474 50.1324781 30.5520072 50.8653381 30.5520072 51.5437967 30.5520072 51.8948072 30.1793487 52.0507349 29.6168387 52.0742973 29.5294859 52.1210756 29.5136355 52.1990395 29.5453362L52.6591993 29.6960903C52.7215704 29.7274387 52.7527559 29.7672406 52.7291935 29.8545934 52.4876789 30.7027613 51.8871841 31.2497732 50.857715 31.2497732 49.687911 31.2497732 48.9235189 30.5044562 48.9235189 29.2202286L48.9235189 27.3016363C48.9235189 26.0174087 49.687911 25.2724439 50.857715 25.2724439 51.8559986 25.2724439 52.4249613 25.779654 52.6824152 26.6119715M56.0916871 29.8383908L56.0916871 29.1409771C55.7874549 29.1251267 55.4755995 29.1170255 55.1401818 29.1487261 54.5473101 29.2124796 54.1966461 29.4262827 54.1966461 29.9257437 54.1966461 30.3537021 54.4852856 30.6471091 54.9842541 30.6471091 55.4991619 30.6471091 55.8889811 30.3378518 56.0916871 29.8383908zM56.7857385 28.0867551L56.7857385 31.0673185C56.7857385 31.1307197 56.7545529 31.1624203 56.6842122 31.1624203L56.2164292 31.1624203C56.146435 31.1624203 56.114903 31.1307197 56.114903 31.0673185L56.114903 30.5044562C55.8422028 30.9644675 55.3820429 31.2416719 54.8359496 31.2416719 54.0171561 31.2416719 53.5181875 30.7027613 53.5181875 29.9655456 53.5181875 29.1645764 54.0483416 28.7288689 55.0778107 28.6492651 55.4520371 28.6179167 55.7798317 28.6256658 56.0916871 28.6415161L56.0916871 28.1343061C56.0916871 27.5633425 55.764239 27.3255878 55.2337384 27.3255878 54.7112075 27.3255878 54.4929087 27.5157916 54.3681666 27.8961991 54.3446042 27.9754507 54.3137651 27.983552 54.2358013 27.9677017L53.7752949 27.8408991C53.7053007 27.8250488 53.6817383 27.7852469 53.7053007 27.7218457 53.8456356 27.1195338 54.3601969 26.731025 55.2573008 26.731025 56.1776206 26.731025 56.7857385 27.1670847 56.7857385 28.0867551L56.7857385 28.0867551zM60.1946638 26.8578275L60.1946638 27.3414382C60.1946638 27.4129407 60.1714479 27.4446413 60.0934841 27.4446413L59.9999275 27.4446413C59.3682472 27.4446413 58.9704584 27.8091985 58.7833452 28.3086595L58.7833452 31.0754197C58.7833452 31.138821 58.74419 31.1624203 58.6974117 31.1624203L58.1672576 31.1624203C58.1201328 31.1624203 58.0813241 31.138821 58.0813241 31.0754197L58.0813241 26.8976294C58.0813241 26.8261269 58.1201328 26.8102766 58.1748807 26.8102766L58.658603 26.8102766C58.7285972 26.8102766 58.7597827 26.8419772 58.7597827 26.9053784L58.7521596 27.5633425C58.978428 27.1272828 59.4150255 26.7546243 60.0699217 26.7546243 60.1714479 26.7546243 60.1946638 26.7704747 60.1946638 26.8578275M61.4982191 28.3879111L61.4982191 28.7130186 63.5100326 28.7130186 63.5100326 28.3879111C63.5100326 27.7140966 63.1358062 27.3333369 62.5041258 27.3255878 61.8724455 27.3333369 61.4982191 27.7140966 61.4982191 28.3879111zM61.4982191 29.2202286L61.4982191 29.5689355C61.4982191 30.2586003 61.8644759 30.6312587 62.5429345 30.63936 63.1669917 30.63936 63.3929136 30.393504 63.5488412 30.0606475 63.595966 29.9655456 63.6347747 29.9655456 63.7207082 30.0049953L64.0557794 30.1793487C64.1496825 30.2191506 64.1573056 30.2744506 64.118497 30.3537021 63.884259 30.9010663 63.3461353 31.2497732 62.5353114 31.2497732 61.4199088 31.2416719 60.8117909 30.5678575 60.8117909 29.5689355L60.8117909 28.4037614C60.8117909 27.4206897 61.404316 26.731025 62.511749 26.7229237 63.595966 26.731025 64.1728984 27.4206897 64.1728984 28.3956601L64.1728984 29.0300249C64.1728984 29.1568274 64.1105273 29.2202286 63.9701924 29.2202286L61.4982191 29.2202286 61.4982191 29.2202286zM65.9989847 29.8623424L65.9989847 31.0356178C65.9989847 31.1229707 65.9522064 31.1624203 65.8818657 31.1624203L65.406113 31.1624203C65.3437419 31.1624203 65.3049333 31.1229707 65.3049333 31.0437191L65.3049333 29.8623424C65.3049333 29.7911921 65.3361188 29.7355399 65.406113 29.7355399L65.8818657 29.7355399C65.9522064 29.7355399 65.9989847 29.7753418 65.9989847 29.8623424M67.8787793 28.4513123L67.8787793 29.5294859C67.8787793 30.2350009 68.2453826 30.5995581 68.9002788 30.5995581 69.5555215 30.5995581 69.9297479 30.2350009 69.9297479 29.5294859L69.9297479 28.4513123C69.9297479 27.7535463 69.5555215 27.3650375 68.9002788 27.3650375 68.2453826 27.3650375 67.8787793 27.7535463 67.8787793 28.4513123zM70.631769 28.4196117L70.631769 29.5530852C70.631769 30.5678575 70.0544901 31.2497732 68.9002788 31.2497732 67.7460676 31.2497732 67.1691352 30.5678575 67.1691352 29.5689355L67.1691352 28.435462C67.1691352 27.4206897 67.7460676 26.7229237 68.9002788 26.7229237 70.0544901 26.7229237 70.631769 27.4206897 70.631769 28.4196117L70.631769 28.4196117zM73.9391681 26.8578275L73.9391681 27.3414382C73.9391681 27.4129407 73.9159522 27.4446413 73.8379883 27.4446413L73.7444317 27.4446413C73.1127514 27.4446413 72.7149626 27.8091985 72.5278494 28.3086595L72.5278494 31.0754197C72.5278494 31.138821 72.4886942 31.1624203 72.4419159 31.1624203L71.9117619 31.1624203C71.8646371 31.1624203 71.8258284 31.138821 71.8258284 31.0754197L71.8258284 26.8976294C71.8258284 26.8261269 71.8646371 26.8102766 71.919385 26.8102766L72.4031073 26.8102766C72.4731015 26.8102766 72.504287 26.8419772 72.504287 26.9053784L72.4966639 27.5633425C72.7229322 27.1272828 73.1595297 26.7546243 73.8144259 26.7546243 73.9159522 26.7546243 73.9391681 26.7704747 73.9391681 26.8578275M75.2347537 28.2928092C75.2347537 28.8792708 75.5701715 29.2360789 76.1938822 29.2360789 76.7631914 29.2360789 77.1142019 28.934923 77.1142019 28.3164085 77.1142019 27.7457973 76.8099697 27.3731388 76.1782894 27.3731388 75.5777946 27.3731388 75.2347537 27.7059954 75.2347537 28.2928092zM77.4808052 31.5667795C77.4808052 31.2575222 77.3092847 30.9644675 76.6776044 30.9644675L75.8899965 30.9644675C75.2971248 30.9644675 75.1176347 31.2656235 75.1176347 31.5826298 75.1176347 32.0186895 75.4530525 32.3039951 76.2798156 32.3039951 77.1142019 32.3039951 77.4808052 32.0028392 77.4808052 31.5667795zM78.1592638 31.5192285C78.1592638 32.2328448 77.6367329 32.8274077 76.2486301 32.8274077 74.9617071 32.8274077 74.4627385 32.3356958 74.4627385 31.6541323 74.4627385 31.2656235 74.6654445 30.9010663 75.102042 30.7105103 74.9073056 30.5601084 74.8057794 30.3459531 74.8057794 30.1557493 74.8057794 29.9017921 74.9617071 29.6640374 75.2427234 29.5453362 74.813749 29.2917312 74.5874807 28.8556714 74.5874807 28.3005582 74.5874807 27.4129407 75.1256044 26.8102766 76.186259 26.8102766L78.0580841 26.8102766C78.1124855 26.8102766 78.1360479 26.8419772 78.1360479 26.9053784L78.1360479 27.2938872C78.1360479 27.3650375 78.0968927 27.3967381 78.0424913 27.3967381L77.3013151 27.3967381C77.5511459 27.5872941 77.7382591 27.928252 77.7382591 28.3956601 77.7382591 29.2043783 77.2077585 29.7753418 76.186259 29.7753418L75.8352485 29.7753418C75.5386394 29.7753418 75.4142438 29.9098934 75.4142438 30.0764978 75.4142438 30.2427499 75.5466091 30.3776537 75.8352485 30.3776537L76.7555683 30.3776537C77.761475 30.3776537 78.1592638 30.8848638 78.1592638 31.5192285L78.1592638 31.5192285zM79.7746744 29.8623424L79.7746744 31.0356178C79.7746744 31.1229707 79.7278961 31.1624203 79.6579019 31.1624203L79.1821493 31.1624203C79.1194317 31.1624203 79.0806231 31.1229707 79.0806231 31.0437191L79.0806231 29.8623424C79.0806231 29.7911921 79.1118086 29.7355399 79.1821493 29.7355399L79.6579019 29.7355399C79.7278961 29.7355399 79.7746744 29.7753418 79.7746744 29.8623424M81.0463512 29.8147915L81.0463512 26.9053784C81.0463512 26.8419772 81.0775367 26.8102766 81.1478774 26.8102766L81.6544691 26.8102766C81.7248098 26.8102766 81.7559954 26.8419772 81.7559954 26.9053784L81.7559954 29.6960903C81.7559954 30.2586003 82.0054796 30.5837078 82.5356337 30.5837078 83.0037632 30.5837078 83.4171448 30.2427499 83.6118811 29.743289L83.6118811 26.9053784C83.6118811 26.8419772 83.6434132 26.8102766 83.7134074 26.8102766L84.2203455 26.8102766C84.2983094 26.8102766 84.3218718 26.8419772 84.3218718 26.9053784L84.3218718 31.0673185C84.3218718 31.1229707 84.2983094 31.1624203 84.2283152 31.1624203L83.7290001 31.1624203C83.6590059 31.1624203 83.6354435 31.1229707 83.6354435 31.0673185L83.6354435 30.4967072C83.3547737 30.9088153 82.902237 31.2497732 82.3020887 31.2497732 81.4829487 31.2497732 81.0463512 30.6552103 81.0463512 29.8147915M88.8617925 31.1624203L88.3004529 31.1624203C88.222489 31.1624203 88.1913035 31.138821 88.1597715 31.0754197L87.0291226 29.0775758 86.350664 29.8781927 86.350664 31.0673185C86.350664 31.1307197 86.3271016 31.1624203 86.2571074 31.1624203L85.7421996 31.1624203C85.6722054 31.1624203 85.648643 31.1307197 85.648643 31.0673185L85.648643 25.232642C85.648643 25.1773421 85.6722054 25.1375402 85.7421996 25.1375402L86.2571074 25.1375402C86.3271016 25.1375402 86.350664 25.1773421 86.350664 25.232642L86.350664 28.9666236 88.0585917 26.9053784C88.1133397 26.8342281 88.1597715 26.8102766 88.2377353 26.8102766L88.7917983 26.8102766C88.8773853 26.8102766 88.9009477 26.8814268 88.8541694 26.9370791L87.4969056 28.5305639 88.9317867 31.0275166C88.9709419 31.0990191 88.9317867 31.1624203 88.8617925 31.1624203M36.1547753 1.70021027L36.1547753 7.28903073C36.1547753 7.3682823 36.1166597 7.40808419 36.0317657 7.40808419L35.316924 7.40808419C35.2476228 7.40808419 35.2015375 7.3682823 35.1630754 7.29677977L33.5410811 4.01506047C33.2721925 3.47579759 33.0334499 2.88933599 32.8258929 2.39762405L32.8106466 2.39762405C32.8338625 2.89708504 32.8491088 3.38069571 32.8491088 3.90410827L32.8491088 7.30488104C32.8491088 7.37638357 32.8258929 7.40808419 32.7569382 7.40808419L32.2572766 7.40808419C32.1803523 7.40808419 32.1495133 7.37638357 32.1495133 7.30488104L32.1495133 1.72380963C32.1495133 1.64455806 32.1879754 1.60475616 32.2725229 1.60475616L33.0490427 1.60475616C33.125967 1.60475616 33.1717058 1.64455806 33.2025448 1.72380963L34.7940465 4.99777989C35.055312 5.53704277 35.286085 6.09180373 35.493642 6.58351567L35.5092348 6.58351567C35.4704261 6.08405469 35.4551799 5.59234275 35.4551799 5.06153337L35.4551799 1.70021027C35.4551799 1.63680902 35.4783958 1.60475616 35.5549736 1.60475616L36.0549816 1.60475616C36.1239363 1.60475616 36.1547753 1.63680902 36.1547753 1.70021027M39.8364009 6.08405469L39.8364009 5.38664091C39.5366732 5.37079059 39.228976 5.36268932 38.8984093 5.39438995 38.3142003 5.4577912 37.9680409 5.67159432 37.9680409 6.1710553 37.9680409 6.59936599 38.2528687 6.8927729 38.7445607 6.8927729 39.2518453 6.8927729 39.6364669 6.58351567 39.8364009 6.08405469zM40.5204036 4.33206673L40.5204036 7.31263008C40.5204036 7.37638357 40.489911 7.40808419 40.4206099 7.40808419L39.959064 7.40808419C39.8901093 7.40808419 39.8592702 7.37638357 39.8592702 7.31263008L39.8592702 6.75012008C39.5903816 7.20977916 39.1368054 7.48698353 38.5986817 7.48698353 37.7913228 7.48698353 37.2996309 6.94807288 37.2996309 6.2108572 37.2996309 5.41024026 37.8221619 4.97418053 38.8370777 4.89492897 39.2061066 4.86322834 39.5287036 4.87132961 39.8364009 4.88717993L39.8364009 4.37961767C39.8364009 3.80865416 39.5134573 3.57089947 38.9905799 3.57089947 38.4756721 3.57089947 38.2604919 3.76110322 38.1374823 4.14151074 38.1142664 4.22111454 38.0834273 4.22886358 38.0068495 4.21301327L37.5532733 4.08621076C37.4839721 4.07036045 37.4607562 4.03091078 37.4839721 3.9671573 37.622228 3.36484539 38.1295126 2.97668883 39.0137958 2.97668883 39.9209483 2.97668883 40.5204036 3.41239633 40.5204036 4.33206673L40.5204036 4.33206673zM42.7110141 2.03306685L42.7110141 3.07953975 43.6101969 3.07953975C43.671875 3.07953975 43.702714 3.11124038 43.702714 3.19049195L43.702714 3.57900074C43.702714 3.65050326 43.671875 3.68220389 43.6101969 3.68220389L42.7110141 3.68220389 42.7110141 6.19500688C42.7110141 6.58351567 42.910948 6.76597039 43.2952231 6.76597039L43.6029203 6.76597039C43.6642519 6.76597039 43.702714 6.78956975 43.702714 6.86107227L43.702714 7.30488104C43.702714 7.37638357 43.671875 7.40808419 43.6029203 7.40808419L43.1954293 7.40808419C42.4417789 7.40808419 42.0266648 6.98752255 42.0266648 6.29785781L42.0266648 3.68220389 41.450079 3.68220389C41.3963706 3.68220389 41.3655315 3.65050326 41.3655315 3.57900074L41.3655315 3.19049195C41.3655315 3.11124038 41.3963706 3.07953975 41.450079 3.07953975L42.0346345 3.07953975 42.0346345 2.03306685C42.0346345 1.97776687 42.0575039 1.93761274 42.1344282 1.93761274L42.6112203 1.93761274C42.6877982 1.93761274 42.7110141 1.97776687 42.7110141 2.03306685M45.3508034 3.15104228L45.3508034 7.31263008C45.3508034 7.37638357 45.3278274 7.40808419 45.2582032 7.40808419L44.7558643 7.40808419C44.6785813 7.40808419 44.6556053 7.37638357 44.6556053 7.31263008L44.6556053 3.15104228C44.6556053 3.0872888 44.6785813 3.05558817 44.7558643 3.05558817L45.2582032 3.05558817C45.3278274 3.05558817 45.3508034 3.0872888 45.3508034 3.15104228zM45.3508034 1.50190524L45.3508034 2.27082155C45.3508034 2.34232407 45.3198207 2.38177374 45.2348791 2.38177374L44.7715297 2.38177374C44.6865881 2.38177374 44.6556053 2.34232407 44.6556053 2.27082155L44.6556053 1.50190524C44.6556053 1.43040272 44.6865881 1.39095305 44.7715297 1.39095305L45.2348791 1.39095305C45.3198207 1.39095305 45.3508034 1.43040272 45.3508034 1.50190524L45.3508034 1.50190524zM47.2228678 4.69697617L47.2228678 5.77479747C47.2228678 6.48031252 47.5842735 6.84486973 48.229814 6.84486973 48.8760476 6.84486973 49.2447299 6.48031252 49.2447299 5.77479747L49.2447299 4.69697617C49.2447299 3.99921015 48.8760476 3.61070136 48.229814 3.61070136 47.5842735 3.61070136 47.2228678 3.99921015 47.2228678 4.69697617zM49.9367022 4.66527554L49.9367022 5.79839682C49.9367022 6.8131691 49.368086 7.4950848 48.229814 7.4950848 47.092235 7.4950848 46.5236188 6.8131691 46.5236188 5.81424714L46.5236188 4.68077362C46.5236188 3.66635357 47.092235 2.96823533 48.229814 2.96823533 49.368086 2.96823533 49.9367022 3.66635357 49.9367022 4.66527554L49.9367022 4.66527554zM51.8040227 4.47471955L51.8040227 7.31263008C51.8040227 7.37638357 51.7811533 7.40808419 51.7115056 7.40808419L51.2118441 7.40808419C51.1349197 7.40808419 51.1120503 7.37638357 51.1120503 7.31263008L51.1120503 3.14294101C51.1120503 3.0872888 51.1349197 3.05558817 51.2042209 3.05558817L51.6962593 3.05558817C51.7655605 3.05558817 51.7884299 3.0872888 51.7884299 3.14294101L51.7884299 3.71355228C52.0652882 3.30954541 52.5112413 2.96823533 53.1030734 2.96823533 53.9104322 2.96823533 54.3407926 3.55504915 54.3407926 4.40321703L54.3407926 7.31263008C54.3407926 7.37638357 54.3099536 7.40808419 54.2409989 7.40808419L53.7413374 7.40808419C53.6720362 7.40808419 53.6415436 7.37638357 53.6415436 7.31263008L53.6415436 4.52227049C53.6415436 3.95940825 53.3955244 3.63430072 52.8646773 3.63430072 52.4114476 3.63430072 51.9963335 3.97525857 51.8040227 4.47471955M57.9153478 6.08405469L57.9153478 5.38664091C57.6152737 5.37079059 57.3079229 5.36268932 56.9773562 5.39438995 56.3931472 5.4577912 56.0469878 5.67159432 56.0469878 6.1710553 56.0469878 6.59936599 56.3314692 6.8927729 56.8235076 6.8927729 57.3307923 6.8927729 57.7154139 6.58351567 57.9153478 6.08405469zM58.5993505 4.33206673L58.5993505 7.31263008C58.5993505 7.37638357 58.5685115 7.40808419 58.4995568 7.40808419L58.0383574 7.40808419C57.9690562 7.40808419 57.9382172 7.37638357 57.9382172 7.31263008L57.9382172 6.75012008C57.6693286 7.20977916 57.2157523 7.48698353 56.6772821 7.48698353 55.8702698 7.48698353 55.3782314 6.94807288 55.3782314 6.2108572 55.3782314 5.41024026 55.9011088 4.97418053 56.9160247 4.89492897 57.284707 4.86322834 57.6076505 4.87132961 57.9153478 4.88717993L57.9153478 4.37961767C57.9153478 3.80865416 57.5924043 3.57089947 57.0695268 3.57089947 56.554619 3.57089947 56.3394388 3.76110322 56.2160827 4.14151074 56.1932133 4.22111454 56.1623743 4.22886358 56.08545 4.21301327L55.6322202 4.08621076C55.562919 4.07036045 55.5397031 4.03091078 55.562919 3.9671573 55.7011749 3.36484539 56.2084596 2.97668883 57.0927427 2.97668883 57.9998952 2.97668883 58.5993505 3.41239633 58.5993505 4.33206673L58.5993505 4.33206673zM60.5668112 1.47830588L60.5668112 7.31263008C60.5668112 7.37638357 60.5439418 7.40808419 60.4742941 7.40808419L59.9746325 7.40808419C59.8977082 7.40808419 59.8748388 7.37638357 59.8748388 7.31263008L59.8748388 1.47830588C59.8748388 1.4145524 59.8977082 1.38285178 59.9746325 1.38285178L60.4742941 1.38285178C60.5439418 1.38285178 60.5668112 1.4145524 60.5668112 1.47830588M67.8229919 2.84178505C67.8538309 2.92103662 67.8229919 2.96823533 67.7616603 2.99253915L67.3004609 3.14294101C67.2235366 3.17464163 67.1850745 3.15104228 67.1545819 3.07953975 66.9698943 2.50892848 66.6008655 2.21552157 65.9705712 2.21552157 65.1323733 2.21552157 64.6635508 2.6515813 64.6635508 3.60260009L64.6635508 5.41024026C64.6635508 6.35386225 65.1323733 6.79731879 65.9705712 6.79731879 66.7162519 6.79731879 67.2082904 6.44086285 67.2082904 5.64799496L67.2082904 4.99003085 66.1240733 4.99003085C66.0623952 4.99003085 66.0319027 4.96607926 66.0319027 4.88717993L66.0319027 4.42716861C66.0319027 4.35601832 66.0623952 4.32431769 66.1240733 4.32431769L67.8001225 4.32431769C67.8690772 4.32431769 67.9078858 4.36376736 67.9078858 4.42716861L67.9078858 5.68004782C67.9078858 6.77371943 67.1310195 7.4950848 65.9705712 7.4950848 64.6943898 7.4950848 63.9407394 6.75012008 63.9407394 5.46554024L63.9407394 3.54730011C63.9407394 2.25497123 64.6943898 1.51775555 65.9705712 1.51775555 66.9927637 1.51775555 67.5693495 2.0566662 67.8229919 2.84178505M71.3892309 6.08405469L71.3892309 5.38664091C71.0895033 5.37079059 70.781806 5.36268932 70.4512394 5.39438995 69.8673769 5.4577912 69.5212174 5.67159432 69.5212174 6.1710553 69.5212174 6.59936599 69.8056988 6.8927729 70.2977372 6.8927729 70.8050219 6.8927729 71.189297 6.58351567 71.3892309 6.08405469zM72.0735801 4.33206673L72.0735801 7.31263008C72.0735801 7.37638357 72.0427411 7.40808419 71.9737864 7.40808419L71.5122405 7.40808419C71.4432858 7.40808419 71.4124468 7.37638357 71.4124468 7.31263008L71.4124468 6.75012008C71.1432117 7.20977916 70.6899819 7.48698353 70.1515117 7.48698353 69.3444994 7.48698353 68.852461 6.94807288 68.852461 6.2108572 68.852461 5.41024026 69.3753384 4.97418053 70.3902543 4.89492897 70.7589366 4.86322834 71.0818802 4.87132961 71.3892309 4.88717993L71.3892309 4.37961767C71.3892309 3.80865416 71.0666339 3.57089947 70.5437564 3.57089947 70.0288486 3.57089947 69.8136685 3.76110322 69.6903123 4.14151074 69.6674429 4.22111454 69.6366039 4.22886358 69.5596796 4.21301327L69.1064498 4.08621076C69.0368022 4.07036045 69.0139328 4.03091078 69.0368022 3.9671573 69.1754045 3.36484539 69.6826892 2.97668883 70.5666258 2.97668883 71.4741249 2.97668883 72.0735801 3.41239633 72.0735801 4.33206673L72.0735801 4.33206673zM75.2014892 2.96823533C75.7860447 2.96823533 76.1010186 3.33314477 76.2319978 3.75335418 76.5317254 3.27749256 76.9544627 2.96823533 77.4620939 2.96823533 78.1537197 2.96823533 78.5844266 3.49200013 78.5844266 4.3003661L78.5844266 7.31263008C78.5844266 7.37638357 78.5459644 7.40808419 78.4770097 7.40808419L78.0002176 7.40808419C77.9305699 7.40808419 77.8924542 7.37638357 77.8924542 7.31263008L77.8924542 4.45076797C77.8924542 3.91960636 77.6616813 3.63430072 77.2465672 3.63430072 76.8622921 3.63430072 76.5241023 3.91960636 76.3165453 4.42716861L76.3165453 7.31263008C76.3165453 7.37638357 76.2857062 7.40808419 76.2243747 7.40808419L75.7091204 7.40808419C75.6398192 7.40808419 75.6169498 7.37638357 75.6169498 7.31263008L75.6169498 4.45076797C75.6169498 3.91960636 75.3938 3.63430072 74.9786859 3.63430072 74.5559486 3.63430072 74.2177588 4.00695919 74.0410408 4.45886924L74.0410408 7.31263008C74.0410408 7.37638357 74.0178249 7.40808419 73.9485237 7.40808419L73.441239 7.40808419C73.3719379 7.40808419 73.3490685 7.37638357 73.3490685 7.31263008L73.3490685 3.14294101C73.3490685 3.0872888 73.3719379 3.05558817 73.441239 3.05558817L73.9332775 3.05558817C74.0022321 3.05558817 74.025448 3.0872888 74.025448 3.14294101L74.025448 3.71355228C74.256221 3.33314477 74.663712 2.96823533 75.2014892 2.96823533M80.5591639 4.73642583L80.5591639 5.75119811C80.5591639 6.47256348 81.0512023 6.84486973 81.589326 6.84486973 82.1967509 6.84486973 82.5581566 6.48031252 82.5581566 5.75119811L82.5581566 4.72832456C82.5581566 4.00695919 82.1967509 3.61845041 81.589326 3.61845041 81.0512023 3.61845041 80.5591639 4.00695919 80.5591639 4.73642583zM80.5591639 1.47830588L80.5591639 3.65050326C80.743505 3.30954541 81.1665888 2.97668883 81.7972296 2.97668883 82.6887893 2.97668883 83.2574056 3.63430072 83.2574056 4.63322268L83.2574056 5.84629999C83.2574056 6.84486973 82.6887893 7.48698353 81.7736672 7.4950848 81.1589656 7.4950848 80.7286053 7.16222822 80.5435711 6.82127037L80.5435711 7.32073136C80.5435711 7.38413261 80.4978323 7.40808419 80.451747 7.40808419L79.9597086 7.40808419C79.8980306 7.40808419 79.8671915 7.38413261 79.8671915 7.32073136L79.8671915 1.47830588C79.8671915 1.42265367 79.8980306 1.39095305 79.951739 1.39095305L80.4746164 1.39095305C80.5362945 1.39095305 80.5591639 1.42265367 80.5591639 1.47830588L80.5591639 1.47830588zM85.1330422 1.47830588L85.1330422 7.31263008C85.1330422 7.37638357 85.1098263 7.40808419 85.0405251 7.40808419L84.5408635 7.40808419C84.4639392 7.40808419 84.4407233 7.37638357 84.4407233 7.31263008L84.4407233 1.47830588C84.4407233 1.4145524 84.4639392 1.38285178 84.5408635 1.38285178L85.0405251 1.38285178C85.1098263 1.38285178 85.1330422 1.4145524 85.1330422 1.47830588M87.1345676 3.15104228L87.1345676 7.31263008C87.1345676 7.37638357 87.1115916 7.40808419 87.0416193 7.40808419L86.5396284 7.40808419C86.4623455 7.40808419 86.4393695 7.37638357 86.4393695 7.31263008L86.4393695 3.15104228C86.4393695 3.0872888 86.4623455 3.05558817 86.5396284 3.05558817L87.0416193 3.05558817C87.1115916 3.05558817 87.1345676 3.0872888 87.1345676 3.15104228zM87.1345676 1.50190524L87.1345676 2.27082155C87.1345676 2.34232407 87.1035848 2.38177374 87.0186433 2.38177374L86.5552939 2.38177374C86.4703523 2.38177374 86.4393695 2.34232407 86.4393695 2.27082155L86.4393695 1.50190524C86.4393695 1.43040272 86.4703523 1.39095305 86.5552939 1.39095305L87.0186433 1.39095305C87.1035848 1.39095305 87.1345676 1.43040272 87.1345676 1.50190524L87.1345676 1.50190524zM89.1299881 4.47471955L89.1299881 7.31263008C89.1299881 7.37638357 89.1067722 7.40808419 89.037471 7.40808419L88.5378094 7.40808419C88.4608851 7.40808419 88.4380157 7.37638357 88.4380157 7.31263008L88.4380157 3.14294101C88.4380157 3.0872888 88.4608851 3.05558817 88.5301863 3.05558817L89.0222247 3.05558817C89.0911794 3.05558817 89.1143953 3.0872888 89.1143953 3.14294101L89.1143953 3.71355228C89.3912535 3.30954541 89.8372067 2.96823533 90.4290388 2.96823533 91.2363976 2.96823533 91.666758 3.55504915 91.666758 4.40321703L91.666758 7.31263008C91.666758 7.37638357 91.635919 7.40808419 91.5669643 7.40808419L91.0669562 7.40808419C90.997655 7.40808419 90.9671625 7.37638357 90.9671625 7.31263008L90.9671625 4.52227049C90.9671625 3.95940825 90.7211433 3.63430072 90.1906427 3.63430072 89.737413 3.63430072 89.3219524 3.97525857 89.1299881 4.47471955M93.4190385 4.5381208C93.4190385 5.12458239 93.7496051 5.48139056 94.3643067 5.48139056 94.9256463 5.48139056 95.2714592 5.18058684 95.2714592 4.56207239 95.2714592 3.99146111 94.9717316 3.61845041 94.3490604 3.61845041 93.7568818 3.61845041 93.4190385 3.95130698 93.4190385 4.5381208zM95.6328649 7.81209107C95.6328649 7.50283384 95.46377 7.20977916 94.8410988 7.20977916L94.064579 7.20977916C93.4800235 7.20977916 93.303652 7.51093512 93.303652 7.82794138 93.303652 8.26400111 93.6342187 8.54930675 94.4488541 8.54930675 95.2714592 8.54930675 95.6328649 8.24850303 95.6328649 7.81209107zM96.3016213 7.76454013C96.3016213 8.47815645 95.7867135 9.07271932 94.4180151 9.07271932 93.1498034 9.07271932 92.657765 8.5813596 92.657765 7.8994439 92.657765 7.51093512 92.8573524 7.14637791 93.2880592 6.95617415 93.0957485 6.80542006 92.9959547 6.59126472 92.9959547 6.40106096 92.9959547 6.14745594 93.1498034 5.90970125 93.4263151 5.79064778 93.0035779 5.53704277 92.7807746 5.10098304 92.7807746 4.54622208 92.7807746 3.6582523 93.3112751 3.05558817 94.3566835 3.05558817L96.2018276 3.05558817C96.255536 3.05558817 96.2787519 3.0872888 96.2787519 3.15104228L96.2787519 3.53919884C96.2787519 3.61070136 96.2399433 3.64204976 96.1862349 3.64204976L95.4558003 3.64204976C95.7018196 3.83260575 95.8865072 4.1735636 95.8865072 4.64097173 95.8865072 5.44968993 95.3636298 6.02065344 94.3566835 6.02065344L94.0108706 6.02065344C93.7187661 6.02065344 93.59541 6.15520499 93.59541 6.32180939 93.59541 6.48806157 93.7260427 6.62296534 94.0108706 6.62296534L94.9180231 6.62296534C95.9097231 6.62296534 96.3016213 7.1305276 96.3016213 7.76454013L96.3016213 7.76454013zM103.481224 1.72380963L103.481224 7.28903073C103.481224 7.36018102 103.450385 7.40808419 103.365838 7.40808419L102.40463 7.40808419C102.328052 7.40808419 102.281967 7.36018102 102.281967 7.28903073L102.281967 5.07738368 100.344653 5.07738368 100.344653 7.28903073C100.344653 7.36018102 100.30619 7.40808419 100.229266 7.40808419L99.2604355 7.40808419C99.1914808 7.40808419 99.1453955 7.36018102 99.1453955 7.28903073L99.1453955 1.72380963C99.1453955 1.65265933 99.1914808 1.60475616 99.2680586 1.60475616L100.229266 1.60475616C100.30619 1.60475616 100.344653 1.65265933 100.344653 1.72380963L100.344653 3.93545667 102.281967 3.93545667 102.281967 1.72380963C102.281967 1.65265933 102.328052 1.60475616 102.40463 1.60475616L103.365838 1.60475616C103.450385 1.60475616 103.481224 1.65265933 103.481224 1.72380963M105.571348 4.649073L105.571348 4.79947486 107.055086 4.79947486 107.055086 4.649073C107.055086 4.22111454 106.824313 3.88825796 106.317029 3.88825796 105.809398 3.88825796 105.571348 4.22111454 105.571348 4.649073zM105.571348 5.57684467L105.571348 5.74309684C105.571348 6.20310816 105.801774 6.52821569 106.347521 6.52821569 106.878022 6.52821569 107.024247 6.32180939 107.16285 6.06045534 107.231804 5.94140187 107.262643 5.92555156 107.385653 5.98085154L107.992731 6.29785781C108.116088 6.36161129 108.123364 6.42501254 108.069656 6.54406601 107.80839 7.15412695 107.15488 7.50283384 106.340245 7.50283384 105.110149 7.50283384 104.464262 6.75012008 104.464262 5.71949749L104.464262 4.70472521C104.464262 3.70580324 105.07134 2.92103662 106.332275 2.92103662 107.531532 2.92103662 108.116088 3.70580324 108.116088 4.68077362L108.116088 5.37853964C108.116088 5.49724087 108.077279 5.57684467 107.915807 5.57684467L105.571348 5.57684467 105.571348 5.57684467zM110.190965 1.46245557L110.190965 7.28903073C110.190965 7.36018102 110.14488 7.40808419 110.075579 7.40808419L109.14521 7.40808419C109.068632 7.40808419 109.022547 7.36018102 109.022547 7.28903073L109.022547 1.46245557C109.022547 1.39095305 109.068632 1.34340211 109.14521 1.34340211L110.075579 1.34340211C110.14488 1.34340211 110.190965 1.39095305 110.190965 1.46245557M113.864967 5.58459371L113.864967 4.80757613C113.864967 4.27641452 113.649787 3.97525857 113.157749 3.97525857 112.735012 3.97525857 112.420038 4.27641452 112.420038 4.80757613L112.420038 5.58459371C112.420038 6.13160563 112.735012 6.4486119 113.157749 6.4486119 113.649787 6.4486119 113.864967 6.11575532 113.864967 5.58459371zM111.366313 8.99346775C111.289735 8.99346775 111.251273 8.94591681 111.251273 8.88216333L111.251273 3.12673846C111.251273 3.06368944 111.289735 3.0161385 111.366313 3.0161385L112.273812 3.0161385C112.343113 3.0161385 112.381229 3.06368944 112.381229 3.12673846L112.381229 3.5314498C112.550324 3.2538932 112.965785 2.92103662 113.54237 2.92103662 114.4568 2.92103662 115.033385 3.60260009 115.033385 4.63322268L115.033385 5.77479747C115.033385 6.78956975 114.4568 7.50283384 113.588456 7.50283384 112.988654 7.50283384 112.57354 7.17772631 112.420038 6.88467163L112.420038 8.88216333C112.420038 8.94591681 112.381229 8.99346775 112.304651 8.99346775L111.366313 8.99346775 111.366313 8.99346775zM117.147072 1.46245557L117.147072 7.28903073C117.147072 7.36018102 117.100986 7.40808419 117.031685 7.40808419L116.101663 7.40808419C116.024739 7.40808419 115.978654 7.36018102 115.978654 7.28903073L115.978654 1.46245557C115.978654 1.39095305 116.024739 1.34340211 116.101663 1.34340211L117.031685 1.34340211C117.100986 1.34340211 117.147072 1.39095305 117.147072 1.46245557M119.378671 3.13483974L119.378671 7.28903073C119.378671 7.36018102 119.3325 7.40808419 119.263069 7.40808419L118.330965 7.40808419C118.253897 7.40808419 118.208073 7.36018102 118.208073 7.28903073L118.208073 3.13483974C118.208073 3.06368944 118.253897 3.0161385 118.330965 3.0161385L119.263069 3.0161385C119.3325 3.0161385 119.378671 3.06368944 119.378671 3.13483974zM119.378671 1.51775555L119.378671 2.26272028C119.378671 2.36592343 119.316878 2.42932468 119.216898 2.42932468L118.369499 2.42932468C118.269172 2.42932468 118.208073 2.36592343 118.208073 2.26272028L118.208073 1.51775555C118.208073 1.4145524 118.269172 1.35115115 118.369499 1.35115115L119.216898 1.35115115C119.316878 1.35115115 119.378671 1.4145524 119.378671 1.51775555L119.378671 1.51775555zM121.605217 4.70472521L121.605217 7.28903073C121.605217 7.36018102 121.559478 7.40808419 121.48983 7.40808419L120.559809 7.40808419C120.482884 7.40808419 120.436799 7.36018102 120.436799 7.28903073L120.436799 3.12673846C120.436799 3.07143848 120.475261 3.0161385 120.551839 3.0161385L121.451368 3.0161385C121.528639 3.0161385 121.566755 3.07143848 121.566755 3.12673846L121.566755 3.62619945C121.820397 3.2538932 122.243481 2.92103662 122.82769 2.92103662 123.627079 2.92103662 124.073032 3.53919884 124.073032 4.45886924L124.073032 7.28903073C124.073032 7.3682823 124.026947 7.40808419 123.957646 7.40808419L123.027624 7.40808419C122.950699 7.40808419 122.912237 7.36018102 122.912237 7.28903073L122.912237 4.65682204C122.912237 4.26056421 122.719927 4.01506047 122.36649 4.01506047 122.005085 4.01506047 121.720603 4.29226483 121.605217 4.70472521M126.078608 4.649073L126.078608 4.79947486 127.562347 4.79947486 127.562347 4.649073C127.562347 4.22111454 127.331574 3.88825796 126.824289 3.88825796 126.316658 3.88825796 126.078608 4.22111454 126.078608 4.649073zM126.078608 5.57684467L126.078608 5.74309684C126.078608 6.20310816 126.309035 6.52821569 126.854782 6.52821569 127.385282 6.52821569 127.531508 6.32180939 127.67011 6.06045534 127.739065 5.94140187 127.769904 5.92555156 127.892914 5.98085154L128.499992 6.29785781C128.623348 6.36161129 128.630625 6.42501254 128.576916 6.54406601 128.315651 7.15412695 127.662141 7.50283384 126.847505 7.50283384 125.617409 7.50283384 124.971522 6.75012008 124.971522 5.71949749L124.971522 4.70472521C124.971522 3.70580324 125.578947 2.92103662 126.839536 2.92103662 128.038793 2.92103662 128.623348 3.70580324 128.623348 4.68077362L128.623348 5.37853964C128.623348 5.49724087 128.584539 5.57684467 128.423414 5.57684467L126.078608 5.57684467 126.078608 5.57684467zM36.8890214 18.1126813L36.8890214 14.6249079C36.8890214 13.5756172 36.3730741 13.0511479 35.494335 13.0511479 34.587529 13.0511479 34.0854419 13.5611758 34.0854419 14.6249079L34.0854419 18.1126813C34.0854419 19.1616198 34.6013892 19.6864413 35.494335 19.6864413 36.3869343 19.6864413 36.8890214 19.175709 36.8890214 18.1126813zM31.9097312 18.169038L31.9097312 14.5678468C31.9097312 12.3988195 33.2347699 11.0092754 35.494335 11.0092754 37.7816207 11.0092754 39.0647321 12.5122373 39.0647321 14.5678468L39.0647321 18.169038C39.0647321 20.2249997 37.7816207 21.7279617 35.4662681 21.7279617 33.2347699 21.7279617 31.9097312 20.3384175 31.9097312 18.169038L31.9097312 18.169038zM45.1310115 14.128617L45.1310115 13.9584903C45.1310115 13.3487816 44.7262925 12.8384015 43.8475535 12.8384015 42.9826747 12.8384015 42.5783023 13.3487816 42.5783023 13.9584903L42.5783023 14.128617C42.5783023 14.695706 42.9826747 15.2201753 43.8475535 15.3195039 44.7262925 15.2201753 45.1310115 14.695706 45.1310115 14.128617zM45.2703069 18.5948831L45.2703069 18.3676952C45.2703069 17.7153668 44.7682198 17.1627192 43.8475535 17.0493014 42.941094 17.1627192 42.4390069 17.7153668 42.4390069 18.3676952L42.4390069 18.5948831C42.4390069 19.289479 42.941094 19.8280374 43.8475535 19.8280374 44.7682198 19.8280374 45.2703069 19.289479 45.2703069 18.5948831zM40.2629497 18.7505684L40.2629497 18.5519111C40.2629497 17.2335173 41.0162535 16.4963016 41.8669256 16.1986679 41.0581808 15.8439731 40.4164518 15.0926683 40.4164518 13.9866687L40.4164518 13.816542C40.4164518 12.2568711 41.5883348 11.0092754 43.8475535 11.0092754 46.1213254 11.0092754 47.292862 12.2568711 47.292862 13.8309834L47.292862 14.0292884C47.292862 15.06449 46.651133 15.8439731 45.8143212 16.1986679 46.6930602 16.4963016 47.4460176 17.2053389 47.4460176 18.5519111L47.4460176 18.7505684C47.4460176 20.5652531 45.9678233 21.7279617 43.8475535 21.7279617 41.7414905 21.7279617 40.2629497 20.5652531 40.2629497 18.7505684L40.2629497 18.7505684zM53.6238718 18.1126813L53.6238718 14.6249079C53.6238718 13.5756172 53.1079245 13.0511479 52.2291855 13.0511479 51.3223794 13.0511479 50.8202924 13.5611758 50.8202924 14.6249079L50.8202924 18.1126813C50.8202924 19.1616198 51.3362397 19.6864413 52.2291855 19.6864413 53.1217847 19.6864413 53.6238718 19.175709 53.6238718 18.1126813zM48.6445816 18.169038L48.6445816 14.5678468C48.6445816 12.3988195 49.9696203 11.0092754 52.2291855 11.0092754 54.5164711 11.0092754 55.7995826 12.5122373 55.7995826 14.5678468L55.7995826 18.169038C55.7995826 20.2249997 54.5164711 21.7279617 52.2011185 21.7279617 49.9696203 21.7279617 48.6445816 20.3384175 48.6445816 18.169038L48.6445816 18.169038zM61.8658619 14.128617L61.8658619 13.9584903C61.8658619 13.3487816 61.461143 12.8384015 60.5824039 12.8384015 59.7175251 12.8384015 59.3131527 13.3487816 59.3131527 13.9584903L59.3131527 14.128617C59.3131527 14.695706 59.7175251 15.2201753 60.5824039 15.3195039 61.461143 15.2201753 61.8658619 14.695706 61.8658619 14.128617zM62.0051573 18.5948831L62.0051573 18.3676952C62.0051573 17.7153668 61.5030702 17.1627192 60.5824039 17.0493014 59.6759444 17.1627192 59.1735108 17.7153668 59.1735108 18.3676952L59.1735108 18.5948831C59.1735108 19.289479 59.6759444 19.8280374 60.5824039 19.8280374 61.5030702 19.8280374 62.0051573 19.289479 62.0051573 18.5948831zM56.9978001 18.7505684L56.9978001 18.5519111C56.9978001 17.2335173 57.751104 16.4963016 58.601776 16.1986679 57.7930312 15.8439731 57.1513022 15.0926683 57.1513022 13.9866687L57.1513022 13.816542C57.1513022 12.2568711 58.3228388 11.0092754 60.5824039 11.0092754 62.8558294 11.0092754 64.0277124 12.2568711 64.0277124 13.8309834L64.0277124 14.0292884C64.0277124 15.06449 63.3859834 15.8439731 62.5491716 16.1986679 63.4279106 16.4963016 64.180868 17.2053389 64.180868 18.5519111L64.180868 18.7505684C64.180868 20.5652531 62.7026737 21.7279617 60.5824039 21.7279617 58.4763409 21.7279617 56.9978001 20.5652531 56.9978001 18.7505684L56.9978001 18.7505684zM73.3847586 14.128617L73.3847586 13.9584903C73.3847586 13.3487816 72.9800396 12.8384015 72.1013006 12.8384015 71.2364218 12.8384015 70.8320494 13.3487816 70.8320494 13.9584903L70.8320494 14.128617C70.8320494 14.695706 71.2364218 15.2201753 72.1013006 15.3195039 72.9800396 15.2201753 73.3847586 14.695706 73.3847586 14.128617zM73.524054 18.5948831L73.524054 18.3676952C73.524054 17.7153668 73.0219669 17.1627192 72.1013006 17.0493014 71.1948411 17.1627192 70.692754 17.7153668 70.692754 18.3676952L70.692754 18.5948831C70.692754 19.289479 71.1948411 19.8280374 72.1013006 19.8280374 73.0219669 19.8280374 73.524054 19.289479 73.524054 18.5948831zM68.5166968 18.7505684L68.5166968 18.5519111C68.5166968 17.2335173 69.2700006 16.4963016 70.1206727 16.1986679 69.3119279 15.8439731 68.6701989 15.0926683 68.6701989 13.9866687L68.6701989 13.816542C68.6701989 12.2568711 69.8420819 11.0092754 72.1013006 11.0092754 74.3750725 11.0092754 75.5466091 12.2568711 75.5466091 13.8309834L75.5466091 14.0292884C75.5466091 15.06449 74.9048801 15.8439731 74.0680683 16.1986679 74.9468073 16.4963016 75.6997647 17.2053389 75.6997647 18.5519111L75.6997647 18.7505684C75.6997647 20.5652531 74.2215704 21.7279617 72.1013006 21.7279617 69.9952376 21.7279617 68.5166968 20.5652531 68.5166968 18.7505684L68.5166968 18.7505684zM81.8776189 18.1126813L81.8776189 14.6249079C81.8776189 13.5756172 81.3616716 13.0511479 80.4829326 13.0511479 79.5761265 13.0511479 79.0740395 13.5611758 79.0740395 14.6249079L79.0740395 18.1126813C79.0740395 19.1616198 79.5899868 19.6864413 80.4829326 19.6864413 81.3755318 19.6864413 81.8776189 19.175709 81.8776189 18.1126813zM76.8983287 18.169038L76.8983287 14.5678468C76.8983287 12.3988195 78.2233674 11.0092754 80.4829326 11.0092754 82.7702182 11.0092754 84.0533297 12.5122373 84.0533297 14.5678468L84.0533297 18.169038C84.0533297 20.2249997 82.7702182 21.7279617 80.4548656 21.7279617 78.2233674 21.7279617 76.8983287 20.3384175 76.8983287 18.169038L76.8983287 18.169038zM92.2533925 14.2275934C92.2672528 15.8580623 91.4027205 16.8506442 89.9380399 18.0700616L88.1944221 19.5163146 92.1279574 19.5163146C92.2814595 19.5163146 92.3511072 19.6012018 92.3511072 19.729061L92.3511072 21.3450885C92.3511072 21.4725955 92.2814595 21.557835 92.1279574 21.557835L85.7955615 21.557835C85.6420594 21.557835 85.5585514 21.5011261 85.5304845 21.3595299L85.2654074 19.9558966C85.237687 19.7998591 85.2654074 19.6864413 85.3492619 19.5585821L88.1667016 17.0207708C89.6452424 15.702377 90.0634751 15.1634664 90.0496148 14.3695418 90.0357546 13.5329975 89.5198072 13.0511479 88.7107159 13.0511479 87.8458371 13.0511479 87.4695317 13.6041478 87.2741023 14.3269221 87.2321751 14.4970487 87.1206002 14.5678468 86.9393776 14.5114901L85.4608368 14.0719081C85.3073346 14.0292884 85.2515472 13.88734 85.2934744 13.7031242 85.6701264 12.2001622 86.6604403 11.0092754 88.7803636 11.0092754 90.9564208 11.0092754 92.2395323 12.3421106 92.2533925 14.2275934M98.6124694 18.1126813L98.6124694 14.6249079C98.6124694 13.5756172 98.096522 13.0511479 97.2174365 13.0511479 96.310977 13.0511479 95.8088899 13.5611758 95.8088899 14.6249079L95.8088899 18.1126813C95.8088899 19.1616198 96.3248372 19.6864413 97.2174365 19.6864413 98.1103823 19.6864413 98.6124694 19.175709 98.6124694 18.1126813zM93.6331792 18.169038L93.6331792 14.5678468C93.6331792 12.3988195 94.9578713 11.0092754 97.2174365 11.0092754 99.5050687 11.0092754 100.78818 12.5122373 100.78818 14.5678468L100.78818 18.169038C100.78818 20.2249997 99.5050687 21.7279617 97.189716 21.7279617 94.9578713 21.7279617 93.6331792 20.3384175 93.6331792 18.169038L93.6331792 18.169038zM112.446719 19.7146196L112.446719 21.3450885C112.446719 21.4444172 112.377071 21.557835 112.251289 21.557835L106.002748 21.557835C105.877313 21.557835 105.807665 21.4444172 105.807665 21.3450885L105.807665 19.7146196C105.807665 19.6297324 105.877313 19.5163146 106.002748 19.5163146L108.136878 19.5163146 108.136878 13.689035 106.072396 14.5114901C105.94696 14.5537576 105.835386 14.5114901 105.793458 14.3695418L105.221724 12.8951104C105.179796 12.7676035 105.207863 12.6538334 105.347159 12.5974768L108.401608 11.3213504C108.597038 11.2502001 108.722819 11.1794021 108.917902 11.1794021L110.033651 11.1794021C110.173293 11.1794021 110.242941 11.2642893 110.242941 11.3921485L110.242941 19.5163146 112.251289 19.5163146C112.377071 19.5163146 112.446719 19.6297324 112.446719 19.7146196M120.423632 13.8024528L120.423632 13.9584903C120.423632 14.9792505 119.865757 15.8157948 118.875097 16.1560482 119.921198 16.396973 120.632921 17.2902262 120.632921 18.481113L120.632921 18.6512397C120.632921 20.5370748 119.15438 21.7279617 116.978323 21.7279617 114.88612 21.7279617 113.756511 20.5229856 113.379859 19.1616198 113.337932 19.0059345 113.379859 18.8780753 113.547222 18.8072773L114.941908 18.3109863C115.123477 18.2401883 115.248912 18.2968972 115.31856 18.481113 115.625564 19.3035682 116.127651 19.7713285 117.02025 19.7713285 117.927056 19.7713285 118.456864 19.2468593 118.456864 18.5519111L118.456864 18.410315C118.456864 17.6023012 117.996704 17.1768084 116.908676 17.1768084L116.044143 17.1768084C115.904501 17.1768084 115.820647 17.1060103 115.820647 16.9640619L115.820647 15.5181612C115.820647 15.3762128 115.904501 15.2913256 116.044143 15.2913256L116.894815 15.2913256C117.801275 15.2913256 118.289502 14.8799219 118.289502 14.1708845L118.289502 14.057819C118.289502 13.3343402 117.759694 12.9518193 116.908676 12.9518193 116.155372 12.9518193 115.709072 13.2776313 115.416274 13.9866687 115.360487 14.1567954 115.248912 14.1994151 115.08155 14.1000865L113.728444 13.3910491C113.631076 13.3343402 113.589149 13.2212746 113.644936 13.0652371 114.174744 11.8172891 115.179264 11.0092754 117.047971 11.0092754 119.279816 11.0092754 120.423632 12.2286928 120.423632 13.8024528M128.79071 13.8024528L128.79071 13.9584903C128.79071 14.9792505 128.232836 15.8157948 127.242522 16.1560482 128.288623 16.396973 129 17.2902262 129 18.481113L129 18.6512397C129 20.5370748 127.521459 21.7279617 125.345748 21.7279617 123.253546 21.7279617 122.12359 20.5229856 121.747284 19.1616198 121.705357 19.0059345 121.747284 18.8780753 121.914647 18.8072773L123.309333 18.3109863C123.490902 18.2401883 123.616337 18.2968972 123.685985 18.481113 123.992989 19.3035682 124.495076 19.7713285 125.387676 19.7713285 126.294135 19.7713285 126.823943 19.2468593 126.823943 18.5519111L126.823943 18.410315C126.823943 17.6023012 126.363783 17.1768084 125.276101 17.1768084L124.411222 17.1768084C124.271927 17.1768084 124.188072 17.1060103 124.188072 16.9640619L124.188072 15.5181612C124.188072 15.3762128 124.271927 15.2913256 124.411222 15.2913256L125.262241 15.2913256C126.1687 15.2913256 126.656927 14.8799219 126.656927 14.1708845L126.656927 14.057819C126.656927 13.3343402 126.126773 12.9518193 125.276101 12.9518193 124.522797 12.9518193 124.076497 13.2776313 123.7837 13.9866687 123.727912 14.1567954 123.616337 14.1994151 123.448975 14.1000865L122.095869 13.3910491C121.998501 13.3343402 121.956574 13.2212746 122.012361 13.0652371 122.542169 11.8172891 123.54669 11.0092754 125.415396 11.0092754 127.646894 11.0092754 128.79071 12.2286928 128.79071 13.8024528"/>
</svg>
