<svg xmlns="http://www.w3.org/2000/svg" width="99" height="24" viewBox="0 0 99 24"><g fill="none"><path fill="#444" d="M47.946 20.73H1.036a.87.87 0 0 1-.87-.87v-8.13A8.494 8.494 0 0 1 8.66 3.236h39.286c.481 0 .87.39.87.87v15.788a.87.87 0 0 1-.87.87v-.035z"/><path fill="#999" d="M47.946 21H1.036A1.04 1.04 0 0 1 0 19.957v-8.19C0 6.926 3.897 3 8.703 3h39.243a1.04 1.04 0 0 1 1.036 1.043v15.914A1.04 1.04 0 0 1 47.946 21zM8.686 3.42C4.107 3.427.396 7.165.392 11.777v8.19c0 .353.284.64.635.64h46.92a.642.642 0 0 0 .635-.64V4.051a.642.642 0 0 0-.186-.452.633.633 0 0 0-.45-.188l-39.26.009z"/><path fill="#999" d="M16.658 11.816v6.519a.122.122 0 0 1-.122.122h-2.559a.122.122 0 0 1-.122-.122.122.122 0 0 0-.165-.113 5.091 5.091 0 0 1-.783.183 6.38 6.38 0 0 1-.966.078 6.153 6.153 0 0 1-2.28-.479 5.9 5.9 0 0 1-2.011-1.331 5.814 5.814 0 0 1-1.314-1.976 6.19 6.19 0 0 1-.436-2.28c0-.784.148-1.56.436-2.29a5.796 5.796 0 0 1 1.323-2.01 5.9 5.9 0 0 1 2.01-1.331 6.092 6.092 0 0 1 4.578 0 5.875 5.875 0 0 1 1.915 1.244.122.122 0 0 1 0 .174l-1.802 1.802a.122.122 0 0 1-.174 0 3.11 3.11 0 0 0-1-.635 3.316 3.316 0 0 0-2.473 0 3.15 3.15 0 0 0-1.088.713 3.272 3.272 0 0 0 0 4.639c.278.281.606.509.967.67.349.157.723.251 1.105.279.38.028.763-.007 1.131-.105a3.11 3.11 0 0 0 .984-.452.122.122 0 0 0 .052-.105v-.418a.122.122 0 0 0-.122-.121h-2.184a.122.122 0 0 1-.122-.122v-2.533c0-.067.054-.122.122-.122h4.97a.122.122 0 0 1 .13.122zm9.522 6.571l-.419-1.253a.122.122 0 0 0-.121-.087h-3.638a.122.122 0 0 0-.114.087l-.435 1.297a.122.122 0 0 1-.113.087h-2.68a.122.122 0 0 1-.114-.166l4.03-11.836a.122.122 0 0 1 .113-.087h2.454a.122.122 0 0 1 .122.087l3.821 11.836a.122.122 0 0 1-.122.166h-2.663a.122.122 0 0 1-.122-.13zm-3.125-4.16h1.618a.122.122 0 0 0 .122-.165l-.783-2.42a.122.122 0 0 0-.235 0l-.87 2.42a.122.122 0 0 0 .148.165zm16.71-7.859h2.663c.064 0 .117.05.122.113l.696 11.854a.122.122 0 0 1-.122.13h-2.54a.122.122 0 0 1-.123-.113l-.252-4.195a.122.122 0 1 0-.244 0l-1.427 4.23a.122.122 0 0 1-.113.087h-2.611a.122.122 0 0 1-.113-.087l-1.567-4.473a.122.122 0 1 0-.244 0l-.278 4.403a.122.122 0 0 1-.122.114h-2.56a.122.122 0 0 1-.122-.13l.766-11.811a.122.122 0 0 1 .122-.113h2.663a.122.122 0 0 1 .113.087l2.507 7.154a.122.122 0 0 0 .235 0l2.437-7.154a.122.122 0 0 1 .113-.096z"/><path fill="#1D1D1B" d="M50.814 3.341h46.928c.48 0 .87.39.87.87v8.13a8.494 8.494 0 0 1-8.494 8.494H50.814a.87.87 0 0 1-.87-.87V4.176a.87.87 0 0 1 .87-.836z"/><path fill="#999" d="M90.083 21h-39.27a1.04 1.04 0 0 1-1.035-1.044V4.044A1.04 1.04 0 0 1 50.814 3h46.928a1.04 1.04 0 0 1 1.035 1.044v8.193c-.004 4.838-3.894 8.758-8.694 8.763zM50.813 3.412a.638.638 0 0 0-.635.64v15.904c0 .354.285.64.636.64h39.269c4.579-.004 8.29-3.744 8.294-8.36V4.045a.638.638 0 0 0-.635-.64l-46.928.008z"/><path fill="#999" d="M57.707 18.102a4.29 4.29 0 0 1-1.14-.157 3.873 3.873 0 0 1-1.08-.487 4.047 4.047 0 0 1-1.384-1.489 4.117 4.117 0 0 1-.496-1.87.122.122 0 0 1 .122-.131h2.585c.067 0 .122.054.122.122.002.23.074.456.209.644.105.146.234.272.383.374.19.13.413.206.644.217.233.012.466-.033.679-.13.14-.055.267-.138.374-.244.085-.085.158-.182.217-.287a.792.792 0 0 0 .087-.27 1.393 1.393 0 0 0 0-.426.87.87 0 0 0-.087-.279 1.123 1.123 0 0 0-.217-.287 1.419 1.419 0 0 0-.374-.252l-.383-.148-.436-.148-.87-.296a4.787 4.787 0 0 1-.87-.444 3.481 3.481 0 0 1-.975-.87 3.594 3.594 0 0 1-.688-2.463c.04-.447.167-.882.375-1.28a3.62 3.62 0 0 1 1.723-1.627 3.59 3.59 0 0 1 1.166-.288c.427-.033.857.006 1.27.114a3.603 3.603 0 0 1 2.002 1.245c.227.29.403.617.523.965.117.337.181.689.191 1.045a.122.122 0 0 1-.122.13h-2.523a.122.122 0 0 1-.122-.104.522.522 0 0 0-.235-.418 1.74 1.74 0 0 0-.41-.191h-.139a.8.8 0 0 0-.278 0 .992.992 0 0 0-.322.113.644.644 0 0 0-.261.287.74.74 0 0 0-.052.548.78.78 0 0 0 .33.453c.165.091.337.17.514.235l.592.209.565.182c.192.064.386.14.583.227a3.873 3.873 0 0 1 2.315 3.525 3.82 3.82 0 0 1-.626 2.123 4.1 4.1 0 0 1-3.481 1.828zm37.197-6.998a4.952 4.952 0 0 1-.383 1.95 5.083 5.083 0 0 1-1.07 1.601 5.17 5.17 0 0 1-1.593 1.097 4.883 4.883 0 0 1-1.819.418.122.122 0 0 0-.122.122v1.688a.122.122 0 0 1-.121.122h-2.533a.122.122 0 0 1-.122-.122V6.143c0-.067.055-.121.122-.121h2.646a4.83 4.83 0 0 1 1.94.426 5.292 5.292 0 0 1 1.593 1.105 5.058 5.058 0 0 1 1.462 3.552zM89.91 13.28a.122.122 0 0 0 .13.122c.254-.023.501-.091.731-.2a2.289 2.289 0 0 0 1.166-1.218 2.306 2.306 0 0 0-.47-2.464 2.376 2.376 0 0 0-.696-.496 2.176 2.176 0 0 0-.73-.2.122.122 0 0 0-.131.105v4.351zM78.516 6.013a5.85 5.85 0 0 1 2.35.479 6.214 6.214 0 0 1 1.923 1.288 6.1 6.1 0 0 1 1.297 1.914 6.049 6.049 0 0 1 0 4.709 6.205 6.205 0 0 1-3.22 3.229 6.031 6.031 0 0 1-4.7 0 6.04 6.04 0 0 1-3.203-3.212 6.092 6.092 0 0 1 0-4.708A6.04 6.04 0 0 1 76.166 6.5a5.85 5.85 0 0 1 2.35-.487zm0 9.304c.437.004.87-.082 1.27-.253a3.281 3.281 0 0 0 1.741-1.74c.34-.81.34-1.723 0-2.533a3.281 3.281 0 0 0-1.74-1.74 3.272 3.272 0 0 0-2.533 0 3.281 3.281 0 0 0-1.74 1.74c-.34.81-.34 1.723 0 2.533a3.281 3.281 0 0 0 1.74 1.74c.402.171.834.257 1.27.253h-.008zm-9.634-6.502v9.246a.04.04 0 0 1-.041.04H66.12a.04.04 0 0 1-.04-.04V8.815h-2.267a.04.04 0 0 1-.04-.04V6.054a.04.04 0 0 1 .04-.041h7.326a.04.04 0 0 1 .04.04v2.722a.04.04 0 0 1-.04.04h-2.257z"/></g></svg>