<svg viewBox="0 0 48 52" xmlns="http://www.w3.org/2000/svg" xmlns:xlink="http://www.w3.org/1999/xlink" title="Groningen Home Kit 2024/25">
                        <defs>
                            <path id="kit" d="M10.22 50.435c.079-8.326.118-13.766.118-16.32 0-2.553-.161-6.661-.484-12.324l-1.63 3.825c-1.213.21-2.806-.165-4.778-1.125-1.92-.933-3.059-1.912-3.418-2.937L0 21.469 4.725 9.66c.809-2.154 1.936-3.546 3.381-4.176l8.278-3.621c.72-.393 3.26-.588 7.617-.586 4.357.003 6.894.198 7.613.586l8.162 3.572c1.502.604 2.669 2.013 3.499 4.225L48 21.47c-.325 1.055-1.473 2.063-3.446 3.022-1.972.96-3.565 1.335-4.778 1.125l-1.63-3.825c-.323 5.467-.484 9.575-.484 12.325s.04 8.19.119 16.319c-.535.464-7.158 1.065-13.78 1.065-6.623 0-13.246-.6-13.78-1.065Z"></path>
                            
                        </defs>
                        <mask id="kitMask" fill="#fff">
                            <use xlink:href="#kit"></use>
                        </mask>
                        <g fill="none" fill-rule="evenodd">
                            
            <path fill="#0c7852" d="M10.22 50.435c.079-8.326.118-13.766.118-16.32 0-2.553-.161-6.661-.484-12.324l-1.63 3.825c-1.213.21-2.806-.165-4.778-1.125-1.92-.933-3.059-1.912-3.418-2.937L0 21.469 4.725 9.66c.809-2.154 1.936-3.546 3.381-4.176l8.278-3.621c.72-.393 3.26-.588 7.617-.586 4.357.003 6.894.198 7.613.586l8.162 3.572c1.502.604 2.669 2.013 3.499 4.225L48 21.47c-.325 1.055-1.473 2.063-3.446 3.022-1.972.96-3.565 1.335-4.778 1.125l-1.63-3.825c-.323 5.467-.484 9.575-.484 12.325s.04 8.19.119 16.319c-.535.464-7.158 1.065-13.78 1.065-6.623 0-13.246-.6-13.78-1.065Z" coloured="" opacity="1" mask="url(#kitMask)" id="base"></path><path fill="#fafafa" fill-rule="evenodd" d="M26.5285476 1.30487937 26.527623 51.472092C25.8123429 51.487611 25.0877059 51.4970404 24.3617382 51.4994087L24.000546 51.5C23.1356322 51.5 22.2707184 51.4897549 21.419365 51.4709062L21.4199624 1.3034444C22.0829953 1.28795487 22.8088187 1.27929681 23.5974326 1.27712829L24.0005758 1.27712829C24.9251544 1.27770922 25.7678116 1.28695958 26.5285476 1.30487937ZM31.6293941 1.86912829 36.7373941 4.10412829 36.7389468 50.7309677C35.6549 50.9222912 33.8307422 51.1113772 31.63035 51.2541788L31.6293941 1.86912829ZM16.3073941 1.89512829 16.3072055 51.2500357 15.1728818 51.1690897C13.4710738 51.0371518 12.0767987 50.8789219 11.1993941 50.7197401L11.1993941 4.13012829 16.3073941 1.89512829Z" coloured="" opacity="1" mask="url(#kitMask)" id="vertical-stripe-11"></path><path d="m7.924 5.568.103.435.106.498.105.524.102.549.1.575.1.6.143.95.14 1.008.09.703.089.73.129 1.143.125 1.2.08.833.08.859.114 1.336.11 1.394.07.962.103 1.49.029.46-1.618 3.8c-1.213.209-2.806-.166-4.778-1.126-1.92-.933-3.059-1.912-3.418-2.937L0 21.469 4.725 9.66c.774-2.063 1.84-3.427 3.2-4.092Z" fill="#fafafa" fill-rule="evenodd" coloured="" opacity="1" mask="url(#kitMask)" id="sleeve-01"></path><path d="M43.275 9.66 48 21.47c-.325 1.055-1.473 2.063-3.446 3.022-1.972.96-3.565 1.335-4.778 1.125l-1.624-3.813-.002-.012.012.026.029-.46.103-1.49.07-.962.11-1.394.115-1.336.079-.859.08-.832.125-1.201.13-1.143.088-.73.09-.703.14-1.008.144-.95.098-.6.1-.575.103-.55.105-.523.106-.498.102-.433c1.357.665 2.422 2.029 3.196 4.09Z" fill="#fafafa" fill-rule="evenodd" coloured="" opacity="1" mask="url(#kitMask)" id="sleeve-02"></path><path fill="#fafafa" fill-rule="evenodd" d="M30.2990606,-0.5 L31.6139292,0.86290579 L31.677,0.89 L31.5968671,0.912541872 C31.5316206,1.17861032 31.4207871,1.45032548 31.2643667,1.72768735 C31.4081345,1.76984334 31.5249726,1.81489928 31.6139292,1.86290579 L39.7758433,5.4345938 C41.2783083,6.03937373 42.4446058,7.44786812 43.274736,9.66007698 L48,21.4685118 C47.6754097,22.5241513 46.5267953,23.531758 44.5541569,24.4913321 C42.5815184,25.4509062 40.9887472,25.8258129 39.7758433,25.6160522 L38.1463424,21.7912482 C38.1098249,22.4089307 38.0753706,23.0092712 38.0429795,23.5922698 L38.0894472,52.1208952 L9.68043146,52.1208952 L9.74115765,22.4121434 L9.716,22.113 L9.85365765,21.7912482 C10.1656842,27.2587363 10.3270772,31.2769778 10.3378368,33.8459728 L10.3384132,34.1156766 L10.3381798,34.4732508 C10.3348353,37.1584412 10.2955373,42.4789995 10.2202858,50.4349257 C10.7554932,50.899355 17.3780196,51.5 24.000546,51.5 L24.3617382,51.4994087 C30.8618793,51.4782034 37.25533,50.8909108 37.7808063,50.4349257 C37.7050234,42.6835002 37.6653695,37.3774743 37.6618447,34.5168481 L37.6615868,34.1156766 C37.6615868,31.6764597 37.7887177,28.1686574 38.0429795,23.5922698 L38.0412513,22.4121434 L38.782409,13.6152189 C37.3203415,10.0358496 36.1754379,7.95538028 35.3476983,7.37381095 C34.9916182,7.12362931 34.0134552,6.59738337 32.4132093,5.79507313 L31.8871899,5.53253535 C31.4316081,5.30610666 30.9329458,5.06055993 30.391203,4.79589519 C29.9520795,4.60376416 29.4334797,4.41221854 28.8354036,4.22125832 C30.0116769,3.34509006 30.8210809,2.51371374 31.2643667,1.72768735 C30.2391395,1.42973018 27.818193,1.27952695 24.0005758,1.27712829 L23.5974326,1.27747024 C19.9880317,1.28583027 17.6939626,1.43729579 16.7152251,1.7318668 C17.1567028,2.51070685 17.9571946,3.33473644 19.117579,4.20334481 C18.4754482,4.40037373 17.9005104,4.59782338 17.391206,4.79589519 C14.233056,6.41179955 12.5808909,7.2711048 12.4347107,7.37381095 C11.6069711,7.95538028 10.4620675,10.0358496 9,13.6152189 L9.716,22.113 L8.2241567,25.6160522 C7.01125281,25.8258129 5.41848163,25.4509062 3.44584315,24.4913321 C1.52651922,23.5576924 0.387279465,22.5785814 0.0281238815,21.553999 L1.13686838e-13,21.4685118 L4.72526396,9.66007698 C5.53354862,7.50608415 6.66054046,6.1140616 8.10623945,5.48400935 L16.3835008,1.86290579 C16.4686956,1.81646483 16.5792703,1.77278517 16.7152251,1.7318668 C16.5556716,1.44744094 16.442956,1.16953631 16.3779567,0.897542151 L16.3325465,0.885881383 L16.3835008,0.86290579 L17.7009394,-0.5 C20.0542672,0.0215379365 22.154146,0.282865363 24.0005758,0.283982281 C25.8380118,0.285093757 27.9375067,0.0237663306 30.2990606,-0.5 Z" coloured="" opacity="1" mask="url(#kitMask)" id="shoulder-01"></path><g fill="none" fill-rule="evenodd" mask="url(#kitMask)" id="collar-07"><path fill="#000" fill-opacity=".5" d="M17.2776778,1.05072384 L30.7776778,1.05072384 L30.053869,1.83878254 C28.6049538,3.42723763 27.6571664,4.5392717 27.2105067,5.17488474 C25.6289876,7.42544414 25.3266086,8.55072384 24.0276778,8.55072384 C23.257941,8.55072384 22.960564,8.15556389 22.5169068,7.36524399 L22.1208101,6.65181435 C21.8824432,6.22983446 21.5887951,5.73752459 21.1934153,5.17488474 L21.0406209,4.96840225 C20.4432723,4.19500011 19.1889579,2.88910731 17.2776778,1.05072384 Z"></path><path fill="#000" fill-opacity=".2" d="M18.7862736,3.97511506 L19.0267905,4.16018413 L19.3766242,4.41803699 L19.5783858,4.56153383 L20.0813588,4.90440704 L20.6126233,5.24743311 L20.939,5.449 L22.4838336,8.5445165 L25.5698336,8.5455165 L27.111,5.451 L27.4207459,5.26126747 L27.96908,4.90766623 L28.4616043,4.5722115 L28.8364895,4.30326338 L29.1881498,4.03788604 L29.5169467,3.7757748 L29.7484907,3.58141746 L29.9645442,3.39085372 C30.7558113,2.67609127 31.2949622,1.99106267 31.5455427,1.28902943 L31.6139292,1.36290579 L31.6701062,1.38656491 C31.4128815,2.07356064 30.8863537,2.7581032 30.0756142,3.49255525 L29.8449289,3.6963073 L29.6104494,3.89306614 L29.2785051,4.15761877 L28.9239276,4.42514277 L28.5460434,4.69618745 L28.0503726,5.03372776 L27.4990967,5.38917822 L27.2452696,5.5178705 L25.7041033,8.612387 L25.6583388,8.69451649 L22.3904707,8.69451649 L20.8601814,5.57662297 L20.5312583,5.37344791 L19.9968688,5.02834836 L19.4914484,4.68377085 L19.2876263,4.53878208 L18.9363259,4.27983426 C17.5609444,3.23994125 16.7163953,2.301949 16.3749282,1.36571064 L16.4934654,1.24761435 C16.7997565,2.15142754 17.5887831,3.03676117 18.7862736,3.97511506 Z"></path><path fill="#fafafa" d="M30.2990606,0 L31.5454375,1.28932426 C31.2726203,2.05340453 30.6579715,2.79734901 29.7484907,3.58141746 L29.5169467,3.7757748 L29.1881498,4.03788604 L28.8364895,4.30326338 L28.4616043,4.5722115 L27.96908,4.90766623 L27.4207459,5.26126747 L27.111,5.451 L25.5698336,8.5455165 L22.4838336,8.5445165 L20.939,5.449 L20.6126233,5.24743311 L20.0813588,4.90440704 L19.5783858,4.56153383 L19.3766242,4.41803699 L19.0267905,4.16018413 C17.6945959,3.15294369 16.8203294,2.21117361 16.4937528,1.2484618 L17.7009394,0 C20.0542672,0.521537936 22.154146,0.782865363 24.0005758,0.783982281 C25.8380118,0.785093757 27.9375067,0.523766331 30.2990606,0 Z M29.774038,1.4102939 L29.1628706,1.53190046 C27.4511397,1.85198519 25.7394087,2.01202755 24.0276778,2.01202755 C22.1123122,2.01202755 20.1969465,1.81164157 18.2815809,1.41086962 C18.6240822,1.86785799 19.172803,2.3900981 19.9314365,2.96368277 L20.3539423,3.27295213 L20.9132089,3.6561982 L21.4229761,3.98516196 L21.8595002,4.25429821 L22.088,4.391 L24.0276778,8.27838975 L25.964,4.392 L26.1967841,4.25373656 L26.6334744,3.98447326 L27.1434123,3.65535924 L27.6135625,3.33494635 L27.9611283,3.0851736 L28.283389,2.84147142 L28.5804153,2.60406286 L28.7822376,2.43409233 C29.2096536,2.06556644 29.5398139,1.72291229 29.774038,1.4102939 Z" coloured="" opacity="1"></path><path fill="#000" d="M30.2001174,0.252275815 L30.2053555,0.4 L30.202447,0.471736626 C30.1808302,0.742247586 30.0386615,1.05710163 29.774038,1.4102939 C27.8577424,1.8117113 25.9427101,2.01202755 24.0276778,2.01202755 C22.1126454,2.01202755 20.1976131,1.8117113 18.2825808,1.41107881 C17.9928895,1.02526494 17.85,0.685995643 17.85,0.4 C17.85,0.278740158 17.8606194,0.157864069 17.8813978,0.0378053684 L17.7009394,0 C20.0542672,0.521537936 22.154146,0.782865363 24.0005758,0.783982281 C25.8045087,0.785073491 27.8610311,0.533208968 30.170143,0.0283887108 C30.1853789,0.101705617 30.1947774,0.176881764 30.2001174,0.252275815 Z" opacity=".5"></path></g><path fill="#fafafa" fill-rule="evenodd" d="M37.1121664,21 L37.8315566,21.9756158 L37.8517637,27.3498565 L37.7638597,29.4666731 C37.6956778,31.302889 37.6615868,32.8525568 37.6615868,34.1156766 L37.6988891,41.2551604 C37.7184789,43.7928304 37.7457846,46.8527522 37.7808063,50.4349257 C37.6763327,50.5255833 37.339909,50.6214311 36.8168122,50.7169886 L36.7576098,50.5486127 L37.1121664,21 Z M10.8425347,21 L11.1970913,50.5486127 L11.1390775,50.7086437 C10.6417948,50.6158558 10.3217184,50.5229444 10.2202858,50.4349257 L10.3362459,35.3121588 L10.3384132,34.1156766 C10.3384132,32.4078199 10.2661325,30.0045498 10.121571,26.9058661 L10.1440819,21.9756158 L10.8425347,21 Z" coloured="" opacity="1" mask="url(#kitMask)" id="side-03"></path><path fill="#165c33" d="M31.125,10.75 C33.5412458,10.75 35.5,12.7087542 35.5,15.125 C35.5,17.5412458 33.5412458,19.5 31.125,19.5 C28.7087542,19.5 26.75,17.5412458 26.75,15.125 C26.75,12.7087542 28.7087542,10.75 31.125,10.75 Z M31.125,12.3392255 C29.5864592,12.3392255 28.3392255,13.5864592 28.3392255,15.125 C28.3392255,16.6635408 29.5864592,17.9107745 31.125,17.9107745 C32.6635408,17.9107745 33.9107745,16.6635408 33.9107745,15.125 C33.9107745,13.5864592 32.6635408,12.3392255 31.125,12.3392255 Z" coloured="" opacity="1" mask="url(#kitMask)" id="badge-02"></path><path fill="#fafafa" d="M31.125,12.3392255 C32.6635408,12.3392255 33.9107745,13.5864592 33.9107745,15.125 C33.9107745,16.6635408 32.6635408,17.9107745 31.125,17.9107745 C29.5864592,17.9107745 28.3392255,16.6635408 28.3392255,15.125 C28.3392255,13.5864592 29.5864592,12.3392255 31.125,12.3392255 Z" coloured="" opacity="1" mask="url(#kitMask)" id="badge-04"></path>
        
                            <path fill-opacity="0.15" fill="#000000" fill-rule="nonzero" d="m10.234 48.926-1.257-.15a120.817 120.817 0 0 0 28.788.145l.016 1.514a.67.67 0 0 1-.206.101l-.168.052-.21.052-.25.052-.288.053-.324.052-.752.103-.879.1-.734.072-.791.07-.845.064-1.197.079-1.267.07-.988.044-.674.025-1.376.041-.698.015-1.411.018L24 51.5l-1.076-.005-1.057-.015-1.046-.024-1.029-.032-1.006-.04-.656-.03-1.267-.069-1.197-.079-.844-.065-.792-.069-.734-.072-.878-.1-.577-.077-.5-.078-.288-.053-.25-.052-.21-.052-.168-.052a.67.67 0 0 1-.206-.101l.014-1.509Zm37.19-28.899.144.361a13.074 13.074 0 0 1-3.592 2.696c-1.314.67-2.769 1.136-4.364 1.398l-.3.045-.142-.331c1.555-.22 2.974-.632 4.258-1.234l.389-.19a12.714 12.714 0 0 0 3.426-2.55l.18-.195Zm-46.99.357.144-.361-.112-.121a12.762 12.762 0 0 0 3.724 2.87c1.383.706 2.93 1.18 4.64 1.423l-.142.331-.293-.044c-1.596-.262-3.05-.728-4.364-1.398a13.074 13.074 0 0 1-3.597-2.7ZM7.926 5.567l.101.436.106.498.105.524.102.549.1.575.1.6.143.95.14 1.008.09.703.089.73.129 1.143.125 1.2.08.833.08.859.114 1.336.11 1.394.07.962.103 1.49.029.46-.262.614-.03-.511-.1-1.478-.103-1.423-.107-1.366-.111-1.311-.116-1.256-.08-.806-.08-.781-.084-.756-.128-1.089-.088-.694-.09-.67-.091-.645-.093-.62-.096-.596-.097-.57-.099-.546-.1-.521-.103-.497-.13-.583.135-.075.137-.07Zm32.148 0c.092.045.183.094.273.145l-.079.344-.103.484-.102.51-.1.533-.098.558-.096.583-.095.608-.092.632-.09.658-.09.682-.129 1.07-.084.744-.123 1.162-.08.806-.115 1.256-.111 1.31-.107 1.367-.137 1.91-.098 1.497-.26-.61.097-1.459.105-1.452.073-.936.113-1.355.078-.872.12-1.258.083-.807.085-.782.086-.755.134-1.085.091-.69.094-.666.095-.64.098-.613.15-.872.102-.55.13-.65.135-.61.047-.197Z"></path>
                        </g>
                    </svg>