<svg viewBox="0 0 48 52" xmlns="http://www.w3.org/2000/svg" xmlns:xlink="http://www.w3.org/1999/xlink" title="KAA Gent Home 24/25">
                        <defs>
                            <path id="kit" d="M10.22 50.435c.079-8.326.118-13.766.118-16.32 0-2.553-.161-6.661-.484-12.324l-1.63 3.825c-1.213.21-2.806-.165-4.778-1.125-1.92-.933-3.059-1.912-3.418-2.937L0 21.469 4.725 9.66c.809-2.154 1.936-3.546 3.381-4.176l8.278-3.621c.72-.393 3.26-.588 7.617-.586 4.357.003 6.894.198 7.613.586l8.162 3.572c1.502.604 2.669 2.013 3.499 4.225L48 21.47c-.325 1.055-1.473 2.063-3.446 3.022-1.972.96-3.565 1.335-4.778 1.125l-1.63-3.825c-.323 5.467-.484 9.575-.484 12.325s.04 8.19.119 16.319c-.535.464-7.158 1.065-13.78 1.065-6.623 0-13.246-.6-13.78-1.065Z"></path>
                            
                        </defs>
                        <mask id="kitMask" fill="#fff">
                            <use xlink:href="#kit"></use>
                        </mask>
                        <g fill="none" fill-rule="evenodd">
                            
            <path fill="#1569d6" d="M10.22 50.435c.079-8.326.118-13.766.118-16.32 0-2.553-.161-6.661-.484-12.324l-1.63 3.825c-1.213.21-2.806-.165-4.778-1.125-1.92-.933-3.059-1.912-3.418-2.937L0 21.469 4.725 9.66c.809-2.154 1.936-3.546 3.381-4.176l8.278-3.621c.72-.393 3.26-.588 7.617-.586 4.357.003 6.894.198 7.613.586l8.162 3.572c1.502.604 2.669 2.013 3.499 4.225L48 21.47c-.325 1.055-1.473 2.063-3.446 3.022-1.972.96-3.565 1.335-4.778 1.125l-1.63-3.825c-.323 5.467-.484 9.575-.484 12.325s.04 8.19.119 16.319c-.535.464-7.158 1.065-13.78 1.065-6.623 0-13.246-.6-13.78-1.065Z" coloured="" opacity="1" mask="url(#kitMask)" id="base"></path><path fill="#0f3999" fill-rule="evenodd" d="M31.1920941,46.4 L36.6189223,50.2 L37.762782,48.5657817 L37.7808063,50.4349257 C37.5130976,50.6672315 35.7223645,50.9336179 33.1704181,51.1418689 L31.8589223,50.223 L31.11402,51.2864135 C30.0258631,51.351708 28.8567362,51.4054465 27.6474543,51.4426883 L31.1789034,46.4 L31.1879223,46.407 L31.1920941,46.4 Z M31.1920941,36.68 L36.6189223,40.48 L37.6823294,38.960806 L37.7188012,43.7033653 L37.2940189,44.3096055 L31.8589223,40.503 L29.448,43.9442404 L29.4729223,43.9615129 L25.2940189,49.9296055 L19.8589223,46.123 L17.455,49.5542404 L17.4729223,49.5663579 L16.2936555,51.249147 L15.3045417,51.1791977 C14.5053278,51.1184368 13.7715458,51.0518415 13.1242905,50.9819654 L15.017,48.2792404 L15,48.2680926 L19.1789034,42.3 L24.6189223,46.1 L27.024,42.6642404 L27,42.6480926 L31.1789034,36.68 L31.1879223,36.687 L31.1920941,36.68 Z M10.224,50.0272404 L11.2159717,50.7227365 C10.6747681,50.625277 10.3268543,50.5274011 10.2202858,50.4349257 L10.224,50.0272404 Z M31.1920941,26.95 L36.6189223,30.75 L37.7779298,29.0961459 L37.7399833,30.1390493 C37.6886628,31.6563401 37.6625391,32.961841 37.6616124,34.055552 L37.2940189,34.5796055 L31.8589223,30.773 L29.458,34.2012404 L29.4729223,34.2115129 L25.2940189,40.1796055 L19.8589223,36.373 L17.445,39.8202404 L17.4729223,39.8401466 L13.2940189,45.8082392 L10.2807311,43.6968663 L10.3070677,40.3594341 L12.6189223,41.9786337 L15.028,38.5362404 L15,38.5180926 L19.1789034,32.55 L24.6189223,36.35 L27.015,32.9272404 L27,32.9180926 L31.1789034,26.95 L31.1879223,26.957 L31.1920941,26.95 Z M31.1920941,17.2 L36.6189223,21 L38.399,18.4562404 L38.2935188,19.8667554 L38.1908532,21.3576423 L38.1621857,21.8171378 L38.1503424,21.7912482 L38.1523424,21.8028102 L38.1463424,21.7912482 L38.0328106,23.7759561 L37.2940189,24.8296055 L31.8589223,21.023 L29.2525752,24.7453627 L29.219,24.7222404 L25.2940189,30.3296055 L19.8589223,26.523 L17.434,29.9852404 L17.4729223,30.0115129 L13.2940189,35.9796055 L10.337,33.9092404 L10.3378368,33.8459728 C10.3339588,32.9200486 10.3105128,31.8058606 10.2674989,30.503409 L12.6189223,32.15 L15.038,28.6942404 L15,28.6680926 L19.1789034,22.7 L24.6189223,26.5 L27.2203471,22.7842427 L27.252,22.8062404 L31.1789034,17.2 L31.1879223,17.207 L31.1920941,17.2 Z M31.1920941,7.2 L36.6189223,11 L39.2203471,7.28424275 L39.66,7.59224044 L39.5633857,8.148801 L39.4649458,8.7495788 L39.320983,9.69905543 L39.1814544,10.7065104 L39.0908978,11.4103607 L38.968,12.4372404 L38.8712891,12.5770302 L37.2940189,14.8296055 L31.8589223,11.023 L29.2525752,14.7453627 L29.219,14.7222404 L25.2940189,20.3296055 L19.8589223,16.523 L17.2525752,20.2453627 L17.219,20.2222404 L13.2940189,25.8296055 L9.94811941,23.4868599 L9.85365765,21.7912482 L9.84181434,21.8171378 L9.81314683,21.3576423 L9.717,19.9672404 L12.6189223,22 L15.2203471,18.2842427 L15.252,18.3072404 L19.1789034,12.7 L24.6189223,16.5 L27.2203471,12.7842427 L27.252,12.8072404 L31.1789034,7.2 L31.1879223,7.207 L31.1920941,7.2 Z M31.6139292,1.86290579 L31.779,1.93524044 L29.458,5.25124044 L29.4729223,5.26151291 L25.2940189,11.2296055 L19.8589223,7.423 L17.458,10.8512404 L17.4729223,10.8615129 L13.2940189,16.8296055 L9.201,13.9622404 L9.1308806,13.2827501 L9.00168981,12.1399845 L8.91310224,11.4103607 L8.82254557,10.7065104 L8.767,10.3012404 L12.6189223,13 L15.015,9.57724044 L15,9.56809257 L19.1789034,3.6 L24.6189223,7.4 L27.015,3.97724044 L27,3.96809257 L28.7998013,1.39924044 C30.2826574,1.49613994 31.2207,1.65069505 31.6139292,1.86290579 Z M32.418,2.21424044 L37.98,4.64924044 L37.2940189,5.62960548 L32.418,2.21424044 Z M11.17,4.14324044 L15.732,2.14724044 L13.2940189,5.62960548 L11.17,4.14324044 Z" coloured="" opacity="1" mask="url(#kitMask)" id="zigzag-03"></path><path fill="#3a99f2" fill-rule="evenodd" d="M10.3285484,32.9279602 L25.8992064,51.4840988 L25.5121936,51.4898575 L10.3346207,33.4016049 L10.3285484,32.9279602 Z M10.3255249,37.5907453 L21.9812845,51.4820481 L21.5832342,51.4744241 L10.3227506,38.0531853 L10.3255249,37.5907453 Z M10.1741481,28.0759102 L29.7127604,51.3617434 L29.3356518,51.3791369 L10.1949289,28.5674491 L10.1741481,28.0759102 Z M10.2928079,42.2183784 L17.9501437,51.3451267 L17.5399582,51.3236556 L10.2890896,42.6811717 L10.2928079,42.2183784 Z M9.92790259,23.1165733 L33.4275613,51.1204705 L33.0618542,51.1506562 L9.95498588,23.6136562 L9.92790259,23.1165733 Z M9.569,18.018673 L36.9799739,50.6859717 C36.8754495,50.706686 36.7619227,50.7274146 36.639855,50.7481015 L9.61,18.534673 L9.569,18.018673 Z M9.071,12.758673 L37.7475012,46.9341574 L37.7518724,47.4059804 L9.132,13.298673 L9.071,12.758673 Z M8.256,7.12067302 L37.7064915,42.2181826 L37.7103235,42.6891718 L8.366,7.71967302 L8.34020192,7.573786 L8.256,7.12067302 Z M10.075,4.62267302 L37.6733941,37.5111187 L37.6761417,37.9833787 L9.789,4.74767302 L10.075,4.62267302 Z M12.94,3.36967302 L37.671625,32.8441347 L37.6658575,33.305434 L12.653,3.49467302 L12.94,3.36967302 Z M15.804,2.11567302 L37.8084593,28.3401101 L37.7902002,28.7852209 L15.518,2.24167302 L15.804,2.11567302 Z M19.1200851,1.40066015 L38.024293,23.930853 L38.0005464,24.3680111 L18.7494642,1.42786544 L19.1200851,1.40066015 Z M22.934244,1.2807288 L38.312,19.605673 L38.281,20.035673 L22.5456958,1.28436431 L22.934244,1.2807288 Z M26.8799601,1.31393719 L38.663,15.356673 L38.625,15.777673 L26.4808534,1.30376972 L26.8799601,1.31393719 Z M31.1099305,1.68674606 L39.114,11.226673 L39.063,11.633673 L30.6381842,1.59160205 C30.8152061,1.6212242 30.9724549,1.65293887 31.1099305,1.68674606 Z M36.618,4.05267302 L37.237,4.32267302 L39.718,7.27967302 L39.647,7.66267302 L36.618,4.05267302 Z" coloured="" opacity="1" mask="url(#kitMask)" id="angled-stripe-10"></path><g fill="none" fill-rule="evenodd" id="collar-06"><path fill="#000" fill-opacity=".5" fill-rule="nonzero" d="M18.238247,2.35283543 C20.163611,2.75780245 22.0889751,2.96028596 24.0143391,2.96028596 C25.9197063,2.96028596 27.8250735,2.7619866 29.7327885,2.36402556 C29.365493,2.85303517 28.7638025,3.41538487 27.9226781,4.0351736 L27.5751123,4.28494635 L27.2021708,4.54056663 C27.0093442,4.66980148 26.8069753,4.80114551 26.5950242,4.93447326 L26.1583339,5.20373656 L25.6960205,5.47806675 L25.2080133,5.75724078 L24.9543524,5.89857453 L24.4276719,6.18459613 L23.9895277,6.41475 L23.5509227,6.18467057 L23.0245009,5.89879442 L22.5238523,5.61742274 L22.0489065,5.3407782 L21.3845259,4.93516196 L20.8747588,4.6061982 L20.4047386,4.28592548 C20.2246616,4.15961258 20.0540907,4.03548993 19.8929864,3.91368277 L19.5833879,3.67319292 C19.024329,3.22645731 18.5990639,2.81372292 18.3054743,2.44167362 Z"></path><path fill="#000" fill-rule="nonzero" d="M31.6099313,1.85660401 L31.9352964,2.00347579 C31.6044888,3.34029208 30.2693285,4.74866589 27.9546698,6.26147062 L27.647205,6.45938791 L27.1776439,6.75086362 L26.9297911,6.90001813 L26.4236478,7.19580417 L25.888442,7.49709157 L25.3334712,7.79869764 L25.0455332,7.95128498 L24.7499802,8.10537118 L23.9892276,8.49276672 L23.2264963,8.10435566 L22.642806,7.79752389 L22.0877628,7.49585781 L21.8179091,7.34528603 L21.5523197,7.19436399 L20.9223397,6.82437937 L20.3283934,6.45759538 C17.8309228,4.87367893 16.3931126,3.40330924 16.0448931,2.01047315 L16.3709838,1.86757863 C16.6523785,3.110265 17.9329877,4.47672095 20.2128113,5.9669465 L20.5158462,6.16202565 L20.982649,6.45180666 L21.7289193,6.89218424 L22.2571435,7.18957333 L22.8099363,7.49000565 L23.3872977,7.79348121 L23.9892276,8.1 L24.5911575,7.79348121 L25.1685189,7.49000565 L25.7213117,7.18957333 L26.2495359,6.89218424 L26.8752667,6.52472742 L27.462609,6.16202565 C29.9391905,4.59135729 31.3216312,3.15621674 31.6099313,1.85660401 Z M17.9611487,0.556 L18.308224,0.629969652 C18.2116884,0.864136497 18.1615498,1.10593377 18.1615498,1.35 C18.1615498,1.77150559 18.6460914,2.43939387 19.6008732,3.23582154 L19.7980952,3.39678602 L20.1040705,3.63449913 L20.3479118,3.81529135 L20.6025928,3.99721504 L21.1626103,4.37677965 L21.5682104,4.6372358 L22.2250678,5.03834279 L22.6953312,5.31230801 L23.1915301,5.59122128 L23.7135102,5.87472657 L23.989,6.019 L24.2606404,5.8770242 L24.9112332,5.52224729 L25.517413,5.17706947 L25.9746372,4.90581791 L26.4086626,4.63821431 L26.8126457,4.37887763 L27.0042943,4.25187143 L27.3708614,4.0007254 L27.7150557,3.75340612 C28.9831727,2.8189847 29.6915706,2.01522748 29.8011674,1.49616936 L29.8142842,1.40755758 L29.8169054,1.35 C29.8169054,1.10768131 29.7674822,0.867599189 29.6738247,0.633736444 L30.0147315,0.562064867 C30.0975255,0.771042451 30.146332,0.985760594 30.1616672,1.20227581 L30.1669054,1.35 L30.1639968,1.42173663 C30.115264,2.03157497 29.4538511,2.86677787 28.1579562,3.8585447 L27.9226781,4.0351736 L27.5751123,4.28494635 L27.2021708,4.54056663 L26.9057692,4.73598511 L26.5950242,4.93447326 L26.1583339,5.20373656 L25.6960205,5.47806675 L25.2080133,5.75724078 L24.9543524,5.89857453 L24.4276719,6.18459613 L23.9895277,6.41475 L23.5509227,6.18467057 L23.0245009,5.89879442 L22.5238523,5.61742274 L21.82105,5.20429821 L21.3845259,4.93516196 L20.8747588,4.6061982 L20.4047386,4.28592548 L20.1417477,4.09811447 L19.8929864,3.91368277 L19.5833879,3.67319292 C18.3953878,2.72387975 17.8115498,1.92810336 17.8115498,1.35 C17.8115498,1.14904674 17.8407144,0.949147398 17.8969485,0.75227558 L17.9611487,0.556 Z" opacity=".15"></path><rect width="1.804" height="5" x="23.1" y="7.177" fill="#000" fill-opacity=".2"></rect><path fill="#000" fill-opacity=".2" fill-rule="nonzero" d="M15.65,1.5 L17.7938598,1.54411721 L18.4911603,2.3570194 C19.8890268,3.97197796 21.3209754,5.47374104 23.0478009,5.99613865 L20.2746112,8.89780094 C18.4496955,6.82330248 16.7669741,4.55238884 15.65,1.5 Z M32.2545008,1.5 L30.1106411,1.54411721 L29.4133405,2.3570194 C28.015474,3.97197796 26.5835254,5.47374104 24.8566999,5.99613865 L27.6298896,8.89780094 C29.4548053,6.82330248 31.1375267,4.55238884 32.2545008,1.5 Z"></path><path fill="#cdcbf5" fill-rule="nonzero" d="M30.2990606,0.5 L30.91,1.133 L31.9363098,1.9785553 C30.9480218,4.25465543 29.6432108,6.21042672 28.0281899,7.85225804 L27.6773682,8.19927616 L26.137,6.955 L25.7213117,7.18957333 L25.1685189,7.49000565 L24.7495465,7.71 L24.75,11.9767748 L23.25,11.9767748 L23.2495465,7.721 L22.8099363,7.49000565 L22.2571435,7.18957333 L21.815,6.941 L20.2589417,8.19927616 C18.4811155,6.48818829 17.05888,4.41723401 16,1.9785553 L17.331,0.881 L17.7009394,0.5 C20.0542672,1.02153794 22.154146,1.28286536 24.0005758,1.28398228 C25.8380118,1.28509376 27.9375067,1.02376633 30.2990606,0.5 Z M24.3487087,10.5082376 L24.2426427,10.6143036 L24.2841688,10.6640067 C24.381063,10.8038744 24.3672209,10.9972552 24.2426427,11.1218335 C24.1024922,11.2619839 23.8752634,11.2619839 23.7351129,11.1218335 C23.5949624,10.981683 23.5949624,10.7544541 23.7351129,10.6143036 L23.6290469,10.5082376 L23.5797752,10.5653123 C23.4319601,10.7645288 23.448384,11.0472366 23.6290469,11.2278995 C23.827776,11.4266286 24.1499796,11.4266286 24.3487087,11.2278995 C24.5474379,11.0291703 24.5474379,10.7069667 24.3487087,10.5082376 Z M24.3487087,8.57879423 L24.2426427,8.68486025 L24.2841688,8.73456331 C24.381063,8.874431 24.3672209,9.06781187 24.2426427,9.19239009 C24.1024922,9.33254059 23.8752634,9.33254059 23.7351129,9.19239009 C23.5949624,9.0522396 23.5949624,8.82501074 23.7351129,8.68486025 L23.6290469,8.57879423 L23.5797752,8.6358689 C23.4319601,8.83508539 23.448384,9.11779325 23.6290469,9.29845611 C23.827776,9.49718525 24.1499796,9.49718525 24.3487087,9.29845611 C24.5474379,9.09972697 24.5474379,8.77752337 24.3487087,8.57879423 Z M19.0902932,2.5188305 L19.1645918,2.61589905 C20.12549,3.84733418 21.3148517,4.86977108 22.6972759,5.71559463 L23.0245009,5.89879442 L23.5509227,6.18467057 L23.9895277,6.41475 L24.4276719,6.18459613 L24.879,5.939 C26.4423317,5.02925985 27.7785537,3.9118203 28.8330282,2.53663845 C27.2256247,2.81946678 25.6199819,2.96028596 24.0143391,2.96028596 C22.3729905,2.96028596 20.7316418,2.81313414 19.0902932,2.5188305 Z" coloured="" opacity="1"></path><path fill="#000" fill-opacity=".2" fill-rule="nonzero" d="M17.9519175,0.552973964 L17.7009394,0.5 C20.0542672,1.02153794 22.154146,1.28286536 24.0005758,1.28398228 C25.7613211,1.28504737 27.7379393,0.967564459 30.0147315,0.556 C30.0147315,0.819105189 29.7427603,1.15085299 29.5877702,1.44049799 C29.4327801,1.73014298 29.1023788,2.20120317 28.8359585,2.55590966 C26.9295153,2.95373832 25.9087924,2.96028596 24.0027893,2.96028596 C22.0774253,2.96028596 21.0215391,2.92047657 19.0961751,2.51550955 C18.8103436,2.13311963 18.4871067,1.68917169 18.2882025,1.34714121 C18.0892983,1.00511073 17.9822673,0.816701208 17.9519175,0.552973964 Z"></path></g><path d="M47.56 20.365 48 21.47c-.325 1.055-1.473 2.063-3.446 3.022-1.972.96-3.565 1.335-4.778 1.125l-.464-1.088.261-.038c1.596-.263 3.05-.728 4.364-1.398a13.078 13.078 0 0 0 3.622-2.727Zm-47.118.001a13.078 13.078 0 0 0 3.62 2.726c1.315.67 2.77 1.135 4.365 1.398l.26.038-.463 1.088c-1.213.21-2.806-.165-4.778-1.125-1.92-.933-3.059-1.912-3.418-2.937L0 21.469l.442-1.103Z" fill="#d4d0f5" fill-rule="nonzero" coloured="" opacity="1" mask="url(#kitMask)" id="trim-01"></path>
        
                            <path fill-opacity="0.15" fill="#000000" fill-rule="nonzero" d="m10.234 48.926-1.257-.15a120.817 120.817 0 0 0 28.788.145l.016 1.514a.67.67 0 0 1-.206.101l-.168.052-.21.052-.25.052-.288.053-.324.052-.752.103-.879.1-.734.072-.791.07-.845.064-1.197.079-1.267.07-.988.044-.674.025-1.376.041-.698.015-1.411.018L24 51.5l-1.076-.005-1.057-.015-1.046-.024-1.029-.032-1.006-.04-.656-.03-1.267-.069-1.197-.079-.844-.065-.792-.069-.734-.072-.878-.1-.577-.077-.5-.078-.288-.053-.25-.052-.21-.052-.168-.052a.67.67 0 0 1-.206-.101l.014-1.509Zm37.19-28.899.144.361a13.074 13.074 0 0 1-3.592 2.696c-1.314.67-2.769 1.136-4.364 1.398l-.3.045-.142-.331c1.555-.22 2.974-.632 4.258-1.234l.389-.19a12.714 12.714 0 0 0 3.426-2.55l.18-.195Zm-46.99.357.144-.361-.112-.121a12.762 12.762 0 0 0 3.724 2.87c1.383.706 2.93 1.18 4.64 1.423l-.142.331-.293-.044c-1.596-.262-3.05-.728-4.364-1.398a13.074 13.074 0 0 1-3.597-2.7ZM7.926 5.567l.101.436.106.498.105.524.102.549.1.575.1.6.143.95.14 1.008.09.703.089.73.129 1.143.125 1.2.08.833.08.859.114 1.336.11 1.394.07.962.103 1.49.029.46-.262.614-.03-.511-.1-1.478-.103-1.423-.107-1.366-.111-1.311-.116-1.256-.08-.806-.08-.781-.084-.756-.128-1.089-.088-.694-.09-.67-.091-.645-.093-.62-.096-.596-.097-.57-.099-.546-.1-.521-.103-.497-.13-.583.135-.075.137-.07Zm32.148 0c.092.045.183.094.273.145l-.079.344-.103.484-.102.51-.1.533-.098.558-.096.583-.095.608-.092.632-.09.658-.09.682-.129 1.07-.084.744-.123 1.162-.08.806-.115 1.256-.111 1.31-.107 1.367-.137 1.91-.098 1.497-.26-.61.097-1.459.105-1.452.073-.936.113-1.355.078-.872.12-1.258.083-.807.085-.782.086-.755.134-1.085.091-.69.094-.666.095-.64.098-.613.15-.872.102-.55.13-.65.135-.61.047-.197Z"></path>
                        </g>
                    </svg>