<svg viewBox="0 0 48 52" xmlns="http://www.w3.org/2000/svg" xmlns:xlink="http://www.w3.org/1999/xlink" title="Lille Home Kit 24/25">
                        <defs>
                            <path id="kit" d="M10.22 50.435c.079-8.326.118-13.766.118-16.32 0-2.553-.161-6.661-.484-12.324l-1.63 3.825c-1.213.21-2.806-.165-4.778-1.125-1.92-.933-3.059-1.912-3.418-2.937L0 21.469 4.725 9.66c.809-2.154 1.936-3.546 3.381-4.176l8.278-3.621c.72-.393 3.26-.588 7.617-.586 4.357.003 6.894.198 7.613.586l8.162 3.572c1.502.604 2.669 2.013 3.499 4.225L48 21.47c-.325 1.055-1.473 2.063-3.446 3.022-1.972.96-3.565 1.335-4.778 1.125l-1.63-3.825c-.323 5.467-.484 9.575-.484 12.325s.04 8.19.119 16.319c-.535.464-7.158 1.065-13.78 1.065-6.623 0-13.246-.6-13.78-1.065Z"></path>
                            
                        </defs>
                        <mask id="kitMask" fill="#fff">
                            <use xlink:href="#kit"></use>
                        </mask>
                        <g fill="none" fill-rule="evenodd">
                            
            <path fill="#e82c32" d="M10.22 50.435c.079-8.326.118-13.766.118-16.32 0-2.553-.161-6.661-.484-12.324l-1.63 3.825c-1.213.21-2.806-.165-4.778-1.125-1.92-.933-3.059-1.912-3.418-2.937L0 21.469 4.725 9.66c.809-2.154 1.936-3.546 3.381-4.176l8.278-3.621c.72-.393 3.26-.588 7.617-.586 4.357.003 6.894.198 7.613.586l8.162 3.572c1.502.604 2.669 2.013 3.499 4.225L48 21.47c-.325 1.055-1.473 2.063-3.446 3.022-1.972.96-3.565 1.335-4.778 1.125l-1.63-3.825c-.323 5.467-.484 9.575-.484 12.325s.04 8.19.119 16.319c-.535.464-7.158 1.065-13.78 1.065-6.623 0-13.246-.6-13.78-1.065Z" coloured="" opacity="1" mask="url(#kitMask)" id="base"></path><path fill="#e81729" fill-rule="evenodd" d="M10.2332743,49.049466 L21.8550886,51.4797729 C19.6309421,51.4385093 17.4828413,51.3372159 15.6490118,51.2047294 L10.223,50.0701994 L10.2332743,49.049466 Z M37.7788446,50.2339925 L33.6231946,51.1036174 C31.774462,51.2653012 29.4689494,51.3972277 27.0310035,51.4601352 L37.7689771,49.2142912 L37.7788446,50.2339925 Z M10.2604318,46.0558487 L24.3942921,49.0104245 L37.7409682,46.2204399 L37.7503356,47.2405953 L24.4965688,50.0109687 L24.2919846,50.0109687 L10.2513439,47.0746685 L10.2604318,46.0558487 Z M10.2859868,43.0619295 L24.3942921,46.0104245 L37.7147723,43.2257706 L37.7234542,44.2461591 L24.4965688,47.0109687 L24.2919846,47.0109687 L10.2775063,44.0808433 L10.2859868,43.0619295 Z M10.3092068,40.0656218 L24.3942921,43.0104245 L37.6911909,40.230441 L37.6988634,41.2518272 L24.4965688,44.0109687 L24.2919846,44.0109687 L10.301631,41.0864885 L10.3092068,40.0656218 Z M10.3284533,37.0701395 L24.3942921,40.0104245 L37.6718687,37.2343645 L37.6777979,38.2550681 L24.4965688,41.0109687 L24.2919846,41.0109687 L10.3225254,38.0896663 L10.3284533,37.0701395 Z M10.338,34.0721994 L24.3942921,37.0104245 L37.661,34.2371994 L37.6634066,35.2580878 L24.4965688,38.0109687 L24.2919846,38.0109687 L10.3369005,35.0934175 L10.338,34.0721994 Z M10.2851237,31.0630498 L24.3942921,34.0104245 L37.7064383,31.2292578 L37.6819087,32.2557165 L24.4965688,35.0109687 L24.2919846,35.0109687 L10.3123819,32.0900225 L10.2851237,31.0630498 Z M10.1724895,28.0374966 L24.3942921,31.0104245 L37.8140709,28.207007 L37.7724964,29.2373191 L24.4965688,32.0109687 L24.2919846,32.0109687 L10.2152696,29.069849 L10.1724895,28.0374966 Z M10.0284752,25.008307 L24.3942921,28.0104245 L37.957863,25.175742 L37.9056935,26.2095587 L24.4965688,29.0109687 L24.2919846,29.0109687 L10.0802572,26.0415679 L10.0284752,25.008307 Z M9.86409144,21.9745229 L24.3942921,25.0104245 L38.126,22.1401994 L38.0662943,23.1759508 L24.4965688,26.0109687 L24.2919846,26.0109687 L9.92188835,23.0072576 L9.86409144,21.9745229 Z M9.641,18.9261994 L24.3942921,22.0104245 L38.35,19.0931994 L38.275,20.1301994 L24.4965688,23.0109687 L24.2919846,23.0109687 L9.717,19.9641994 L9.641,18.9261994 Z M9.387,15.8731994 L24.3942921,19.0104245 L38.6,16.0411994 L38.511,17.0811994 L24.4965688,20.0109687 L24.2919846,20.0109687 L9.478,16.9141994 L9.41511511,16.1747798 L9.387,15.8731994 Z M9.077,12.8081994 L24.3942921,16.0104245 L38.908,12.9761994 L38.8731194,13.2827501 L38.796,14.0211994 L24.4965688,17.0109687 L24.2919846,17.0109687 L9.189,13.8531994 L9.1308806,13.2827501 L9.077,12.8081994 Z M8.687,9.72719942 L24.3942921,13.0104245 L39.293,9.89619942 L39.1814544,10.7065104 L39.15,10.9481994 L24.4965688,14.0109687 L24.2919846,14.0109687 L8.831,10.7791994 L8.687,9.72719942 Z M8.157,6.61619942 L24.3942921,10.0104245 L39.813,6.78719942 L39.7661836,7.02453169 L39.6637981,7.573786 L39.615,7.85119942 L24.4965688,11.0109687 L24.2919846,11.0109687 L8.359,7.68019942 L8.34020192,7.573786 L8.23781635,7.02453169 L8.157,6.61619942 Z M11.011,4.21319942 L24.3942921,7.01042448 L37.24,4.32519942 L38.82,5.01619942 L24.4965688,8.01096871 L24.2919846,8.01096871 L9.431,4.90419942 L11.011,4.21319942 Z M15.651,2.18319942 L24.3942921,4.01042448 L32.601,2.29519942 L34.181,2.98619942 L24.4965688,5.01096871 L24.2919846,5.01096871 L14.071,2.87419942 L15.651,2.18319942 Z" coloured="" opacity="1" mask="url(#kitMask)" id="triangle-03"></path><polygon fill="#fafafa" points="33.85 11.3 35.907 15.659 31.054 20.224 26.2 15.659 28.257 11.3" coloured="" opacity="1" mask="url(#kitMask)" id="badge-12"></polygon><g fill="none" fill-rule="evenodd" id="collar-04"><path fill="#000" fill-opacity=".5" d="M30.75,2.18 C29.7749023,4.9032666 27.5249023,6.2648999 24,6.2648999 C20.4750977,6.2648999 18.2250977,4.9032666 17.25,2.18 L30.75,2.18 Z"></path><path fill="#fafafa" d="M30.4486804,0.4 L31.5001582,1.58466392 L31.692,1.67 L31.6990485,1.89423218 C29.1024722,2.61826803 26.5203857,2.98028596 23.9527893,2.98028596 C21.3851929,2.98028596 18.8509298,2.63393881 16.35,1.94124451 L16.343,1.845 L16.5331206,1.76290579 L17.8505592,0.4 C20.203887,0.921537936 22.3037658,1.18286536 24.1501956,1.18398228 C25.9876316,1.18509376 28.0871265,0.923766331 30.4486804,0.4 Z" coloured="" opacity="1"></path><path fill="#000" fill-opacity=".5" d="M30.4486804,0.4 L31.5001582,1.58466392 L31.692,1.67 L31.6990485,1.89423218 C29.1024722,2.61826803 26.5203857,2.98028596 23.9527893,2.98028596 C21.3851929,2.98028596 18.8509298,2.63393881 16.35,1.94124451 L16.343,1.845 L16.5331206,1.76290579 L17.8505592,0.4 C20.203887,0.921537936 22.3037658,1.18286536 24.1501956,1.18398228 C25.9876316,1.18509376 28.0871265,0.923766331 30.4486804,0.4 Z"></path><path fill="#fafafa" d="M30.4437289,0.4 L31.699,1.701 L31.6957612,1.83431122 C31.5537677,4.64845237 28.1727723,6.9 24.0227263,6.9 C19.8756383,6.9 16.4965049,4.65166085 16.35,1.84032777 L16.5281691,1.76290579 L17.8456077,0.4 L18.2233174,0.4813756 C18.0099312,0.856479063 17.8950485,1.25116377 17.8950485,1.65 L17.8967837,1.73497405 L17.9,1.75 C17.9,2.7302403 18.5939534,3.68540319 19.738695,4.38641656 C20.301235,4.73090309 20.9726341,5.01401608 21.724036,5.20857172 C22.0873533,5.30264313 22.4693745,5.37601063 22.8668377,5.42560132 L22.9627026,5.45097854 C23.5362512,5.60466041 23.9551597,6.02412005 24.0785447,6.50284022 C24.2001958,6.02412005 24.6191044,5.60466041 25.1926529,5.45097854 L25.294547,5.42687669 L25.3961382,5.40911678 C25.7557493,5.36240807 26.101253,5.29403374 26.4313196,5.20857172 C27.1827215,5.01401608 27.8541205,4.73090309 28.4166606,4.38641656 C29.5614022,3.68540319 30.2553555,2.7302403 30.2553555,1.75 L30.2504041,1.65 C30.2504041,1.26076701 30.1409872,0.875488012 29.9373775,0.508504815 L30.4437289,0.4 Z" coloured="" opacity="1"></path><path fill="#000" fill-opacity=".5" d="M31.8415564,1.58 C31.8415564,4.79060313 28.3626159,7.03999025 24.0245,7.03999025 C19.7277272,7.03999025 16.2365265,4.63545577 16.2365265,1.78785812 L16.343,1.73485702 C16.4912222,4.60474766 19.7228934,6.88985702 24.0245,6.88985702 C28.3261066,6.88985702 31.699,4.54348023 31.6990485,1.58 L31.8415564,1.58 Z"></path></g><path fill="#e82c32" fill-rule="evenodd" d="M37.6622051,33.8158414 L37.6659894,35.9990101 C37.6783277,39.0556356 37.7166,43.8676075 37.7808063,50.4349257 C37.25533,50.8909108 30.8618793,51.4782034 24.3617382,51.4994087 L23.2783813,51.4976527 C16.9044307,51.4564968 10.7360311,50.8824666 10.2202858,50.4349257 L10.3260636,37.4978155 L10.3384132,34.1156766 L10.3320021,33.1730193 C10.3106321,31.4991227 10.2358368,29.3112219 10.1076164,26.6093168 L37.8863598,26.608684 L37.8135858,28.2184499 C37.7187161,30.457526 37.6682559,32.3233232 37.6622051,33.8158414 Z" coloured="" opacity="1" mask="url(#kitMask)" id="half-04"></path>
        
                            <path fill-opacity="0.15" fill="#000000" fill-rule="nonzero" d="m10.234 48.926-1.257-.15a120.817 120.817 0 0 0 28.788.145l.016 1.514a.67.67 0 0 1-.206.101l-.168.052-.21.052-.25.052-.288.053-.324.052-.752.103-.879.1-.734.072-.791.07-.845.064-1.197.079-1.267.07-.988.044-.674.025-1.376.041-.698.015-1.411.018L24 51.5l-1.076-.005-1.057-.015-1.046-.024-1.029-.032-1.006-.04-.656-.03-1.267-.069-1.197-.079-.844-.065-.792-.069-.734-.072-.878-.1-.577-.077-.5-.078-.288-.053-.25-.052-.21-.052-.168-.052a.67.67 0 0 1-.206-.101l.014-1.509Zm37.19-28.899.144.361a13.074 13.074 0 0 1-3.592 2.696c-1.314.67-2.769 1.136-4.364 1.398l-.3.045-.142-.331c1.555-.22 2.974-.632 4.258-1.234l.389-.19a12.714 12.714 0 0 0 3.426-2.55l.18-.195Zm-46.99.357.144-.361-.112-.121a12.762 12.762 0 0 0 3.724 2.87c1.383.706 2.93 1.18 4.64 1.423l-.142.331-.293-.044c-1.596-.262-3.05-.728-4.364-1.398a13.074 13.074 0 0 1-3.597-2.7ZM7.926 5.567l.101.436.106.498.105.524.102.549.1.575.1.6.143.95.14 1.008.09.703.089.73.129 1.143.125 1.2.08.833.08.859.114 1.336.11 1.394.07.962.103 1.49.029.46-.262.614-.03-.511-.1-1.478-.103-1.423-.107-1.366-.111-1.311-.116-1.256-.08-.806-.08-.781-.084-.756-.128-1.089-.088-.694-.09-.67-.091-.645-.093-.62-.096-.596-.097-.57-.099-.546-.1-.521-.103-.497-.13-.583.135-.075.137-.07Zm32.148 0c.092.045.183.094.273.145l-.079.344-.103.484-.102.51-.1.533-.098.558-.096.583-.095.608-.092.632-.09.658-.09.682-.129 1.07-.084.744-.123 1.162-.08.806-.115 1.256-.111 1.31-.107 1.367-.137 1.91-.098 1.497-.26-.61.097-1.459.105-1.452.073-.936.113-1.355.078-.872.12-1.258.083-.807.085-.782.086-.755.134-1.085.091-.69.094-.666.095-.64.098-.613.15-.872.102-.55.13-.65.135-.61.047-.197Z"></path>
                        </g>
                    </svg>