<svg xmlns="http://www.w3.org/2000/svg" xmlns:xlink="http://www.w3.org/1999/xlink" width="48" height="52" viewBox="0 0 48 52"><defs><path id="a" d="M10.2202858,49.9349257 C10.2990374,41.6089564 10.3384132,36.1692068 10.3384132,33.6156766 C10.3384132,31.0621465 10.176828,26.9540037 9.85365765,21.2912482 L8.2241567,25.1160522 C7.01125281,25.3258129 5.41848163,24.9509062 3.44584315,23.9913321 C1.52651922,23.0576924 0.387279465,22.0785814 0.0281238815,21.053999 L0,20.9685118 L4.72526396,9.16007698 C5.53354862,7.00608415 6.66054046,5.6140616 8.10623945,4.98400935 L16.3835008,1.36290579 L17.7009394,0 C20.0542672,0.52153794 22.154146,0.78286536 24.0005758,0.78398228 C25.8380118,0.78509376 27.9375067,0.52376633 30.2990606,0 L31.6139292,1.36290579 L39.7758433,4.9345938 C41.2783083,5.53937373 42.4446058,6.94786812 43.274736,9.16007698 L48,20.9685118 C47.6754097,22.0241513 46.5267953,23.031758 44.5541569,23.9913321 C42.5815184,24.9509062 40.9887472,25.3258129 39.7758433,25.1160522 L38.1463424,21.2912482 C37.823172,26.7575783 37.6615868,30.8657211 37.6615868,33.6156766 C37.6615868,36.3656321 37.7013266,41.8053818 37.7808063,49.9349257 C37.2455989,50.399355 30.6230725,51 24.000546,51 C17.3780196,51 10.7554932,50.399355 10.2202858,49.9349257 Z"/><path id="d" d="M18.6190262,22.376658 C18.2944359,23.4529962 16.3958216,25.0159029 14.4231831,25.9942922 C12.4505446,26.9726814 10.8577734,27.3549392 9.64486949,27.1410656 L8.03296215,22.5745132 L8.03296215,20.7488164 C8.54285279,16.013945 8.43229882,12.9643632 7.70130024,11.6000712 C4.91310177,6.39634408 -0.5106986,5.31408402 0.0387938668,4.0329516 C0.804381897,2.24799601 1.9430581,0.903678809 3.45482246,0 C8.73550612,2.82848426 12.2127443,5.47767037 13.8865368,7.94755832 C15.5825673,10.450261 17.1600638,15.2599609 18.6190262,22.376658 Z"/><path id="f" d="M18.6190262,22.376658 C18.2944359,23.4529962 16.3958216,25.0159029 14.4231831,25.9942922 C12.4505446,26.9726814 10.8577734,27.3549392 9.64486949,27.1410656 L8.03296215,22.5745132 L8.03296215,20.7488164 C8.54285279,16.013945 8.43229882,12.9643632 7.70130024,11.6000712 C4.91310177,6.39634408 -0.5106986,5.31408402 0.0387938668,4.0329516 C0.804381897,2.24799601 1.9430581,0.903678809 3.45482246,0 C8.73550612,2.82848426 12.2127443,5.47767037 13.8865368,7.94755832 C15.5825673,10.450261 17.1600638,15.2599609 18.6190262,22.376658 Z"/><path id="g" d="M18.6190262,22.376658 C18.2944359,23.4529962 16.3958216,25.0159029 14.4231831,25.9942922 C12.4505446,26.9726814 10.8577734,27.3549392 9.64486949,27.1410656 L8.03296215,22.5745132 L8.03296215,20.7488164 C8.54285279,16.013945 8.43229882,12.9643632 7.70130024,11.6000712 C4.91310177,6.39634408 -0.5106986,5.31408402 0.0387938668,4.0329516 C0.804381897,2.24799601 1.9430581,0.903678809 3.45482246,0 C8.73550612,2.82848426 12.2127443,5.47767037 13.8865368,7.94755832 C15.5825673,10.450261 17.1600638,15.2599609 18.6190262,22.376658 Z"/><path id="i" d="M8.03232225,0.277149802 C12.2725866,0.277149802 15.71,2.62765487 15.71,5.5271498 C15.71,6.84158751 14.526614,8.30260757 12.1598418,9.91021 L11.7298919,10.1954262 C11.6561862,10.2432158 11.5814568,10.2911322 11.5057037,10.3391755 L11.0389009,10.6289565 C10.959053,10.6775069 10.8781815,10.7261841 10.7962862,10.7749882 L10.2926306,11.069334 C10.1206506,11.1679565 9.94457586,11.2670862 9.76440636,11.3667231 L9.21161356,11.6671555 C9.11743404,11.7174811 9.02223084,11.7679336 8.92600394,11.8185128 L8.33635829,12.12351 C8.23603664,12.1745965 8.13469129,12.2258097 8.03232225,12.2771498 L7.43039231,11.970631 C7.23384376,11.8689653 7.04138997,11.7678068 6.85303095,11.6671555 L6.30023815,11.3667231 C6.12006864,11.2670862 5.9439939,11.1679565 5.77201392,11.069334 L5.26835825,10.7749882 L4.78927116,10.4836856 C4.63367022,10.3870919 4.48216405,10.2910054 4.33475264,10.1954262 L3.90480268,9.91021 C1.53803055,8.30260757 0.35464448,6.84158751 0.35464448,5.5271498 C0.35464448,2.62765487 3.7920579,0.277149802 8.03232225,0.277149802 Z M8.03232225,1.7771498 C4.52608308,1.7771498 1.85464448,3.60388089 1.85464448,5.5271498 C1.85464448,6.15342844 2.53984324,7.03517057 3.93608102,8.09083258 L4.27092349,8.33749711 C4.32883816,8.37911004 4.38780759,8.42097098 4.44783328,8.46307528 L4.82067405,8.71858426 C4.88493059,8.76164344 4.95024631,8.80493669 5.01662268,8.84845939 L5.42762054,9.11231176 L5.86414467,9.38144801 C5.9390298,9.42673201 6.01498146,9.47222689 6.09200113,9.51792801 L6.56694698,9.79457254 L7.06759552,10.0759442 L7.59401731,10.3618204 L8.03242141,10.5918998 L8.47076655,10.3617459 L8.99744706,10.0757243 C9.08307519,10.0284236 9.16762833,9.98131085 9.25110795,9.93439058 L9.73911519,9.65521655 C9.89749803,9.56295345 10.0515986,9.47149767 10.2014286,9.38088636 L10.6381188,9.11162306 L11.0492566,8.84764969 C11.1156541,8.80410735 11.1809899,8.76079471 11.2452654,8.71771643 L11.618207,8.46209615 L11.9657728,8.2123234 L12.2880335,7.96862123 L12.5850598,7.73121266 C13.6279794,6.87252547 14.1634303,6.14525744 14.2070915,5.59888643 L14.21,5.5271498 C14.21,3.60388089 11.5385614,1.7771498 8.03232225,1.7771498 Z"/><polygon id="k" points="1.845 1.943 3.566 .402 12.716 0 14.614 2.109 16.459 6.994 0 6.994"/><filter id="c" width="140.9%" height="128.3%" x="-20.5%" y="-14.1%" filterUnits="objectBoundingBox"><feGaussianBlur in="SourceGraphic" stdDeviation="2"/></filter></defs><g fill="none" fill-rule="evenodd" transform="translate(0 .5)"><mask id="b" fill="#fff"><use xlink:href="#a"/></mask><use xlink:href="#a" fill="#FFF" fill-rule="nonzero"/><g mask="url(#b)"><g transform="translate(9.184 3.542)"><polygon fill="#E40F2E" points="9.81 .001 14.798 .001 14.798 48.459 9.81 48.459"/><polygon fill="#273EA9" points="14.797 0 19.785 0 19.785 48.458 14.797 48.458"/><polygon fill="#FFF" points="0 16.364 29.319 16.364 29.319 58.835 0 58.835" filter="url(#c)"/></g></g><g fill="#000" fill-rule="nonzero" mask="url(#b)" opacity=".052"><g transform="translate(7.786)"><polygon points="8.209 0 8.323 0 8.289 51.2 8.175 51.2"/><polygon points="7.072 0 7.185 0 7.151 51.2 7.037 51.2"/><polygon points="5.934 0 6.048 0 6.013 51.2 5.899 51.2"/><polygon points="4.796 0 4.91 0 4.875 51.2 4.762 51.2"/><polygon points="3.658 0 3.772 0 3.738 51.2 3.624 51.2"/><polygon points="2.52 0 2.634 0 2.6 51.2 2.486 51.2"/><polygon points="1.383 0 1.496 0 1.462 51.2 1.348 51.2"/><polygon points=".245 0 .358 0 .324 51.2 .21 51.2"/><polygon points="9.347 0 9.461 0 9.427 51.2 9.313 51.2"/><polygon points="10.485 0 10.599 0 10.565 51.2 10.451 51.2"/><polygon points="11.623 0 11.737 0 11.702 51.2 11.589 51.2"/><polygon points="12.761 0 12.874 0 12.84 51.2 12.726 51.2"/><polygon points="13.898 0 14.012 0 13.978 51.2 13.864 51.2"/><polygon points="15.036 0 15.15 0 15.116 51.2 15.002 51.2"/><polygon points="16.174 0 16.288 0 16.254 51.2 16.14 51.2"/><polygon points="24.139 .047 24.253 .047 24.218 51.247 24.104 51.247"/><polygon points="23.001 .047 23.115 .047 23.08 51.247 22.967 51.247"/><polygon points="21.863 .047 21.977 .047 21.943 51.247 21.829 51.247"/><polygon points="20.725 .047 20.839 .047 20.805 51.247 20.691 51.247"/><polygon points="19.588 .047 19.701 .047 19.667 51.247 19.553 51.247"/><polygon points="18.45 .047 18.564 .047 18.529 51.247 18.415 51.247"/><polygon points="17.312 .047 17.426 .047 17.391 51.247 17.278 51.247"/><polygon points="25.277 .047 25.39 .047 25.356 51.247 25.242 51.247"/><polygon points="26.414 .047 26.528 .047 26.494 51.247 26.38 51.247"/><polygon points="27.552 .047 27.666 .047 27.632 51.247 27.518 51.247"/><polygon points="28.69 .047 28.804 .047 28.77 51.247 28.656 51.247"/><polygon points="29.828 .047 29.942 .047 29.907 51.247 29.794 51.247"/><polygon points="30.966 .047 31.079 .047 31.045 51.247 30.931 51.247"/><polygon points="32.103 .047 32.217 .047 32.183 51.247 32.069 51.247"/></g></g><g mask="url(#b)"><g transform="translate(9.497 18.861)"><path fill="#FFF" d="M.0564519594 0 1.05645196 2.88304371C1.48578114 4.56652922 1.77659615 7.38649748 1.92889701 11.3429485L1.96278974 12.3143172C2.10333941 16.7836685 1.83575475 23.219894 1.16003577 31.6229937L0 31.7037578.0564519594 0ZM28.4351554 0 27.4351554 2.88304371C26.9714799 4.70120806 26.6693673 7.84496589 26.5288176 12.3143172L26.5082514 13.1234436C26.4211607 17.5476773 26.6956008 23.714194 27.3315716 31.6229937L28.4916073 31.7037578 28.4351554 0Z" transform="translate(.257)"/><path fill="#273EA9" fill-rule="nonzero" d="M27.7005501,2.94490665 C26.9572288,4.79924625 26.5589238,7.75063345 26.5056352,11.7990682 L26.5008967,12.2901462 C26.4741819,16.5917926 26.814404,23.0836175 27.5215631,31.7656208 L29.0051642,31.6878686 C28.2147152,29.2300867 27.6461961,24.8801959 27.2996067,18.638196 L27.2687099,18.0655291 C26.9254757,11.5162295 27.0694224,6.47602195 27.7005501,2.94490665 Z"/><path fill="#E40F2E" fill-rule="nonzero" d="M1.30461414,2.94490665 C2.04793544,4.79924625 2.44624034,7.75063345 2.49952894,11.7990682 L2.50426744,12.2901462 C2.53098224,16.5917926 2.19076014,23.0836175 1.48360114,31.7656208 L0,31.6878686 C0.79044894,29.2300867 1.35896814,24.8801959 1.70555754,18.638196 L1.73645424,18.0655291 C2.07968854,11.5162295 1.93574184,6.47602195 1.30461414,2.94490665 Z"/></g></g><g mask="url(#b)"><g transform="translate(-1 -.928)"><g transform="translate(30.987 .07)"><g transform="translate(.15 .419)"><mask id="e" fill="#fff"><use xlink:href="#d"/></mask><use xlink:href="#d" fill="#FFF"/><g fill-rule="nonzero" mask="url(#e)"><g transform="translate(5.927 10.018)"><path fill="#F7F7F7" d="M0,3.22570003 L0.76241363,0 C2.97696764,3.35634058 4.46257925,6.05042884 5.21924846,8.08226478 L5.55825194,9.0070768 C6.26569229,10.9647512 7.14973285,13.570728 8.21037364,16.8250071 L0,16.8250071 L0,3.22570003 Z"/><path fill="#000" d="M0.76241363,0 C2.97696764,3.35634058 4.46257925,6.05042884 5.21924846,8.08226478 C5.97591766,10.1141007 6.97295939,13.0283481 8.21037364,16.8250071 L0,16.8250071 L0,3.22570003 L0.76241363,0 Z M0.893,0.748 L0.3,3.256 L0.3,16.525 L7.797,16.525 L7.75017052,16.3821078 C6.65238381,13.0263264 5.75141409,10.3928776 5.04760069,8.48257879 L4.93811073,8.18696234 C4.2558167,6.35484135 2.96627874,3.96460084 1.07023795,1.02122987 L0.893,0.748 Z" opacity=".201"/></g></g></g><path fill="#000" fill-rule="nonzero" d="M3.67580554,0 C8.97603813,2.86857094 12.4704655,5.55862554 14.1608683,8.07904539 C15.8710019,10.628884 17.4534563,15.5040325 18.9161289,22.7132567 L18.9127967,22.787456 C18.5832556,23.8916105 16.7186932,25.4930997 14.6399913,26.5348495 C12.6413227,27.5364904 11.0192795,27.9298343 9.76898026,27.7070668 L9.65358141,27.6082537 L8.03312084,22.9436145 L8.03398311,21.0826441 C8.54061748,16.3289323 8.4308026,13.2681377 7.71924209,11.92627 C6.95244508,10.4802367 5.94304819,9.26499796 4.6989104,8.1862124 C4.17514661,7.73205948 3.62353504,7.31306292 3.00207498,6.8859223 C2.75854779,6.71854171 2.51154228,6.55465907 2.21894305,6.36500783 C2.08111653,6.27567413 1.60952171,5.97277505 1.51476818,5.91141244 C0.377324614,5.1748012 -0.0059801259,4.83149414 7.03468269e-05,4.3844187 C0.00132162481,4.30465264 0.0183774886,4.2259674 0.05109779,4.14888476 C0.828831709,2.31669533 1.98838275,0.933452477 3.52801854,0.00351222723 L3.67580554,0 Z M3.60915869,0.308410818 L3.40800354,0.436875006 C2.05974893,1.32837612 1.03315934,2.60434582 0.326807337,4.26837338 C0.309321369,4.30956691 0.300733853,4.34918441 0.300174432,4.38866333 C0.294653895,4.7878702 4.03058526,7.20726851 4.89427902,7.95617297 C6.16510953,9.05810366 7.19822832,10.3019017 7.98367577,11.7831062 C8.73411241,13.1982869 8.84540547,16.3002818 8.33312084,21.0988722 L8.32456761,22.8931655 L9.90615869,27.4203197 L10.0325454,27.4393915 C11.1100198,27.5630702 12.4893395,27.2281469 14.167151,26.4292535 L14.5066922,26.263287 C16.5172933,25.2556662 18.3266129,23.7016254 18.6255731,22.6999346 L18.6141587,22.7319157 L18.5039907,22.1976694 C17.121409,15.5317733 15.634069,10.9492617 14.0486554,8.45755422 L13.9125228,8.24909981 C12.2553405,5.77821247 8.79529148,3.11462273 3.53415676,0.267212196 L3.60915869,0.308410818 Z" opacity=".201"/><path fill="#FFF" fill-rule="nonzero" d="M9.01283804,24.9070948 C10.7986736,24.6633738 12.4142627,24.1732938 13.8596054,23.4368549 C15.3049481,22.700416 16.5800443,21.7176183 17.6848941,20.4884616 L18.8388082,22.9829524 L10.1667522,27.4015856 L9.01283804,24.9070948 Z"/><path fill="#000" fill-rule="nonzero" d="M17.5733372,20.3881867 L17.7254817,20.2189244 L18.9749479,22.9199762 L18.9069068,23.1166033 L10.2348508,27.5352366 L10.0306126,27.4645617 L8.79150838,24.7859103 L8.99255487,24.7584725 C10.7621484,24.5169681 12.3615735,24.0317914 13.7915084,23.3032039 C15.2203576,22.5751681 16.4807429,21.603709 17.5733372,20.3881867 Z M9.23213492,25.0254344 L10.2365446,27.1971441 L18.6414092,22.9146517 L17.6424474,20.7536341 L17.4875045,20.9215141 C16.5478227,21.9013488 15.4925715,22.7146899 14.3221205,23.3611868 L13.927704,23.5705059 C12.5997476,24.2471334 11.130468,24.7177221 9.52037348,24.9824684 L9.23213492,25.0254344 Z" opacity=".201"/></g><g transform="matrix(-1 0 0 1 19.013 0)"><use xlink:href="#f" fill="#FFF" transform="translate(.15 .132)"/><g transform="translate(.15 .132)"><mask id="h" fill="#fff"><use xlink:href="#g"/></mask><g fill-rule="nonzero" mask="url(#h)"><g transform="translate(5.906 10.374)"><path fill="#F7F7F7" d="M0,3.22570003 L0.76241363,0 C2.97696764,3.35634058 4.46257925,6.05042884 5.21924846,8.08226478 L5.55825194,9.0070768 C6.26569229,10.9647512 7.14973285,13.570728 8.21037364,16.8250071 L0,16.8250071 L0,3.22570003 Z"/><path fill="#000" d="M0.76241363,0 C2.97696764,3.35634058 4.46257925,6.05042884 5.21924846,8.08226478 C5.97591766,10.1141007 6.97295939,13.0283481 8.21037364,16.8250071 L0,16.8250071 L0,3.22570003 L0.76241363,0 Z M0.893,0.748 L0.3,3.256 L0.3,16.525 L7.797,16.525 L7.75017052,16.3821078 C6.65238381,13.0263264 5.75141409,10.3928776 5.04760069,8.48257879 L4.93811073,8.18696234 C4.2558167,6.35484135 2.96627874,3.96460084 1.07023795,1.02122987 L0.893,0.748 Z" opacity=".207"/></g></g></g><path fill="#000" fill-rule="nonzero" d="M3.67580554,0 C8.97603813,2.83895523 12.4704655,5.50123715 14.1608683,7.99563567 C15.8710019,10.5191492 17.4534563,15.3439657 18.9161289,22.4787604 L18.9127967,22.5521936 C18.5832556,23.6449486 16.7186932,25.2299037 14.6399913,26.2608983 C12.6413227,27.252198 11.0192795,27.641481 9.76898026,27.4210134 L9.65358141,27.3232204 L8.03312084,22.7067399 L8.03398311,20.8649826 C8.54061748,16.1603491 8.4308026,13.1311547 7.71924209,11.8031407 C6.95244508,10.3720366 5.94304819,9.16934422 4.6989104,8.10169626 C4.17514661,7.65223211 3.62353504,7.23756136 3.00207498,6.81483063 C2.75854779,6.64917811 2.51154228,6.48698743 2.21894305,6.29929418 C2.08111653,6.21088278 1.60952171,5.9111109 1.51476818,5.85038181 C0.377324614,5.12137549 -0.0059801259,4.7816128 7.03468268e-05,4.33915306 C0.00132162481,4.26021052 0.0183774886,4.18233765 0.05109779,4.10605082 C0.828831709,2.29277729 1.98838275,0.923815322 3.52801854,0.00347596628 L3.67580554,0 Z M3.60915869,0.305226721 L3.40800354,0.432364619 C2.05974893,1.31466169 1.03315934,2.57745802 0.326807337,4.22430582 C0.309321369,4.26507406 0.300733853,4.30428254 0.300174432,4.34335387 C0.294653895,4.73843925 4.03058526,7.13285919 4.89427902,7.87403181 C6.16510953,8.96458594 7.19822832,10.1955428 7.98367577,11.661455 C8.73411241,13.0620251 8.84540547,16.1319943 8.33312084,20.8810431 L8.32456761,22.6568118 L9.90615869,27.1372267 L10.0325454,27.1561016 C11.1100198,27.2785034 12.4893395,26.9470379 14.167151,26.1563925 L14.5066922,25.9921394 C16.5172933,24.9949215 18.3266129,23.456925 18.6255731,22.4655758 L18.6141587,22.4972267 L18.5039907,21.9684961 C17.121409,15.3714201 15.634069,10.8362193 14.0486554,8.3702367 L13.9125228,8.16393441 C12.2553405,5.71855702 8.79529148,3.08246673 3.53415676,0.264453442 L3.60915869,0.305226721 Z" opacity=".207"/><path fill="#FFF" fill-rule="nonzero" d="M9.1868679,24.9769108 C10.9727035,24.7331897 12.5882926,24.2431097 14.0336353,23.5066708 C15.4789779,22.770232 16.7540741,21.7874342 17.8589239,20.5582775 L19.0128381,23.0527683 L10.3407821,27.4714015 L9.1868679,24.9769108 Z"/><path fill="#000" fill-rule="nonzero" d="M17.6112275,20.5259457 L17.7633719,20.3566834 L19.0128381,23.0577352 L18.9447971,23.2543624 L10.2727411,27.6729956 L10.0685028,27.6023208 L8.82939864,24.9236693 L9.03044514,24.8962316 C10.8000386,24.6547271 12.3994637,24.1695504 13.8293986,23.440963 C15.2582479,22.7129271 16.5186332,21.741468 17.6112275,20.5259457 Z M9.27002518,25.1631934 L10.2744349,27.3349032 L18.6792995,23.0524108 L17.6803377,20.8913931 L17.5253948,21.0592731 C16.5857129,22.0391079 15.5304618,22.8524489 14.3600107,23.4989458 L13.9655942,23.7082649 C12.6376379,24.3848925 11.1683583,24.8554811 9.55826375,25.1202274 L9.27002518,25.1631934 Z" opacity=".207"/></g></g></g><g fill="#273EA9" fill-rule="nonzero" mask="url(#b)"><g transform="translate(29.753)"><path d="M13.4153366,11.9807621 L13.808356,11.5429966 L13.4770624,10.8920266 C12.0682647,8.1571874 11.0079679,6.5407543 10.2961717,6.04272722 L10.2155879,5.99022589 C9.45156233,5.53069207 6.11793779,3.98898065 0.214714271,1.36509164 L-3.55271368e-15,1.85682055 L3.01359124,3.16735539 C7.26038215,5.03224763 9.66104771,6.17788005 10.2155879,6.60425265 C10.8900287,7.12281392 11.9566116,8.91498375 13.4153366,11.9807621 Z"/><path d="M0.810869108,0.765572779 L0.596154837,1.25730169 L3.26136611,2.41505288 C7.72542277,4.3702773 10.242215,5.5668376 10.8117427,6.00473379 C11.4861836,6.52329506 12.5527664,8.31546489 14.0114915,11.3812433 L14.4045108,10.9434778 L14.0732172,10.2925077 C12.6644196,7.55766854 11.6041227,5.94123544 10.8923265,5.44320836 L10.8117427,5.39070703 C10.3429089,5.10872037 8.90649357,4.41924018 6.50249682,3.32226646 L3.3171829,1.88371946 C2.54073484,1.53584729 1.70529692,1.16313172 0.810869108,0.765572779 Z M1.14515777,0 L0.9304435,0.491728914 L3.63689001,1.67138817 C4.88560914,2.21949072 5.9775721,2.70500264 6.91277889,3.12792394 L7.97775385,3.61366123 C9.59271291,4.35750429 10.5806473,4.85098487 10.9415569,5.09410295 C11.6767433,5.58934349 12.2604125,6.19142919 12.6925646,6.90036007 L12.8776431,6.48585961 C12.3438901,5.51050501 11.731757,4.86610415 11.0412439,4.55265704 L1.14515777,0 Z"/></g></g><g fill="#273EA9" fill-rule="nonzero" mask="url(#b)"><g transform="translate(3.46)"><path d="M14.0114915,11.9807621 L14.4045108,11.5429966 L14.0732172,10.8920266 C12.6644196,8.1571874 11.6041227,6.5407543 10.8923265,6.04272722 L10.8117427,5.99022589 C10.0477172,5.53069207 6.71409262,3.98898065 0.810869102,1.36509164 L0.596154831,1.85682055 L3.60974607,3.16735539 C7.85653698,5.03224763 10.2572025,6.17788005 10.8117427,6.60425265 C11.4861836,7.12281392 12.5527664,8.91498375 14.0114915,11.9807621 Z" transform="matrix(-1 0 0 1 15 0)"/><path d="M0.214714271,0.765572779 L-8.8817842e-16,1.25730169 L2.66521127,2.41505288 C7.12926793,4.3702773 9.64606015,5.5668376 10.2155879,6.00473379 C10.8900287,6.52329506 11.9566116,8.31546489 13.4153366,11.3812433 L13.808356,10.9434778 L13.4770624,10.2925077 C12.0682647,7.55766854 11.0079679,5.94123544 10.2961717,5.44320836 L10.2155879,5.39070703 C9.74675406,5.10872037 8.31033873,4.41924018 5.90634198,3.32226646 L2.72102806,1.88371946 C1.94458,1.53584729 1.10914208,1.16313172 0.214714271,0.765572779 Z M0.549002935,0 L0.334288663,0.491728914 L3.04073517,1.67138817 C4.2894543,2.21949072 5.38141726,2.70500264 6.31662405,3.12792394 L7.38159902,3.61366123 C8.99655808,4.35750429 9.98449241,4.85098487 10.3454021,5.09410295 C11.0805885,5.58934349 11.6642577,6.19142919 12.0964098,6.90036007 L12.2814883,6.48585961 C11.7477353,5.51050501 11.1356022,4.86610415 10.4450891,4.55265704 L0.549002935,0 Z" transform="matrix(-1 0 0 1 13.808 0)"/></g></g><g mask="url(#b)"><g transform="translate(15.968 -4.678)"><path fill="#D1D1D1" d="M1.28232225,6.17787364 L14.7823223,6.17787364 C12.2184134,9.40114024 9.96841336,11.0127735 8.03232225,11.0127735 C6.09623115,11.0127735 3.84623115,9.40114024 1.28232225,6.17787364 Z"/><path fill="#E2E2E2" d="M0.329532945,4.55889139 L15.7351116,4.55889139 L15.7351116,6.05889139 C13.1675151,6.77908203 10.5999187,7.13917735 8.03232225,7.13917735 C5.46472582,7.13917735 2.89712938,6.77908203 0.329532945,6.05889139 L0.329532945,4.55889139 Z"/><path fill="#207254" d="M0.35464448,2.78773066 L15.7602231,2.78773066 L15.7602231,4.28773066 C13.1926267,5.0079213 10.6250302,5.36801662 8.05743379,5.36801662 C5.48983735,5.36801662 2.92224092,5.0079213 0.35464448,4.28773066 L0.35464448,2.78773066 Z"/><path fill="#000" fill-rule="nonzero" d="M8.03232225,0 C12.4684513,0 16.0646445,2.45907873 16.0646445,5.49250608 C16.0646445,6.86765981 14.8265959,8.39616678 12.3504987,10.078027 L11.9006886,10.3764177 C11.8235784,10.4264149 11.7453971,10.4765446 11.6661448,10.5268071 L11.1777796,10.8299735 C11.0942435,10.8807666 11.0096364,10.9316923 10.9239583,10.9827507 L10.3970379,11.2906929 C10.2171139,11.3938709 10.032906,11.4975795 9.84441415,11.6018188 L9.26608695,11.9161286 C9.16755713,11.9687789 9.06795633,12.0215618 8.96728456,12.0744774 L8.35040221,12.3935629 C8.24544654,12.4470092 8.13941988,12.5005881 8.03232225,12.5542996 L7.40258819,12.2336222 C7.19696074,12.1272604 6.99561719,12.0214292 6.79855755,11.9161286 L6.22023035,11.6018188 C6.03173852,11.4975795 5.8475306,11.3938709 5.66760658,11.2906929 L5.14068624,10.9827507 L4.63946933,10.6779923 C4.47668093,10.5769368 4.31817644,10.476412 4.16395586,10.3764177 L3.71414581,10.078027 C1.2380486,8.39616678 0,6.86765981 0,5.49250608 C0,2.45907873 3.59619317,0 8.03232225,0 Z M8.03232225,1.56928745 C4.36412416,1.56928745 1.56928745,3.48039823 1.56928745,5.49250608 C1.56928745,6.14771355 2.28613666,7.07018479 3.74686894,8.17460955 L4.09717834,8.43266791 C4.15776817,8.47620302 4.21946151,8.51999758 4.28225987,8.56404675 L4.67232277,8.8313581 C4.73954743,8.87640626 4.80788019,8.9216993 4.87732259,8.96723238 L5.30730511,9.24327252 L5.763993,9.52484062 C5.8423372,9.57221636 5.9217972,9.61981272 6.00237453,9.66762485 L6.4992589,9.95704805 L7.02303321,10.2514167 L7.57377129,10.550498 L8.03242599,10.7912052 L8.49101901,10.5504201 L9.04202775,10.2511867 C9.13161119,10.2017011 9.22006998,10.1524121 9.30740566,10.1033245 L9.81795474,9.81125497 C9.98365355,9.71473009 10.1448722,9.61904981 10.3016232,9.52425302 L10.7584848,9.24255201 L11.1886137,8.96638528 C11.2580783,8.92083165 11.326432,8.87551833 11.3936765,8.83045019 L11.7838449,8.56302239 L12.1474653,8.30171223 L12.4846117,8.04675305 L12.7953582,7.7983782 C13.886452,6.90002685 14.4466362,6.13916511 14.4923142,5.56755634 L14.4953571,5.49250608 C14.4953571,3.48039823 11.7005203,1.56928745 8.03232225,1.56928745 Z" opacity=".202"/><mask id="j" fill="#fff"><use xlink:href="#i"/></mask><use xlink:href="#i" fill="#FFF" fill-rule="nonzero"/><path fill="#273EA9" fill-rule="nonzero" d="M8.05743381,0.57802875 C4.21300135,0.57802875 0.979756036,2.63789931 0.979756036,5.22802875 C0.979756036,7.81815819 4.21300135,9.87802875 8.05743381,9.87802875 C11.9018662,9.87802875 15.1351115,7.81815819 15.1351115,5.22802875 C15.1351115,2.63789931 11.9018662,0.57802875 8.05743381,0.57802875 Z M8.05743381,0.87802875 C11.7316743,0.87802875 14.8351115,2.82319537 14.8351115,5.22802875 C14.8351115,7.63286213 11.7316743,9.57802875 8.05743381,9.57802875 C4.38319327,9.57802875 1.27975604,7.63286213 1.27975604,5.22802875 C1.27975604,2.82319537 4.38319327,0.87802875 8.05743381,0.87802875 Z" mask="url(#j)"/><g mask="url(#j)"><g transform="translate(-.197 6.277)"><mask id="l" fill="#fff"><use xlink:href="#k"/></mask><use xlink:href="#k" fill="#FFF"/><polygon fill="#E40F2E" points="-.599 -2.098 8.212 -2.098 8.212 54.444 -.599 54.444" mask="url(#l)"/><polygon fill="#273EA9" points="8.209 -2.099 17.02 -2.099 17.02 54.443 8.209 54.443" mask="url(#l)"/></g></g></g></g></g></svg>