<svg viewBox="0 0 48 52" xmlns="http://www.w3.org/2000/svg" xmlns:xlink="http://www.w3.org/1999/xlink" title="River Plate Home Kit 24/25">
                        <defs>
                            <path id="kit" d="M10.22 50.435c.079-8.326.118-13.766.118-16.32 0-2.553-.161-6.661-.484-12.324l-1.63 3.825c-1.213.21-2.806-.165-4.778-1.125-1.92-.933-3.059-1.912-3.418-2.937L0 21.469 4.725 9.66c.809-2.154 1.936-3.546 3.381-4.176l8.278-3.621c.72-.393 3.26-.588 7.617-.586 4.357.003 6.894.198 7.613.586l8.162 3.572c1.502.604 2.669 2.013 3.499 4.225L48 21.47c-.325 1.055-1.473 2.063-3.446 3.022-1.972.96-3.565 1.335-4.778 1.125l-1.63-3.825c-.323 5.467-.484 9.575-.484 12.325s.04 8.19.119 16.319c-.535.464-7.158 1.065-13.78 1.065-6.623 0-13.246-.6-13.78-1.065Z"></path>
                            
                        </defs>
                        <mask id="kitMask" fill="#fff">
                            <use xlink:href="#kit"></use>
                        </mask>
                        <g fill="none" fill-rule="evenodd">
                            
            <path fill="#fafafa" d="M10.22 50.435c.079-8.326.118-13.766.118-16.32 0-2.553-.161-6.661-.484-12.324l-1.63 3.825c-1.213.21-2.806-.165-4.778-1.125-1.92-.933-3.059-1.912-3.418-2.937L0 21.469 4.725 9.66c.809-2.154 1.936-3.546 3.381-4.176l8.278-3.621c.72-.393 3.26-.588 7.617-.586 4.357.003 6.894.198 7.613.586l8.162 3.572c1.502.604 2.669 2.013 3.499 4.225L48 21.47c-.325 1.055-1.473 2.063-3.446 3.022-1.972.96-3.565 1.335-4.778 1.125l-1.63-3.825c-.323 5.467-.484 9.575-.484 12.325s.04 8.19.119 16.319c-.535.464-7.158 1.065-13.78 1.065-6.623 0-13.246-.6-13.78-1.065Z" coloured="" opacity="1" mask="url(#kitMask)" id="base"></path><path fill="#d61525" fill-rule="evenodd" d="M38.1213779,4.71062044 L39.7758433,5.4345938 C39.8786906,5.47599242 39.9799627,5.52115704 40.0796596,5.57008764 L39.9768771,6.00329659 L39.8705431,6.50103593 L39.7661836,7.02453169 L39.6637981,7.573786 L39.5573779,8.18462044 L10.2313779,49.2533634 L10.2798943,43.7968939 L38.1213779,4.71062044 Z" coloured="" opacity="1" mask="url(#kitMask)" id="angled-stripe-06"></path><path fill="#d61525" fill-rule="evenodd" d="M39.6590051,7.09706511 L39.5623417,7.73045301 L39.4135323,8.79045305 L39.3169522,9.5310136 L39.2224722,10.2986919 L39.1322858,11.0880876 L39.0722858,11.5580876 L11.2680445,50.7320075 C10.6970784,50.6314906 10.330234,50.5303339 10.2202858,50.4349257 L10.2388833,48.4429079 L39.6590051,7.09706511 Z M36.2842858,3.90708764 L38.1792858,4.73608764 L10.3393821,44.4956932 L10.3697629,40.9143772 L36.2842858,3.90708764 Z" coloured="" opacity="1" mask="url(#kitMask)" id="angled-stripe-05"></path><path fill="#fafafa" fill-rule="evenodd" d="M30.2990606,-0.5 L31.6139292,0.86290579 L31.677,0.89 L31.5968671,0.912541872 C31.5316206,1.17861032 31.4207871,1.45032548 31.2643667,1.72768735 C31.4081345,1.76984334 31.5249726,1.81489928 31.6139292,1.86290579 L39.7758433,5.4345938 C41.2783083,6.03937373 42.4446058,7.44786812 43.274736,9.66007698 L48,21.4685118 C47.6754097,22.5241513 46.5267953,23.531758 44.5541569,24.4913321 C42.5815184,25.4509062 40.9887472,25.8258129 39.7758433,25.6160522 L38.1463424,21.7912482 C38.1098249,22.4089307 38.0753706,23.0092712 38.0429795,23.5922698 L38.0894472,52.1208952 L9.68043146,52.1208952 L9.74115765,22.4121434 L9.716,22.113 L9.85365765,21.7912482 C10.1656842,27.2587363 10.3270772,31.2769778 10.3378368,33.8459728 L10.3384132,34.1156766 L10.3381798,34.4732508 C10.3348353,37.1584412 10.2955373,42.4789995 10.2202858,50.4349257 C10.7554932,50.899355 17.3780196,51.5 24.000546,51.5 L24.3617382,51.4994087 C30.8618793,51.4782034 37.25533,50.8909108 37.7808063,50.4349257 C37.7050234,42.6835002 37.6653695,37.3774743 37.6618447,34.5168481 L37.6615868,34.1156766 C37.6615868,31.6764597 37.7887177,28.1686574 38.0429795,23.5922698 L38.0412513,22.4121434 L38.782409,13.6152189 C37.3203415,10.0358496 36.1754379,7.95538028 35.3476983,7.37381095 C34.9916182,7.12362931 34.0134552,6.59738337 32.4132093,5.79507313 L31.8871899,5.53253535 C31.4316081,5.30610666 30.9329458,5.06055993 30.391203,4.79589519 C29.9520795,4.60376416 29.4334797,4.41221854 28.8354036,4.22125832 C30.0116769,3.34509006 30.8210809,2.51371374 31.2643667,1.72768735 C30.2391395,1.42973018 27.818193,1.27952695 24.0005758,1.27712829 L23.5974326,1.27747024 C19.9880317,1.28583027 17.6939626,1.43729579 16.7152251,1.7318668 C17.1567028,2.51070685 17.9571946,3.33473644 19.117579,4.20334481 C18.4754482,4.40037373 17.9005104,4.59782338 17.391206,4.79589519 C14.233056,6.41179955 12.5808909,7.2711048 12.4347107,7.37381095 C11.6069711,7.95538028 10.4620675,10.0358496 9,13.6152189 L9.716,22.113 L8.2241567,25.6160522 C7.01125281,25.8258129 5.41848163,25.4509062 3.44584315,24.4913321 C1.52651922,23.5576924 0.387279465,22.5785814 0.0281238815,21.553999 L1.13686838e-13,21.4685118 L4.72526396,9.66007698 C5.53354862,7.50608415 6.66054046,6.1140616 8.10623945,5.48400935 L16.3835008,1.86290579 C16.4686956,1.81646483 16.5792703,1.77278517 16.7152251,1.7318668 C16.5556716,1.44744094 16.442956,1.16953631 16.3779567,0.897542151 L16.3325465,0.885881383 L16.3835008,0.86290579 L17.7009394,-0.5 C20.0542672,0.0215379365 22.154146,0.282865363 24.0005758,0.283982281 C25.8380118,0.285093757 27.9375067,0.0237663306 30.2990606,-0.5 Z" coloured="" opacity="1" mask="url(#kitMask)" id="shoulder-01"></path><path fill="#d61525" fill-rule="evenodd" d="M27.8468773,1.34811354 L27.8475113,2.625 L37.8481187,6.49657709 C38.876274,6.8945795 39.7895154,7.53834763 40.5089967,8.36970633 L40.7003557,8.60104782 C41.3356848,9.40495347 41.8582788,10.2910078 42.254246,11.2345869 L42.4161531,11.6424281 L46.7300021,23.1558009 C46.5765555,23.281455 46.4101802,23.4063554 46.2308759,23.5305022 L41.8542955,11.8529418 C41.465252,10.8145908 40.9171472,9.84303374 40.229616,8.97307489 C39.5503173,8.11353303 38.653204,7.45161445 37.631519,7.0561167 L27.2475113,3.0364322 L27.2471258,1.32519223 L27.8468773,1.34811354 Z M20.4504615,1.33262621 L20.45,3.0364322 L10.0659923,7.0561167 C9.04430721,7.45161445 8.14719392,8.11353303 7.46789528,8.97307489 C6.78036407,9.84303374 6.23225927,10.8145908 5.84321577,11.8529418 L1.530625,23.3592482 C1.35314921,23.2269338 1.19019722,23.0937727 1.04176903,22.9597651 L5.28135813,11.6424281 L5.44326522,11.2345869 C5.83923246,10.2910078 6.36182643,9.40495347 6.99715558,8.60104782 L7.18851455,8.36970633 C7.90799587,7.53834763 8.82123726,6.8945795 9.8493926,6.49657709 L19.85,2.625 L19.8496534,1.35851621 L20.4504615,1.33262621 Z" coloured="" opacity="1" mask="url(#kitMask)" id="shoulder-04"></path><path fill="#fafafa" fill-rule="evenodd" d="M2.938,14.127 L9.564,17.952 L9.63958482,18.9050747 L9.71048124,19.8667554 L9.81314683,21.3576423 L9.84181434,21.8171378 L8.2241567,25.6160522 C7.01125281,25.8258129 5.41848163,25.4509062 3.44584315,24.4913321 C1.52651922,23.5576924 0.387279465,22.5785814 0.0281238815,21.553999 L4.26325641e-13,21.4685118 L2.938,14.127 Z M45.138,14.319 L48,21.4685118 C47.6754097,22.5241513 46.5267953,23.531758 44.5541569,24.4913321 C42.5815184,25.4509062 40.9887472,25.8258129 39.7758433,25.6160522 L38.1523424,21.8028102 L38.1503424,21.7912482 L38.1621857,21.8171378 L38.1908532,21.3576423 L38.2935188,19.8667554 L38.3644152,18.9050747 L38.42,18.197 L45.138,14.319 Z" coloured="" opacity="1" mask="url(#kitMask)" id="sleeve-10"></path><path fill="#d61525" fill-rule="evenodd" d="M37.1121664,21 L37.8315566,21.9756158 L37.8517637,27.3498565 L37.7638597,29.4666731 C37.6956778,31.302889 37.6615868,32.8525568 37.6615868,34.1156766 L37.6988891,41.2551604 C37.7184789,43.7928304 37.7457846,46.8527522 37.7808063,50.4349257 C37.6763327,50.5255833 37.339909,50.6214311 36.8168122,50.7169886 L36.7576098,50.5486127 L37.1121664,21 Z M10.8425347,21 L11.1970913,50.5486127 L11.1390775,50.7086437 C10.6417948,50.6158558 10.3217184,50.5229444 10.2202858,50.4349257 L10.3362459,35.3121588 L10.3384132,34.1156766 C10.3384132,32.4078199 10.2661325,30.0045498 10.121571,26.9058661 L10.1440819,21.9756158 L10.8425347,21 Z" coloured="" opacity="1" mask="url(#kitMask)" id="side-03"></path><g fill="none" fill-rule="evenodd" mask="url(#kitMask)" id="shoulder-02"><path fill="#d61525" fill-opacity=".5" d="M16.7161775,1.73138707 C16.7796549,1.84367345 16.850601,1.95688496 16.9290158,2.07102158 L17.7182455,3.8397491 L8.469,7.95711273 L8.3541902,7.31038844 L8.25105389,6.76962646 L8.19874728,6.50898072 L8.09265715,6.00715978 L7.98639107,5.53832989 L16.3835008,1.86290579 C16.4510987,1.82605717 16.5346749,1.79094697 16.6342294,1.75757517 L16.7161775,1.73138707 Z M31.6139292,1.86290579 L39.7758433,5.4345938 C39.8783466,5.47585397 39.9792853,5.52085497 40.0786593,5.56959682 L39.9768771,6.00329659 L39.8705431,6.50103593 L39.7661836,7.02453169 L39.6637981,7.573786 L39.6178375,7.83125604 L30.6502025,3.8397491 L31.5454936,1.82904728 L31.6139292,1.86290579 Z" coloured="" opacity="1"></path><path fill="#d61525" d="M17.0631247,2.25745554 C17.1699585,2.39964132 17.2881819,2.54323789 17.4177949,2.68824524 L8.26549606,6.76442476 L8.23626003,6.699 L8.19874728,6.50898072 L8.13926003,6.23 L17.0631247,2.25745554 Z M31.0046565,2.13516159 L39.9518375,6.11868989 L39.8388375,6.65768989 L30.6614178,2.57312771 C30.7456272,2.47481914 30.8245471,2.37716574 30.8981777,2.28016753 L31.0046565,2.13516159 Z M16.7167061,1.73232179 C16.7683279,1.82358125 16.8248827,1.91545173 16.8863705,2.00793325 L8.07526003,5.931 L7.98639107,5.53832989 L16.3835008,1.86290579 C16.4510987,1.82605717 16.5346749,1.79094697 16.6342294,1.75757517 L16.7167061,1.73232179 Z M31.6139292,1.86290579 L39.7758433,5.4345938 C39.8783466,5.47585397 39.9792853,5.52085497 40.0786593,5.56959682 L40.0188375,5.82068989 L31.1725237,1.88276573 L31.2643837,1.72765716 C31.4081129,1.76983501 31.5249643,1.81489484 31.6139292,1.86290579 Z" coloured="" opacity="1"></path></g><g fill="none" fill-rule="evenodd" id="collar-01"><path fill="#000" fill-opacity=".5" fill-rule="nonzero" d="M18.238247,2.35283543 C20.163611,2.75780245 22.0889751,2.96028596 24.0143391,2.96028596 C25.9197063,2.96028596 27.8250735,2.7619866 29.7327885,2.36402556 C29.365493,2.85303517 28.7638025,3.41538487 27.9226781,4.0351736 L27.5751123,4.28494635 L27.2021708,4.54056663 C27.0093442,4.66980148 26.8069753,4.80114551 26.5950242,4.93447326 L26.1583339,5.20373656 L25.6960205,5.47806675 L25.2080133,5.75724078 L24.9543524,5.89857453 L24.4276719,6.18459613 L23.9895277,6.41475 L23.5509227,6.18467057 L23.0245009,5.89879442 L22.5238523,5.61742274 L22.0489065,5.3407782 L21.3845259,4.93516196 L20.8747588,4.6061982 L20.4047386,4.28592548 C20.2246616,4.15961258 20.0540907,4.03548993 19.8929864,3.91368277 L19.5833879,3.67319292 C19.024329,3.22645731 18.5990639,2.81372292 18.3054743,2.44167362 Z"></path><path fill="#fafafa" fill-rule="nonzero" d="M30.2990606,0.5 L31.6139292,1.86290579 L31.677,1.89 L31.5968671,1.91254187 C31.2817972,3.19736396 29.9037112,4.61385855 27.462609,6.16202565 L26.8752667,6.52472742 L26.2495359,6.89218424 L25.7213117,7.18957333 L25.1685189,7.49000565 L24.5911575,7.79348121 L23.9892276,8.1 L23.3872977,7.79348121 L22.8099363,7.49000565 L22.2571435,7.18957333 L21.7289193,6.89218424 L20.982649,6.45180666 L20.5158462,6.16202565 C18.0652407,4.60783143 16.6859441,3.18633693 16.3779567,1.89754215 L16.3325465,1.88588138 L16.3835008,1.86290579 L17.7009394,0.5 C20.0542672,1.02153794 22.154146,1.28286536 24.0005758,1.28398228 C25.8380118,1.28509376 27.9375067,1.02376633 30.2990606,0.5 Z M18.238247,2.35283543 L18.3054743,2.44167362 C18.5990639,2.81372292 19.024329,3.22645731 19.5833879,3.67319292 L19.8929864,3.91368277 C20.0540907,4.03548993 20.2246616,4.15961258 20.4047386,4.28592548 L20.8747588,4.6061982 L21.3845259,4.93516196 L22.0489065,5.3407782 L22.5238523,5.61742274 L23.0245009,5.89879442 L23.5509227,6.18467057 L23.9895277,6.41475 L24.4276719,6.18459613 L24.9543524,5.89857453 L25.2080133,5.75724078 L25.6960205,5.47806675 L26.1583339,5.20373656 L26.5950242,4.93447326 C26.8069753,4.80114551 27.0093442,4.66980148 27.2021708,4.54056663 L27.5751123,4.28494635 L27.9226781,4.0351736 C28.7638025,3.41538487 29.365493,2.85303517 29.7327885,2.36402556 C27.8250735,2.7619866 25.9197063,2.96028596 24.0143391,2.96028596 C22.0889751,2.96028596 20.163611,2.75780245 18.238247,2.35283543 Z" coloured="" opacity="1"></path><path fill="#000" fill-rule="nonzero" d="M31.6099313,1.85660401 L31.9352964,2.00347579 C31.6044888,3.34029208 30.2693285,4.74866589 27.9546698,6.26147062 L27.647205,6.45938791 L27.1776439,6.75086362 L26.9297911,6.90001813 L26.4236478,7.19580417 L25.888442,7.49709157 L25.3334712,7.79869764 L25.0455332,7.95128498 L24.7499802,8.10537118 L23.9892276,8.49276672 L23.2264963,8.10435566 L22.642806,7.79752389 L22.0877628,7.49585781 L21.8179091,7.34528603 L21.5523197,7.19436399 L20.9223397,6.82437937 L20.3283934,6.45759538 C17.8309228,4.87367893 16.3931126,3.40330924 16.0448931,2.01047315 L16.3709838,1.86757863 C16.6523785,3.110265 17.9329877,4.47672095 20.2128113,5.9669465 L20.5158462,6.16202565 L20.982649,6.45180666 L21.7289193,6.89218424 L22.2571435,7.18957333 L22.8099363,7.49000565 L23.3872977,7.79348121 L23.9892276,8.1 L24.5911575,7.79348121 L25.1685189,7.49000565 L25.7213117,7.18957333 L26.2495359,6.89218424 L26.8752667,6.52472742 L27.462609,6.16202565 C29.9391905,4.59135729 31.3216312,3.15621674 31.6099313,1.85660401 Z M17.9611487,0.556 L18.308224,0.629969652 C18.2116884,0.864136497 18.1615498,1.10593377 18.1615498,1.35 C18.1615498,1.77150559 18.6460914,2.43939387 19.6008732,3.23582154 L19.7980952,3.39678602 L20.1040705,3.63449913 L20.3479118,3.81529135 L20.6025928,3.99721504 L21.1626103,4.37677965 L21.5682104,4.6372358 L22.2250678,5.03834279 L22.6953312,5.31230801 L23.1915301,5.59122128 L23.7135102,5.87472657 L23.989,6.019 L24.2606404,5.8770242 L24.9112332,5.52224729 L25.517413,5.17706947 L25.9746372,4.90581791 L26.4086626,4.63821431 L26.8126457,4.37887763 L27.0042943,4.25187143 L27.3708614,4.0007254 L27.7150557,3.75340612 C28.9831727,2.8189847 29.6915706,2.01522748 29.8011674,1.49616936 L29.8142842,1.40755758 L29.8169054,1.35 C29.8169054,1.10768131 29.7674822,0.867599189 29.6738247,0.633736444 L30.0147315,0.562064867 C30.0975255,0.771042451 30.146332,0.985760594 30.1616672,1.20227581 L30.1669054,1.35 L30.1639968,1.42173663 C30.115264,2.03157497 29.4538511,2.86677787 28.1579562,3.8585447 L27.9226781,4.0351736 L27.5751123,4.28494635 L27.2021708,4.54056663 L26.9057692,4.73598511 L26.5950242,4.93447326 L26.1583339,5.20373656 L25.6960205,5.47806675 L25.2080133,5.75724078 L24.9543524,5.89857453 L24.4276719,6.18459613 L23.9895277,6.41475 L23.5509227,6.18467057 L23.0245009,5.89879442 L22.5238523,5.61742274 L21.82105,5.20429821 L21.3845259,4.93516196 L20.8747588,4.6061982 L20.4047386,4.28592548 L20.1417477,4.09811447 L19.8929864,3.91368277 L19.5833879,3.67319292 C18.3953878,2.72387975 17.8115498,1.92810336 17.8115498,1.35 C17.8115498,1.14904674 17.8407144,0.949147398 17.8969485,0.75227558 L17.9611487,0.556 Z" opacity=".15"></path><path fill="#000" fill-rule="nonzero" d="M17.9519175,0.552973964 L17.7009394,0.5 C20.0542672,1.02153794 22.154146,1.28286536 24.0005758,1.28398228 C25.7613211,1.28504737 27.7627063,1.04512366 30.0047313,0.564211161 C30.0794678,0.756423882 30.1268257,0.952882311 30.1458336,1.1511793 L30.1553555,1.35 L30.152447,1.42173663 C30.1307541,1.69319992 29.9876589,2.00931907 29.7212386,2.36402556 C27.8147955,2.76185422 25.9087924,2.96028596 24.0027893,2.96028596 C22.0774253,2.96028596 20.1520612,2.75780245 18.2266972,2.35283543 C17.9408658,1.97044551 17.8,1.63396318 17.8,1.35 C17.8,1.08085348 17.852317,0.813597547 17.9519175,0.552973964 Z" opacity=".5"></path></g><path fill="#fafafa" d="M31.063812,11.6 L31.385152,11.602984 C32.0881153,11.6170432 32.5902101,11.6816347 33.0828954,11.8147304 L33.3584071,11.8962073 L33.6156629,11.9831126 L34.3027849,12.2411068 L34.399917,12.6144352 C34.7578905,14.1036212 34.6894945,15.4106176 34.1901022,16.5306227 C33.6407232,17.7627348 32.6229074,18.7394827 31.1448108,19.4597222 L30.9805586,19.4597222 C29.5022114,18.7394895 28.4842673,17.7627408 27.9348856,16.5306227 C27.4396549,15.419951 27.3682671,14.1253915 27.7162103,12.6516269 L27.8222029,12.2411068 L28.4590623,12.0018343 L28.683453,11.9243192 L28.9859901,11.8318626 C29.2045989,11.7707588 29.4236396,11.7230391 29.6591577,11.6871981 L30.0002649,11.6447286 L30.3582537,11.6176474 L30.6293297,11.6061574 C30.7645262,11.6020653 30.9090748,11.6 31.063812,11.6 Z" coloured="" opacity="1" mask="url(#kitMask)" id="badge-06"></path><path fill="#050101" d="M31.0713059,11.6 C31.9555171,11.6 32.5342363,11.6642145 33.1040233,11.8204815 L33.3584071,11.8962073 L33.6156629,11.9831126 L34.3027849,12.2411068 L34.399917,12.6144352 C34.7578905,14.1036212 34.6894945,15.4106176 34.1901022,16.5306227 C33.6407232,17.7627348 32.6229074,18.7394827 31.1448108,19.4597222 L30.9805586,19.4597222 C29.5022114,18.7394895 28.4842673,17.7627408 27.9348856,16.5306227 C27.4396549,15.419951 27.3682671,14.1253915 27.7162103,12.6516269 L27.8222029,12.2411068 L28.4590623,12.0018343 L28.683453,11.9243192 L28.9859901,11.8318626 C29.2045989,11.7707588 29.4236396,11.7230391 29.6591577,11.6871981 L30.0002649,11.6447286 L30.3495035,11.6180432 C30.5683621,11.6057706 30.8063638,11.6 31.0713059,11.6 Z M31.0713059,11.975 C30.1180043,11.975 29.5412462,12.0505466 28.9361328,12.2374084 L28.6593067,12.3286603 L28.1352439,12.5225 L28.0904382,12.6989197 C27.7711367,14.0248818 27.8073045,15.1841766 28.1951291,16.1807607 L28.2773817,16.3779092 C28.7545561,17.4480853 29.6166116,18.316075 30.8701821,18.9828103 L31.063,19.081 L31.2234373,18.9995818 C32.3229307,18.4207032 33.1243137,17.688568 33.6319931,16.8025548 L33.7527967,16.5778453 L33.8476061,16.3779092 C34.3074172,15.3466743 34.3740458,14.1336786 34.0429801,12.7342392 L33.9889939,12.5225 L33.4933084,12.3376404 L33.2446747,12.2535506 L33.0343069,12.190303 C32.4893534,12.0375582 31.9393634,11.975 31.0713059,11.975 Z" coloured="" opacity="1" mask="url(#kitMask)" id="badge-07"></path>
        
                            <path fill-opacity="0.15" fill="#000000" fill-rule="nonzero" d="m10.234 48.926-1.257-.15a120.817 120.817 0 0 0 28.788.145l.016 1.514a.67.67 0 0 1-.206.101l-.168.052-.21.052-.25.052-.288.053-.324.052-.752.103-.879.1-.734.072-.791.07-.845.064-1.197.079-1.267.07-.988.044-.674.025-1.376.041-.698.015-1.411.018L24 51.5l-1.076-.005-1.057-.015-1.046-.024-1.029-.032-1.006-.04-.656-.03-1.267-.069-1.197-.079-.844-.065-.792-.069-.734-.072-.878-.1-.577-.077-.5-.078-.288-.053-.25-.052-.21-.052-.168-.052a.67.67 0 0 1-.206-.101l.014-1.509Zm37.19-28.899.144.361a13.074 13.074 0 0 1-3.592 2.696c-1.314.67-2.769 1.136-4.364 1.398l-.3.045-.142-.331c1.555-.22 2.974-.632 4.258-1.234l.389-.19a12.714 12.714 0 0 0 3.426-2.55l.18-.195Zm-46.99.357.144-.361-.112-.121a12.762 12.762 0 0 0 3.724 2.87c1.383.706 2.93 1.18 4.64 1.423l-.142.331-.293-.044c-1.596-.262-3.05-.728-4.364-1.398a13.074 13.074 0 0 1-3.597-2.7ZM7.926 5.567l.101.436.106.498.105.524.102.549.1.575.1.6.143.95.14 1.008.09.703.089.73.129 1.143.125 1.2.08.833.08.859.114 1.336.11 1.394.07.962.103 1.49.029.46-.262.614-.03-.511-.1-1.478-.103-1.423-.107-1.366-.111-1.311-.116-1.256-.08-.806-.08-.781-.084-.756-.128-1.089-.088-.694-.09-.67-.091-.645-.093-.62-.096-.596-.097-.57-.099-.546-.1-.521-.103-.497-.13-.583.135-.075.137-.07Zm32.148 0c.092.045.183.094.273.145l-.079.344-.103.484-.102.51-.1.533-.098.558-.096.583-.095.608-.092.632-.09.658-.09.682-.129 1.07-.084.744-.123 1.162-.08.806-.115 1.256-.111 1.31-.107 1.367-.137 1.91-.098 1.497-.26-.61.097-1.459.105-1.452.073-.936.113-1.355.078-.872.12-1.258.083-.807.085-.782.086-.755.134-1.085.091-.69.094-.666.095-.64.098-.613.15-.872.102-.55.13-.65.135-.61.047-.197Z"></path>
                        </g>
                    </svg>