<svg viewBox="0 0 48 52" xmlns="http://www.w3.org/2000/svg" xmlns:xlink="http://www.w3.org/1999/xlink" title="Santa Clara Home 24-25">
                        <defs>
                            <path id="kit" d="M10.22 50.435c.079-8.326.118-13.766.118-16.32 0-2.553-.161-6.661-.484-12.324l-1.63 3.825c-1.213.21-2.806-.165-4.778-1.125-1.92-.933-3.059-1.912-3.418-2.937L0 21.469 4.725 9.66c.809-2.154 1.936-3.546 3.381-4.176l8.278-3.621c.72-.393 3.26-.588 7.617-.586 4.357.003 6.894.198 7.613.586l8.162 3.572c1.502.604 2.669 2.013 3.499 4.225L48 21.47c-.325 1.055-1.473 2.063-3.446 3.022-1.972.96-3.565 1.335-4.778 1.125l-1.63-3.825c-.323 5.467-.484 9.575-.484 12.325s.04 8.19.119 16.319c-.535.464-7.158 1.065-13.78 1.065-6.623 0-13.246-.6-13.78-1.065Z"></path>
                            
                        </defs>
                        <mask id="kitMask" fill="#fff">
                            <use xlink:href="#kit"></use>
                        </mask>
                        <g fill="none" fill-rule="evenodd">
                            
            <path fill="#fa2419" d="M10.22 50.435c.079-8.326.118-13.766.118-16.32 0-2.553-.161-6.661-.484-12.324l-1.63 3.825c-1.213.21-2.806-.165-4.778-1.125-1.92-.933-3.059-1.912-3.418-2.937L0 21.469 4.725 9.66c.809-2.154 1.936-3.546 3.381-4.176l8.278-3.621c.72-.393 3.26-.588 7.617-.586 4.357.003 6.894.198 7.613.586l8.162 3.572c1.502.604 2.669 2.013 3.499 4.225L48 21.47c-.325 1.055-1.473 2.063-3.446 3.022-1.972.96-3.565 1.335-4.778 1.125l-1.63-3.825c-.323 5.467-.484 9.575-.484 12.325s.04 8.19.119 16.319c-.535.464-7.158 1.065-13.78 1.065-6.623 0-13.246-.6-13.78-1.065Z" coloured="" opacity="1" mask="url(#kitMask)" id="base"></path><path fill="#b0121a" fill-rule="evenodd" d="M35.7299268,45.8533077 C36.0072168,46.2002058 35.7765018,46.5109135 35.7315018,46.8631077 L35.7309791,46.9336242 C35.7319014,46.9823065 35.7339318,47.0374394 35.7340668,47.0374394 C35.7418068,47.091725 35.7544068,47.1486587 35.7299268,47.1897038 L35.6546908,47.2894834 C35.6346042,47.3194949 35.6182098,47.3500008 35.6173818,47.3715385 C35.6100918,47.5171827 35.7267768,47.6345808 35.6562618,47.8168567 C35.6027118,47.9519087 35.4021018,48.0445913 35.4617268,48.2846837 C35.4767568,48.3460308 35.5105518,48.4016404 35.5519518,48.4554846 C35.5252218,48.4735798 35.5029918,48.491675 35.4844968,48.5097702 C35.3238468,48.6664481 35.4404418,48.82445 35.2630968,49.0314413 C35.0052918,49.330674 34.7171118,49.2909529 34.4653818,49.5548779 C34.4118858,49.6110171 34.417545,49.6968148 34.4132164,49.7815391 L34.4070168,49.844401 C34.3362318,50.2429365 34.5663618,50.2411712 34.8085968,50.3470942 L34.6367019,50.5333706 C34.6050672,50.5698505 34.5840468,50.6011331 34.5861168,50.6233769 C34.5974212,50.7702968 34.6125259,50.8964841 34.5981751,51.0112134 L33.5092962,51.1130617 L33.4490365,50.9804854 C33.337731,50.7404505 33.2032245,50.5353793 32.7379668,50.6679529 C32.6016347,50.7220439 32.7601886,50.9300484 32.9177071,51.1621274 L32.442705,51.1981381 C32.3167275,50.9072303 32.0805722,50.6487911 31.6484268,50.578801 C30.6849318,50.4230058 30.2047818,50.98175 29.7609468,50.8158038 C29.8519818,50.7972673 29.9284818,50.7796135 29.9668218,50.7610769 C29.9668218,50.6807519 29.8318218,50.6308798 29.7571668,50.5682087 L29.6657268,50.5337837 C29.6431368,50.5271635 29.6297268,50.5253981 29.6197818,50.5276048 C29.6331918,50.4035865 29.6332818,50.2517635 29.4110268,50.0778731 C29.1885018,49.9031 28.6948518,49.7852606 28.7885418,49.4317423 C28.8006468,49.3823115 28.8601818,49.2794779 28.9051818,49.2534385 C29.0664318,49.160388 29.2121506,49.1424276 29.3430933,49.163034 L29.4544968,49.1898846 C29.6523618,49.2543212 29.8120668,49.3906971 29.9363568,49.4432173 C30.0157818,49.4763183 30.0887268,49.4966202 30.1556418,49.5076538 C30.3400968,49.537224 30.4746918,49.4895587 30.5469168,49.4026135 C30.6020868,49.3359702 30.6213918,49.2472596 30.5978118,49.1532529 C30.5812878,49.0886398 30.485391,49.0330655 30.4128338,48.986304 L30.2087418,48.8416625 C29.9557518,48.6682135 29.8001418,48.5411058 29.8196268,48.4294452 C29.8390668,48.318226 29.9752818,48.2515827 29.9752818,48.2515827 L30.0567093,48.2432523 L30.1711668,48.240549 C30.4869768,48.5799442 31.1590968,48.3658913 31.6268718,48.5380163 C31.9356618,48.6514423 31.9442118,48.9806865 32.1326718,49.1616385 L32.1990862,49.225082 C32.2193081,49.2411911 32.2433268,49.2547625 32.2882818,49.273299 L32.4180806,49.3230476 C32.4925422,49.3477806 32.5803948,49.3677471 32.6773518,49.362451 C33.2756718,49.3267019 33.1796418,48.7503038 33.4555818,48.515949 C33.7024968,48.3036615 34.2910518,48.2153923 34.3895118,47.9143942 C34.4319918,47.7828731 34.4997168,47.2859173 34.4785218,47.1142337 C34.5593868,46.9328404 34.3704768,46.6940721 34.3117518,46.5621096 C34.4382018,46.5007625 34.5342768,46.6269875 34.7008218,46.8070567 C34.7068968,46.8154423 34.8406818,46.8856163 34.8564768,46.8962087 C35.0510768,47.0142933 35.1226546,46.8586343 35.1566383,46.7227748 L35.1677868,46.6733288 C35.1799818,46.6066856 35.2017618,46.4839913 35.2066668,46.4508904 C35.2275918,46.2880337 35.1956868,46.1763731 35.1354318,46.0885452 C35.0981718,46.034701 35.0501568,45.9896837 34.9967868,45.9481971 L35.0295018,45.8758163 C35.1426318,45.658674 35.5742268,45.6599981 35.7299268,45.8533077 Z M11.4372618,45.5024375 C11.6343618,45.8519837 12.6935718,45.7509154 12.8155668,46.1860827 L12.8527935,46.3379058 C12.8571768,46.3607577 12.8605818,46.382776 12.8629068,46.404549 C12.8695668,46.4667788 12.8673168,46.5268019 12.8532768,46.5991827 L12.6463468,46.6367462 C12.4456068,46.6769577 12.1738668,46.7495346 12.1585668,46.8666385 L12.1537968,46.8887058 L12.2024081,47.0687198 C12.2213418,47.1285774 12.2435943,47.184849 12.2709318,47.2272183 C12.3438768,47.3415269 12.6600018,47.4161144 12.7378518,47.5167413 C12.8521068,47.6663577 12.7050468,47.9024779 12.8156568,48.0512115 C12.9007518,48.1677269 13.4820618,48.3102817 13.5160818,48.4078192 L13.5224268,48.4391548 L13.4212218,48.478876 C13.3750068,48.4991779 13.3442268,48.5172731 13.3410318,48.5300721 C13.2242118,48.9775971 13.8905718,48.9890721 14.1385668,49.042475 C14.3709018,49.0927885 14.5022568,49.307724 14.5666518,49.3876077 L14.6476068,49.3558308 C14.6984118,49.5425202 14.4569868,49.5937163 14.3720718,49.7217067 C14.2650618,49.8819154 14.3283318,50.0262356 14.1775368,50.1449577 C14.0766018,50.223076 13.7640768,50.2570596 13.7106618,50.4124135 C13.6785768,50.5002413 13.7566968,50.5633538 13.6724118,50.6207288 C13.6544118,50.6330865 13.6293918,50.6454442 13.5938418,50.6573606 C13.3045368,50.7540154 12.9700518,50.6564779 12.7378518,50.6127846 C12.3572418,50.5395212 12.0070968,50.6149913 11.6872818,50.7019365 L11.6975925,50.5710222 C11.7009281,50.5322389 11.7073068,50.4962692 11.7261618,50.4569894 C11.8465368,50.20145 12.2818668,50.0160846 12.1152318,49.6104875 C12.0289218,49.4017308 11.6580768,49.3571548 11.5510668,49.1205933 C11.3163918,48.6020115 11.7492468,48.2273087 11.6483118,47.9845683 C11.6203218,47.9196904 11.4391518,47.8579019 11.3759718,47.8062644 L11.0756327,47.5747491 C10.8812819,47.4218726 10.6716206,47.2406793 10.5992268,47.091725 C10.5046818,47.0144894 10.4651268,46.8957673 10.5157518,46.7112846 C10.6396368,46.2597875 11.3901918,46.2514019 11.0230368,45.5558404 C11.1666768,45.518326 11.2959168,45.498024 11.4372618,45.5024375 Z M33.8622918,40.0163283 C34.1443068,40.1214569 33.6272568,40.7009886 33.7065468,40.795878 C33.7858368,40.8907233 34.0018368,40.930312 34.0956618,40.8404539 L34.1395024,40.7860701 C34.315602,40.5488212 34.8700308,39.7176164 35.1852018,40.2613195 C35.2994568,40.4583364 35.2082868,40.7868745 35.4575868,40.9072296 C35.6023518,40.9775802 35.9622168,41.033896 36.2746968,40.9963374 C36.4512318,40.9740936 36.5992368,40.8284052 36.6958068,40.7412393 C36.7092618,40.7715157 36.7285668,40.8018803 36.7674468,40.8298616 C36.8088018,40.8597849 36.9412818,40.8507373 37.0009518,40.8743493 C37.1894568,40.9488486 37.4204868,41.1959583 37.3900218,41.3866639 C37.3794918,41.4479228 37.3151868,41.5260411 37.2444018,41.5933022 C37.0693968,41.6456459 36.9179718,41.7249558 36.8173068,41.8232877 C36.2418918,41.9625765 35.2708818,41.8317174 34.5739218,41.89814 L34.3215818,41.9718906 C34.1504218,42.0233058 33.9948018,42.0883013 33.9831618,42.2213819 C33.9714168,42.3503433 34.0250568,42.4515439 34.1088918,42.5404311 C34.3216968,42.6502821 34.6808868,42.7711227 34.7440668,42.9012315 L34.7690264,42.9656787 L34.8092268,43.1098117 C34.8480618,43.2078788 34.8136368,43.2467173 34.7613918,43.3570538 L34.6587243,43.3909272 L34.6479468,43.3919202 C34.3678218,43.4598875 34.2028518,43.3561712 34.0708668,43.2025827 L34.0039912,43.1179435 L33.8275518,42.867292 C33.7825068,42.8074896 33.6159168,42.6494436 33.5161518,42.6223008 C33.3261618,42.5704867 33.1563318,42.5711046 32.9976168,42.5846098 L32.6583843,42.6200268 C32.4761259,42.6336516 32.3008087,42.622218 32.1154368,42.5108609 C31.9817418,42.4308889 31.8892668,42.3543154 31.9209018,42.176806 C31.9846893,41.8149462 32.5590684,41.7079772 32.6774398,41.3768581 L32.6990868,41.2414169 C33.4129218,41.2364738 33.3933918,40.8446026 33.2438118,40.5508867 C33.1437768,40.3544436 32.9604918,40.229013 32.8334568,40.0843397 C32.9028018,40.0930784 32.9802018,40.095594 33.0606618,40.0938728 C33.3053718,40.0885766 33.5790618,40.0441772 33.7454268,40.0163283 C33.7029018,40.0003074 33.8390718,40.0073248 33.8622918,40.0163283 Z M29.1392418,38.4440326 C29.1576918,38.4804878 29.1494568,38.5217537 29.1148518,38.5574586 C29.031499,38.6433697 29.1338841,38.778373 29.1648381,38.8151921 L29.1731718,38.8247378 C29.3641518,39.0954154 30.1167768,38.8845843 30.1848618,39.2812662 C30.2088533,39.4250568 30.0854247,39.5115841 29.9447901,39.5675851 L29.8477725,39.6011319 L29.8213968,39.608701 C29.7393438,39.6317745 29.6502924,39.6498927 29.5590555,39.6661646 L29.2836008,39.7125508 C29.011215,39.7596166 28.7624748,39.8180491 28.6673268,39.9717964 C28.3196118,40.5300111 29.5234068,40.4499509 29.6790168,40.7067702 L29.7089531,40.7496911 C29.7197418,40.7692648 29.7270318,40.7930975 29.7178968,40.818166 C29.7013818,40.8608 29.6355918,40.8916942 29.5428018,40.9179543 C29.2195218,41.0095778 28.5665268,41.0454592 28.5116718,41.3304364 C28.4655018,41.5614812 28.7220468,41.7397409 28.7452218,41.9541027 C28.7852718,42.3411191 28.2454518,42.7976476 27.7334868,42.867292 C27.2872218,42.9271386 26.9309568,42.7998102 26.6829168,42.7559404 C26.5242018,42.7272529 26.2221168,42.7432296 26.1430068,42.6708488 C26.0481918,42.5707957 26.0821668,42.3285408 26.0992218,42.1990939 C26.2159968,41.2851985 28.2515268,41.4669007 28.3171818,40.818166 C28.3341468,40.643437 28.0836768,40.5285987 27.8502618,40.5731306 C27.4526418,40.6490421 27.4441368,40.8049697 26.9163768,40.5842966 C26.1114168,40.2474171 27.2301168,39.7212001 27.0720318,39.2367786 C27.0124968,39.0564887 26.7546018,39.0383935 26.6050668,38.9249234 C26.4786168,38.8288864 26.5017018,38.73563 26.5661868,38.6354003 L26.6002743,38.5898699 L26.6490768,38.5422321 C26.9054418,38.3273848 27.4633068,38.3375799 27.9669918,38.5017607 C28.1031618,38.5449243 28.4727918,38.39597 28.7646168,38.3569991 C28.9839468,38.3278262 29.1058518,38.3779631 29.1392418,38.4440326 Z M15.2590218,38.1532296 C15.1183968,38.3230155 14.9779068,38.6145246 15.4226868,38.6576883 C15.9697968,38.7106057 16.2834918,38.4161837 16.8623268,38.5240487 C17.5444368,38.650053 17.3997618,39.1434338 17.7572868,39.4594818 C17.9396268,39.6210145 18.3749568,39.6676207 18.5743968,39.8381568 L18.6724195,39.9238738 C18.6820537,39.9340558 18.6890456,39.9430648 18.6911718,39.9495085 C18.8650068,40.5063549 17.5785018,40.6170004 17.4459768,40.9963374 C17.3961618,41.135538 17.4386868,41.3554608 17.5237818,41.4418322 C17.7755118,41.6986515 18.7616868,41.2691776 19.1191218,41.2414169 C19.9654368,41.1731407 20.5734318,41.9429366 19.9752468,42.0654543 C19.6447668,42.1324507 19.5111618,42.076488 19.3896618,42.0002234 C19.3028118,41.945673 19.2221268,41.880751 19.0802418,41.8427511 C18.9720618,41.8134457 18.8845368,41.8406326 18.7689768,41.8204631 C18.6558918,41.8002494 18.5767818,41.7383286 18.3798168,41.7535991 C18.0771018,41.7765933 17.6940168,42.1490012 17.6405568,42.3104456 C17.6210718,42.3668496 17.6794368,42.488617 17.6794368,42.488617 C17.6599968,42.5588793 17.6904168,42.6223008 17.6405568,42.6890764 C17.5006968,42.8707345 16.9243818,42.8867995 16.7067168,42.7336524 C16.4926518,42.5832858 16.6422768,42.419767 16.5120918,42.1990939 C16.4622768,42.1141789 16.2470418,42.1329803 16.1229768,42.0876982 C16.1020068,42.0799746 16.0784718,42.0665136 16.0540368,42.0493452 C15.9510768,41.9770527 15.8313768,41.8383376 15.8117118,41.7758871 C15.6111018,41.1634311 16.4744268,40.7262777 16.0840518,40.1944997 C16.0667718,40.1715276 16.0111434,40.1328905 15.9670005,40.1056236 L15.9285318,40.0831481 C15.6256368,39.9216595 15.2779218,39.8103079 15.1503018,39.5485896 C15.0530118,39.3495425 15.1113768,39.0892365 14.9167968,38.9472113 L14.8779168,38.9249234 C14.6954418,38.8609282 14.4462318,38.881848 14.2552968,38.8358597 C13.9908768,38.7715556 13.7077818,38.6170403 13.5003768,38.4943461 L13.6140018,38.4495494 L13.7906452,38.3733012 C13.8173468,38.3624522 13.8425868,38.3530417 13.8662268,38.3458331 C14.0667918,38.2832061 14.4608118,38.2101191 14.6832918,38.1899496 C14.7821568,38.1808137 14.9059518,38.1953782 15.0207468,38.1988207 C15.0810018,38.2005861 15.1389168,38.1995268 15.1891818,38.1899496 C15.2007018,38.1876105 15.2254968,38.1741053 15.2590218,38.1532296 Z M24.0515889,39.2651899 L24.1732968,39.3203254 L24.1732968,41.0312037 C23.9566668,41.0082096 23.6936868,41.0648785 23.4928968,41.1235775 C23.4793068,41.0940073 23.4640968,41.0653198 23.4477168,41.0374709 L23.2437318,40.7290582 C23.1828918,40.6281223 23.3409318,40.5536672 23.2826568,40.439491 C23.2732518,40.4215282 23.2500768,40.4118627 23.2239318,40.4043157 C23.2762668,40.3526782 23.3110518,40.2888595 23.2826568,40.1944997 C23.2181718,39.9835804 22.9846668,39.6815231 22.9324218,39.392662 C22.9214418,39.3328155 23.0309268,39.2527994 23.0880768,39.2145347 C23.3616948,39.0265742 23.7741509,39.1481646 24.0515889,39.2651899 L24.0515889,39.2651899 Z M10.3347548,35.7319486 L10.4030718,35.7621486 C11.1375618,36.0371072 10.3592418,36.6621416 10.5198468,37.1208327 L10.5789832,37.192368 C10.586925,37.2007798 10.5936918,37.2073145 10.5976518,37.2099405 C10.7847168,37.332414 10.9862718,37.2106025 11.1835518,37.1613924 L11.2939818,37.2137802 C11.4549918,37.2911482 11.6096568,37.3620284 11.8817268,37.3881119 C12.5881818,37.4542256 13.4685618,37.2551343 13.9440318,37.4771756 C14.8669368,37.90943 12.0823368,38.1453737 12.8934168,38.5017607 L12.9676218,38.5294772 C13.0426368,38.552692 13.1162568,38.5609452 13.1876718,38.5590915 C13.1708868,38.66219 13.1831268,38.7486938 13.2435618,38.8581477 C13.2751968,38.9172439 13.4259918,39.0161496 13.4381418,39.080851 C13.5183318,39.5214468 12.2367768,39.7337343 11.9206518,39.9940403 L11.8184287,40.0817854 L11.7260718,40.1722559 C11.5487518,39.8393828 11.2859918,39.7556687 11.0120635,39.7171833 L10.9089618,39.7044731 C10.6636398,39.6765241 10.4366931,39.6104627 10.3096512,39.5583377 L10.3173281,38.8976909 L10.5371957,38.5588585 C10.679763,38.3278885 10.7891522,38.0914924 10.7144268,37.8780944 C10.6595398,37.7223693 10.5110801,37.6699128 10.3255205,37.6629556 L10.3347548,35.7319486 Z M20.2021518,31.323751 C20.5140018,31.3174397 20.8169418,31.5513532 20.7469218,31.680138 C20.6581818,31.8415824 20.8137018,32.0364809 20.8830918,32.2035304 C20.9775018,32.4323684 21.1700568,32.5323774 21.3274668,32.6495107 C21.3913668,32.6970437 21.4493718,32.7474454 21.4927068,32.8103813 C21.5530068,32.8979886 21.5849118,33.0097815 21.5640318,33.1724176 L21.5251518,33.395165 L21.4992832,33.4958526 C21.4601152,33.6150039 21.3840368,33.7212953 21.2137968,33.6178683 L21.0828679,33.5447751 C21.0692231,33.5368481 21.0597168,33.53089 21.0581868,33.5288046 L20.9302837,33.3906867 C20.8341759,33.2918251 20.7593611,33.2400255 20.6690718,33.2838134 L20.7848086,33.4994436 C20.8401389,33.6099294 20.8820054,33.7322778 20.8357968,33.835805 C20.8569468,34.0074887 20.7892218,34.5047092 20.7467418,34.6361421 C20.6483268,34.9368313 20.0598168,35.0252329 19.8129468,35.2375204 C19.5369618,35.4720959 19.6329468,36.0483615 19.0347618,36.0838899 C18.9053418,36.091128 18.7922802,36.0533982 18.7055764,36.0191257 L18.6456468,35.9948263 C18.5556018,35.9579297 18.5495268,35.9404965 18.4899468,35.8834305 C18.3014418,35.7024786 18.2930268,35.3732343 17.9841018,35.2597642 C17.5116018,35.0858297 16.8304818,35.3060173 16.5189018,34.9513957 L16.4665668,34.8811775 C16.4321868,34.8176678 16.4260668,34.7369014 16.4387568,34.6840723 C16.4743518,34.5218776 16.5716868,34.4312692 16.7063268,34.3829418 C17.1327018,34.2298388 17.9370768,34.5040913 18.3732168,34.3020431 C18.5218068,34.2327076 18.4554768,34.0202436 18.4896768,33.8755262 C18.4789668,33.7411363 18.5423268,33.5699381 18.4900818,33.395165 C18.4572318,33.2880062 18.2869968,33.1773165 18.2954568,33.038778 C18.3076518,32.7937426 18.5460168,32.7353084 18.7819068,32.671269 C19.1272368,32.5807931 19.4519118,32.6893642 19.6513068,32.8118378 C19.7728518,32.8870432 19.9917768,32.8835565 20.1437868,32.7937426 C20.4635568,32.6030369 20.0477118,32.2877392 20.0075718,32.1033448 C19.9872018,32.012604 19.9705518,31.9048175 19.9594352,31.803929 L19.9471368,31.6607629 C19.9423218,31.5774809 19.9432218,31.5110141 19.9516368,31.4822384 C19.9702668,31.4181549 20.0851968,31.3260901 20.2021518,31.323751 Z M26.1717018,29.2629292 C26.4409368,29.317921 26.6555418,29.5788889 26.5859718,29.8116549 C26.5579368,29.9014688 26.3913918,30.0288413 26.4691968,30.1903299 C26.5128918,30.2828802 26.8071918,30.3511123 26.8193868,30.4576091 C26.8436868,30.6851672 26.6467668,30.8264863 26.8583118,31.0366994 C27.2242968,31.4007217 28.5509418,31.1382973 28.8427668,31.6157897 C29.0214618,31.9081374 28.5801468,32.0417329 28.8038418,32.4399154 C28.9262418,32.6587789 28.8874518,32.7811201 28.7622618,32.8435264 C28.4893368,32.9796817 27.8052018,32.8307274 27.4808868,32.7739703 C27.2705118,32.7363676 27.2097168,32.8254754 27.0918168,32.8408342 L27.0390318,32.8456449 C27.0138768,32.8241072 26.9837268,32.7967438 26.9550168,32.7657613 C26.8904418,32.6959844 26.8332918,32.6082889 26.8583118,32.528979 L26.8910599,32.4358453 C26.8974028,32.4208547 26.9043356,32.4062186 26.9115468,32.3938388 C26.9492568,32.1167617 26.9506518,31.9617168 26.7805068,31.7494293 C26.7270018,31.6832715 26.5336368,31.6199825 26.5080768,31.5489699 C26.4339618,31.3450238 26.5506468,31.1828291 26.4302718,30.9921235 C26.3208768,30.820175 25.9828818,30.7151346 25.8855468,30.5466728 C25.7894718,30.3809914 25.9512468,30.2557374 25.9244268,30.101178 C25.9037718,29.9835592 25.6776018,29.8492576 25.6520418,29.7448351 C25.5893568,29.4979461 25.9929168,29.4358045 26.1717018,29.2629292 Z M15.4815618,25.1656481 C15.4938618,25.189981 15.4943018,25.2164519 15.4829752,25.2419487 L15.4571718,25.279074 C15.3988968,25.3391854 15.4313868,25.4230412 15.4668468,25.4807692 L15.5155368,25.5463533 C15.7064268,25.8171191 16.4590968,25.6062439 16.5272268,26.0029259 C16.5511797,26.1467543 16.4277456,26.2332545 16.2870819,26.2892193 L16.1636718,26.3303606 C15.7534068,26.4456843 15.1681818,26.4372105 15.0096918,26.6934561 C14.6812518,27.2206588 15.7367606,27.1785361 15.9861422,27.3885786 L16.0213368,27.4284298 C16.0311018,27.4444507 16.0785318,27.4896887 16.0603068,27.5397814 C16.0437468,27.5825038 15.9779118,27.6133097 15.8851218,27.6396139 C15.5617068,27.7311933 14.9088468,27.7671188 14.8540368,28.0521402 C14.8078668,28.2831849 15.0644118,28.4613563 15.0874968,28.6757623 C15.1276818,29.0627346 14.5877718,29.5193072 14.0758068,29.5889516 C13.6295418,29.6487982 13.2732768,29.5214257 13.0252368,29.4776 C12.8665668,29.4488684 12.5643018,29.4648451 12.4853268,29.3925085 C12.3905118,29.2924112 12.4245318,29.0502004 12.4415418,28.9207536 C12.5582718,28.0068139 14.5938468,28.1885603 14.6594568,27.5397814 C14.6765118,27.3650966 14.4260418,27.2502584 14.1924918,27.2947902 C13.7949168,27.3706576 13.7863218,27.5265852 13.2586968,27.3059121 C12.4536918,26.9690767 13.5723468,26.4428597 13.4143518,25.958394 C13.3547268,25.7781483 13.0969668,25.7600531 12.9473868,25.646583 C12.8742618,25.5910175 12.8520768,25.5363788 12.8580618,25.4807692 C12.8624718,25.4402537 12.8812818,25.3992967 12.9084168,25.3570599 L12.9426112,25.3114247 L12.9913968,25.2638476 C13.2478518,25.0490444 13.8057168,25.0591954 14.3092668,25.2233762 C14.4454818,25.2665398 14.8151568,25.1176296 15.1069368,25.0786146 C15.3263118,25.0494858 15.4482168,25.0995786 15.4815618,25.1656481 Z M24.5549868,23.8760346 L24.7421609,23.9705039 C24.8733636,24.0337329 25.0201068,24.0902111 25.2240468,24.1097715 C25.9305468,24.1758411 26.8109268,23.9767939 27.2863068,24.1988352 C28.2092568,24.6310896 25.4247468,24.8670333 26.2356918,25.2233762 L26.3099418,25.2511368 C26.3848668,25.2742634 26.4583518,25.2825607 26.5297218,25.2807512 C26.5182468,25.3510576 26.5204518,25.4135522 26.5421418,25.4807692 C26.5523118,25.5122813 26.5666218,25.5448086 26.5859268,25.5797632 C26.6175168,25.6389036 26.7683118,25.7377651 26.7805068,25.8025106 C26.8607868,26.2430623 25.5790968,26.4553939 25.2629718,26.7156558 L25.1606981,26.8034781 L25.0715518,26.8905662 C24.891503,26.560631 24.6284042,26.4772434 24.354371,26.4388252 L24.1732968,26.4158052 L24.1732968,23.9808985 C24.2993868,23.965672 24.4282668,23.9025595 24.5549868,23.8760346 Z M21.1483968,23.7293302 C21.2797518,23.7294636 21.4106118,23.7470291 21.4885518,23.7756284 C22.0308918,23.9733073 21.2271468,24.2649488 21.1772868,24.3992946 C21.1286868,24.5266671 21.2101368,24.7459279 21.2940168,24.8224573 C21.5469618,25.0528841 22.4018268,24.7668036 22.2667818,25.2679521 C22.2476568,25.3363166 22.1745318,25.3914408 22.1180118,25.4807692 C22.0881318,25.527905 22.0628868,25.5844414 22.0528068,25.657749 C22.0411518,25.7314097 21.9792768,25.7976558 21.8940468,25.8252399 C21.8839218,25.800039 21.8715468,25.7752354 21.8570568,25.7508289 C21.7994118,25.6534238 21.7101318,25.5624183 21.6095568,25.4807692 C21.4682118,25.3659751 21.3051318,25.2696734 21.1772868,25.2011323 C21.0422868,25.1287074 20.7189168,25.0153256 20.5546668,25.1566005 C20.4519318,25.2440753 20.4585468,25.3578985 20.4931518,25.4807692 C20.5560618,25.703958 20.7121668,25.9570259 20.4769068,26.1365655 C20.3715618,26.2167139 20.2456518,26.2289834 20.1069168,26.2212157 L19.8926268,26.2008255 C19.8408768,26.0241546 20.1961518,25.9100666 19.9710618,25.702325 C19.9248468,25.6598675 19.8202668,25.5937097 19.7570418,25.5574752 L19.4651718,25.4237914 C19.1113368,25.2700264 18.6760068,25.244296 18.8037168,24.8224573 C18.8742768,24.5837332 19.2499368,24.4285117 19.5430218,24.310231 C19.8202668,24.1967609 20.1874668,24.15779 20.4769068,24.0429076 C20.6483568,23.9740135 20.6993868,23.8006968 20.9049468,23.7533845 C20.9448168,23.744028 20.9893218,23.7377167 21.0356268,23.733877 L21.1483968,23.7293302 Z M36.4454868,20.5681893 L36.6513298,20.5726974 C36.7405194,20.577214 36.8103468,20.585137 36.8663718,20.5965237 C37.1081568,20.645778 37.0923618,20.7601749 37.2625518,20.9469526 L37.4450212,21.144224 C37.6264528,21.3499734 37.7741681,21.5848743 37.6127418,21.8823858 C37.5543318,21.9882206 37.3513818,22.1107383 37.3015218,22.2165731 C37.1701668,22.4900312 37.2369918,22.7225323 37.0291368,22.9292588 C36.7761018,23.1784429 36.3445068,23.3677804 36.2508618,23.7088527 C36.2154618,23.8350777 36.2518818,23.9801138 36.3092818,24.1299165 L36.4635543,24.4972958 C36.5813214,24.7991656 36.6145728,25.0733773 36.1341318,25.2011323 C35.9809068,25.2415155 35.8265118,25.261685 35.6671668,25.2011323 C35.2974918,25.0605194 35.4336168,24.5809086 35.2585668,24.3324748 L35.1426412,24.1477604 C35.1014606,24.0824191 35.0567868,24.0192514 35.0057568,23.9760878 C34.9473918,23.9269218 34.8851118,23.8931588 34.8235968,23.8662367 C34.6033832,23.7698628 34.3931737,23.7627064 34.4099556,23.4627429 L34.4220168,23.3635876 C34.4390718,23.2605774 34.4135118,23.1443268 34.4803818,23.0740645 C34.7321118,22.8102719 35.0202918,22.8499048 35.2780968,22.550628 C35.4554418,22.3438573 35.3388468,22.1858112 35.4994968,22.0290451 C35.5179918,22.0109499 35.5402218,21.9928988 35.5669518,21.9748037 C35.5970118,21.9544429 35.6327318,21.9340233 35.6754852,21.9134271 L35.7450618,21.8823858 C36.5189493,21.5582446 36.1595883,21.1759182 36.3691949,20.7048591 L36.4192068,20.6094552 C36.4275318,20.5957735 36.4360368,20.5820476 36.4454868,20.5681893 Z M9.44548685,20.5681893 L9.65132981,20.5726974 C9.74051945,20.577214 9.81034685,20.585137 9.86637185,20.5965237 C10.1082018,20.645778 10.0923618,20.7601749 10.2625518,20.9469526 L10.4449959,21.144224 C10.6264106,21.3499734 10.7741343,21.5848743 10.6127418,21.8823858 C10.5543318,21.9882206 10.3513368,22.1107383 10.3015218,22.2165731 C10.1701668,22.4900312 10.2369468,22.7225323 10.0291368,22.9292588 L9.9230345,23.0234619 L9.85365765,21.7912482 L8.46955469,25.0369888 C8.34668468,24.8310528 8.38903397,24.5175882 8.25856685,24.3324748 L8.1426356,24.1477604 C8.10144935,24.0824191 8.05676435,24.0192514 8.00571185,23.9760878 C7.94739185,23.9269218 7.88511185,23.8931588 7.82359685,23.8662367 C7.60338321,23.7698628 7.39317371,23.7627064 7.40995556,23.4627429 L7.42201685,23.3635876 C7.43907185,23.2605774 7.41351185,23.1443268 7.48038185,23.0740645 C7.73206685,22.8102719 8.02029185,22.8499048 8.27809685,22.550628 C8.45539685,22.3438573 8.33884685,22.1858112 8.49949685,22.0290451 C8.51799185,22.0109499 8.54017685,21.9928988 8.56695185,21.9748037 C8.59701185,21.9544429 8.63271185,21.9340233 8.67546518,21.9134271 L8.74506185,21.8823858 C9.51899153,21.5582446 9.15959358,21.1759182 9.36919542,20.7048591 L9.41920685,20.6094552 C9.42753185,20.5957735 9.43603685,20.5820476 9.44548685,20.5681893 Z M6.85978685,18.1213221 C6.97381685,18.1139958 7.40617685,18.3367873 7.40451185,18.4777091 C7.40257685,18.6470095 7.47147185,18.834052 7.54068185,19.0011457 C7.64049185,19.2430916 7.85010185,19.3410705 8.01178685,19.4674279 C8.06515685,19.509091 8.11317185,19.5539317 8.15038685,19.6079966 C8.21068685,19.6955597 8.24259185,19.8073968 8.22166685,19.9699888 L8.18278685,20.1927803 C8.15358185,20.3347172 8.09040185,20.548417 7.87147685,20.4154394 L7.74048466,20.3423463 C7.72684122,20.3344193 7.7173406,20.3284611 7.71582185,20.3263758 L7.58797383,20.1882463 C7.49189358,20.0893918 7.41706042,20.0376282 7.32670685,20.0813845 C7.38547685,20.2133912 7.57434185,20.4522477 7.49347685,20.6333762 C7.51467185,20.8050598 7.44694685,21.3022804 7.40451185,21.4337574 C7.30600685,21.7344024 6.71745185,21.822804 6.47058185,22.0350915 C6.19464185,22.2697112 6.29067185,22.846021 5.69235185,22.8815052 C5.53071185,22.8905528 5.39445185,22.8292939 5.30328185,22.7923974 C5.21332685,22.7555009 5.20720685,22.7381118 5.14767185,22.6810016 C4.95921185,22.5000497 4.95066185,22.1708496 4.64182685,22.0573795 C4.17409685,21.8851663 3.50197685,22.0992191 3.18616685,21.7597357 L3.17658185,21.7489668 C3.15781685,21.7276057 3.14022185,21.7045233 3.12429185,21.6787487 C3.09027185,21.6244631 3.11088185,21.533943 3.12429185,21.4782892 C3.15777185,21.3256717 3.24439685,21.2366081 3.36459185,21.1865594 C3.77665685,21.0148758 4.58652185,21.3054581 5.03094185,21.0996142 C5.17953185,21.0303229 5.19586685,20.7995871 5.23006685,20.6548697 C5.21931185,20.5204357 5.20000685,20.3675534 5.14771685,20.1927803 C5.11491185,20.0855332 4.94467685,19.9748877 4.95318185,19.8363491 C4.96533185,19.591402 5.20365185,19.5329237 5.43954185,19.4688402 C5.78482685,19.3784084 6.10954685,19.4869354 6.30898685,19.6094531 C6.43057685,19.6846585 6.64941185,19.6811718 6.80142185,19.591402 C7.12128185,19.4006522 6.70539185,19.0853545 6.66525185,18.900916 C6.64683185,18.8187962 6.64239185,18.7166883 6.64202518,18.6166531 L6.64229622,18.3229842 C6.64124153,18.3023237 6.63956106,18.2840658 6.63698271,18.2688186 L6.62628185,18.2327179 C6.58470185,18.1552616 6.74580185,18.1286926 6.85978685,18.1213221 Z M39.8294268,16.0605445 C40.0986168,16.1156245 40.3133118,16.3765042 40.2435618,16.6092261 C40.2156618,16.69904 40.0490718,16.8264125 40.1269218,16.9879011 C40.1706618,17.0804513 40.4649618,17.1486835 40.4771118,17.2551803 C40.5014118,17.4827825 40.3044018,17.6240574 40.5159468,17.8343147 C40.8819768,18.1982929 42.2088468,17.9359126 42.5004468,18.4133609 C42.6790968,18.7057086 42.2376468,18.8393482 42.4617468,19.2374424 C42.5823468,19.4535696 42.5611968,19.5738364 42.4603968,19.6345657 C42.2367468,19.7695293 41.6206068,19.6106447 41.2944468,19.5534904 C41.0840268,19.515976 40.8673518,19.6230465 40.7494068,19.6384054 L40.6857318,19.6437015 L40.7494068,19.6161174 L40.6341956,19.527473 C40.5923118,19.4940742 40.5522393,19.4572107 40.5298518,19.4180413 C40.5131118,19.3886917 40.5060018,19.3580623 40.5159468,19.3265943 L40.5839418,19.1724321 C40.6216068,18.8953991 40.6084668,18.759288 40.4381418,18.5470005 C40.3846368,18.4808868 40.1913168,18.4175537 40.1658018,18.3465411 C40.0915968,18.142595 40.2084168,17.9804003 40.0879518,17.7897388 C39.9785118,17.6177903 39.6404268,17.5127058 39.5431818,17.3442439 C39.4471518,17.1786067 39.6089268,17.0533086 39.5821068,16.8987933 C39.5614068,16.7811745 39.3353268,16.6468288 39.3097218,16.5424504 C39.2470368,16.2955613 39.6505968,16.2334198 39.8294268,16.0605445 Z M12.8294268,16.0605445 C13.0986168,16.1156245 13.3133118,16.3765042 13.2435618,16.6092261 C13.2156618,16.69904 13.0490718,16.8264125 13.1269218,16.9879011 C13.1706618,17.0804513 13.4649618,17.1486835 13.4770668,17.2551803 C13.5014118,17.4827825 13.3044018,17.6240574 13.5159468,17.8343147 C13.8819768,18.1982929 15.2086218,17.9359126 15.5004468,18.4133609 C15.6791868,18.7057086 15.2377818,18.8393482 15.4615218,19.2374424 C15.5823018,19.4535696 15.5610618,19.5738364 15.4603518,19.6345657 C15.2366568,19.7695293 14.6205618,19.6106447 14.2944018,19.5534904 C14.0839818,19.515976 13.8673518,19.6230465 13.7494068,19.6384054 L13.6857318,19.6437015 L13.7494068,19.6161174 L13.6341956,19.527473 C13.5923118,19.4940742 13.5522393,19.4572107 13.5298518,19.4180413 C13.5131118,19.3886917 13.5060018,19.3580623 13.5159468,19.3265943 L13.5838968,19.1724321 C13.6215618,18.8953991 13.6084218,18.759288 13.4381418,18.5470005 C13.3845918,18.4808868 13.1913168,18.4175537 13.1658018,18.3465411 C13.0915968,18.142595 13.2084168,17.9804003 13.0879518,17.7897388 C12.9785118,17.6177903 12.6404268,17.5127058 12.5431368,17.3442439 C12.4471068,17.1786067 12.6088818,17.0533086 12.5821068,16.8987933 C12.5614068,16.7811745 12.3353268,16.6468288 12.3097668,16.5424504 C12.2470368,16.2955613 12.6505968,16.2334198 12.8294268,16.0605445 Z M32.1154368,11.798244 C32.2467918,11.922174 32.1725868,12.120515 32.1154368,12.2436947 C31.9427718,12.6112478 31.3773468,12.7699559 31.4928618,13.2905678 C31.5269268,13.4464954 31.6460868,13.6434682 31.7652018,13.7805503 C31.9172568,13.9552792 32.3391768,14.1452787 32.1543168,14.5155682 C32.1425268,14.5388712 32.1218718,14.5572312 32.0959518,14.5717515 C31.9459668,14.6558721 31.6143168,14.6088246 31.7262768,14.604676 C31.4685618,14.582388 31.1803818,14.5767829 30.9870168,14.6492078 C30.7961268,14.7195142 30.7681818,14.8949052 30.6757068,15.0278828 C30.5566368,15.1970066 30.2051868,15.4454845 30.1893468,15.7517346 C30.1602318,16.1779867 30.0538068,16.3364741 30.0532218,16.8724449 C29.4986418,17.0233853 29.2469118,17.1952896 29.1192918,17.5892793 L29.0772734,17.7339088 C29.0580504,17.7958452 29.0329728,17.8459574 28.9636368,17.9010904 C28.9282668,17.928498 28.8406968,17.9594363 28.7277018,17.986535 C28.4135568,18.0620493 27.9014118,18.1082141 27.7574118,17.9679102 C27.6527868,17.8662682 27.6443718,17.6108612 27.6795168,17.4556397 C27.7513368,17.1278078 28.3666218,17.0428487 28.6912968,16.8542614 C28.9843368,16.6830191 29.5800918,16.2688599 29.7028968,16.0301358 C29.7829368,15.8732912 29.7582035,15.7208491 29.7141329,15.5699346 L29.6442035,15.3443492 C29.6126668,15.23177 29.5942818,15.1192414 29.6250918,15.0055507 C29.6652768,14.8559343 30.0617268,14.643691 29.8586418,14.5601 C29.7471318,14.5226738 29.6363418,14.4812314 29.5278018,14.4371851 C29.6205918,14.410925 29.6863818,14.3800749 29.7028968,14.3373967 C29.7211668,14.2872598 29.6737368,14.242066 29.6640168,14.226001 C29.5084068,13.9691816 28.3046118,14.0492418 28.6523268,13.4909831 C28.7338823,13.3592223 28.928281,13.2974655 29.1536906,13.2528712 L29.5440555,13.1853781 C29.6352924,13.1691093 29.7243438,13.1509965 29.8063968,13.1279317 C30.0344568,13.1262987 30.2516718,13.0936391 30.5201418,12.9118928 C30.7158918,12.7775912 30.9006618,12.6140283 30.9870168,12.4219103 C31.1195418,12.1212212 31.0442568,11.8832032 31.4150568,11.7314684 C31.4708118,11.708386 31.5347118,11.6931154 31.6012218,11.685127 C31.7958918,11.6618239 32.0130168,11.7017658 32.1154368,11.798244 Z M14.2313718,10.5509998 L14.3749652,10.6498041 C14.4877318,10.7260426 14.6215518,10.809408 14.6982918,10.8182349 C14.7518418,10.8244138 14.8397268,10.8247227 14.9242818,10.8170874 C14.9991618,10.8103789 15.0713868,10.7974034 15.1147668,10.7763953 C15.1276818,10.7701723 15.1381668,10.763199 15.1452318,10.7554755 C15.2291568,10.8118795 15.2317218,10.8957353 15.3758568,10.9039885 C15.6948168,10.9222602 15.9379068,10.7884882 15.9654468,10.7447949 L16.0359618,10.7524743 C16.0984331,10.7630335 16.1771043,10.7856332 16.2802718,10.8246303 L16.4298468,10.8850988 C16.4718768,10.9204065 16.4726418,10.9516538 16.4460918,10.9813564 C16.3789068,11.0564736 16.1369418,11.1219252 15.9435318,11.2191538 C15.8503312,11.2653792 15.5365961,11.4974528 15.3467803,11.6250291 L15.2471414,11.6886858 L15.2590218,11.6724604 C15.1183968,11.8422463 14.9779068,12.1337554 15.4226868,12.176919 C15.9697968,12.2298364 16.2834918,11.9353703 16.8623268,12.0432794 C17.5444368,12.1692396 17.3997618,12.6627088 17.7572868,12.9787126 C17.9396268,13.1402453 18.3749568,13.1868514 18.5743968,13.3573876 L18.6378131,13.4104484 C18.6632043,13.4327254 18.6869193,13.455874 18.6911718,13.4687392 C18.8650068,14.0255857 17.5785018,14.1362312 17.4459768,14.5155682 C17.3961618,14.6547688 17.4386868,14.8747357 17.5237818,14.961063 C17.7755118,15.2178823 18.7616868,14.7884084 19.1191218,14.7606036 C19.9654368,14.6923714 20.5734318,15.4622115 19.9752468,15.5846851 C19.6447668,15.6516814 19.5111618,15.5957188 19.3896618,15.51941 L19.25559,15.434506 C19.2068268,15.4067123 19.1511843,15.3809818 19.0802418,15.3619818 C18.9720618,15.3327206 18.8845368,15.3598634 18.7689768,15.3396938 C18.6558918,15.3194802 18.5767818,15.2575593 18.3798168,15.2728299 C18.0771018,15.295824 17.6940168,15.6682319 17.6405568,15.8296763 C17.6210718,15.8860804 17.6794368,16.0078478 17.6794368,16.0078478 C17.6599968,16.0781542 17.6904168,16.1415315 17.6405568,16.2083072 C17.5006968,16.3900094 16.9243818,16.4060303 16.7067168,16.2528832 C16.4926518,16.1025165 16.6422768,15.9389537 16.5120918,15.7183247 C16.4622768,15.6334097 16.2470418,15.6522111 16.1229768,15.6069731 C16.1020068,15.5992054 16.0784718,15.5857443 16.0540368,15.568576 C15.9510768,15.4962835 15.8313768,15.3575684 15.8117118,15.2951179 C15.6111018,14.6826177 16.4744268,14.2455085 16.0840518,13.7137305 C16.0667718,13.6907584 16.0111434,13.6521461 15.9670005,13.624873 L15.9285318,13.6023788 C15.6256368,13.4408903 15.2779218,13.3295387 15.1503018,13.0678204 C15.0530118,12.8687733 15.1113768,12.6084673 14.9167968,12.4664421 L14.8779168,12.4441983 C14.6954418,12.3801589 14.4462318,12.4010788 14.2552968,12.3550905 C13.992865,12.2912698 13.7120379,12.1385895 13.505068,12.0163497 C13.411292,12.0500962 13.3094208,12.0755918 13.2026718,12.0783223 C13.1312568,12.080176 13.0576368,12.0718787 12.9826218,12.048708 C12.9580068,12.0411168 12.9333018,12.0319368 12.9084168,12.0209914 C12.0973368,11.6646044 14.8819368,11.4286608 13.9590318,10.9964505 C13.4835618,10.7744092 12.6031818,10.9734563 11.8967268,10.9073427 C11.6790708,10.8865112 11.536554,10.8369533 11.4058164,10.778351 L11.1820368,10.6729879 L11.2529993,10.4884106 C11.287731,10.40621 11.3262438,10.3384298 11.3906118,10.2818669 C11.4104118,10.2644779 11.4328218,10.2481922 11.4581118,10.2328334 C11.5390668,10.1837115 11.6512968,10.1444317 11.8161768,10.1120369 C12.8108568,9.91506413 13.7243118,10.2064409 14.2313718,10.5509998 Z M8.03395685,10.5452182 C8.07733685,10.5526769 8.11594685,10.5620776 8.14632185,10.5732437 C8.68861685,10.7709226 7.88482685,11.0625641 7.83496685,11.1968658 C7.78632185,11.3242824 7.86781685,11.543499 7.95169685,11.6200726 C8.20464185,11.8504553 9.05941685,11.5644188 8.92446185,12.0655674 C8.89530185,12.1699458 8.73964685,12.2430327 8.71048685,12.4553202 C8.69883185,12.5289367 8.63704685,12.5951387 8.55190685,12.6227228 C8.54178185,12.5975219 8.52940685,12.57263 8.51496185,12.5481794 C8.37636185,12.3137363 8.05371185,12.1159691 7.83496685,11.9987035 C7.69996685,11.9263227 7.37650685,11.8128526 7.21239185,11.9541716 C6.92295185,12.2005752 7.49940185,12.6557796 7.13454185,12.9341808 C7.03324685,13.0112398 6.91282685,13.0255394 6.78030185,13.0195813 L6.55030685,12.9984408 C6.49869185,12.8217258 6.85374185,12.7076819 6.62878685,12.4998962 C6.58252685,12.4573945 6.47794685,12.3912809 6.41476685,12.3550905 L6.12294185,12.2214509 C5.76906185,12.0675976 5.33377685,12.0418671 5.46139685,11.6200726 C5.53191185,11.3813485 5.90770685,11.226127 6.20070185,11.1078021 C6.47794685,10.994332 6.84514685,10.9553612 7.13454185,10.8405229 C7.27044185,10.7859019 7.33091465,10.6657781 7.45242617,10.594763 L7.57090685,10.5492344 C7.66171685,10.6053737 7.78695185,10.6190554 7.96083185,10.5690509 L8.03395685,10.5452182 Z M41.2313718,10.5509998 L41.3749652,10.6498041 C41.4877318,10.7260426 41.6215518,10.809408 41.6982918,10.8182349 C41.7518418,10.8244138 41.8397268,10.8247227 41.9242818,10.8170874 C41.9991618,10.8103789 42.0713868,10.7974034 42.1147668,10.7763953 C42.1276818,10.7701723 42.1381668,10.763199 42.1452768,10.7554755 C42.2292468,10.8118795 42.2314968,10.8957353 42.3759468,10.9039885 C42.6949968,10.9222602 42.9379968,10.7884882 42.9654468,10.7447949 L43.0360968,10.7524743 C43.0985343,10.7630335 43.1771718,10.7856332 43.2803625,10.8246303 L43.4298468,10.8850988 C43.4716968,10.9204065 43.4725968,10.9516538 43.4460468,10.9813564 C43.3789968,11.0564736 43.1368968,11.1219252 42.9433968,11.2191538 C42.8504718,11.2653792 42.5367023,11.4974528 42.346964,11.6250291 L42.2742468,11.6724604 C42.2404968,11.6933361 42.2157468,11.7068413 42.2040468,11.7091804 C42.1539168,11.7187576 42.0960018,11.719861 42.0357018,11.7180514 L41.8042285,11.7066549 C41.7669918,11.7057232 41.7312618,11.7061351 41.6982918,11.7091804 C41.4758118,11.7293499 41.0817918,11.8024368 40.8812268,11.8650638 L40.8056468,11.8925319 L40.6290468,11.9687802 C40.5925968,11.9841832 40.5546618,11.9994979 40.5153768,12.0135768 C40.4183568,12.0483108 40.3131018,12.0754977 40.2027168,12.0783223 C40.1312568,12.080176 40.0576368,12.0718787 39.9826218,12.048708 C39.9580068,12.0411168 39.9333018,12.0319368 39.9084168,12.0209914 C39.0973368,11.6646044 41.8819368,11.4286608 40.9590318,10.9964505 C40.4835618,10.7744092 39.6031818,10.9734563 38.8967268,10.9073427 C38.6791068,10.8865112 38.5365684,10.8369533 38.4058208,10.778351 L38.1820368,10.6729879 L38.2530123,10.4884106 C38.2877526,10.40621 38.3262708,10.3384298 38.3906118,10.2818669 C38.4104118,10.2644779 38.4328218,10.2481922 38.4581118,10.2328334 C38.5390668,10.1837115 38.6512968,10.1444317 38.8161768,10.1120369 C39.8109018,9.91506413 40.7243118,10.2064409 41.2313718,10.5509998 Z M24.8434368,5.82065173 C25.1426418,6.0802074 26.0458368,6.02737827 26.1579768,6.42684067 C26.1870768,6.53273433 26.1960568,6.63858875 26.2078902,6.74113471 L26.2350168,6.91342481 C26.0676618,6.96625394 25.8321318,7.06198192 25.8162468,7.18348452 L25.8114318,7.20568423 C25.8394668,7.31902192 25.8739368,7.45910519 25.9286568,7.54410846 C26.0015568,7.65824058 26.3176818,7.73273981 26.3954868,7.83363154 C26.5098768,7.98329202 26.3626818,8.21927981 26.4732918,8.36819 C26.5584318,8.48444058 27.1396968,8.62712779 27.1737618,8.72457702 L27.1800618,8.75600087 L27.0789018,8.79572202 C27.0326418,8.81593567 27.0018618,8.83385433 26.9985768,8.84705058 C26.8819368,9.29461971 27.5482518,9.30578577 27.7963368,9.35936519 C28.0285368,9.40945798 28.1598918,9.62452596 28.2243318,9.70458615 L28.3053768,9.6727651 C28.3307343,9.7659774 28.2830793,9.82540466 28.218465,9.87755523 L28.1158305,9.9536371 C28.0820503,9.97938758 28.0510368,10.0066324 28.0297968,10.0386852 C27.9227868,10.1987614 27.9860118,10.3428168 27.8352618,10.461892 C27.7342818,10.5398337 27.4218018,10.5739498 27.3682518,10.7291712 C27.3362118,10.8169109 27.4143768,10.8800675 27.3301368,10.9377073 C27.3121368,10.950065 27.2871168,10.9621579 27.2515668,10.9741625 C26.9621718,11.0709056 26.6278218,10.9734563 26.3954868,10.9296307 C26.0150118,10.8565437 25.6647318,10.931705 25.3449168,11.0186943 L25.3552668,10.8878407 C25.3586193,10.8490409 25.3650093,10.813027 25.3838418,10.7737031 C25.5042168,10.5182519 25.9394568,10.3331072 25.7730018,9.92733356 C25.6866468,9.71848856 25.3157568,9.67395673 25.2087468,9.43730692 C24.9740718,8.91876933 25.4069268,8.54433125 25.3059918,8.30141433 C25.2780918,8.23666885 25.0968768,8.17470385 25.0336518,8.12319875 L24.7332929,7.89160192 C24.5389443,7.73865178 24.3293006,7.5573654 24.2569068,7.40843865 C24.2195568,7.37794163 24.1912968,7.34073615 24.1732968,7.29593952 L24.1732968,7.02879269 L24.2030139,6.94961929 C24.2508587,6.8508224 24.3301445,6.77463278 24.4148612,6.70421031 L24.5427583,6.60079696 C24.7309599,6.44584993 24.8808178,6.27747258 24.6960618,5.90384548 L24.6792768,5.86999423 C24.7387668,5.84792692 24.7925868,5.83195019 24.8434368,5.82065173 Z M20.2021518,4.84298173 C20.5140018,4.83671462 20.8169418,5.07058394 20.7469218,5.19932462 C20.6581818,5.36085731 20.8137018,5.55571163 20.8830918,5.72276115 C20.9775018,5.95159913 21.1700568,6.05165231 21.3274668,6.16874144 C21.3913668,6.21627442 21.4493718,6.26667615 21.4927068,6.32961212 C21.5530068,6.41721933 21.5849118,6.52901231 21.5640318,6.69164837 L21.5251518,6.91439577 L21.4992832,7.01507827 C21.4601152,7.13421939 21.3840368,7.24049173 21.2137968,7.13709904 L21.0828679,7.06400591 C21.0692231,7.05607892 21.0597168,7.05012075 21.0581868,7.04803538 L20.9302837,6.90990485 C20.8341759,6.81104781 20.7593611,6.75927521 20.6690718,6.803 L20.7848086,7.01866618 C20.8401389,7.12916021 20.8820054,7.25150857 20.8357968,7.35503577 C20.8569468,7.52671942 20.7892218,8.02389587 20.7467418,8.15537288 C20.6483268,8.45606202 20.0598168,8.54446365 19.8129468,8.75675115 C19.5369618,8.99132663 19.6329468,9.56763644 19.0347618,9.60312067 C18.8729868,9.61216827 18.7367718,9.55095356 18.6456468,9.51405702 C18.5556018,9.47716048 18.5495268,9.45972731 18.4899468,9.40266125 C18.3014418,9.22170933 18.2930268,8.8924651 17.9841018,8.778995 C17.5116018,8.60506048 16.8304818,8.82524808 16.5189018,8.47062644 C16.5001368,8.44930942 16.4825418,8.42613875 16.4665668,8.40040827 C16.4321868,8.33689856 16.4260668,8.25613221 16.4387568,8.20330308 C16.4743518,8.04110837 16.5716868,7.9505 16.7063268,7.9021726 C17.1327018,7.74906962 17.9370768,8.02332212 18.3732168,7.82127385 C18.5218068,7.75193837 18.4554768,7.53947433 18.4896768,7.39475692 C18.4789668,7.26036702 18.5423268,7.08916885 18.4900818,6.91439577 C18.4572318,6.80719279 18.2869968,6.69650317 18.2954568,6.55800875 C18.3076518,6.3130175 18.5460168,6.25458327 18.7819068,6.19049981 C19.1272368,6.10002385 19.4519118,6.208595 19.6513068,6.33106856 C19.7728518,6.40627394 19.9917768,6.40278731 20.1437868,6.3130175 C20.4635568,6.12226769 20.0477118,5.80701413 20.0075718,5.62253144 C19.9872018,5.5318201 19.9705518,5.42402375 19.9594352,5.32315163 L19.9471368,5.18003779 C19.9423218,5.09671163 19.9432218,5.03020077 19.9516368,5.00146913 C19.9702668,4.93738567 20.0851968,4.84532087 20.2021518,4.84298173 Z" coloured="" opacity="1" mask="url(#kitMask)" id="camouflage-04"></path><g fill="none" fill-rule="evenodd" mask="url(#kitMask)" id="collar-05"><path fill="#000" fill-opacity=".5" fill-rule="nonzero" d="M17,1.6 L17.0818808,1.72029058 C17.4394639,2.2240607 17.9574239,2.78292009 18.6383405,3.38781854 L19.0154219,3.71345174 C19.2116421,3.87838365 19.4193922,4.04645085 19.6387205,4.21748372 L20.2111907,4.65114621 L20.8320715,5.09657671 L21.6412667,5.64579786 L22.2197362,6.02038598 L22.8295108,6.40137485 L23.4706765,6.78846295 L24.0048841,7.1 L24.5385303,6.78836216 L25.180011,6.40107711 L25.4889622,6.20970537 L26.0833401,5.83169221 L26.6464237,5.46023781 L27.1782991,5.09564419 C27.436449,4.91511291 27.6829282,4.73726767 27.917785,4.56227835 L28.3720165,4.21615794 L28.795341,3.87795533 C29.8198047,3.03873581 30.5526453,2.2772911 31,1.6151519 C28.6764615,2.15400758 26.3557826,2.4225131 24.0351036,2.4225131 C21.6900691,2.4225131 19.3450345,2.14834207 17,1.6 Z"></path><path fill="#fafafa" fill-rule="nonzero" d="M16.6275639,2.5883774 L16.515443,2.34809849 L16.4297032,2.11979081 L16.3788874,1.94758056 L16.3368388,1.75625226 C16.3152093,1.63564961 16.3031045,1.51622675 16.3005242,1.39798368 L16.3835008,1.36290579 L17.7009394,0 L18.2839912,0.124963432 C20.4024869,0.56328549 22.3080151,0.78295844 24.0005758,0.783982281 C25.7214721,0.785023262 27.6722392,0.555860081 29.8528773,0.0964927384 L30.2990606,0 L31.6139292,1.36290579 L31.6535415,1.379 L31.648684,1.52176956 L31.6366536,1.63852427 L31.6097184,1.80274226 L31.5594155,2.010126 L31.5060278,2.17723444 L31.4174652,2.40023319 L31.2901219,2.66004057 L31.1753121,2.85949382 L31.0661222,3.02948771 L30.978939,3.15503792 L30.8162307,3.37106596 L30.7331605,3.47401 L30.5420259,3.69616003 L30.5278585,3.71192085 C30.3921063,3.86251766 30.2440956,4.01463291 30.0838263,4.16826658 C29.5563377,4.67383362 28.8969902,5.19524411 28.1051973,5.7330602 L27.6752474,6.01827636 L27.4510592,6.16202565 L26.8637168,6.52472742 L26.2379861,6.89218424 L25.7097619,7.18957333 L25.1569691,7.49000565 L24.8713595,7.64136303 L24.2817138,7.9463602 L23.9776778,8.1 L23.3757478,7.79348121 L22.7983865,7.49000565 L22.2455937,7.18957333 L21.7173694,6.89218424 L21.2137138,6.59783838 L20.7346267,6.30653575 C20.5790257,6.20994208 20.4275196,6.11385562 20.2801082,6.01827636 L19.8501582,5.7330602 C19.2890355,5.35192412 18.7944292,4.97902722 18.3663395,4.61436952 L18.1970732,4.46755183 L17.9934761,4.2832629 L17.699503,3.99920212 L17.5559358,3.8509914 L17.2999471,3.56665134 L17.0696766,3.281417 L16.8735888,3.00607859 L16.840231,2.95516753 C16.7604672,2.83171832 16.6896085,2.70950198 16.6275639,2.5883774 Z M18.1789135,2.28860946 L18.3246468,2.47971113 C18.5498362,2.75237241 18.6632729,3.08291457 18.6677223,3.41362106 C18.9119565,3.63146485 19.1895021,3.85765439 19.4990022,4.09166 L19.960954,4.42980344 L20.4661828,4.77802 L20.6804256,4.92002057 L21.1297952,5.20850679 L21.7307639,5.57721023 L22.3754917,5.95446499 L22.922882,6.26210618 L23.4984517,6.57467236 L23.9777862,6.82623254 L24.4570562,6.57459098 L25.3102521,6.10733676 L25.8438208,5.80209841 L26.3492968,5.50215613 L26.8267574,5.2077538 L27.27628,4.91913528 L27.4905886,4.77707115 L27.8983488,4.49758558 L28.2783642,4.22449348 L28.6307119,3.95803872 L28.9554692,3.69846515 C29.0726574,3.60197832 29.1839854,3.5070091 29.2894719,3.41361621 C29.2910169,3.13155077 29.3744949,2.8486728 29.5395303,2.60207742 L29.6572448,2.44697015 C29.8423456,2.213154 29.9755441,1.99536089 30.0573644,1.79524465 C28.1599292,2.19155107 25.9087924,2.46028596 24.0027893,2.46028596 C22.0774253,2.46028596 19.8386344,2.19868943 17.9132703,1.79372241 L17.8743062,1.733871 C17.9365403,1.90552529 18.0379595,2.09080588 18.1789135,2.28860946 Z" coloured="" opacity="1"></path><path fill="#000" fill-opacity=".2" fill-rule="nonzero" d="M18.1756135.101109656 18.4057633.149965372C18.1750701.514520549 18.05.903665474 18.05 1.3 18.05 1.51238473 18.1603022 1.78334255 18.3871084 2.099973L18.6168478 2.40315364C19.047767 3.03833518 19.0146258 3.88931312 18.5161077 4.49918765L18.2482419 4.79514513 17.8345584 4.42683113C16.7324968 3.40692883 16.1351106 2.43514132 16.0584565 1.50457663L16.3005414 1.39876461C16.3217203 2.35383345 16.9642354 3.38586528 18.2280867 4.49486011L18.3307533 4.38142669C18.7783468 3.83342592 18.7841426 3.03607261 18.3246468 2.47971113L18.1789135 2.28860946C17.9256283 1.9331693 17.8 1.61816558 17.8 1.35 17.8.922606908 17.9319229.499981116 18.1756135.101109656ZM29.5565928.157100904 29.7852244.110118306C30.0254106.506341975 30.1553555.925823077 30.1553555 1.35L30.152447 1.42173663C30.1324157 1.67240567 30.0088689 1.96115126 29.7802925 2.28319535L29.5395303 2.60207742C29.1458502 3.19031316 29.2162534 3.98500674 29.7272688 4.49486011 30.9370487 3.43331149 31.5775204 2.44228131 31.648684 1.52176956L31.6535415 1.379 31.8983119 1.48664793C31.8232052 2.48505848 31.1478656 3.53092492 29.892158 4.63277384L29.7163088 4.78707665 29.5506935 4.62183791C28.9493947 4.02190644 28.8709113 3.08399481 29.3433225 2.39595901L29.572131 2.09456101C29.7778042 1.8063494 29.8869052 1.55659732 29.9026522 1.36160873L29.9053555 1.3C29.9053555.906905667 29.7823221.52088386 29.5565928.157100904Z"></path><path fill="#000" fill-opacity=".5" fill-rule="nonzero" d="M18.1756135,0.100792529 L17.7009394,0 C20.0542672,0.521537936 22.154146,0.782865363 24.0005758,0.783982281 C25.7613211,0.785047367 27.5525208,0.561630249 29.8133207,0.100792529 C29.8880572,0.29300525 29.9773893,0.467529297 30.0663724,0.711380005 C30.1553555,0.955230713 30.2071838,1.32400513 30.0663724,1.79372241 C28.1599292,2.19155107 25.9087924,2.46028596 24.0027893,2.46028596 C22.0774253,2.46028596 19.8107095,2.19868943 17.8853455,1.79372241 C17.7720751,1.37692604 17.7720751,1.19929504 17.8500519,0.835525513 C17.9280286,0.471755981 18.0536499,0.345687866 18.1756135,0.100792529 Z"></path></g><path d="M47.56 20.365 48 21.47c-.325 1.055-1.473 2.063-3.446 3.022-1.972.96-3.565 1.335-4.778 1.125l-.464-1.088.261-.038c1.596-.263 3.05-.728 4.364-1.398a13.078 13.078 0 0 0 3.622-2.727Zm-47.118.001a13.078 13.078 0 0 0 3.62 2.726c1.315.67 2.77 1.135 4.365 1.398l.26.038-.463 1.088c-1.213.21-2.806-.165-4.778-1.125-1.92-.933-3.059-1.912-3.418-2.937L0 21.469l.442-1.103Z" fill="#fafafa" fill-rule="nonzero" coloured="" opacity="1" mask="url(#kitMask)" id="trim-01"></path><path fill="#fa271b" d="M31.063812,11.6 L31.385152,11.602984 C32.0881153,11.6170432 32.5902101,11.6816347 33.0828954,11.8147304 L33.3584071,11.8962073 L33.6156629,11.9831126 L34.3027849,12.2411068 L34.399917,12.6144352 C34.7578905,14.1036212 34.6894945,15.4106176 34.1901022,16.5306227 C33.6407232,17.7627348 32.6229074,18.7394827 31.1448108,19.4597222 L30.9805586,19.4597222 C29.5022114,18.7394895 28.4842673,17.7627408 27.9348856,16.5306227 C27.4396549,15.419951 27.3682671,14.1253915 27.7162103,12.6516269 L27.8222029,12.2411068 L28.4590623,12.0018343 L28.683453,11.9243192 L28.9859901,11.8318626 C29.2045989,11.7707588 29.4236396,11.7230391 29.6591577,11.6871981 L30.0002649,11.6447286 L30.3582537,11.6176474 L30.6293297,11.6061574 C30.7645262,11.6020653 30.9090748,11.6 31.063812,11.6 Z" coloured="" opacity="1" mask="url(#kitMask)" id="badge-06"></path><path fill="#fafafa" d="M31.0713059,11.6 C31.9555171,11.6 32.5342363,11.6642145 33.1040233,11.8204815 L33.3584071,11.8962073 L33.6156629,11.9831126 L34.3027849,12.2411068 L34.399917,12.6144352 C34.7578905,14.1036212 34.6894945,15.4106176 34.1901022,16.5306227 C33.6407232,17.7627348 32.6229074,18.7394827 31.1448108,19.4597222 L30.9805586,19.4597222 C29.5022114,18.7394895 28.4842673,17.7627408 27.9348856,16.5306227 C27.4396549,15.419951 27.3682671,14.1253915 27.7162103,12.6516269 L27.8222029,12.2411068 L28.4590623,12.0018343 L28.683453,11.9243192 L28.9859901,11.8318626 C29.2045989,11.7707588 29.4236396,11.7230391 29.6591577,11.6871981 L30.0002649,11.6447286 L30.3495035,11.6180432 C30.5683621,11.6057706 30.8063638,11.6 31.0713059,11.6 Z M31.0713059,11.975 C30.1180043,11.975 29.5412462,12.0505466 28.9361328,12.2374084 L28.6593067,12.3286603 L28.1352439,12.5225 L28.0904382,12.6989197 C27.7711367,14.0248818 27.8073045,15.1841766 28.1951291,16.1807607 L28.2773817,16.3779092 C28.7545561,17.4480853 29.6166116,18.316075 30.8701821,18.9828103 L31.063,19.081 L31.2234373,18.9995818 C32.3229307,18.4207032 33.1243137,17.688568 33.6319931,16.8025548 L33.7527967,16.5778453 L33.8476061,16.3779092 C34.3074172,15.3466743 34.3740458,14.1336786 34.0429801,12.7342392 L33.9889939,12.5225 L33.4933084,12.3376404 L33.2446747,12.2535506 L33.0343069,12.190303 C32.4893534,12.0375582 31.9393634,11.975 31.0713059,11.975 Z" coloured="" opacity="1" mask="url(#kitMask)" id="badge-07"></path><path fill="#fafafa" d="M32.5726359,13.2 L33.1029034,13.71266 L31.6567156,15.1108316 L33.1029034,16.5089872 L32.5726359,17.0216471 L31.12646,15.6234801 L29.6802675,17.0216471 L29.15,16.5089872 L30.5962044,15.1108316 L29.15,13.71266 L29.6802675,13.2 L31.12646,14.5981831 L32.5726359,13.2 Z" coloured="" opacity="1" mask="url(#kitMask)" id="badge-09"></path>
        
                            <path fill-opacity="0.15" fill="#000000" fill-rule="nonzero" d="m10.234 48.926-1.257-.15a120.817 120.817 0 0 0 28.788.145l.016 1.514a.67.67 0 0 1-.206.101l-.168.052-.21.052-.25.052-.288.053-.324.052-.752.103-.879.1-.734.072-.791.07-.845.064-1.197.079-1.267.07-.988.044-.674.025-1.376.041-.698.015-1.411.018L24 51.5l-1.076-.005-1.057-.015-1.046-.024-1.029-.032-1.006-.04-.656-.03-1.267-.069-1.197-.079-.844-.065-.792-.069-.734-.072-.878-.1-.577-.077-.5-.078-.288-.053-.25-.052-.21-.052-.168-.052a.67.67 0 0 1-.206-.101l.014-1.509Zm37.19-28.899.144.361a13.074 13.074 0 0 1-3.592 2.696c-1.314.67-2.769 1.136-4.364 1.398l-.3.045-.142-.331c1.555-.22 2.974-.632 4.258-1.234l.389-.19a12.714 12.714 0 0 0 3.426-2.55l.18-.195Zm-46.99.357.144-.361-.112-.121a12.762 12.762 0 0 0 3.724 2.87c1.383.706 2.93 1.18 4.64 1.423l-.142.331-.293-.044c-1.596-.262-3.05-.728-4.364-1.398a13.074 13.074 0 0 1-3.597-2.7ZM7.926 5.567l.101.436.106.498.105.524.102.549.1.575.1.6.143.95.14 1.008.09.703.089.73.129 1.143.125 1.2.08.833.08.859.114 1.336.11 1.394.07.962.103 1.49.029.46-.262.614-.03-.511-.1-1.478-.103-1.423-.107-1.366-.111-1.311-.116-1.256-.08-.806-.08-.781-.084-.756-.128-1.089-.088-.694-.09-.67-.091-.645-.093-.62-.096-.596-.097-.57-.099-.546-.1-.521-.103-.497-.13-.583.135-.075.137-.07Zm32.148 0c.092.045.183.094.273.145l-.079.344-.103.484-.102.51-.1.533-.098.558-.096.583-.095.608-.092.632-.09.658-.09.682-.129 1.07-.084.744-.123 1.162-.08.806-.115 1.256-.111 1.31-.107 1.367-.137 1.91-.098 1.497-.26-.61.097-1.459.105-1.452.073-.936.113-1.355.078-.872.12-1.258.083-.807.085-.782.086-.755.134-1.085.091-.69.094-.666.095-.64.098-.613.15-.872.102-.55.13-.65.135-.61.047-.197Z"></path>
                        </g>
                    </svg>