<svg height="50" viewBox="0 0 96 50" width="96" xmlns="http://www.w3.org/2000/svg"><g fill="none" fill-rule="nonzero"><path d="m41.108835 0c.6979381 0 1.3672905.27725484 1.8608073.77077163l.1192352.11923519c.4935168.49351679.7707716 1.16286919.7707716 1.86080732v44.15895946c0 .7049017-.282799 1.3803358-.78503 1.8749573l-.1074865.1058579c-.4923119.4848526-1.155569.7566216-1.8465489.7566216h-38.38151832c-.69097983 0-1.35423696-.271769-1.84654888-.7566216l-.10748644-.1058579c-.50223104-.4946215-.78503006-1.1700556-.78503006-1.8749573v-44.15895946c0-.69793813.27725484-1.36729053.77077163-1.86080732l.11923519-.11923519c.49351679-.49351679 1.16286919-.77077163 1.86080732-.77077163zm-16.8010777 33.7188352c-1.3588187 0-2.4156777.5284295-3.1202504 1.5349619-.729736 1.0316957-1.1071856 2.516331-1.1071856 4.4539059 0 1.9627382.3522863 3.4473734 1.1071856 4.4790692.7045727 1.0316957 1.7614317 1.5601252 3.0950871 1.5601252 1.3588188 0 2.3905145-.5284295 3.1202505-1.5852886v.0251634c.7297359-1.0568591 1.0820223-2.5414943 1.0820223-4.4539059 0-1.9375749-.3522864-3.4473735-1.0820223-4.4539058-.7045727-1.0568591-1.7614317-1.5601253-3.0950872-1.5601253zm-14.94659578.1758805c-.80520266 0-3.22081064-.0146492-3.22081064 2.9473896 0 2.9620387 1.75438596 3.5087719 2.63157894 3.9473684.87719299.4385965 1.75438598 1.7543859.5892317 2.5663944-.77676951.541339-1.85037305.2706695-3.22081064-.8120085v2.1929825c.81498286.5847953 1.69217584.877193 2.63157894.877193 1.40910468 0 3.07017548-1.2944646 3.07017548-3.5087719 0-2.2143074-1.3363708-3.2997644-2.63157898-3.9473685-.87719299-.4385965-1.31578948-1.7543859-.4385965-2.1929824.58479533-.2923977 1.31578948-.1461988 2.19298248.4385965l.0066545-2.1061706c-.5368017-.268415-1.0736035-.4026225-1.61040528-.4026225zm10.06491368.0002627h-6.6431138v1.9124116h2.2395346v9.7633642h2.1388813v-9.7633642h2.2646979zm13.7140039 0h-2.9441072v11.6757758h2.1640446v-4.2274361h.5535928c1.1826756 0 2.0633914-.327123 2.6924742-1.0065324.6290827-.654246.9562058-1.5852885.9562058-2.843454 0-2.3905144-1.1575123-3.5983533-3.4222102-3.5983533zm6.6431138 9.260098h-2.440841v2.4156778h2.440841zm-15.4754356-7.5238296c1.3084922 0 1.9375749 1.3588187 1.9375749 4.1016195 0 2.7176375-.6542461 4.0764562-1.9375749 4.0764562-.654246 0-1.1575122-.3522863-1.5097985-1.0316957-.3271231-.7045727-.5032662-1.7111051-.5032662-3.0699238 0-1.3336554.1761431-2.3401878.5032662-3.0195972.3522863-.7045727.8555525-1.056859 1.5097985-1.056859zm8.5806887.1509799c.5032662 0 .8555526.1509798 1.1071856.4277762.2264698.3019597.3522864.7548993.3522864 1.3839821 0 .654246-.1258166 1.1323489-.3774497 1.4343086-.2767964.2767964-.654246.4277763-1.2078388.4277763h-.402613v-3.6738432zm-23.55285803-16.7084378h-2.99443388v11.6757758h3.52286338c2.19591813-.0318736 3.29387723-1.0712021 3.29387723-3.1179858 0-1.7543859-.5847953-2.7777777-1.7543859-3.0701754.877193-.5847953 1.3157894-1.4619883 1.3157894-2.6315789 0-2.631579-2.1758714-2.8560357-3.38371023-2.8560357zm10.11565053-.0503266h-2.9441072l-2.8937807 11.7261024h2.1640447l.6794094-2.9441073h3.0447605l.6794093 2.9441073h2.1640447zm6.5927872.0503266h-2.6673108v11.6757758h2.0130648v-6.3914807c0-.729736-.0503266-1.4343087-.2013065-2.0885548h.1006532v.0251634l3.6235167 8.4548721h2.6673108v-11.6757758h-2.0130648v6.3663174c0 .7800626.0503266 1.4343087.1509799 1.9879015h-.1006533zm-16.58262118 6.5172972c.90587918 0 1.38398208.5032662 1.38398208 1.5601253 0 .5787561-.1006533 1.0065324-.3522864 1.2833288-.2013065.2767964-.5535928.4277762-1.00653237.4277762h-1.08202233v-3.2712303zm8.50519878-5.0074986.2516331 1.3336554.2516331 1.2330022.654246 2.7176375h-2.2395346l.8303893-3.7744965c.1006532-.5284295.2013064-1.0316957.2516331-1.5097986zm-8.65617864.3522863c.45293957 0 .80522594.1258166 1.00653244.327123.2264697.2013065.327123.5535929.327123 1.0316958 0 .5032662-.1006533.8555525-.2767964 1.1071856-.2013065.2516331-.50326623.3522863-.9562058.3522863h-1.0065324v-2.8182907zm19.09895224-16.8594176h-2.1640447v11.6757758h2.189208v-4.1016195l.8555525-.8807159 1.9124116 4.9823354h2.2646978l-2.6924741-6.61795051 2.6924741-5.05782529h-2.3150245l-1.9879014 4.02612958-.7548993 1.76143169zm-6.0140311 0h-2.2143713v11.6757758h4.6803757v-1.8872483h-2.4660044zm-6.1398476-.05032662h-2.918944l-2.9189439 11.72610242h2.1640446l.7045727-2.918944h3.0195972l.6794094 2.918944h2.1640446zm-5.4856016.05032662h-6.64311378v1.91241155h2.23953458v9.76336425h2.16404465v-9.76336425h2.23953455zm3.908617 1.59485058.2516331 1.33365542.2516331 1.23300219.654246 2.71763751h-2.2395346l.8303893-3.77449653c.1006532-.5284295.2013064-1.0316957.2516331-1.50979859z" fill="#999"/><g transform="translate(50 36.842)"><path d="m21.8703158.22807018c.2609109 0 .472421.21307421.472421.47591458v7.25869715c0 .26284037-.2115101.47591458-.472421.47591458h-21.39789475c-.26091094 0-.47242105-.21307421-.47242105-.47591458v-3.73532955c0-2.20874256 1.77739588-3.99928218 3.96992481-3.99928218zm-10.4013835 1.56396185h-1.1195188c-.023965.00076448-.0447695.01676793-.051609.03974742l-1.83807518 5.39909774c-.00651398.01703545-.00425544.03618273.00604348.051235.01029892.01505226.02732744.02409376.04556555.02419357h1.22273684c.02396503-.0007163.04476951-.01671975.05160902-.03969924l.19849624-.5915188c.00683951-.02297949.02764395-.03898294.05160905-.03969925h1.6594285c.0254311-.0010545.0483286.01530083.055579.03969925l.1905564.57166917c-.001104.01541536.0042606.0305943.0148057.04189264s.0253184.01769571.0407732.01765623h1.214797c.0189317.00126761.0372019-.00721024.0484573-.02248539.0112553-.01527516.0139405-.03523676.0071217-.05294318l-1.742797-5.39909774c-.0072504-.02439842-.0301479-.04075375-.055579-.03974742zm-4.97034583.16281509c-.66959235-.27146408-1.41858811-.27146408-2.08818045 0-.34423648.13718058-.65643888.34396399-.91705264.60739849-.26308655.26010059-.46865981.57251783-.60342857.91705264-.13103663.3325082-.19837227.68669368-.19849626 1.04409022 0 .35612427.06730828.70903993.19849626 1.0401203.13574263.3384072.33981177.64518663.59945865.90117293.26061375.26343451.57281615.47021791.91705263.6073985.32963739.13835831.682672.21246862 1.0401203.21834587.14758073-.00071816.29489299-.0126624.44066166-.03572933.12110989-.01832382.24058034-.04620026.35729323-.08336842.01703545-.00651398.03618273-.00425544.05123499.00604348.01505227.01029892.02409377.02732744.02419358.04556554l.00758816.02805176c.00964663.01646784.02752718.02752719.04799079.02752719h1.16715789c.03069541 0 .05557913-.02488354.05557913-.05557895v-2.97347368c0-.01545479-.00635808-.03022814-.01765642-.04077326s-.02647727-.01590966-.04189263-.01480569h-2.26682707c-.03069541 0-.05557895.02488354-.05557895.05557895v1.15524812c0 .0306954.02488354.05557895.05557895.05557895h.99645113c.0306954 0 .05557894.02488354.05557894.05557894v.1905564c.00068151.01889783-.00829237.03684559-.02381954.04763909-.13630109.0945338-.28813931.16440625-.44860151.20643609-.16815778.04461612-.34260665.06071909-.51609022.0476391-.17421096-.01244315-.34487337-.0554447-.50418045-.12703759-.16458258-.07366874-.31401479-.17732893-.44066166-.30568421-.28146194-.28013417-.4396977-.66087544-.4396977-1.05798497 0-.39710952.15823576-.77785079.4396977-1.05798496.14096164-.14185692.30997874-.25273213.4962406-.32553383.36177479-.14530376.76568386-.14530376 1.12745865 0 .16923591.06666876.32418955.16503064.45654135.28980451.01045379.01066935.02476216.01668179.03969925.01668179s.02924546-.00601244.03969925-.01668179l.82177443-.82177444c.01066936-.01045378.01668179-.02476215.01668179-.03969925 0-.01493709-.00601243-.02924546-.01668179-.03969924-.25119101-.24454074-.54792421-.43741733-.87338345-.56769925zm12.85461653-.19055658h-1.214797c-.0250962.00121769-.0462544.01912083-.051609.04366936l-1.111579 3.2632782c-.0066284.02413221-.0285679.04085807-.0535939.04085807s-.0469655-.01672586-.053594-.04085807l-1.1433384-3.2632782c-.0068395-.02297949-.027644-.03898294-.051609-.03969925h-1.214797c-.0292096-.0000746-.0534926.02247393-.0555789.05160902l-.3493534 5.38718797c-.001104.01541536.0042606.0305943.0148057.04189264s.0253184.01769572.0407732.01765624h1.1671579c.0292096.0000746.0534927-.02247393.055579-.05160903l.1270376-2.00878195c0-.03069541.0248835-.05557895.0555789-.05557895s.055579.02488354.055579.05557895l.7145864 2.04054135c.0068395.0229795.027644.03898294.0516091.03969925h1.1909774c.023965-.00071631.0447695-.01671975.051609-.03969925l.6510677-1.92938346c0-.0306954.0248835-.05557894.0555789-.05557894s.055579.02488354.055579.05557894l.1151278 1.91350376c.0020863.0291351.0263693.05168363.0555789.05160903h1.1592181c.0154548.00003948.0302281-.0063579.0407733-.01765624.0105451-.01129834.0159096-.02647728.0148056-.04189264l-.3175939-5.40703759c-.0020864-.02913509-.0263694-.05168363-.055579-.05160921zm-8.4539549 2.36491655c.025026 0 .0469655.01672586.053594.04085807l.3572932 1.1036391c.0068189.01770642.0041337.03766802-.0071217.05294317-.0112553.01527516-.0295256.02375301-.0484572.0224854h-.738406c-.0208056.00652014-.0435019.00027287-.0580403-.01597587-.0145383-.01624874-.0182331-.03949737-.0094484-.0594527l.3969924-1.1036391c.0066285-.02413221.028568-.04085807.053594-.04085807z" fill="#999"/><path d="m23.1780958.38361892h21.4058346c.2192529 0 .3969925.17773972.3969925.39699261v3.70790977c0 2.13990824-1.7347384 3.87464662-3.8746467 3.87464662h-17.9281804c-.2192529 0-.3969925-.17773959-.3969925-.39699248v-7.20144361c.0085279-.21302772.1837942-.38128341.3969925-.38111291z"/><g fill="#999"><path d="m41.0903965 8.43859649h-17.9123007c-.260911 0-.4724211-.21317805-.4724211-.47614651v-7.2582333c0-.26296845.2115101-.4761465.4724211-.4761465h21.4058346c.2609109 0 .472421.21317805.472421.4761465v3.73714989c-.0021883 2.2066949-1.7765255 3.99502433-3.9659549 3.99722992zm-17.9123007-8.02246845c-.1600546 0-.2898045.13077309-.2898045.29208987v7.25423207c0 .16131679.1297499.29208988.2898045.29208988h17.9123007c2.0885731-.00220539 3.7811503-1.70813001 3.7833384-3.81317329v-3.73714989c0-.16131678-.1297499-.29208987-.2898045-.29208987z"/><path d="m26.3222762 7.11661153c-.1757757-.00035786-.3507022-.02439355-.5200601-.07145865-.174516-.04843354-.3405464-.12341502-.4922707-.22231579-.2647206-.168915-.4819761-.40256715-.631218-.67885714-.1422028-.26247927-.219776-.55508013-.2262857-.85353383-.001104-.01541536.0042605-.0305943.0148056-.04189264.0105452-.01129834.0253185-.01769572.0407733-.01765624h1.1790677c.0306954 0 .0555789.02488355.0555789.05557895.000772.10539621.0340448.20798735.0952782.29377444.0478761.06660949.1069844.12437438.1746767.17070676.0868171.05970394.1885369.09406871.2937744.09924812.1065051.00534297.2127275-.0150844.3096542-.05954887.0639245-.02495117.1220315-.06278829.1707067-.11115789.0387922-.03903463.0721726-.08309675.0992482-.13100752.020527-.03830106.0339755-.07999135.0396992-.12306767.0099879-.06445749.0099879-.13006883 0-.19452632-.0059897-.0442782-.0194114-.08722754-.0396992-.12703759-.0258138-.04872768-.059328-.09296645-.0992482-.13100752-.0503929-.04724091-.1080246-.08610877-.1707067-.11512782l-.1746767-.06748872-.1984963-.06748872-.3969924-.13497745c-.1388897-.05377249-.2719132-.12161446-.3969925-.20246616-.1719408-.1030785-.3228087-.23778198-.4446316-.39699248-.2387242-.32339118-.3503343-.72320948-.3136241-1.12348872.017977-.20385844.0759863-.40216932.1707068-.58357895.0864385-.16628321.2005492-.31664085.3374436-.44463158.1318754-.12358061.2835037-.22421884.4486015-.29774436.1686964-.07326794.3485421-.1175583.5319699-.13100752.1947284-.01510111.3906122.00234059.5796091.05160902.1827734.04220271.357207.11465973.5160902.21437594.1506222.09545791.2847055.2147921.3969925.35332331.1030313.13282789.1835047.28170372.2381955.44066165.0533005.15339703.0827558.31406232.0873383.47639098.001104.01541536-.0042606.0305943-.0148057.04189264s-.0253184.01769571-.0407732.01765623h-1.1512782c-.0278444.0002854-.0516025-.02007861-.055579-.04763909-.0027462-.07713342-.0426959-.14815501-.1071879-.1905564-.0581386-.03709243-.120862-.06645229-.1865865-.08733834h-.0635188c-.0420207-.00742104-.0850169-.00742104-.1270376 0-.051576.00858879-.1012737.02605012-.1468872.05160902-.052227.03038249-.0938155.07612984-.1190978.13100752-.0398359.07719484-.0483677.16677861-.0238195.25010526.0230999.08506472.0768287.15858833.1508571.20643609.0751655.04177291.1534788.07761121.2342256.10718797l.2699549.0952782.2580451.08336842c.0873383.02911278.176.0635188.265985.10321805.6385024.28051981 1.0522164.91042264 1.056 1.60781954.0024177.34402189-.0970373.68106389-.2858346.96866166-.2713058.40784519-.6918215.6929406-1.1711279.79398496-.1372101.02754796-.2768985.04085162-.4168421.03969925zm16.9674587-3.19181955c.0024443.3051774-.056977.60768547-.1746767.88926316-.1147183.27238767-.2804611.52032814-.4883008.73046616-.2085489.21094619-.4550252.38065118-.7264962.50021053-.2617456.11627907-.5434628.18097968-.8297143.19055639-.0306954 0-.0555789.02488354-.0555789.05557895v.77016541c0 .03069541-.0248836.05557895-.055579.05557895h-1.1552481c-.0306954 0-.0555789-.02488354-.0555789-.05557895v-5.39909774c0-.03069541.0248835-.05557895.0555789-.05557895h1.2068571c.3053903.0027856.6068665.06902925.8852933.19452632.2711476.12188692.5174457.29281512.7264962.50418045.2078397.21013802.3735825.45807849.4883008.73046616.1190607.28129369.1798345.58381238.1786466.88926316zm-2.278737.9924812c-.0000393.01545479.006358.03022814.0176564.04077326.0112983.01054512.0264773.01590966.0418926.01480569.1156588-.01060913.2285431-.04151791.3334737-.09130827.1186757-.05560568.2262819-.1322751.317594-.22628571.0916771-.09527034.1644249-.20708638.2143759-.32950376.103706-.25450253.103706-.53948244 0-.79398497-.0500365-.12237266-.1227743-.23417345-.2143759-.32950376-.0913121-.09401062-.1989183-.17068003-.317594-.22628571-.1049594-.0497127-.2178297-.08061765-.3334737-.09130827-.0293315-.00239003-.055442.01849829-.059549.0476391zm-5.1966314-3.31492799c.3685395-.00199667.7335038.07234791 1.0718797.21838664.3266706.13916808.6242846.33847523.8773533.58754887.2511251.25069284.4519146.54716062.5915188.87338346.2900746.68652646.2900746 1.46120287 0 2.14772932-.1396042.32622284-.3403937.62269063-.5915188.87338346-.2519864.25341315-.549682.45681606-.8773533.59945865-.6851917.28986282-1.4585677.28986282-2.1437594 0-.6587857-.27997734-1.1827438-.80535927-1.4609324-1.46490226-.2878273-.68697995-.2878273-1.46074936 0-2.14772932.2781886-.65954299.8021467-1.18492492 1.4609324-1.46490226.3380844-.14740192.7030602-.2231006 1.0718797-.22235656zm0 4.2438904c.1990707.00195923.396399-.03723612.579609-.11512782.357675-.15158898.642396-.43630995.793985-.79398496.1550546-.36947441.1550546-.78577371 0-1.15524812-.151589-.35767502-.43631-.64239599-.793985-.79398497-.3694744-.15505463-.7857737-.15505463-1.1552481 0-.357675.15158898-.642396.43630995-.793985.79398497-.1550546.36947441-.1550546.78577371 0 1.15524812.151589.35767501.43631.64239598.793985.79398496.1832099.0778917.3805382.11708705.579609.11512782zm-4.3947068-2.96553384v4.21738346c0 .0102318-.0082945.01852632-.0185263.01852632h-1.2412632c-.0102318 0-.0185263-.00829452-.0185263-.01852632v-4.21738346h-1.0335037c-.0102319 0-.0185264-.00829451-.0185264-.01852631v-1.24126316c0-.0102318.0082945-.01852632.0185264-.01852632h3.3413533c.0102318 0 .0185263.00829452.0185263.01852632v1.24126316c0 .0102318-.0082945.01852631-.0185263.01852631z"/></g></g><g fill="#999"><path d="m16.1946765 4.71915214c.0304714.10640561-.0076178.16957069-.091414.19797378l-.8214568.24375786c-.099032.0305227-.1523568 0-.1828282-.09877492-.1269639-.41926352-.4028989-.64776002-.905253-.64776002-.7757498 0-1.0343331.456993-1.0343331 1.07423029v1.41761091c0 .6172373.2585833 1.07423028 1.0343331 1.07423028.6390519 0 .9733903-.29674867.9733903-.94493261v-.18271244h-.8515049c-.0685606 0-.1142676-.03815339-.1142676-.12209088v-.78468835c-.0034904-.03198085.0071425-.06389297.0291088-.08736322.0219663-.0234702.0530732-.03615556.0851588-.03472766h1.8562131c.0761784 0 .1218854.03815339.1218854.11446021v1.17342911c0 1.12001439-.82188 1.9661721-2.0999839 1.9661721-1.5138336 0-2.2210229-.89914856-2.2210229-2.13362311v-1.49391773c0-1.2344746.7071893-2.13362315 2.2210229-2.13362315 1.224779 0 1.780458.70117478 2.000952 1.40234955zm4.1678037 1.40192562v2.75086046c.0018626.03081611-.0095172.06095957-.0312702.0828302-.0217529.02187063-.0518032.03338137-.0825742.03163001h-.8371157c-.0318582.00336331-.0635978-.00734721-.0869302-.02933455-.0233323-.02198728-.0359405-.05306812-.034532-.08512566v-.44936232c-.2416614.40830101-.6828206.65601241-1.1566417.64945569-.7909855 0-1.3005342-.51083167-1.3005342-1.29552003 0-.76306806.4790774-1.21921321 1.6505315-1.3031507.2533785-.02165729.5080236-.02420806.7617838-.00763067v-.30480331c0-.41163281-.2116066-.5714532-.5781093-.5714532-.3728508 0-.4795005.15218968-.5781092.38874081-.0380892.09114423-.0685605.10640557-.1523567.08478533l-.8366925-.21196335c-.0846427-.02289205-.0914141-.06867616-.0761784-.12972159.1142675-.60197592.6847589-1.0437604 1.6890439-1.0437604 1.0563401-.00418642 1.6496851.49859067 1.6496851 1.44352328zm-1.1181293 1.44135085v-.3980672c-.2234343-.00802224-.4471552-.00037289-.6695233.02289205-.4261757.05341477-.6542876.18271239-.6542876.50871203 0 .29674872.1976406.45741696.5247843.45741696.3728509.00254352.6619055-.20348485.7990266-.59180173zm4.1394484-2.88906055c.5324021 0 .8823995.31243399 1.0419508.76306806.3119082-.45699297.6923768-.76306806 1.2247791-.76306806.7380838 0 1.1566417.58671458 1.1566417 1.46297109v2.73559907c0 .0686761-.0609427.11446021-.1371211.11446021h-.8747817c-.0761784 0-.1371211-.04578411-.1371211-.11446021v-2.5376253c0-.38153406-.1671692-.60960663-.4655345-.60960663-.3119081 0-.54002.25944318-.6542876.65539074v2.49184119c.0022486.02966199-.0080011.05891259-.0282641.08065957-.0202631.02174704-.048689.03400455-.0783857.03380064h-.9433422c-.0681373 0-.0986087-.04578411-.0986087-.11446021v-2.5376253c0-.38153406-.1692853-.60960663-.4655345-.60960663-.319526 0-.5476379.27470452-.6542876.6630214v2.48421053c.0032032.03115438-.0077413.06210133-.029809.08428843-.0220677.02218706-.0529217.03326477-.0840353.03017178h-.9251442c-.0311831.00323019-.0621592-.00778671-.0843265-.02999146-.0221674-.02220476-.0331658-.05323306-.029941-.08446875v-4.00059638c-.0002138-.02971427.0120357-.05815356.0337626-.07838555.0217268-.02023199.0509351-.03039803.0805049-.02802006h.8887478c.0295316-.00238561.0587015.00779151.0803635.02803807s.0338147.04869202.0334809.07836754v.48030895c.2526582-.3493156.617468-.67828273 1.1502935-.67828273zm8.2103361.09156817c.0228535.09877492-.0076178.17508173-.0986087.19797378l-.8066443.23612719c-.0990319.03052272-.1519335-.00763072-.1824049-.09919887-.1142676-.38153404-.3119081-.68548949-.8747817-.68548949-.6923768 0-.9132941.456993-.9132941 1.07423029v1.41761091c0 .6172373.2513886 1.07423028.9132941 1.07423028.5924985 0 .8214568-.33532603.9128709-.75416558.0228535-.09156821.0846426-.13735226.1824049-.09919888l.8062211.25901922c.0914141.03052271.1218854.09919887.0990319.19797377-.1900227.82326566-.7833676 1.49391773-2.0157645 1.49391773-1.3847536 0-2.0847482-.89914856-2.0847482-2.13362311v-1.49391773c0-1.2344746.7152303-2.13362315 2.0847482-2.13362315 1.2019255 0 1.7647991.64012933 1.9776753 1.44813364zm4.0497272 1.35614153v2.75086046c.0018626.03081611-.0095172.06095957-.0312702.0828302-.0217529.02187063-.0518032.03338137-.0825742.03163001h-.8371157c-.0318581.00336331-.0635978-.00734721-.0869301-.02933455-.0233324-.02198728-.0359406-.05306812-.0345321-.08512566v-.44936232c-.2415344.40843133-.6827759.65618894-1.1566417.64945569-.7909854 0-1.3005342-.51083167-1.3005342-1.29552003 0-.76306806.4790774-1.21921321 1.6505316-1.3031507.2533785-.02165569.5080235-.02420646.7617837-.00763067v-.30480331c0-.41163281-.2116066-.5714532-.5781092-.5714532-.3728509 0-.4795006.15218968-.5781093.38874081-.0380891.09114423-.0685605.10640557-.1523567.08478533l-.8366925-.21196335c-.0846426-.02289205-.0914141-.06867616-.0761784-.12972159.1142676-.60197592.684759-1.0437604 1.6890439-1.0437604 1.0563402-.00418642 1.6496851.49859067 1.6496851 1.44352328zm-1.1181293 1.44135085v-.3980672c-.2234343-.00802224-.4471552-.00037289-.6695233.02289205-.4261757.05341477-.6542876.18271239-.6542876.50871203 0 .29674872.1980638.45741696.5247843.45741696.3728509.00254352.6619055-.20348485.7990266-.59180173zm4.3756013-2.7216095v.815635c0 .0987749-.0380891.13692834-.1371211.13692834h-.1218854c-.6085805 0-.9657725.27428054-1.0876579.7316975v2.34685827c.0028189.02880535-.0063422.05750067-.0253241.07932255-.0189819.02182187-.0461054.03483981-.0749774.0359855h-.9573083c-.0284538-.00149001-.0550674-.01454977-.0736825-.03615722-.018615-.02160746-.0276182-.04988999-.0249262-.07830299v-4.00144422c-.0016026-.03005623.0101628-.05928071.0321326-.07981494.0219697-.02053423.0518888-.03027048.0817118-.02659067h.8671638c.0914141 0 .1142676.06062152.1142676.12166697v.56382254c.1976406-.37305552.5704914-.73890427 1.224779-.73890427.1523568 0 .1828281.02289204.1828281.12929764zm1.4947891 2.38543563v.15982034c0 .44215557.2285351.75458955.7685551.75458955.5247844 0 .6695233-.19839769.8062212-.44978624.0685606-.1144602.0990319-.12717802.2204941-.07630682l.601386.30480332c.1214621.06104543.12908.12209087.0757551.23655108-.2585832.58671458-.905253.92204061-1.7114742.92204061-1.2171611 0-1.8562131-.72406684-1.8562131-1.71478356v-.97503141c0-.960194.6009628-1.71435962 1.8485953-1.71435962 1.184997 0 1.764799.75416562 1.764799 1.69146757v.67192383c0 .11446021-.0380891.19076703-.1976405.19076703zm0-.89024614v.14498298h1.4685498v-.14498298c0-.41120888-.2285351-.73127353-.730466-.73127353-.5019308 0-.7380838.31836892-.7380838.72957785zm-35.13643-6.3360086h-5.10522088c-.08521649.00023291-.1542403.0693731-.15447286.15473325v7.43821808c-.00011221 1.27426932.50515865 2.49638637 1.4046469 3.39747057.89948826.9010843 2.11950378 1.4073148 3.3916284 1.4073148h.46553452c2.64824854-.0011704 4.79439312-2.1520718 4.79415922-4.80478537v-2.78858992c0-1.27419587-.50532045-2.49620399-1.40479652-3.39719653-.89947611-.90099254-2.1194275-1.40716488-3.39147878-1.40716488zm3.25620239 7.67307349c0 1.80889528-1.32677336 3.17478711-3.39036096 3.17478711-2.44490269 0-3.58715513-1.45194897-3.58715513-3.4456763v-2.41171906c0-1.99245554 1.14267566-3.4456763 3.58715513-3.4456763 1.97767531 0 2.87446408 1.13230824 3.23080959 2.26419256.04909276.17253817-.01227319.27088917-.14727818.32006467l-1.32677342.39382791c-.15997456.0491755-.24588685 0-.29624919-.15982037-.20906733-.67828274-.65132517-1.04625112-1.46177844-1.04625112-1.2531343 0-1.67084573.73848033-1.67084573 1.73513203v2.28920424c0 .99665171.41771143 1.73513204 1.67084573 1.73513204 1.03179379 0 1.57223705-.47988504 1.57223705-1.52613618v-.29674868h-1.3745965c-.1104586 0-.18409773-.06146941-.18409773-.19670201v-1.26754089c0-.12336263.07363913-.19712588.18409773-.19712588h2.99761916c.1227318 0 .19637089.06146935.19637089.18483204z" transform="translate(50 4.386)"/><path d="m16.0990712 4.48653481c-.008721 1.59235669-1.0639689 2.53100905-2.6250381 2.53100905-1.8139799 0-2.9477173-1.24874288-2.9477173-2.63157895 0-1.41635937 1.1511795-2.63157895 2.8692277-2.63157895.9593163 0 1.6918851.33523299 2.3895697.97217567l-.4011687.36037546c-.5930318-.55313443-1.2994375-.84646329-1.9796799-.84646329-1.2558322 0-2.3372433.92189071-2.3372433 2.12872946 0 1.15655381 1.0116426 2.17901442 2.4157328 2.17901442.9942005 0 1.8750273-.56989608 2.0232852-1.58397587h-1.6657219v-.48608783h2.2587538zm1.2471112.55313443c-.0087211.82132081.6628003 1.49178679 1.5174639 1.50854844.8633846.02514247 1.5872323-.62856185 1.6046745-1.4582635.0261631-.82970164-.6540793-1.52531009-1.517464-1.54207174-.8633846-.02514247-1.5872323.62856186-1.6046744 1.4582635zm3.0262067-1.85216226h.4883792v3.71270533h-.4883792v-.63694267c-.3750054.46094536-.9505952.72913175-1.5610692.72913175-1.1162953-.0335233-2.0058431-.93027154-1.9709588-2.0030171.0348842-1.03922226.9069899-1.8689239 1.9884009-1.89406638.6191951-.00838082 1.1947849.28494804 1.5436271.7794167zm4.7268129 3.70432451h-.4883792v-1.9024472c0-.28494804-.0261631-.51961113-.0348842-.69560845-.0261632-.43580288-.4186107-.77103587-.8721057-.75427422-.3575633 0-.6889635.15923567-.9069899.43580288-.2790738.34361381-.3226791.7794167-.3226791 1.34093195v1.57559504h-.4971003v-3.71270533h.4971003v.63694267c.3401212-.477707.767453-.72913174 1.3256006-.72913174.5930319 0 1.0116426.29332886 1.220948.89674824.3401212-.59503855.8546636-.89674824 1.4215323-.89674824.8023372 0 1.3168796.55313443 1.3168796 1.60911834v2.19577606h-.4971002v-2.02815957c0-.27656722-.0348843-.48608783-.0436053-.62018103-.0261632-.32685216-.3488423-.69560845-.8721057-.69560845-.4971003.00838083-.9331531.31009052-1.0988532.75427423-.1133737.31009051-.156979.6453235-.1395369.97217566zm7.2646405-1.86054308c.0087211-.82132082-.6715214-1.49178679-1.526185-1.50854844-.8372214-.01676165-1.5261849.62856185-1.534906 1.43312102v.0670466c0 .81293999.6802424 1.47502514 1.526185 1.47502514.8459425 0 1.5261849-.65370432 1.534906-1.46664432m-3.0262068 1.8689239h-.4971002v-5.14582635h.4971002v2.0700637c.3662844-.46094536.9418742-.73751257 1.5523482-.72913175 1.1250163.0335233 2.0058431.93027154 1.9709588 2.01139792-.0348842 1.03922226-.9069899 1.87730473-1.9884009 1.89406638-.6191951 0-1.1947849-.29332886-1.5349061-.77941669zm4.7616971-1.86054307c-.008721.82132081.6628004 1.49178679 1.517464 1.50854844.8633846.02514247 1.5872323-.62856185 1.6046744-1.4582635.0261632-.82970164-.6540792-1.52531009-1.5174639-1.54207174-.8633846-.02514247-1.5872323.62856186-1.6046745 1.4582635zm3.0262068-1.85216226h.4883792v3.71270533h-.4883792v-.63694267c-.3750054.46094536-.9505952.72913175-1.5610692.72913175-1.1162953-.0335233-2.0058431-.93027154-1.9709589-2.01139793.0348843-1.03922226.90699-1.8689239 1.988401-1.89406637.6191951-.00838083 1.1947848.28494804 1.5436271.77941669zm2.1017748.66208515c.4011686-.50284948.8808267-.76265504 1.4476954-.76265504.8459425 0 1.4302534.56151525 1.4302534 1.72644988v2.08682534h-.4971003v-2.01977874c0-.87160577-.2877949-1.3576936-1.0378058-1.3576936-.4011686 0-.7848951.18437814-1.0203636.50284948-.2877949.36037546-.3314002.72913175-.3314002 1.31578948v1.55883338h-.4971003v-3.71270533h.4971003zm-32.30875997 3.04956949c-.05822066.05822077-.11158959.10673809-.16495852.1552554l-.05336893.04366558c-.0436655.03396211-.08733099.07277596-.13099648.10673808l-.04851721.03881385c-.05822065.04366558-.11644131.08247943-.17466196.12129328l-.04851721.02911038c-.04851722.02911039-.09218271.05822078-.14555164.08733116l-.05822065.03396212c-.05822066.02911039-.11644131.0630725-.17466197.08733116l-.01455516.00970346c-.0679241.02911039-.13099647.05822078-.19892057.08733116l-.04851721.01940693c-.05336894.01940692-.11158959.03881385-.16981024.05822077-.01455517.00485173-.02911033.00970346-.0436655.01455519-.06792409.01940693-.14069991.03881385-.21347573.05822078-.00485172 0-.00970344.00485173-.01940688.00485173-.06307238.01455519-.13099648.02911038-.19406885.03881385l-.04851721.00970346c-.0679241.00970346-.1358482.01940692-.20377229.02911038h-.01455517c-.07277581.00485174-.14555163.00970347-.21832745.0145552h-.27654811c-.07277582 0-.13584819-.00485173-.20862401-.0145552l-.04851721-.00485173c-.08247926-.00970346-.1601068-.01940692-.24258606-.03396211l-.11158959-.02425866c-.06307238-.01455519-.13099647-.02911039-.19406885-.04851731l-.07277582-.01940692-.03881377-.0145552.95578908-.95093929c1.34877849.05336904 2.48893298-.99945661 2.53745019-2.34823785.01940688-.49002485-.10673787-.97034622-.36873081-1.3875951l-.60161343.60161466v1.47007452h-1.00915801v-2.0280236l1.6253266-1.63503338c.15040336.11158982.29110327.22803136.42695147.3590281 1.40214742 1.3875951 1.40214742 3.63879833.01455516 5.03124515m-5.06034521.00970346c-1.38759226-1.39244682-1.38759226-3.64365005 0-5.03124515l.00485172-.00485173c.05336893-.05336904.10673787-.10188635.1601068-.15040366l.05336893-.04366558c.04366549-.03396212.08733098-.07277597.12614475-.10673808l.04851722-.03881385c.05822065-.04366558.1164413-.08247943.17466196-.12129328l.04851721-.02911039c.04851721-.02911038.0921827-.05822077.14555164-.08733116l.05822065-.03396211c.05822066-.02911039.11644131-.06307251.17466196-.08733116l.01455517-.00970347c.0679241-.02911038.13099647-.05822077.19892057-.08733116l.04851721-.01940692c.05336893-.01940693.11158959-.03881385.16981024-.05822077l.04366549-.0145552c.0679241-.01940692.14069992-.03881385.21347573-.05822077h.01940689c.06307238-.01455519.13099647-.02911039.19406885-.03881385l.04851721-.00970346c.0679241-.00970346.13584819-.01940693.20377229-.02911039h.01455516c.07277582-.00485173.14555164-.00970346.21832746-.01455519h.27654811c.07277581 0 .13584819.00485173.20862401.01455519l.04851721.00485173c.05336893.00485173.10188614.0145552.15525508.01940693l.08733098.01455519c.03881377.00485173.07277582.01455519.11158959.02425866.06307237.01455519.13099647.02911038.19406884.04851731l.07277582.01940692.03881377.0145552-.95578907.95093929c-1.3487785-.05336904-2.48893298.99460488-2.54230191 2.34823785-.02425861.49487657.10188614.98004968.36387909 1.39244683l.60161343-.60161466v-1.47007452h1.00915801v2.0280236l-1.62532661 1.63503338c-.15040335-.11158982-.29595499-.2328831-.42695146-.36873157m2.52774674-6.90886508c-2.4258606 0-4.38595596 1.96495109-4.38595596 4.38596491s1.96494709 4.38596491 4.38595596 4.38596491c2.42100888 0 4.38596493-1.96495109 4.38596493-4.38596491.00484276-2.42101382-1.96010433-4.38596491-4.38596493-4.38596491" transform="translate(50 21.93)"/></g></g></svg>