<svg xmlns="http://www.w3.org/2000/svg" width="50" height="50" viewBox="0 0 50 50"><g fill="none" fill-rule="evenodd" transform="translate(0 7)"><path fill="#639AEB" d="M24.8553034,4.7905865 L31.6340646,5.41974095 L35.0928217,7.83801843 L35.0220622,8.23137782 L34.9608569,8.63615364 C34.4508122,12.4031016 35.7155122,15.8522577 43.8786541,18.0661551 L42.9070093,19.4824044 L41.5668481,19.9767135 L37.2559902,19.4824044 L33.0766121,17.008439 L31.7615007,14.6557741 L33.5032364,11.6201925 L22.5654079,5.36397297 L24.8553034,4.7905865 Z M19.049399,6.2468371 L19.9915814,6.00964533 L30.9918488,12.301646 L30.4439175,13.255388 L19.049399,6.2468371 Z"/><path fill="#040404" d="M32.5887185,13.2149598 L33.4986955,11.624812 L33.4985343,11.5987898 C33.6466087,15.3142052 36.782767,17.9420767 42.9070093,19.4824044 L41.5668481,19.9767135 L37.2559902,19.4824044 L33.0766121,17.008439 L31.7615466,14.6559191 L32.5887185,13.2149598 Z M26.091277,10.7745338 C26.8671666,10.8119149 27.793976,10.910815 28.7696349,11.0301059 L30.9918488,12.301646 L30.4304686,13.2788114 L26.091277,10.7745338 Z" opacity=".3"/><path fill="#FFF" fill-rule="nonzero" d="M0,16.7869899 L1.39404012,14.475759 L30.0150219,31.3579396 C33.1763363,33.2226513 36.9064024,33.866529 40.502424,33.1781378 L40.9332581,33.0891288 L41.5595168,35.7137914 C37.0922152,36.7770126 32.3858379,36.058459 28.4406643,33.7108497 L0,16.7869899 Z"/><polygon fill="#639AEB" points="15.253 8.987 16.704 7.569 29.489 14.881 29.658 15.138 28.569 17.165 21.698 21.124 23.855 23.262 22.681 24.907 14.35 19.946 22.369 15.381 16.011 11.23"/><polygon fill="#000" points="26.128 16.247 25.872 12.813 29.489 14.881 29.658 15.138 28.569 17.165 21.698 21.124 23.855 23.262 22.681 24.907 16.857 21.44" opacity=".302"/><polygon fill="#F7D09D" points="41.397 5.934 45.261 8.162 46.431 10.952 43.248 13.132 41.397 14.86 38.014 13.132 36.755 10.763 37.533 8.162"/><polygon fill="#639AEB" points="39.956 6.778 41.766 5.63 44.1 6.026 46.431 8.691 46.431 10.952 43.844 12.853"/><polygon fill="#000" points="46.437 8.678 46.431 10.952 43.872 12.836 42.533 10.784" opacity=".297"/><polygon fill="#FFF" fill-rule="nonzero" points="9.483 0 9.981 .285 30.494 12.017 30.992 12.302 30.421 13.297 29.923 13.012 9.411 1.28 8.913 .995"/><polygon fill="#FFF" fill-rule="nonzero" points="45.005 19.458 45.514 19.723 49.491 21.801 50 22.066 49.468 23.083 48.959 22.817 44.981 20.74 44.473 20.474"/><polygon fill="#282828" points="40.839 11.816 42.639 10.693 44.071 12.981 42.271 14.104"/><polygon fill="#282828" points="39.214 7.105 40.071 6.57 42.683 10.745 41.826 11.279"/></g></svg>